%TF.GenerationSoftware,KiCad,Pcbnew,8.0.7*%
%TF.CreationDate,2025-01-01T16:00:04-05:00*%
%TF.ProjectId,JPL.mp3,4a504c2e-6d70-4332-9e6b-696361645f70,rev?*%
%TF.SameCoordinates,Original*%
%TF.FileFunction,Soldermask,Top*%
%TF.FilePolarity,Negative*%
%FSLAX46Y46*%
G04 Gerber Fmt 4.6, Leading zero omitted, Abs format (unit mm)*
G04 Created by KiCad (PCBNEW 8.0.7) date 2025-01-01 16:00:04*
%MOMM*%
%LPD*%
G01*
G04 APERTURE LIST*
G04 Aperture macros list*
%AMRoundRect*
0 Rectangle with rounded corners*
0 $1 Rounding radius*
0 $2 $3 $4 $5 $6 $7 $8 $9 X,Y pos of 4 corners*
0 Add a 4 corners polygon primitive as box body*
4,1,4,$2,$3,$4,$5,$6,$7,$8,$9,$2,$3,0*
0 Add four circle primitives for the rounded corners*
1,1,$1+$1,$2,$3*
1,1,$1+$1,$4,$5*
1,1,$1+$1,$6,$7*
1,1,$1+$1,$8,$9*
0 Add four rect primitives between the rounded corners*
20,1,$1+$1,$2,$3,$4,$5,0*
20,1,$1+$1,$4,$5,$6,$7,0*
20,1,$1+$1,$6,$7,$8,$9,0*
20,1,$1+$1,$8,$9,$2,$3,0*%
G04 Aperture macros list end*
%ADD10C,2.000000*%
%ADD11C,1.600000*%
%ADD12R,2.500000X1.200000*%
%ADD13RoundRect,0.200000X-0.275000X0.200000X-0.275000X-0.200000X0.275000X-0.200000X0.275000X0.200000X0*%
%ADD14RoundRect,0.200000X0.275000X-0.200000X0.275000X0.200000X-0.275000X0.200000X-0.275000X-0.200000X0*%
%ADD15RoundRect,0.225000X0.250000X-0.225000X0.250000X0.225000X-0.250000X0.225000X-0.250000X-0.225000X0*%
%ADD16RoundRect,0.225000X-0.250000X0.225000X-0.250000X-0.225000X0.250000X-0.225000X0.250000X0.225000X0*%
%ADD17RoundRect,0.150000X-0.150000X0.587500X-0.150000X-0.587500X0.150000X-0.587500X0.150000X0.587500X0*%
%ADD18R,1.500000X0.900000*%
%ADD19R,0.900000X1.500000*%
%ADD20C,0.600000*%
%ADD21R,3.900000X3.900000*%
%ADD22RoundRect,0.150000X0.587500X0.150000X-0.587500X0.150000X-0.587500X-0.150000X0.587500X-0.150000X0*%
%ADD23R,1.100000X0.850000*%
%ADD24R,1.100000X0.750000*%
%ADD25R,1.000000X1.200000*%
%ADD26R,1.350000X1.550000*%
%ADD27R,1.350000X1.900000*%
%ADD28R,1.800000X1.170000*%
%ADD29C,0.900000*%
%ADD30RoundRect,0.187500X0.712500X-0.187500X0.712500X0.187500X-0.712500X0.187500X-0.712500X-0.187500X0*%
%ADD31RoundRect,0.150000X0.750000X-0.150000X0.750000X0.150000X-0.750000X0.150000X-0.750000X-0.150000X0*%
%ADD32RoundRect,0.225000X0.225000X-0.425000X0.225000X0.425000X-0.225000X0.425000X-0.225000X-0.425000X0*%
%ADD33RoundRect,0.250000X-0.325000X-1.100000X0.325000X-1.100000X0.325000X1.100000X-0.325000X1.100000X0*%
%ADD34RoundRect,0.112500X-0.112500X0.187500X-0.112500X-0.187500X0.112500X-0.187500X0.112500X0.187500X0*%
%ADD35R,1.700000X1.700000*%
%ADD36O,1.700000X1.700000*%
%ADD37R,1.700000X0.900000*%
%ADD38RoundRect,0.200000X-0.200000X-0.275000X0.200000X-0.275000X0.200000X0.275000X-0.200000X0.275000X0*%
%ADD39RoundRect,0.225000X0.225000X0.250000X-0.225000X0.250000X-0.225000X-0.250000X0.225000X-0.250000X0*%
%ADD40RoundRect,0.100000X-0.637500X-0.100000X0.637500X-0.100000X0.637500X0.100000X-0.637500X0.100000X0*%
%ADD41RoundRect,0.237500X-0.300000X-0.237500X0.300000X-0.237500X0.300000X0.237500X-0.300000X0.237500X0*%
%ADD42C,4.000000*%
%ADD43C,2.641600*%
%ADD44RoundRect,0.150000X0.150000X-0.825000X0.150000X0.825000X-0.150000X0.825000X-0.150000X-0.825000X0*%
%ADD45R,0.800000X1.000000*%
%ADD46R,1.500000X0.700000*%
%ADD47RoundRect,0.225000X-0.225000X-0.250000X0.225000X-0.250000X0.225000X0.250000X-0.225000X0.250000X0*%
%ADD48RoundRect,0.375000X-0.625000X-0.375000X0.625000X-0.375000X0.625000X0.375000X-0.625000X0.375000X0*%
%ADD49RoundRect,0.500000X-0.500000X-1.400000X0.500000X-1.400000X0.500000X1.400000X-0.500000X1.400000X0*%
%ADD50C,1.400000*%
%ADD51O,1.000000X1.800000*%
%ADD52O,1.000000X2.100000*%
%ADD53R,0.600000X1.240000*%
%ADD54R,0.300000X1.240000*%
%ADD55C,0.650000*%
G04 APERTURE END LIST*
D10*
%TO.C,SW4*%
X109500000Y-144000000D03*
%TD*%
%TO.C,SW5*%
X105500000Y-127000000D03*
%TD*%
%TO.C,SW3*%
X137000000Y-134500000D03*
%TD*%
%TO.C,ENCB*%
X126500000Y-137500000D03*
%TD*%
%TO.C,COMA*%
X116000000Y-136000000D03*
%TD*%
%TO.C,SW1*%
X121000000Y-129000000D03*
%TD*%
%TO.C,ENCA*%
X129000000Y-123000000D03*
%TD*%
%TO.C,SW2*%
X125000000Y-114000000D03*
%TD*%
%TO.C,COMB*%
X120000000Y-112000000D03*
%TD*%
D11*
%TO.C,J5*%
X108750000Y-53050000D03*
X108750000Y-60050000D03*
D12*
X112000000Y-57650000D03*
X112000000Y-54650000D03*
X105500000Y-62750000D03*
X112000000Y-61650000D03*
%TD*%
D13*
%TO.C,R14*%
X133750000Y-84425000D03*
X133750000Y-86075000D03*
%TD*%
%TO.C,R11*%
X119700000Y-79362500D03*
X119700000Y-81012500D03*
%TD*%
D14*
%TO.C,R17*%
X134500000Y-80850000D03*
X134500000Y-79200000D03*
%TD*%
D15*
%TO.C,C14*%
X113000000Y-103275000D03*
X113000000Y-101725000D03*
%TD*%
D16*
%TO.C,C20*%
X110887500Y-79850000D03*
X110887500Y-81400000D03*
%TD*%
D17*
%TO.C,Q2*%
X117900000Y-79500000D03*
X116000000Y-79500000D03*
X116950000Y-81375000D03*
%TD*%
D14*
%TO.C,R15*%
X130750000Y-86075000D03*
X130750000Y-84425000D03*
%TD*%
D18*
%TO.C,U1*%
X116900000Y-57700000D03*
X116900000Y-58970000D03*
X116900000Y-60240000D03*
X116900000Y-61510000D03*
X116900000Y-62780000D03*
X116900000Y-64050000D03*
X116900000Y-65320000D03*
X116900000Y-66590000D03*
X116900000Y-67860000D03*
X116900000Y-69130000D03*
X116900000Y-70400000D03*
X116900000Y-71670000D03*
X116900000Y-72940000D03*
X116900000Y-74210000D03*
D19*
X118665000Y-75460000D03*
X119935000Y-75460000D03*
X121205000Y-75460000D03*
X122475000Y-75460000D03*
X123745000Y-75460000D03*
X125015000Y-75460000D03*
X126285000Y-75460000D03*
X127555000Y-75460000D03*
X128825000Y-75460000D03*
X130095000Y-75460000D03*
X131365000Y-75460000D03*
X132635000Y-75460000D03*
D18*
X134400000Y-74210000D03*
X134400000Y-72940000D03*
X134400000Y-71670000D03*
X134400000Y-70400000D03*
X134400000Y-69130000D03*
X134400000Y-67860000D03*
X134400000Y-66590000D03*
X134400000Y-65320000D03*
X134400000Y-64050000D03*
X134400000Y-62780000D03*
X134400000Y-61510000D03*
X134400000Y-60240000D03*
X134400000Y-58970000D03*
X134400000Y-57700000D03*
D20*
X122750000Y-64720000D03*
X122750000Y-66120000D03*
X123450000Y-64020000D03*
X123450000Y-65420000D03*
X123450000Y-66820000D03*
X124150000Y-64720000D03*
D21*
X124150000Y-65420000D03*
D20*
X124150000Y-66120000D03*
X124850000Y-64020000D03*
X124850000Y-65420000D03*
X124850000Y-66820000D03*
X125550000Y-64720000D03*
X125550000Y-66120000D03*
%TD*%
D22*
%TO.C,Q1*%
X105500000Y-95400000D03*
X105500000Y-93500000D03*
X103625000Y-94450000D03*
%TD*%
D14*
%TO.C,R1*%
X119500000Y-139325000D03*
X119500000Y-137675000D03*
%TD*%
D23*
%TO.C,J1*%
X137362500Y-91395000D03*
X137362500Y-92495000D03*
X137362500Y-93595000D03*
X137362500Y-94695000D03*
X137362500Y-95795000D03*
X137362500Y-96895000D03*
X137362500Y-97995000D03*
D24*
X137362500Y-99045000D03*
D25*
X131212500Y-88760000D03*
X127512500Y-88760000D03*
D26*
X137237500Y-88935000D03*
D27*
X126537500Y-92260000D03*
X126537500Y-98230000D03*
D28*
X137012500Y-100255000D03*
%TD*%
D29*
%TO.C,SW2*%
X138250000Y-81625000D03*
X138250000Y-77375000D03*
D30*
X137350000Y-80725000D03*
X137350000Y-78275000D03*
D31*
X137350000Y-79500000D03*
D32*
X139300000Y-81350000D03*
X139300000Y-77650000D03*
%TD*%
D33*
%TO.C,C2*%
X118050000Y-107000000D03*
X121000000Y-107000000D03*
%TD*%
D34*
%TO.C,D2*%
X130750000Y-145200000D03*
X130750000Y-147300000D03*
%TD*%
D35*
%TO.C,J6*%
X102000000Y-137920000D03*
D36*
X102000000Y-140460000D03*
X102000000Y-143000000D03*
%TD*%
D37*
%TO.C,RST1*%
X126500000Y-81950000D03*
X126500000Y-78550000D03*
%TD*%
%TO.C,BOOT1*%
X130000000Y-78550000D03*
X130000000Y-81950000D03*
%TD*%
D13*
%TO.C,R3*%
X135250000Y-84425000D03*
X135250000Y-86075000D03*
%TD*%
D16*
%TO.C,C15*%
X111500000Y-71725000D03*
X111500000Y-73275000D03*
%TD*%
D14*
%TO.C,R2*%
X121000000Y-139325000D03*
X121000000Y-137675000D03*
%TD*%
D16*
%TO.C,C8*%
X113000000Y-91225000D03*
X113000000Y-92775000D03*
%TD*%
D29*
%TO.C,SW1*%
X138250000Y-75875000D03*
X138250000Y-71625000D03*
D30*
X137350000Y-74975000D03*
X137350000Y-72525000D03*
D31*
X137350000Y-73750000D03*
D32*
X139300000Y-75600000D03*
X139300000Y-71900000D03*
%TD*%
D38*
%TO.C,R13*%
X107675000Y-95500000D03*
X109325000Y-95500000D03*
%TD*%
D39*
%TO.C,C10*%
X115175000Y-51600000D03*
X113625000Y-51600000D03*
%TD*%
D40*
%TO.C,U4*%
X102525000Y-71700000D03*
X102525000Y-72350000D03*
X102525000Y-73000000D03*
X102525000Y-73650000D03*
X102525000Y-74300000D03*
X102525000Y-74950000D03*
X102525000Y-75600000D03*
X102525000Y-76250000D03*
X102525000Y-76900000D03*
X102525000Y-77550000D03*
X108250000Y-77550000D03*
X108250000Y-76900000D03*
X108250000Y-76250000D03*
X108250000Y-75600000D03*
X108250000Y-74950000D03*
X108250000Y-74300000D03*
X108250000Y-73650000D03*
X108250000Y-73000000D03*
X108250000Y-72350000D03*
X108250000Y-71700000D03*
%TD*%
D38*
%TO.C,R10*%
X107675000Y-93500000D03*
X109325000Y-93500000D03*
%TD*%
D16*
%TO.C,C23*%
X113000000Y-71725000D03*
X113000000Y-73275000D03*
%TD*%
D13*
%TO.C,R18*%
X114000000Y-64925000D03*
X114000000Y-66575000D03*
%TD*%
D41*
%TO.C,C1*%
X118637500Y-96500000D03*
X120362500Y-96500000D03*
%TD*%
D13*
%TO.C,R19*%
X112490000Y-64925000D03*
X112490000Y-66575000D03*
%TD*%
D14*
%TO.C,R7*%
X114500000Y-92825000D03*
X114500000Y-91175000D03*
%TD*%
D16*
%TO.C,C12*%
X114000000Y-67975000D03*
X114000000Y-69525000D03*
%TD*%
D42*
%TO.C,Enc1*%
X109393398Y-117393398D03*
X109393398Y-138606602D03*
D11*
X116818019Y-131181981D03*
X123181981Y-124818019D03*
D42*
X130606602Y-117393398D03*
X130606602Y-138606602D03*
D43*
X126547809Y-121452191D03*
X126547809Y-134547809D03*
X113452191Y-134547809D03*
X116747309Y-111920392D03*
X118889842Y-126889842D03*
X127749890Y-112896199D03*
X136150319Y-131606245D03*
X112250110Y-143103801D03*
X103849681Y-124393755D03*
%TD*%
D39*
%TO.C,C18*%
X106525000Y-80500000D03*
X104975000Y-80500000D03*
%TD*%
D15*
%TO.C,C21*%
X109387500Y-81400000D03*
X109387500Y-79850000D03*
%TD*%
D14*
%TO.C,R16*%
X132250000Y-86075000D03*
X132250000Y-84425000D03*
%TD*%
D44*
%TO.C,U2*%
X107095000Y-103475000D03*
X108365000Y-103475000D03*
X109635000Y-103475000D03*
X110905000Y-103475000D03*
X110905000Y-98525000D03*
X109635000Y-98525000D03*
X108365000Y-98525000D03*
X107095000Y-98525000D03*
%TD*%
D14*
%TO.C,R6*%
X114500000Y-95825000D03*
X114500000Y-94175000D03*
%TD*%
D39*
%TO.C,C19*%
X103412500Y-80500000D03*
X101862500Y-80500000D03*
%TD*%
D16*
%TO.C,C13*%
X112500000Y-67975000D03*
X112500000Y-69525000D03*
%TD*%
%TO.C,C11*%
X133000000Y-79250000D03*
X133000000Y-80800000D03*
%TD*%
D45*
%TO.C,SL2*%
X102750000Y-60000000D03*
X100540000Y-60000000D03*
D29*
X101640000Y-62150000D03*
X101640000Y-65150000D03*
D45*
X102750000Y-67300000D03*
X100540000Y-67300000D03*
D46*
X103400000Y-61400000D03*
X103400000Y-64400000D03*
X103400000Y-65900000D03*
%TD*%
D16*
%TO.C,C16*%
X113000000Y-74725000D03*
X113000000Y-76275000D03*
%TD*%
D14*
%TO.C,R12*%
X118250000Y-92075000D03*
X118250000Y-90425000D03*
%TD*%
%TO.C,R8*%
X129250000Y-86075000D03*
X129250000Y-84425000D03*
%TD*%
D39*
%TO.C,C3*%
X107025000Y-65750000D03*
X105475000Y-65750000D03*
%TD*%
D47*
%TO.C,C4*%
X108475000Y-65750000D03*
X110025000Y-65750000D03*
%TD*%
D48*
%TO.C,U5*%
X116350000Y-99000000D03*
X116350000Y-101300000D03*
D49*
X122650000Y-101300000D03*
D48*
X116350000Y-103600000D03*
%TD*%
D16*
%TO.C,C7*%
X113000000Y-98725000D03*
X113000000Y-100275000D03*
%TD*%
D50*
%TO.C,BAT*%
X133500000Y-142500000D03*
X136040000Y-142500000D03*
%TD*%
D34*
%TO.C,D1*%
X123500000Y-137200000D03*
X123500000Y-139300000D03*
%TD*%
D13*
%TO.C,R9*%
X136750000Y-84425000D03*
X136750000Y-86075000D03*
%TD*%
D14*
%TO.C,R5*%
X108500000Y-68850000D03*
X108500000Y-67200000D03*
%TD*%
D51*
%TO.C,J2*%
X124320000Y-148075000D03*
D52*
X124320000Y-143875000D03*
D51*
X115680000Y-148075000D03*
D52*
X115680000Y-143875000D03*
D53*
X116800000Y-143275000D03*
X117600000Y-143275000D03*
D54*
X118250000Y-143275000D03*
X119250000Y-143275000D03*
X120750000Y-143275000D03*
X121750000Y-143275000D03*
D53*
X122400000Y-143275000D03*
X123200000Y-143275000D03*
X123200000Y-143275000D03*
X122400000Y-143275000D03*
D54*
X121250000Y-143275000D03*
X120250000Y-143275000D03*
X119750000Y-143275000D03*
X118750000Y-143275000D03*
D53*
X117600000Y-143275000D03*
X116800000Y-143275000D03*
D55*
X122890000Y-144395000D03*
X117110000Y-144395000D03*
%TD*%
D47*
%TO.C,C17*%
X102112500Y-69625000D03*
X103662500Y-69625000D03*
%TD*%
%TO.C,C6*%
X101862500Y-82000000D03*
X103412500Y-82000000D03*
%TD*%
D14*
%TO.C,R4*%
X107000000Y-68850000D03*
X107000000Y-67200000D03*
%TD*%
D39*
%TO.C,C9*%
X115175000Y-53100000D03*
X113625000Y-53100000D03*
%TD*%
D16*
%TO.C,C5*%
X111500000Y-74725000D03*
X111500000Y-76275000D03*
%TD*%
M02*
