%TF.GenerationSoftware,KiCad,Pcbnew,8.0.7*%
%TF.CreationDate,2025-01-01T16:00:04-05:00*%
%TF.ProjectId,JPL.mp3,4a504c2e-6d70-4332-9e6b-696361645f70,rev?*%
%TF.SameCoordinates,Original*%
%TF.FileFunction,Legend,Top*%
%TF.FilePolarity,Positive*%
%FSLAX46Y46*%
G04 Gerber Fmt 4.6, Leading zero omitted, Abs format (unit mm)*
G04 Created by KiCad (PCBNEW 8.0.7) date 2025-01-01 16:00:04*
%MOMM*%
%LPD*%
G01*
G04 APERTURE LIST*
%ADD10C,0.100000*%
%ADD11C,0.200000*%
%ADD12C,0.300000*%
%ADD13C,0.120000*%
%ADD14C,0.010000*%
%ADD15C,0.150000*%
G04 APERTURE END LIST*
D10*
G36*
X135520025Y-111564621D02*
G01*
X135559161Y-111597626D01*
X135575087Y-111646713D01*
X135575845Y-111652276D01*
X135578253Y-111703857D01*
X135575026Y-111759309D01*
X135568297Y-111814504D01*
X135559895Y-111865904D01*
X135548953Y-111922219D01*
X135546515Y-111933844D01*
X135534012Y-111989040D01*
X135520984Y-112039346D01*
X135504658Y-112093259D01*
X135484656Y-112147258D01*
X135460537Y-112197236D01*
X135431239Y-112238914D01*
X135391233Y-112271329D01*
X135342323Y-112283454D01*
X135315200Y-112279328D01*
X135276451Y-112246323D01*
X135260502Y-112197236D01*
X135259743Y-112191673D01*
X135257316Y-112140130D01*
X135259975Y-112093921D01*
X135364794Y-112093921D01*
X135377250Y-112119078D01*
X135406061Y-112083736D01*
X135423168Y-112037013D01*
X135429000Y-112018053D01*
X135441974Y-111969602D01*
X135452477Y-111923928D01*
X135453469Y-111919036D01*
X135461270Y-111870683D01*
X135463348Y-111855683D01*
X135469818Y-111806692D01*
X135470520Y-111797918D01*
X135470307Y-111747829D01*
X135457606Y-111724626D01*
X135430733Y-111759338D01*
X135413886Y-111805226D01*
X135408015Y-111823338D01*
X135394591Y-111871905D01*
X135383112Y-111919776D01*
X135381867Y-111926223D01*
X135374319Y-111975464D01*
X135372565Y-111988667D01*
X135366748Y-112037745D01*
X135366274Y-112043510D01*
X135364794Y-112093921D01*
X135259975Y-112093921D01*
X135260502Y-112084762D01*
X135267177Y-112029676D01*
X135275520Y-111978392D01*
X135286392Y-111922219D01*
X135291318Y-111899103D01*
X135303991Y-111844755D01*
X135317178Y-111795319D01*
X135333678Y-111742483D01*
X135350918Y-111696721D01*
X135375052Y-111646713D01*
X135404390Y-111605035D01*
X135444184Y-111572619D01*
X135492533Y-111560495D01*
X135520025Y-111564621D01*
G37*
G36*
X132572503Y-109884621D02*
G01*
X132611639Y-109917626D01*
X132627565Y-109966713D01*
X132628323Y-109972276D01*
X132630731Y-110023857D01*
X132627504Y-110079309D01*
X132620775Y-110134504D01*
X132612373Y-110185904D01*
X132601431Y-110242219D01*
X132598993Y-110253844D01*
X132586490Y-110309040D01*
X132573462Y-110359346D01*
X132557136Y-110413259D01*
X132537134Y-110467258D01*
X132513015Y-110517236D01*
X132483717Y-110558914D01*
X132443711Y-110591329D01*
X132394801Y-110603454D01*
X132367678Y-110599328D01*
X132328929Y-110566323D01*
X132312980Y-110517236D01*
X132312221Y-110511673D01*
X132309794Y-110460130D01*
X132312453Y-110413921D01*
X132417272Y-110413921D01*
X132429728Y-110439078D01*
X132458539Y-110403736D01*
X132475646Y-110357013D01*
X132481478Y-110338053D01*
X132494452Y-110289602D01*
X132504955Y-110243928D01*
X132505947Y-110239036D01*
X132513748Y-110190683D01*
X132515826Y-110175683D01*
X132522296Y-110126692D01*
X132522998Y-110117918D01*
X132522785Y-110067829D01*
X132510084Y-110044626D01*
X132483211Y-110079338D01*
X132466364Y-110125226D01*
X132460493Y-110143338D01*
X132447069Y-110191905D01*
X132435590Y-110239776D01*
X132434345Y-110246223D01*
X132426797Y-110295464D01*
X132425043Y-110308667D01*
X132419226Y-110357745D01*
X132418752Y-110363510D01*
X132417272Y-110413921D01*
X132312453Y-110413921D01*
X132312980Y-110404762D01*
X132319655Y-110349676D01*
X132327998Y-110298392D01*
X132338870Y-110242219D01*
X132343796Y-110219103D01*
X132356469Y-110164755D01*
X132369656Y-110115319D01*
X132386156Y-110062483D01*
X132403396Y-110016721D01*
X132427530Y-109966713D01*
X132456868Y-109925035D01*
X132496662Y-109892619D01*
X132545011Y-109880495D01*
X132572503Y-109884621D01*
G37*
G36*
X137596685Y-110337718D02*
G01*
X137410084Y-110337718D01*
X137589358Y-109921284D01*
X137596685Y-110337718D01*
G37*
G36*
X136737822Y-108451149D02*
G01*
X136784193Y-108470383D01*
X136811689Y-108513126D01*
X136816665Y-108529456D01*
X136823109Y-108581565D01*
X136820482Y-108632057D01*
X136812177Y-108682875D01*
X136804323Y-108716200D01*
X136788928Y-108764957D01*
X136767449Y-108813094D01*
X136738416Y-108858241D01*
X136715771Y-108883651D01*
X136674503Y-108912691D01*
X136626309Y-108923454D01*
X136611391Y-108922446D01*
X136565985Y-108900722D01*
X136540091Y-108858974D01*
X136533738Y-108837710D01*
X136527794Y-108788957D01*
X136530153Y-108737982D01*
X136538381Y-108687027D01*
X136546030Y-108654563D01*
X136561196Y-108606963D01*
X136582564Y-108559798D01*
X136611654Y-108515324D01*
X136634678Y-108490104D01*
X136676867Y-108461282D01*
X136726448Y-108450600D01*
X136737822Y-108451149D01*
G37*
G36*
X133395580Y-108217337D02*
G01*
X133446393Y-108225846D01*
X133490475Y-108250565D01*
X133501910Y-108267944D01*
X133510686Y-108317218D01*
X133504397Y-108369511D01*
X133495347Y-108404183D01*
X133475648Y-108448938D01*
X133440893Y-108488702D01*
X133399323Y-108509538D01*
X133348362Y-108520191D01*
X133297523Y-108522896D01*
X133216678Y-108522896D01*
X133280426Y-108216127D01*
X133361270Y-108216127D01*
X133395580Y-108217337D01*
G37*
G36*
X137995914Y-112673734D02*
G01*
X131925875Y-112673734D01*
X131925875Y-112562623D01*
X133263572Y-112562623D01*
X133411584Y-112562623D01*
X133499821Y-112430000D01*
X134134787Y-112430000D01*
X134768597Y-112430000D01*
X134804256Y-112258053D01*
X134363642Y-112258053D01*
X134364969Y-112256914D01*
X134404919Y-112227522D01*
X134417190Y-112219646D01*
X134457676Y-112191618D01*
X134473364Y-112179979D01*
X134509620Y-112151196D01*
X135060589Y-112151196D01*
X135063425Y-112209278D01*
X135071628Y-112260943D01*
X135088555Y-112314473D01*
X135095857Y-112330355D01*
X135122963Y-112371854D01*
X135164440Y-112408615D01*
X135208438Y-112430133D01*
X135260232Y-112442429D01*
X135309351Y-112445631D01*
X135329743Y-112445120D01*
X135388329Y-112437453D01*
X135412498Y-112430000D01*
X135819085Y-112430000D01*
X136452896Y-112430000D01*
X136458265Y-112404110D01*
X136685170Y-112404110D01*
X136700634Y-112408888D01*
X136747941Y-112421939D01*
X136764076Y-112425786D01*
X136812665Y-112435129D01*
X136826485Y-112437339D01*
X136876413Y-112442944D01*
X136888382Y-112443857D01*
X136937473Y-112445631D01*
X136980987Y-112444192D01*
X137032738Y-112438347D01*
X137081556Y-112428006D01*
X137136264Y-112409662D01*
X137186748Y-112384844D01*
X137233007Y-112353551D01*
X137254338Y-112335692D01*
X137292543Y-112296405D01*
X137324806Y-112252361D01*
X137351127Y-112203560D01*
X137371506Y-112150003D01*
X137383949Y-112101737D01*
X137390990Y-112058952D01*
X137393719Y-112009860D01*
X137389323Y-111960321D01*
X137386212Y-111944796D01*
X137369616Y-111895028D01*
X137344138Y-111852365D01*
X137335055Y-111841168D01*
X137297735Y-111807388D01*
X137251814Y-111782023D01*
X137226155Y-111772602D01*
X137175030Y-111761244D01*
X137123831Y-111757843D01*
X137093056Y-111757843D01*
X137063991Y-111760041D01*
X137032240Y-111767857D01*
X137009281Y-111775429D01*
X137048848Y-111585896D01*
X137431332Y-111585896D01*
X137466992Y-111413949D01*
X136924528Y-111413949D01*
X136807048Y-111979127D01*
X136818703Y-111973511D01*
X136863956Y-111954214D01*
X136877433Y-111949094D01*
X136924040Y-111934431D01*
X136931104Y-111932603D01*
X136979483Y-111923440D01*
X136981174Y-111923229D01*
X137030041Y-111920020D01*
X137074173Y-111922982D01*
X137124236Y-111936725D01*
X137167550Y-111967404D01*
X137188301Y-112001097D01*
X137197460Y-112052296D01*
X137191974Y-112103935D01*
X137176323Y-112153304D01*
X137148693Y-112199289D01*
X137110153Y-112236559D01*
X137089476Y-112250069D01*
X137041753Y-112270219D01*
X136991543Y-112280523D01*
X136941137Y-112283454D01*
X136926223Y-112283229D01*
X136875707Y-112278894D01*
X136827808Y-112269043D01*
X136820607Y-112267063D01*
X136773831Y-112251702D01*
X136765998Y-112248518D01*
X136722051Y-112226789D01*
X136685170Y-112404110D01*
X136458265Y-112404110D01*
X136488555Y-112258053D01*
X136047941Y-112258053D01*
X136049268Y-112256914D01*
X136089218Y-112227522D01*
X136101488Y-112219646D01*
X136141974Y-112191618D01*
X136157662Y-112179979D01*
X136196611Y-112149058D01*
X136234298Y-112117613D01*
X136269838Y-112087634D01*
X136307373Y-112055828D01*
X136349416Y-112019948D01*
X136387927Y-111986699D01*
X136397966Y-111977880D01*
X136436409Y-111943285D01*
X136472435Y-111908785D01*
X136504702Y-111873351D01*
X136536449Y-111833271D01*
X136564270Y-111792037D01*
X136571781Y-111778512D01*
X136593259Y-111730694D01*
X136607257Y-111682128D01*
X136611157Y-111660476D01*
X136614933Y-111608703D01*
X136608722Y-111560251D01*
X136589977Y-111512868D01*
X136560118Y-111473300D01*
X136549971Y-111463916D01*
X136509465Y-111436180D01*
X136461200Y-111416392D01*
X136430685Y-111408484D01*
X136381764Y-111400859D01*
X136329064Y-111398318D01*
X136291979Y-111399438D01*
X136240848Y-111404419D01*
X136192288Y-111412484D01*
X136173193Y-111416624D01*
X136124633Y-111429092D01*
X136090145Y-111439264D01*
X136043056Y-111455226D01*
X136002267Y-111650865D01*
X136035200Y-111633417D01*
X136081158Y-111611542D01*
X136106868Y-111600701D01*
X136154187Y-111583210D01*
X136175031Y-111576666D01*
X136226435Y-111564843D01*
X136277285Y-111560495D01*
X136290713Y-111560821D01*
X136340666Y-111569776D01*
X136383775Y-111597620D01*
X136387745Y-111602368D01*
X136406383Y-111648118D01*
X136403558Y-111699469D01*
X136387165Y-111748119D01*
X136362281Y-111790816D01*
X136354807Y-111801669D01*
X136322958Y-111839665D01*
X136304606Y-111858338D01*
X136268981Y-111892665D01*
X136250911Y-111908998D01*
X136213049Y-111943224D01*
X136202954Y-111952313D01*
X136166013Y-111985165D01*
X136129274Y-112017473D01*
X136100300Y-112042951D01*
X136062086Y-112076759D01*
X136023121Y-112111384D01*
X135985170Y-112145212D01*
X135874773Y-112242421D01*
X135849371Y-112284187D01*
X135819085Y-112430000D01*
X135412498Y-112430000D01*
X135443029Y-112420585D01*
X135493845Y-112394517D01*
X135540774Y-112359248D01*
X135583818Y-112314778D01*
X135622977Y-112261108D01*
X135658250Y-112198237D01*
X135679607Y-112151212D01*
X135699237Y-112100097D01*
X135717141Y-112044893D01*
X135733317Y-111985601D01*
X135747766Y-111922219D01*
X135759727Y-111858582D01*
X135768252Y-111799074D01*
X135773343Y-111743696D01*
X135775000Y-111692447D01*
X135772240Y-111634193D01*
X135764114Y-111582390D01*
X135747278Y-111528743D01*
X135739946Y-111512950D01*
X135712763Y-111471682D01*
X135671218Y-111435127D01*
X135627180Y-111413729D01*
X135575362Y-111401502D01*
X135526238Y-111398318D01*
X135485835Y-111400356D01*
X135428508Y-111411055D01*
X135375113Y-111430924D01*
X135325651Y-111459964D01*
X135287437Y-111491170D01*
X135251953Y-111528743D01*
X135225396Y-111563475D01*
X135194614Y-111612697D01*
X135171920Y-111656720D01*
X135150944Y-111704872D01*
X135131685Y-111757154D01*
X135114143Y-111813564D01*
X135098319Y-111874104D01*
X135087578Y-111922219D01*
X135075679Y-111985623D01*
X135067214Y-112044920D01*
X135062184Y-112100111D01*
X135060935Y-112140130D01*
X135060589Y-112151196D01*
X134509620Y-112151196D01*
X134512313Y-112149058D01*
X134550000Y-112117613D01*
X134585540Y-112087634D01*
X134623075Y-112055828D01*
X134665117Y-112019948D01*
X134703628Y-111986699D01*
X134713668Y-111977880D01*
X134752110Y-111943285D01*
X134788136Y-111908785D01*
X134820403Y-111873351D01*
X134852150Y-111833271D01*
X134879972Y-111792037D01*
X134887482Y-111778512D01*
X134908960Y-111730694D01*
X134922958Y-111682128D01*
X134926858Y-111660476D01*
X134930635Y-111608703D01*
X134924424Y-111560251D01*
X134905678Y-111512868D01*
X134875819Y-111473300D01*
X134865672Y-111463916D01*
X134825167Y-111436180D01*
X134776901Y-111416392D01*
X134746386Y-111408484D01*
X134697465Y-111400859D01*
X134644766Y-111398318D01*
X134607680Y-111399438D01*
X134556549Y-111404419D01*
X134507990Y-111412484D01*
X134488894Y-111416624D01*
X134440334Y-111429092D01*
X134405847Y-111439264D01*
X134358757Y-111455226D01*
X134317969Y-111650865D01*
X134350902Y-111633417D01*
X134396859Y-111611542D01*
X134422569Y-111600701D01*
X134469888Y-111583210D01*
X134490732Y-111576666D01*
X134542136Y-111564843D01*
X134592986Y-111560495D01*
X134606414Y-111560821D01*
X134656367Y-111569776D01*
X134699476Y-111597620D01*
X134703446Y-111602368D01*
X134722085Y-111648118D01*
X134719260Y-111699469D01*
X134702866Y-111748119D01*
X134677983Y-111790816D01*
X134670508Y-111801669D01*
X134638660Y-111839665D01*
X134620307Y-111858338D01*
X134584682Y-111892665D01*
X134566613Y-111908998D01*
X134528750Y-111943224D01*
X134518655Y-111952313D01*
X134481715Y-111985165D01*
X134444975Y-112017473D01*
X134416002Y-112042951D01*
X134377787Y-112076759D01*
X134338822Y-112111384D01*
X134300872Y-112145212D01*
X134190474Y-112242421D01*
X134165073Y-112284187D01*
X134134787Y-112430000D01*
X133499821Y-112430000D01*
X134175819Y-111413949D01*
X134028053Y-111413949D01*
X133263572Y-112562623D01*
X131925875Y-112562623D01*
X131925875Y-112430000D01*
X132499092Y-112430000D01*
X133132658Y-112430000D01*
X133168318Y-112258053D01*
X132947522Y-112258053D01*
X133123133Y-111413949D01*
X132932379Y-111413949D01*
X132630251Y-111691165D01*
X132703035Y-111790572D01*
X132887194Y-111624975D01*
X132755547Y-112258053D01*
X132534752Y-112258053D01*
X132499092Y-112430000D01*
X131925875Y-112430000D01*
X131925875Y-110471196D01*
X132113067Y-110471196D01*
X132115903Y-110529278D01*
X132124106Y-110580943D01*
X132141033Y-110634473D01*
X132148335Y-110650355D01*
X132175441Y-110691854D01*
X132216918Y-110728615D01*
X132260916Y-110750133D01*
X132312710Y-110762429D01*
X132361829Y-110765631D01*
X132382221Y-110765120D01*
X132440807Y-110757453D01*
X132495507Y-110740585D01*
X132546322Y-110714517D01*
X132585898Y-110684775D01*
X133106326Y-110684775D01*
X133125087Y-110730216D01*
X133156350Y-110756350D01*
X133200803Y-110765631D01*
X133248857Y-110756777D01*
X133260090Y-110750000D01*
X133762317Y-110750000D01*
X134395883Y-110750000D01*
X134409410Y-110684775D01*
X134790624Y-110684775D01*
X134809386Y-110730216D01*
X134840649Y-110756350D01*
X134885101Y-110765631D01*
X134933156Y-110756777D01*
X134977181Y-110730216D01*
X134979732Y-110728029D01*
X134987540Y-110718492D01*
X135411200Y-110718492D01*
X135429688Y-110725072D01*
X135477635Y-110739253D01*
X135494533Y-110743344D01*
X135544313Y-110753419D01*
X135566590Y-110757159D01*
X135616609Y-110762700D01*
X135639516Y-110764246D01*
X135688905Y-110765631D01*
X135732792Y-110764398D01*
X135784517Y-110759391D01*
X135832760Y-110750531D01*
X135886054Y-110734814D01*
X135934334Y-110713551D01*
X135977600Y-110686741D01*
X135980178Y-110684775D01*
X136474923Y-110684775D01*
X136493685Y-110730216D01*
X136524948Y-110756350D01*
X136569400Y-110765631D01*
X136617455Y-110756777D01*
X136628688Y-110750000D01*
X137027355Y-110750000D01*
X137224704Y-110750000D01*
X137336811Y-110499895D01*
X137600838Y-110499895D01*
X137610607Y-110750000D01*
X137807956Y-110750000D01*
X137749581Y-109733949D01*
X137508025Y-109733949D01*
X137222396Y-110337718D01*
X137027355Y-110750000D01*
X136628688Y-110750000D01*
X136661480Y-110730216D01*
X136664030Y-110728029D01*
X136696927Y-110687851D01*
X136714236Y-110641311D01*
X136717061Y-110596105D01*
X136698849Y-110550209D01*
X136671019Y-110526500D01*
X136621912Y-110515526D01*
X136574529Y-110524197D01*
X136531054Y-110550209D01*
X136525892Y-110554715D01*
X136494844Y-110593559D01*
X136477320Y-110641311D01*
X136474923Y-110684775D01*
X135980178Y-110684775D01*
X135990881Y-110676611D01*
X136027074Y-110643006D01*
X136057789Y-110604575D01*
X136083025Y-110561318D01*
X136102783Y-110513236D01*
X136117062Y-110460327D01*
X136122862Y-110425676D01*
X136125468Y-110374995D01*
X136118584Y-110324986D01*
X136098744Y-110278122D01*
X136084125Y-110258020D01*
X136045943Y-110224971D01*
X136001383Y-110203384D01*
X135953664Y-110190683D01*
X135977535Y-110185799D01*
X136027198Y-110170343D01*
X136071258Y-110148704D01*
X136113643Y-110117411D01*
X136138768Y-110092233D01*
X136166644Y-110051953D01*
X136180588Y-110021892D01*
X136194732Y-109974040D01*
X136200505Y-109930981D01*
X136197383Y-109879232D01*
X136179091Y-109828751D01*
X136145150Y-109786461D01*
X136120282Y-109766830D01*
X136071663Y-109742341D01*
X136020205Y-109727900D01*
X135969475Y-109720713D01*
X135912631Y-109718318D01*
X135885376Y-109718832D01*
X135833023Y-109722516D01*
X135782694Y-109729064D01*
X135739298Y-109737169D01*
X135690405Y-109748233D01*
X135640300Y-109761549D01*
X135603908Y-109937404D01*
X135629484Y-109928207D01*
X135677669Y-109912735D01*
X135697754Y-109906999D01*
X135745569Y-109895150D01*
X135760103Y-109891941D01*
X135810293Y-109883914D01*
X135818029Y-109883113D01*
X135867690Y-109880495D01*
X135881682Y-109880765D01*
X135933331Y-109888189D01*
X135976867Y-109911270D01*
X135999276Y-109948211D01*
X135999093Y-109997487D01*
X135979126Y-110044809D01*
X135941696Y-110079797D01*
X135919834Y-110091217D01*
X135872659Y-110104985D01*
X135821528Y-110109106D01*
X135715771Y-110109106D01*
X135679868Y-110281053D01*
X135785625Y-110281053D01*
X135811790Y-110282222D01*
X135860119Y-110293021D01*
X135869420Y-110296982D01*
X135908723Y-110325994D01*
X135923973Y-110351136D01*
X135934624Y-110400261D01*
X135929972Y-110449825D01*
X135919836Y-110484416D01*
X135895473Y-110528632D01*
X135860119Y-110563642D01*
X135841085Y-110575649D01*
X135794173Y-110594173D01*
X135763157Y-110600182D01*
X135713329Y-110603454D01*
X135695612Y-110603106D01*
X135646651Y-110599057D01*
X135624187Y-110595833D01*
X135574599Y-110585380D01*
X135540771Y-110575839D01*
X135493236Y-110557349D01*
X135449547Y-110533845D01*
X135411200Y-110718492D01*
X134987540Y-110718492D01*
X135012628Y-110687851D01*
X135029937Y-110641311D01*
X135032762Y-110596105D01*
X135014550Y-110550209D01*
X134986721Y-110526500D01*
X134937614Y-110515526D01*
X134890230Y-110524197D01*
X134846755Y-110550209D01*
X134841594Y-110554715D01*
X134810546Y-110593559D01*
X134793022Y-110641311D01*
X134790624Y-110684775D01*
X134409410Y-110684775D01*
X134431542Y-110578053D01*
X134210747Y-110578053D01*
X134386357Y-109733949D01*
X134195604Y-109733949D01*
X133893475Y-110011165D01*
X133966260Y-110110572D01*
X134150419Y-109944975D01*
X134018772Y-110578053D01*
X133797976Y-110578053D01*
X133762317Y-110750000D01*
X133260090Y-110750000D01*
X133292882Y-110730216D01*
X133295433Y-110728029D01*
X133328329Y-110687851D01*
X133345639Y-110641311D01*
X133348464Y-110596105D01*
X133330251Y-110550209D01*
X133302422Y-110526500D01*
X133253315Y-110515526D01*
X133205932Y-110524197D01*
X133162457Y-110550209D01*
X133157295Y-110554715D01*
X133126247Y-110593559D01*
X133108723Y-110641311D01*
X133106326Y-110684775D01*
X132585898Y-110684775D01*
X132593252Y-110679248D01*
X132636296Y-110634778D01*
X132675455Y-110581108D01*
X132710728Y-110518237D01*
X132732085Y-110471212D01*
X132751715Y-110420097D01*
X132769619Y-110364893D01*
X132785795Y-110305601D01*
X132800244Y-110242219D01*
X132812205Y-110178582D01*
X132820730Y-110119074D01*
X132825821Y-110063696D01*
X132827478Y-110012447D01*
X132824718Y-109954193D01*
X132816592Y-109902390D01*
X132799756Y-109848743D01*
X132792424Y-109832950D01*
X132765241Y-109791682D01*
X132723696Y-109755127D01*
X132679658Y-109733729D01*
X132627840Y-109721502D01*
X132578716Y-109718318D01*
X132538313Y-109720356D01*
X132480986Y-109731055D01*
X132427591Y-109750924D01*
X132378129Y-109779964D01*
X132339915Y-109811170D01*
X132304431Y-109848743D01*
X132277874Y-109883475D01*
X132247092Y-109932697D01*
X132224398Y-109976720D01*
X132203422Y-110024872D01*
X132184163Y-110077154D01*
X132166621Y-110133564D01*
X132150797Y-110194104D01*
X132140056Y-110242219D01*
X132128157Y-110305623D01*
X132119692Y-110364920D01*
X132114662Y-110420111D01*
X132113413Y-110460130D01*
X132113067Y-110471196D01*
X131925875Y-110471196D01*
X131925875Y-109351367D01*
X136204990Y-109351367D01*
X136400140Y-109351367D01*
X136481228Y-108962288D01*
X136486979Y-108977224D01*
X136512559Y-109021912D01*
X136552184Y-109058529D01*
X136602891Y-109079729D01*
X136656350Y-109085631D01*
X136694584Y-109083061D01*
X136745526Y-109070828D01*
X136793453Y-109048520D01*
X136807361Y-109038492D01*
X137095499Y-109038492D01*
X137113986Y-109045072D01*
X137161933Y-109059253D01*
X137178832Y-109063344D01*
X137228611Y-109073419D01*
X137250889Y-109077159D01*
X137300907Y-109082700D01*
X137323815Y-109084246D01*
X137373203Y-109085631D01*
X137417091Y-109084398D01*
X137468816Y-109079391D01*
X137517058Y-109070531D01*
X137570353Y-109054814D01*
X137618633Y-109033551D01*
X137661898Y-109006741D01*
X137675180Y-108996611D01*
X137711373Y-108963006D01*
X137742087Y-108924575D01*
X137767323Y-108881318D01*
X137787081Y-108833236D01*
X137801361Y-108780327D01*
X137807161Y-108745676D01*
X137809767Y-108694995D01*
X137802883Y-108644986D01*
X137783043Y-108598122D01*
X137768424Y-108578020D01*
X137730242Y-108544971D01*
X137685681Y-108523384D01*
X137637962Y-108510683D01*
X137661833Y-108505799D01*
X137711497Y-108490343D01*
X137755557Y-108468704D01*
X137797942Y-108437411D01*
X137823067Y-108412233D01*
X137850942Y-108371953D01*
X137864886Y-108341892D01*
X137879030Y-108294040D01*
X137884803Y-108250981D01*
X137881682Y-108199232D01*
X137863390Y-108148751D01*
X137829449Y-108106461D01*
X137804581Y-108086830D01*
X137755961Y-108062341D01*
X137704503Y-108047900D01*
X137653773Y-108040713D01*
X137596930Y-108038318D01*
X137569675Y-108038832D01*
X137517322Y-108042516D01*
X137466993Y-108049064D01*
X137423596Y-108057169D01*
X137374704Y-108068233D01*
X137324599Y-108081549D01*
X137288207Y-108257404D01*
X137313783Y-108248207D01*
X137361968Y-108232735D01*
X137382052Y-108226999D01*
X137429868Y-108215150D01*
X137444402Y-108211941D01*
X137494592Y-108203914D01*
X137502328Y-108203113D01*
X137551989Y-108200495D01*
X137565980Y-108200765D01*
X137617629Y-108208189D01*
X137661166Y-108231270D01*
X137683575Y-108268211D01*
X137683392Y-108317487D01*
X137663425Y-108364809D01*
X137625995Y-108399797D01*
X137604132Y-108411217D01*
X137556958Y-108424985D01*
X137505827Y-108429106D01*
X137400070Y-108429106D01*
X137364166Y-108601053D01*
X137469923Y-108601053D01*
X137496089Y-108602222D01*
X137544417Y-108613021D01*
X137553719Y-108616982D01*
X137593022Y-108645994D01*
X137608272Y-108671136D01*
X137618923Y-108720261D01*
X137614271Y-108769825D01*
X137604135Y-108804416D01*
X137579772Y-108848632D01*
X137544417Y-108883642D01*
X137525384Y-108895649D01*
X137478472Y-108914173D01*
X137447455Y-108920182D01*
X137397628Y-108923454D01*
X137379911Y-108923106D01*
X137330949Y-108919057D01*
X137308486Y-108915833D01*
X137258898Y-108905380D01*
X137225070Y-108895839D01*
X137177534Y-108877349D01*
X137133845Y-108853845D01*
X137095499Y-109038492D01*
X136807361Y-109038492D01*
X136838364Y-109016137D01*
X136874459Y-108980362D01*
X136907615Y-108937927D01*
X136936924Y-108889756D01*
X136958410Y-108845232D01*
X136977225Y-108796724D01*
X136993367Y-108744233D01*
X137006839Y-108687759D01*
X137013387Y-108653393D01*
X137020837Y-108599282D01*
X137023958Y-108549132D01*
X137021989Y-108494177D01*
X137013786Y-108444924D01*
X136996337Y-108394668D01*
X136993163Y-108388131D01*
X136962381Y-108343309D01*
X136922012Y-108311767D01*
X136872057Y-108293506D01*
X136820482Y-108288422D01*
X136811949Y-108288551D01*
X136762719Y-108294734D01*
X136709538Y-108313667D01*
X136667601Y-108339942D01*
X136629030Y-108375491D01*
X136593824Y-108420314D01*
X136598709Y-108304054D01*
X136422854Y-108304054D01*
X136321984Y-108788957D01*
X136204990Y-109351367D01*
X131925875Y-109351367D01*
X131925875Y-109013335D01*
X132036986Y-109013335D01*
X132069302Y-109030356D01*
X132117605Y-109051479D01*
X132165702Y-109067313D01*
X132179938Y-109071140D01*
X132229449Y-109080990D01*
X132249752Y-109083438D01*
X132299791Y-109085631D01*
X132349054Y-109083723D01*
X132400324Y-109077216D01*
X132431598Y-109070000D01*
X132905757Y-109070000D01*
X133102861Y-109070000D01*
X133787230Y-109070000D01*
X134406385Y-109070000D01*
X134419912Y-109004775D01*
X134790624Y-109004775D01*
X134809386Y-109050216D01*
X134840649Y-109076350D01*
X134885101Y-109085631D01*
X134933156Y-109076777D01*
X134944389Y-109070000D01*
X135376029Y-109070000D01*
X135536253Y-109070000D01*
X135636881Y-108585666D01*
X135641415Y-108564863D01*
X135654040Y-108517298D01*
X135674006Y-108471605D01*
X135679971Y-108463865D01*
X135725785Y-108444738D01*
X135765841Y-108473803D01*
X135767498Y-108487559D01*
X135764504Y-108536524D01*
X135755827Y-108585666D01*
X135655199Y-109070000D01*
X135813957Y-109070000D01*
X135914585Y-108585666D01*
X135917821Y-108570815D01*
X135931365Y-108520296D01*
X135952198Y-108473070D01*
X135958275Y-108464908D01*
X136003245Y-108444738D01*
X136044034Y-108473803D01*
X136045516Y-108484326D01*
X136042486Y-108535312D01*
X136033531Y-108585666D01*
X135932903Y-109070000D01*
X136093371Y-109070000D01*
X136182764Y-108640132D01*
X136185507Y-108626767D01*
X136195162Y-108576197D01*
X136204268Y-108519489D01*
X136210852Y-108460980D01*
X136212541Y-108405872D01*
X136205234Y-108355833D01*
X136183920Y-108320285D01*
X136139956Y-108295005D01*
X136087997Y-108288422D01*
X136046118Y-108293121D01*
X135997322Y-108312969D01*
X135958717Y-108343652D01*
X135924599Y-108386608D01*
X135921125Y-108359870D01*
X135893336Y-108316999D01*
X135862728Y-108297464D01*
X135814445Y-108288422D01*
X135773186Y-108294326D01*
X135727983Y-108315289D01*
X135725403Y-108316988D01*
X135688072Y-108349625D01*
X135659840Y-108389539D01*
X135658130Y-108304054D01*
X135535276Y-108304054D01*
X135376029Y-109070000D01*
X134944389Y-109070000D01*
X134977181Y-109050216D01*
X134979732Y-109048029D01*
X135012628Y-109007851D01*
X135029937Y-108961311D01*
X135032762Y-108916105D01*
X135014550Y-108870209D01*
X134986721Y-108846500D01*
X134937614Y-108835526D01*
X134890230Y-108844197D01*
X134846755Y-108870209D01*
X134841594Y-108874715D01*
X134810546Y-108913559D01*
X134793022Y-108961311D01*
X134790624Y-109004775D01*
X134419912Y-109004775D01*
X134442045Y-108898053D01*
X134019993Y-108898053D01*
X134195604Y-108053949D01*
X133998500Y-108053949D01*
X133787230Y-109070000D01*
X133102861Y-109070000D01*
X133182973Y-108685073D01*
X133256490Y-108685073D01*
X133269262Y-108685000D01*
X133318424Y-108683260D01*
X133375539Y-108677822D01*
X133427837Y-108668758D01*
X133475316Y-108656069D01*
X133525932Y-108636056D01*
X133569609Y-108610823D01*
X133582522Y-108601236D01*
X133623358Y-108561913D01*
X133652964Y-108521064D01*
X133677591Y-108473620D01*
X133697237Y-108419581D01*
X133709805Y-108369511D01*
X133716823Y-108329089D01*
X133720925Y-108273951D01*
X133715964Y-108217958D01*
X133700508Y-108170942D01*
X133669993Y-108128199D01*
X133642943Y-108106809D01*
X133594453Y-108082953D01*
X133543031Y-108068161D01*
X133493226Y-108059823D01*
X133437100Y-108055109D01*
X133387648Y-108053949D01*
X133117027Y-108053949D01*
X133019518Y-108522896D01*
X132905757Y-109070000D01*
X132431598Y-109070000D01*
X132448535Y-109066092D01*
X132477247Y-109056443D01*
X132521846Y-109035280D01*
X132563573Y-109005764D01*
X132585872Y-108984266D01*
X132616157Y-108945824D01*
X132642647Y-108899945D01*
X132665341Y-108846631D01*
X132681354Y-108796522D01*
X132694732Y-108741249D01*
X132837614Y-108053949D01*
X132398953Y-108053949D01*
X132363294Y-108225896D01*
X132604850Y-108225896D01*
X132499093Y-108734166D01*
X132488514Y-108774115D01*
X132468535Y-108819523D01*
X132436811Y-108858974D01*
X132412662Y-108876071D01*
X132364693Y-108893435D01*
X132315667Y-108898053D01*
X132290508Y-108896971D01*
X132238707Y-108887203D01*
X132190614Y-108867278D01*
X132176036Y-108859157D01*
X132134683Y-108829665D01*
X132118707Y-108815010D01*
X132086078Y-108777397D01*
X132036986Y-109013335D01*
X131925875Y-109013335D01*
X131925875Y-107927207D01*
X137995914Y-107927207D01*
X137995914Y-112673734D01*
G37*
D11*
G36*
X103978925Y-143430631D02*
G01*
X103919595Y-143427316D01*
X103864641Y-143417369D01*
X103814064Y-143400792D01*
X103767865Y-143377585D01*
X103726042Y-143347746D01*
X103688595Y-143311276D01*
X103674842Y-143294832D01*
X103645004Y-143251197D01*
X103621942Y-143206746D01*
X103602474Y-143157388D01*
X103594975Y-143133876D01*
X103582580Y-143083638D01*
X103573726Y-143028913D01*
X103568884Y-142977346D01*
X103566754Y-142922344D01*
X103566643Y-142905997D01*
X103568353Y-142844154D01*
X103573482Y-142786120D01*
X103582030Y-142731894D01*
X103593998Y-142681477D01*
X103609385Y-142634869D01*
X103633428Y-142581964D01*
X103662814Y-142535011D01*
X103676064Y-142517896D01*
X103712512Y-142479126D01*
X103753468Y-142446927D01*
X103798932Y-142421299D01*
X103848904Y-142402243D01*
X103903384Y-142389757D01*
X103962372Y-142383843D01*
X103987229Y-142383318D01*
X104039089Y-142386301D01*
X104089095Y-142395249D01*
X104111549Y-142401392D01*
X104158916Y-142419134D01*
X104203380Y-142442197D01*
X104222923Y-142454637D01*
X104222923Y-142678852D01*
X104189481Y-142642261D01*
X104149299Y-142610993D01*
X104125959Y-142597763D01*
X104080046Y-142580368D01*
X104030022Y-142571841D01*
X104005547Y-142570896D01*
X103951463Y-142576086D01*
X103904736Y-142591657D01*
X103860963Y-142621581D01*
X103833356Y-142653939D01*
X103808565Y-142701383D01*
X103792684Y-142751412D01*
X103783387Y-142800619D01*
X103778075Y-142855665D01*
X103776692Y-142905997D01*
X103778027Y-142955428D01*
X103783157Y-143009833D01*
X103792132Y-143058880D01*
X103807466Y-143109330D01*
X103831402Y-143158056D01*
X103862701Y-143196155D01*
X103896615Y-143221071D01*
X103942945Y-143238223D01*
X103991381Y-143243053D01*
X104019225Y-143241831D01*
X104045359Y-143236946D01*
X104067829Y-143229863D01*
X104082972Y-143220338D01*
X104082972Y-143030073D01*
X103944731Y-143030073D01*
X103944731Y-142867896D01*
X104259316Y-142867896D01*
X104259316Y-143326828D01*
X104217966Y-143359089D01*
X104173846Y-143385347D01*
X104131332Y-143404009D01*
X104084114Y-143418479D01*
X104058792Y-143423792D01*
X104007757Y-143429823D01*
X103978925Y-143430631D01*
G37*
G36*
X104410258Y-142398949D02*
G01*
X104626901Y-142398949D01*
X104911444Y-143141203D01*
X104911444Y-142398949D01*
X105089009Y-142398949D01*
X105089009Y-143415000D01*
X104873831Y-143415000D01*
X104588066Y-142686912D01*
X104588066Y-143415000D01*
X104410258Y-143415000D01*
X104410258Y-142398949D01*
G37*
G36*
X105541274Y-142400800D02*
G01*
X105597354Y-142406353D01*
X105649015Y-142415607D01*
X105696257Y-142428564D01*
X105749095Y-142449965D01*
X105795028Y-142477150D01*
X105834055Y-142510119D01*
X105841032Y-142517407D01*
X105872216Y-142557612D01*
X105898296Y-142605258D01*
X105917403Y-142654503D01*
X105922854Y-142672257D01*
X105935142Y-142722998D01*
X105943014Y-142771705D01*
X105948199Y-142824432D01*
X105950695Y-142881179D01*
X105950942Y-142906730D01*
X105949976Y-142955798D01*
X105945682Y-143017154D01*
X105937954Y-143073863D01*
X105926792Y-143125923D01*
X105912194Y-143173334D01*
X105889118Y-143226062D01*
X105860674Y-143271528D01*
X105841032Y-143295321D01*
X105803193Y-143329798D01*
X105758519Y-143358432D01*
X105707012Y-143381223D01*
X105648672Y-143398170D01*
X105597079Y-143407520D01*
X105541114Y-143413130D01*
X105480774Y-143415000D01*
X105264619Y-143415000D01*
X105264619Y-143227421D01*
X105466364Y-143227421D01*
X105521074Y-143227421D01*
X105569841Y-143223915D01*
X105617560Y-143211321D01*
X105661025Y-143186205D01*
X105690579Y-143154148D01*
X105715018Y-143104796D01*
X105728497Y-143055352D01*
X105736200Y-143005269D01*
X105740347Y-142948076D01*
X105741137Y-142905997D01*
X105739903Y-142854251D01*
X105735163Y-142798609D01*
X105726868Y-142750009D01*
X105712698Y-142702207D01*
X105690579Y-142659312D01*
X105652616Y-142620930D01*
X105606785Y-142598540D01*
X105556768Y-142588305D01*
X105521074Y-142586528D01*
X105466364Y-142586528D01*
X105466364Y-143227421D01*
X105264619Y-143227421D01*
X105264619Y-142398949D01*
X105480774Y-142398949D01*
X105541274Y-142400800D01*
G37*
G36*
X104348902Y-137400637D02*
G01*
X104402299Y-137405699D01*
X104459229Y-137416229D01*
X104508362Y-137431620D01*
X104555829Y-137455717D01*
X104572924Y-137468070D01*
X104608569Y-137505415D01*
X104633026Y-137548985D01*
X104637160Y-137559417D01*
X104650918Y-137608319D01*
X104657392Y-137658539D01*
X104658409Y-137690087D01*
X104655618Y-137740072D01*
X104645708Y-137788028D01*
X104626094Y-137832902D01*
X104607118Y-137859836D01*
X104569902Y-137894211D01*
X104546546Y-137908440D01*
X104498689Y-137926350D01*
X104459595Y-137933841D01*
X104504010Y-137954690D01*
X104512107Y-137961929D01*
X104535555Y-137993192D01*
X104559802Y-138036106D01*
X104566085Y-138048391D01*
X104750733Y-138415000D01*
X104529204Y-138415000D01*
X104406106Y-138155369D01*
X104391940Y-138125083D01*
X104368321Y-138081940D01*
X104338699Y-138042784D01*
X104333077Y-138037156D01*
X104290071Y-138011956D01*
X104264689Y-138008579D01*
X104200453Y-138008579D01*
X104200453Y-138415000D01*
X103998709Y-138415000D01*
X103998709Y-137846402D01*
X104200453Y-137846402D01*
X104295464Y-137846402D01*
X104346875Y-137842419D01*
X104393421Y-137827443D01*
X104414410Y-137812697D01*
X104440300Y-137771420D01*
X104449370Y-137721128D01*
X104449825Y-137703520D01*
X104444845Y-137651954D01*
X104424613Y-137605271D01*
X104414410Y-137594099D01*
X104370271Y-137570432D01*
X104320199Y-137561932D01*
X104295464Y-137561127D01*
X104200453Y-137561127D01*
X104200453Y-137846402D01*
X103998709Y-137846402D01*
X103998709Y-137398949D01*
X104290091Y-137398949D01*
X104348902Y-137400637D01*
G37*
G36*
X105067760Y-137899159D02*
G01*
X104776622Y-137398949D01*
X104985206Y-137398949D01*
X105171075Y-137731852D01*
X105357676Y-137398949D01*
X105566259Y-137398949D01*
X105276343Y-137906242D01*
X105574319Y-138415000D01*
X105365980Y-138415000D01*
X105171075Y-138083562D01*
X104976901Y-138415000D01*
X104768562Y-138415000D01*
X105067760Y-137899159D01*
G37*
G36*
X104228541Y-140070896D02*
G01*
X103969400Y-140070896D01*
X103969400Y-139898949D01*
X104689183Y-139898949D01*
X104689183Y-140070896D01*
X104430042Y-140070896D01*
X104430042Y-140915000D01*
X104228541Y-140915000D01*
X104228541Y-140070896D01*
G37*
G36*
X105067760Y-140399159D02*
G01*
X104776622Y-139898949D01*
X104985206Y-139898949D01*
X105171075Y-140231852D01*
X105357676Y-139898949D01*
X105566259Y-139898949D01*
X105276343Y-140406242D01*
X105574319Y-140915000D01*
X105365980Y-140915000D01*
X105171075Y-140583562D01*
X104976901Y-140915000D01*
X104768562Y-140915000D01*
X105067760Y-140399159D01*
G37*
G36*
X128715770Y-82565500D02*
G01*
X128772007Y-82571453D01*
X128822130Y-82581872D01*
X128872880Y-82599670D01*
X128920690Y-82627452D01*
X128958090Y-82663509D01*
X128984804Y-82707442D01*
X129000833Y-82759252D01*
X129006092Y-82811047D01*
X129006175Y-82818939D01*
X129002157Y-82869783D01*
X128988265Y-82918889D01*
X128961525Y-82963925D01*
X128955373Y-82971102D01*
X128914713Y-83003290D01*
X128868384Y-83023134D01*
X128819060Y-83033327D01*
X128807117Y-83034605D01*
X128855543Y-83042114D01*
X128904132Y-83057306D01*
X128950183Y-83082828D01*
X128983461Y-83113007D01*
X129011915Y-83154921D01*
X129031057Y-83205374D01*
X129040254Y-83257390D01*
X129042323Y-83300830D01*
X129039198Y-83353043D01*
X129027651Y-83406795D01*
X129007595Y-83452833D01*
X128974256Y-83496003D01*
X128953419Y-83513810D01*
X128909194Y-83539600D01*
X128862803Y-83556665D01*
X128808581Y-83569076D01*
X128757414Y-83575863D01*
X128700809Y-83579418D01*
X128664235Y-83580000D01*
X128335484Y-83580000D01*
X128335484Y-83417822D01*
X128530390Y-83417822D01*
X128664235Y-83417822D01*
X128713944Y-83415233D01*
X128762314Y-83405038D01*
X128799546Y-83385094D01*
X128827070Y-83343838D01*
X128836956Y-83295610D01*
X128837892Y-83271521D01*
X128833130Y-83220277D01*
X128815223Y-83173931D01*
X128797592Y-83153063D01*
X128752231Y-83128352D01*
X128702423Y-83118645D01*
X128664235Y-83116915D01*
X128530390Y-83116915D01*
X128530390Y-83417822D01*
X128335484Y-83417822D01*
X128335484Y-82954738D01*
X128530390Y-82954738D01*
X128664235Y-82954738D01*
X128715801Y-82950925D01*
X128762484Y-82935437D01*
X128773656Y-82927627D01*
X128797348Y-82894410D01*
X128805620Y-82845480D01*
X128805652Y-82841409D01*
X128798461Y-82792583D01*
X128772923Y-82753726D01*
X128733600Y-82734187D01*
X128685240Y-82726630D01*
X128664235Y-82726127D01*
X128530390Y-82726127D01*
X128530390Y-82954738D01*
X128335484Y-82954738D01*
X128335484Y-82563949D01*
X128664235Y-82563949D01*
X128715770Y-82565500D01*
G37*
G36*
X129566473Y-82551556D02*
G01*
X129615548Y-82561269D01*
X129668928Y-82581474D01*
X129716298Y-82611003D01*
X129757657Y-82649858D01*
X129781891Y-82680942D01*
X129807855Y-82725399D01*
X129829418Y-82776034D01*
X129846580Y-82832847D01*
X129857142Y-82882745D01*
X129864887Y-82936597D01*
X129869816Y-82994402D01*
X129871928Y-83056161D01*
X129872016Y-83072219D01*
X129870608Y-83134691D01*
X129866383Y-83193271D01*
X129859342Y-83247959D01*
X129849485Y-83298754D01*
X129833202Y-83356773D01*
X129812519Y-83408711D01*
X129787435Y-83454566D01*
X129781891Y-83463007D01*
X129749121Y-83503619D01*
X129710925Y-83537132D01*
X129671493Y-83561437D01*
X129622708Y-83580905D01*
X129573249Y-83591591D01*
X129518924Y-83595598D01*
X129513224Y-83595631D01*
X129463378Y-83592926D01*
X129412888Y-83583576D01*
X129363300Y-83565578D01*
X129354954Y-83561437D01*
X129312329Y-83534465D01*
X129275131Y-83500567D01*
X129246022Y-83463740D01*
X129219776Y-83419276D01*
X129197979Y-83368624D01*
X129180631Y-83311781D01*
X129169955Y-83261851D01*
X129162126Y-83207959D01*
X129157143Y-83150106D01*
X129155008Y-83088291D01*
X129154919Y-83072219D01*
X129154930Y-83071730D01*
X129364968Y-83071730D01*
X129365833Y-83125261D01*
X129369153Y-83182917D01*
X129374963Y-83233396D01*
X129384889Y-83283214D01*
X129400383Y-83328185D01*
X129426725Y-83370303D01*
X129469040Y-83400253D01*
X129513224Y-83408053D01*
X129561796Y-83398615D01*
X129603396Y-83366793D01*
X129626796Y-83328185D01*
X129643916Y-83276695D01*
X129653358Y-83225481D01*
X129658753Y-83173806D01*
X129661658Y-83114953D01*
X129662212Y-83071730D01*
X129661347Y-83018340D01*
X129658027Y-82960821D01*
X129652217Y-82910446D01*
X129642291Y-82860704D01*
X129626796Y-82815764D01*
X129600383Y-82773646D01*
X129557793Y-82743696D01*
X129513224Y-82735896D01*
X129461520Y-82747128D01*
X129421083Y-82780822D01*
X129400383Y-82815764D01*
X129383264Y-82867215D01*
X129373822Y-82918346D01*
X129368427Y-82969911D01*
X129365521Y-83028621D01*
X129364968Y-83071730D01*
X129154930Y-83071730D01*
X129156343Y-83009780D01*
X129160613Y-82951181D01*
X129167731Y-82896421D01*
X129177695Y-82845500D01*
X129194154Y-82787248D01*
X129215061Y-82734995D01*
X129240417Y-82688740D01*
X129246022Y-82680209D01*
X129277559Y-82640705D01*
X129317043Y-82605792D01*
X129361549Y-82579825D01*
X129410326Y-82561887D01*
X129462624Y-82551395D01*
X129513224Y-82548318D01*
X129566473Y-82551556D01*
G37*
G36*
X130408622Y-82551556D02*
G01*
X130457697Y-82561269D01*
X130511078Y-82581474D01*
X130558447Y-82611003D01*
X130599807Y-82649858D01*
X130624040Y-82680942D01*
X130650004Y-82725399D01*
X130671567Y-82776034D01*
X130688730Y-82832847D01*
X130699291Y-82882745D01*
X130707037Y-82936597D01*
X130711965Y-82994402D01*
X130714078Y-83056161D01*
X130714166Y-83072219D01*
X130712757Y-83134691D01*
X130708533Y-83193271D01*
X130701492Y-83247959D01*
X130691634Y-83298754D01*
X130675352Y-83356773D01*
X130654669Y-83408711D01*
X130629585Y-83454566D01*
X130624040Y-83463007D01*
X130591270Y-83503619D01*
X130553074Y-83537132D01*
X130513642Y-83561437D01*
X130464857Y-83580905D01*
X130415398Y-83591591D01*
X130361073Y-83595598D01*
X130355373Y-83595631D01*
X130305527Y-83592926D01*
X130255038Y-83583576D01*
X130205450Y-83565578D01*
X130197103Y-83561437D01*
X130154479Y-83534465D01*
X130117280Y-83500567D01*
X130088171Y-83463740D01*
X130061926Y-83419276D01*
X130040129Y-83368624D01*
X130022780Y-83311781D01*
X130012104Y-83261851D01*
X130004275Y-83207959D01*
X129999293Y-83150106D01*
X129997158Y-83088291D01*
X129997069Y-83072219D01*
X129997080Y-83071730D01*
X130207117Y-83071730D01*
X130207982Y-83125261D01*
X130211302Y-83182917D01*
X130217113Y-83233396D01*
X130227038Y-83283214D01*
X130242533Y-83328185D01*
X130268875Y-83370303D01*
X130311190Y-83400253D01*
X130355373Y-83408053D01*
X130403945Y-83398615D01*
X130445545Y-83366793D01*
X130468946Y-83328185D01*
X130486065Y-83276695D01*
X130495507Y-83225481D01*
X130500902Y-83173806D01*
X130503808Y-83114953D01*
X130504361Y-83071730D01*
X130503496Y-83018340D01*
X130500176Y-82960821D01*
X130494366Y-82910446D01*
X130484440Y-82860704D01*
X130468946Y-82815764D01*
X130442532Y-82773646D01*
X130399942Y-82743696D01*
X130355373Y-82735896D01*
X130303670Y-82747128D01*
X130263232Y-82780822D01*
X130242533Y-82815764D01*
X130225413Y-82867215D01*
X130215971Y-82918346D01*
X130210576Y-82969911D01*
X130207671Y-83028621D01*
X130207117Y-83071730D01*
X129997080Y-83071730D01*
X129998492Y-83009780D01*
X130002762Y-82951181D01*
X130009880Y-82896421D01*
X130019844Y-82845500D01*
X130036303Y-82787248D01*
X130057211Y-82734995D01*
X130082566Y-82688740D01*
X130088171Y-82680209D01*
X130119708Y-82640705D01*
X130159192Y-82605792D01*
X130203698Y-82579825D01*
X130252475Y-82561887D01*
X130304774Y-82551395D01*
X130355373Y-82548318D01*
X130408622Y-82551556D01*
G37*
G36*
X131097138Y-82735896D02*
G01*
X130837997Y-82735896D01*
X130837997Y-82563949D01*
X131557780Y-82563949D01*
X131557780Y-82735896D01*
X131298639Y-82735896D01*
X131298639Y-83580000D01*
X131097138Y-83580000D01*
X131097138Y-82735896D01*
G37*
G36*
X125691051Y-82565637D02*
G01*
X125744448Y-82570699D01*
X125801378Y-82581229D01*
X125850511Y-82596620D01*
X125897978Y-82620717D01*
X125915073Y-82633070D01*
X125950718Y-82670415D01*
X125975175Y-82713985D01*
X125979309Y-82724417D01*
X125993067Y-82773319D01*
X125999541Y-82823539D01*
X126000558Y-82855087D01*
X125997767Y-82905072D01*
X125987857Y-82953028D01*
X125968243Y-82997902D01*
X125949267Y-83024836D01*
X125912051Y-83059211D01*
X125888695Y-83073440D01*
X125840838Y-83091350D01*
X125801744Y-83098841D01*
X125846159Y-83119690D01*
X125854256Y-83126929D01*
X125877704Y-83158192D01*
X125901951Y-83201106D01*
X125908234Y-83213391D01*
X126092882Y-83580000D01*
X125871353Y-83580000D01*
X125748255Y-83320369D01*
X125734089Y-83290083D01*
X125710470Y-83246940D01*
X125680848Y-83207784D01*
X125675226Y-83202156D01*
X125632220Y-83176956D01*
X125606838Y-83173579D01*
X125542602Y-83173579D01*
X125542602Y-83580000D01*
X125340858Y-83580000D01*
X125340858Y-83011402D01*
X125542602Y-83011402D01*
X125637613Y-83011402D01*
X125689024Y-83007419D01*
X125735570Y-82992443D01*
X125756559Y-82977697D01*
X125782449Y-82936420D01*
X125791519Y-82886128D01*
X125791974Y-82868520D01*
X125786994Y-82816954D01*
X125766762Y-82770271D01*
X125756559Y-82759099D01*
X125712420Y-82735432D01*
X125662348Y-82726932D01*
X125637613Y-82726127D01*
X125542602Y-82726127D01*
X125542602Y-83011402D01*
X125340858Y-83011402D01*
X125340858Y-82563949D01*
X125632240Y-82563949D01*
X125691051Y-82565637D01*
G37*
G36*
X126490020Y-83595631D02*
G01*
X126439493Y-83594105D01*
X126409909Y-83591723D01*
X126361270Y-83584739D01*
X126331995Y-83578534D01*
X126283586Y-83565769D01*
X126237275Y-83549759D01*
X126188757Y-83528402D01*
X126184473Y-83526266D01*
X126184473Y-83320614D01*
X126229739Y-83350444D01*
X126274040Y-83375637D01*
X126322130Y-83398191D01*
X126341032Y-83405610D01*
X126388288Y-83420293D01*
X126439056Y-83430164D01*
X126488555Y-83433454D01*
X126540270Y-83428680D01*
X126588709Y-83411042D01*
X126605547Y-83399504D01*
X126636322Y-83359509D01*
X126646540Y-83309703D01*
X126646580Y-83305959D01*
X126637925Y-83257530D01*
X126619225Y-83225847D01*
X126584542Y-83195073D01*
X126539846Y-83172358D01*
X126440683Y-83134989D01*
X126394377Y-83116342D01*
X126349667Y-83095774D01*
X126311479Y-83075150D01*
X126269340Y-83046542D01*
X126234298Y-83013600D01*
X126205833Y-82970424D01*
X126189229Y-82923775D01*
X126181164Y-82869745D01*
X126180321Y-82843363D01*
X126183446Y-82793560D01*
X126194993Y-82740840D01*
X126215049Y-82693917D01*
X126243613Y-82652791D01*
X126269225Y-82626964D01*
X126311503Y-82596320D01*
X126359906Y-82573202D01*
X126414433Y-82557611D01*
X126466044Y-82550238D01*
X126512491Y-82548318D01*
X126563530Y-82550078D01*
X126612202Y-82555360D01*
X126654396Y-82563217D01*
X126704885Y-82576749D01*
X126752978Y-82593620D01*
X126793614Y-82610600D01*
X126793614Y-82803796D01*
X126752491Y-82776917D01*
X126702986Y-82750676D01*
X126653310Y-82730996D01*
X126603461Y-82717875D01*
X126553441Y-82711315D01*
X126528367Y-82710495D01*
X126477980Y-82714582D01*
X126429390Y-82731187D01*
X126416748Y-82739560D01*
X126385346Y-82780183D01*
X126377913Y-82822358D01*
X126390220Y-82871726D01*
X126406489Y-82892212D01*
X126447278Y-82920055D01*
X126492959Y-82940752D01*
X126524947Y-82953272D01*
X126611653Y-82985757D01*
X126662651Y-83007024D01*
X126707290Y-83030863D01*
X126750521Y-83061256D01*
X126789229Y-83099463D01*
X126792882Y-83103970D01*
X126820981Y-83148861D01*
X126839885Y-83200553D01*
X126848968Y-83252210D01*
X126851011Y-83294480D01*
X126847791Y-83348089D01*
X126838131Y-83396443D01*
X126818722Y-83446215D01*
X126790547Y-83488834D01*
X126759420Y-83519672D01*
X126715224Y-83549269D01*
X126662775Y-83571597D01*
X126611253Y-83584949D01*
X126553668Y-83592961D01*
X126501049Y-83595557D01*
X126490020Y-83595631D01*
G37*
G36*
X127254989Y-82735896D02*
G01*
X126995847Y-82735896D01*
X126995847Y-82563949D01*
X127715631Y-82563949D01*
X127715631Y-82735896D01*
X127456489Y-82735896D01*
X127456489Y-83580000D01*
X127254989Y-83580000D01*
X127254989Y-82735896D01*
G37*
D12*
G36*
X136730658Y-145067877D02*
G01*
X132901110Y-145067877D01*
X132901110Y-144212445D01*
X133067777Y-144212445D01*
X133067777Y-144455711D01*
X133510711Y-144455711D01*
X133510711Y-144901210D01*
X133753611Y-144901210D01*
X133753611Y-144526053D01*
X135753227Y-144526053D01*
X136563991Y-144526053D01*
X136563991Y-144221238D01*
X135753227Y-144221238D01*
X135753227Y-144526053D01*
X133753611Y-144526053D01*
X133753611Y-144455711D01*
X134194713Y-144455711D01*
X134194713Y-144212445D01*
X133753611Y-144212445D01*
X133753611Y-143775739D01*
X133510711Y-143775739D01*
X133510711Y-144212445D01*
X133067777Y-144212445D01*
X132901110Y-144212445D01*
X132901110Y-143609072D01*
X136730658Y-143609072D01*
X136730658Y-145067877D01*
G37*
D11*
G36*
X108534647Y-146530631D02*
G01*
X108484119Y-146529105D01*
X108454535Y-146526723D01*
X108405897Y-146519739D01*
X108376622Y-146513534D01*
X108328212Y-146500769D01*
X108281902Y-146484759D01*
X108233384Y-146463402D01*
X108229099Y-146461266D01*
X108229099Y-146255614D01*
X108274366Y-146285444D01*
X108318667Y-146310637D01*
X108366757Y-146333191D01*
X108385659Y-146340610D01*
X108432914Y-146355293D01*
X108483683Y-146365164D01*
X108533182Y-146368454D01*
X108584896Y-146363680D01*
X108633336Y-146346042D01*
X108650174Y-146334504D01*
X108680949Y-146294509D01*
X108691167Y-146244703D01*
X108691207Y-146240959D01*
X108682551Y-146192530D01*
X108663852Y-146160847D01*
X108629169Y-146130073D01*
X108584473Y-146107358D01*
X108485310Y-146069989D01*
X108439004Y-146051342D01*
X108394294Y-146030774D01*
X108356106Y-146010150D01*
X108313967Y-145981542D01*
X108278925Y-145948600D01*
X108250460Y-145905424D01*
X108233856Y-145858775D01*
X108225791Y-145804745D01*
X108224947Y-145778363D01*
X108228073Y-145728560D01*
X108239620Y-145675840D01*
X108259675Y-145628917D01*
X108288239Y-145587791D01*
X108313852Y-145561964D01*
X108356130Y-145531320D01*
X108404532Y-145508202D01*
X108459059Y-145492611D01*
X108510671Y-145485238D01*
X108557117Y-145483318D01*
X108608156Y-145485078D01*
X108656829Y-145490360D01*
X108699023Y-145498217D01*
X108749512Y-145511749D01*
X108797605Y-145528620D01*
X108838241Y-145545600D01*
X108838241Y-145738796D01*
X108797118Y-145711917D01*
X108747613Y-145685676D01*
X108697936Y-145665996D01*
X108648088Y-145652875D01*
X108598068Y-145646315D01*
X108572993Y-145645495D01*
X108522607Y-145649582D01*
X108474017Y-145666187D01*
X108461374Y-145674560D01*
X108429973Y-145715183D01*
X108422540Y-145757358D01*
X108434846Y-145806726D01*
X108451116Y-145827212D01*
X108491905Y-145855055D01*
X108537586Y-145875752D01*
X108569574Y-145888272D01*
X108656280Y-145920757D01*
X108707277Y-145942024D01*
X108751916Y-145965863D01*
X108795147Y-145996256D01*
X108833856Y-146034463D01*
X108837508Y-146038970D01*
X108865608Y-146083861D01*
X108884512Y-146135553D01*
X108893594Y-146187210D01*
X108895638Y-146229480D01*
X108892418Y-146283089D01*
X108882758Y-146331443D01*
X108863349Y-146381215D01*
X108835174Y-146423834D01*
X108804047Y-146454672D01*
X108759850Y-146484269D01*
X108707402Y-146506597D01*
X108655879Y-146519949D01*
X108598294Y-146527961D01*
X108545676Y-146530557D01*
X108534647Y-146530631D01*
G37*
G36*
X108978925Y-145498949D02*
G01*
X109155268Y-145498949D01*
X109228541Y-146240226D01*
X109316713Y-145749054D01*
X109484019Y-145749054D01*
X109586601Y-146240226D01*
X109643998Y-145498949D01*
X109821807Y-145498949D01*
X109704326Y-146515000D01*
X109516259Y-146515000D01*
X109400000Y-145972292D01*
X109291311Y-146515000D01*
X109104710Y-146515000D01*
X108978925Y-145498949D01*
G37*
G36*
X110488834Y-146124211D02*
G01*
X110600942Y-146124211D01*
X110600942Y-146296158D01*
X110488834Y-146296158D01*
X110488834Y-146515000D01*
X110295394Y-146515000D01*
X110295394Y-146296158D01*
X109890683Y-146296158D01*
X109890683Y-146124211D01*
X110037718Y-146124211D01*
X110295394Y-146124211D01*
X110295394Y-145728538D01*
X110037718Y-146124211D01*
X109890683Y-146124211D01*
X109890683Y-146101985D01*
X110277808Y-145498949D01*
X110488834Y-145498949D01*
X110488834Y-146124211D01*
G37*
G36*
X104634647Y-129330631D02*
G01*
X104584119Y-129329105D01*
X104554535Y-129326723D01*
X104505897Y-129319739D01*
X104476622Y-129313534D01*
X104428212Y-129300769D01*
X104381902Y-129284759D01*
X104333384Y-129263402D01*
X104329099Y-129261266D01*
X104329099Y-129055614D01*
X104374366Y-129085444D01*
X104418667Y-129110637D01*
X104466757Y-129133191D01*
X104485659Y-129140610D01*
X104532914Y-129155293D01*
X104583683Y-129165164D01*
X104633182Y-129168454D01*
X104684896Y-129163680D01*
X104733336Y-129146042D01*
X104750174Y-129134504D01*
X104780949Y-129094509D01*
X104791167Y-129044703D01*
X104791207Y-129040959D01*
X104782551Y-128992530D01*
X104763852Y-128960847D01*
X104729169Y-128930073D01*
X104684473Y-128907358D01*
X104585310Y-128869989D01*
X104539004Y-128851342D01*
X104494294Y-128830774D01*
X104456106Y-128810150D01*
X104413967Y-128781542D01*
X104378925Y-128748600D01*
X104350460Y-128705424D01*
X104333856Y-128658775D01*
X104325791Y-128604745D01*
X104324947Y-128578363D01*
X104328073Y-128528560D01*
X104339620Y-128475840D01*
X104359675Y-128428917D01*
X104388239Y-128387791D01*
X104413852Y-128361964D01*
X104456130Y-128331320D01*
X104504532Y-128308202D01*
X104559059Y-128292611D01*
X104610671Y-128285238D01*
X104657117Y-128283318D01*
X104708156Y-128285078D01*
X104756829Y-128290360D01*
X104799023Y-128298217D01*
X104849512Y-128311749D01*
X104897605Y-128328620D01*
X104938241Y-128345600D01*
X104938241Y-128538796D01*
X104897118Y-128511917D01*
X104847613Y-128485676D01*
X104797936Y-128465996D01*
X104748088Y-128452875D01*
X104698068Y-128446315D01*
X104672993Y-128445495D01*
X104622607Y-128449582D01*
X104574017Y-128466187D01*
X104561374Y-128474560D01*
X104529973Y-128515183D01*
X104522540Y-128557358D01*
X104534846Y-128606726D01*
X104551116Y-128627212D01*
X104591905Y-128655055D01*
X104637586Y-128675752D01*
X104669574Y-128688272D01*
X104756280Y-128720757D01*
X104807277Y-128742024D01*
X104851916Y-128765863D01*
X104895147Y-128796256D01*
X104933856Y-128834463D01*
X104937508Y-128838970D01*
X104965608Y-128883861D01*
X104984512Y-128935553D01*
X104993594Y-128987210D01*
X104995638Y-129029480D01*
X104992418Y-129083089D01*
X104982758Y-129131443D01*
X104963349Y-129181215D01*
X104935174Y-129223834D01*
X104904047Y-129254672D01*
X104859850Y-129284269D01*
X104807402Y-129306597D01*
X104755879Y-129319949D01*
X104698294Y-129327961D01*
X104645676Y-129330557D01*
X104634647Y-129330631D01*
G37*
G36*
X105078925Y-128298949D02*
G01*
X105255268Y-128298949D01*
X105328541Y-129040226D01*
X105416713Y-128549054D01*
X105584019Y-128549054D01*
X105686601Y-129040226D01*
X105743998Y-128298949D01*
X105921807Y-128298949D01*
X105804326Y-129315000D01*
X105616259Y-129315000D01*
X105500000Y-128772292D01*
X105391311Y-129315000D01*
X105204710Y-129315000D01*
X105078925Y-128298949D01*
G37*
G36*
X106285485Y-129330631D02*
G01*
X106234880Y-129328857D01*
X106222470Y-129327944D01*
X106172278Y-129322632D01*
X106155547Y-129320129D01*
X106106141Y-129311241D01*
X106086671Y-129306939D01*
X106037671Y-129294470D01*
X106018771Y-129289110D01*
X106018771Y-129111789D01*
X106064770Y-129132171D01*
X106076901Y-129136702D01*
X106124094Y-129151052D01*
X106135764Y-129154043D01*
X106186781Y-129163894D01*
X106235577Y-129168102D01*
X106254710Y-129168454D01*
X106305635Y-129165523D01*
X106354750Y-129155219D01*
X106403026Y-129132550D01*
X106417376Y-129121559D01*
X106451161Y-129080469D01*
X106468433Y-129033691D01*
X106472819Y-128988935D01*
X106467571Y-128937296D01*
X106449678Y-128889915D01*
X106419085Y-128852404D01*
X106377035Y-128825427D01*
X106329942Y-128810619D01*
X106280339Y-128805206D01*
X106268388Y-128805020D01*
X106219032Y-128808229D01*
X106217341Y-128808440D01*
X106168244Y-128818048D01*
X106163119Y-128819431D01*
X106115025Y-128835511D01*
X106105966Y-128839214D01*
X106060570Y-128860106D01*
X106052965Y-128864127D01*
X106052965Y-128298949D01*
X106607397Y-128298949D01*
X106607397Y-128470896D01*
X106216364Y-128470896D01*
X106216364Y-128660429D01*
X106238101Y-128652857D01*
X106269120Y-128645041D01*
X106298429Y-128642843D01*
X106329937Y-128642843D01*
X106382922Y-128646244D01*
X106433435Y-128656444D01*
X106465736Y-128667023D01*
X106511005Y-128688249D01*
X106554310Y-128718221D01*
X106575157Y-128737365D01*
X106608009Y-128776745D01*
X106634331Y-128822251D01*
X106644277Y-128845321D01*
X106659310Y-128894860D01*
X106666994Y-128943952D01*
X106668946Y-128986737D01*
X106665399Y-129044259D01*
X106654761Y-129097024D01*
X106637029Y-129145032D01*
X106612205Y-129188283D01*
X106580288Y-129226777D01*
X106568073Y-129238551D01*
X106527404Y-129269844D01*
X106481051Y-129294662D01*
X106429012Y-129313006D01*
X106371290Y-129324876D01*
X106318846Y-129329822D01*
X106285485Y-129330631D01*
G37*
G36*
X136134647Y-137130631D02*
G01*
X136084119Y-137129105D01*
X136054535Y-137126723D01*
X136005897Y-137119739D01*
X135976622Y-137113534D01*
X135928212Y-137100769D01*
X135881902Y-137084759D01*
X135833384Y-137063402D01*
X135829099Y-137061266D01*
X135829099Y-136855614D01*
X135874366Y-136885444D01*
X135918667Y-136910637D01*
X135966757Y-136933191D01*
X135985659Y-136940610D01*
X136032914Y-136955293D01*
X136083683Y-136965164D01*
X136133182Y-136968454D01*
X136184896Y-136963680D01*
X136233336Y-136946042D01*
X136250174Y-136934504D01*
X136280949Y-136894509D01*
X136291167Y-136844703D01*
X136291207Y-136840959D01*
X136282551Y-136792530D01*
X136263852Y-136760847D01*
X136229169Y-136730073D01*
X136184473Y-136707358D01*
X136085310Y-136669989D01*
X136039004Y-136651342D01*
X135994294Y-136630774D01*
X135956106Y-136610150D01*
X135913967Y-136581542D01*
X135878925Y-136548600D01*
X135850460Y-136505424D01*
X135833856Y-136458775D01*
X135825791Y-136404745D01*
X135824947Y-136378363D01*
X135828073Y-136328560D01*
X135839620Y-136275840D01*
X135859675Y-136228917D01*
X135888239Y-136187791D01*
X135913852Y-136161964D01*
X135956130Y-136131320D01*
X136004532Y-136108202D01*
X136059059Y-136092611D01*
X136110671Y-136085238D01*
X136157117Y-136083318D01*
X136208156Y-136085078D01*
X136256829Y-136090360D01*
X136299023Y-136098217D01*
X136349512Y-136111749D01*
X136397605Y-136128620D01*
X136438241Y-136145600D01*
X136438241Y-136338796D01*
X136397118Y-136311917D01*
X136347613Y-136285676D01*
X136297936Y-136265996D01*
X136248088Y-136252875D01*
X136198068Y-136246315D01*
X136172993Y-136245495D01*
X136122607Y-136249582D01*
X136074017Y-136266187D01*
X136061374Y-136274560D01*
X136029973Y-136315183D01*
X136022540Y-136357358D01*
X136034846Y-136406726D01*
X136051116Y-136427212D01*
X136091905Y-136455055D01*
X136137586Y-136475752D01*
X136169574Y-136488272D01*
X136256280Y-136520757D01*
X136307277Y-136542024D01*
X136351916Y-136565863D01*
X136395147Y-136596256D01*
X136433856Y-136634463D01*
X136437508Y-136638970D01*
X136465608Y-136683861D01*
X136484512Y-136735553D01*
X136493594Y-136787210D01*
X136495638Y-136829480D01*
X136492418Y-136883089D01*
X136482758Y-136931443D01*
X136463349Y-136981215D01*
X136435174Y-137023834D01*
X136404047Y-137054672D01*
X136359850Y-137084269D01*
X136307402Y-137106597D01*
X136255879Y-137119949D01*
X136198294Y-137127961D01*
X136145676Y-137130557D01*
X136134647Y-137130631D01*
G37*
G36*
X136578925Y-136098949D02*
G01*
X136755268Y-136098949D01*
X136828541Y-136840226D01*
X136916713Y-136349054D01*
X137084019Y-136349054D01*
X137186601Y-136840226D01*
X137243998Y-136098949D01*
X137421807Y-136098949D01*
X137304326Y-137115000D01*
X137116259Y-137115000D01*
X137000000Y-136572292D01*
X136891311Y-137115000D01*
X136704710Y-137115000D01*
X136578925Y-136098949D01*
G37*
G36*
X137800383Y-137130631D02*
G01*
X137749641Y-137129246D01*
X137725889Y-137127700D01*
X137676091Y-137122491D01*
X137650174Y-137118419D01*
X137601457Y-137109309D01*
X137578855Y-137104253D01*
X137531411Y-137091455D01*
X137506559Y-137083492D01*
X137506559Y-136898845D01*
X137551933Y-136920582D01*
X137599732Y-136938106D01*
X137645289Y-136950380D01*
X137693470Y-136960073D01*
X137721737Y-136964057D01*
X137770569Y-136968024D01*
X137790858Y-136968454D01*
X137841071Y-136965182D01*
X137871458Y-136959173D01*
X137917419Y-136939549D01*
X137932519Y-136928642D01*
X137963039Y-136890298D01*
X137978000Y-136841152D01*
X137979658Y-136814825D01*
X137974001Y-136765261D01*
X137954927Y-136719551D01*
X137931786Y-136690994D01*
X137889437Y-136663690D01*
X137875122Y-136658021D01*
X137826045Y-136647467D01*
X137796475Y-136646053D01*
X137688276Y-136646053D01*
X137688276Y-136474106D01*
X137796475Y-136474106D01*
X137847812Y-136469985D01*
X137896245Y-136454758D01*
X137913224Y-136444797D01*
X137945240Y-136407213D01*
X137954256Y-136362487D01*
X137943998Y-136313211D01*
X137913224Y-136276270D01*
X137867542Y-136254180D01*
X137818633Y-136246246D01*
X137795010Y-136245495D01*
X137744868Y-136248113D01*
X137737124Y-136248914D01*
X137687614Y-136256941D01*
X137673377Y-136260150D01*
X137624880Y-136272606D01*
X137607676Y-136277735D01*
X137559421Y-136294012D01*
X137537334Y-136302404D01*
X137537334Y-136126549D01*
X137585794Y-136113233D01*
X137633445Y-136102169D01*
X137676064Y-136094064D01*
X137726153Y-136087516D01*
X137774936Y-136083989D01*
X137806734Y-136083318D01*
X137855907Y-136084981D01*
X137910128Y-136091370D01*
X137959130Y-136102550D01*
X138009699Y-136121649D01*
X138053163Y-136147269D01*
X138058792Y-136151461D01*
X138098329Y-136188647D01*
X138126570Y-136232306D01*
X138143514Y-136282437D01*
X138149074Y-136331611D01*
X138149162Y-136339040D01*
X138144487Y-136389281D01*
X138137194Y-136416953D01*
X138114544Y-136461232D01*
X138097138Y-136482411D01*
X138056148Y-136516414D01*
X138009818Y-136539311D01*
X137960739Y-136553394D01*
X137948883Y-136555683D01*
X138000342Y-136568384D01*
X138050460Y-136589971D01*
X138092348Y-136619286D01*
X138115701Y-136643122D01*
X138143446Y-136684888D01*
X138162112Y-136734072D01*
X138171080Y-136784020D01*
X138173098Y-136825327D01*
X138169775Y-136878236D01*
X138159806Y-136926318D01*
X138139775Y-136976315D01*
X138110699Y-137019744D01*
X138078576Y-137051741D01*
X138033040Y-137082480D01*
X137987182Y-137102819D01*
X137935021Y-137117611D01*
X137886738Y-137125700D01*
X137834080Y-137129938D01*
X137800383Y-137130631D01*
G37*
G36*
X125030496Y-139098949D02*
G01*
X125666260Y-139098949D01*
X125666260Y-139270896D01*
X125232240Y-139270896D01*
X125232240Y-139489738D01*
X125625227Y-139489738D01*
X125625227Y-139661685D01*
X125232240Y-139661685D01*
X125232240Y-139943053D01*
X125666260Y-139943053D01*
X125666260Y-140115000D01*
X125030496Y-140115000D01*
X125030496Y-139098949D01*
G37*
G36*
X125839184Y-139098949D02*
G01*
X126055827Y-139098949D01*
X126340370Y-139841203D01*
X126340370Y-139098949D01*
X126517935Y-139098949D01*
X126517935Y-140115000D01*
X126302757Y-140115000D01*
X126016992Y-139386912D01*
X126016992Y-140115000D01*
X125839184Y-140115000D01*
X125839184Y-139098949D01*
G37*
G36*
X127118772Y-140130631D02*
G01*
X127069153Y-140128528D01*
X127011314Y-140119986D01*
X126958127Y-140104872D01*
X126909591Y-140083187D01*
X126865706Y-140054931D01*
X126826472Y-140020104D01*
X126805164Y-139996053D01*
X126773853Y-139950883D01*
X126747848Y-139899940D01*
X126727151Y-139843225D01*
X126714414Y-139793697D01*
X126705073Y-139740475D01*
X126699130Y-139683559D01*
X126696582Y-139622948D01*
X126696476Y-139607219D01*
X126698174Y-139545410D01*
X126703269Y-139487356D01*
X126711760Y-139433058D01*
X126723648Y-139382515D01*
X126738932Y-139335727D01*
X126762814Y-139282524D01*
X126792003Y-139235187D01*
X126805164Y-139217896D01*
X126841607Y-139179126D01*
X126882702Y-139146927D01*
X126928447Y-139121299D01*
X126978844Y-139102243D01*
X127033891Y-139089757D01*
X127093590Y-139083843D01*
X127118772Y-139083318D01*
X127169702Y-139085795D01*
X127218202Y-139093229D01*
X127231612Y-139096263D01*
X127280080Y-139111418D01*
X127325650Y-139132155D01*
X127331508Y-139135341D01*
X127331508Y-139368838D01*
X127293851Y-139334657D01*
X127276309Y-139321454D01*
X127234488Y-139296083D01*
X127230391Y-139294099D01*
X127184026Y-139277581D01*
X127179344Y-139276514D01*
X127130617Y-139270902D01*
X127129030Y-139270896D01*
X127077617Y-139276178D01*
X127027660Y-139294747D01*
X126986049Y-139326685D01*
X126962945Y-139355404D01*
X126938154Y-139403474D01*
X126922273Y-139453675D01*
X126912976Y-139502751D01*
X126907664Y-139557408D01*
X126906281Y-139607219D01*
X126907664Y-139657199D01*
X126912976Y-139711902D01*
X126922273Y-139760851D01*
X126938154Y-139810688D01*
X126962945Y-139858056D01*
X126998992Y-139899143D01*
X127043385Y-139926784D01*
X127096124Y-139940977D01*
X127129030Y-139943053D01*
X127177684Y-139938330D01*
X127224729Y-139924162D01*
X127230879Y-139921559D01*
X127275330Y-139898032D01*
X127278263Y-139896158D01*
X127318858Y-139866152D01*
X127331508Y-139855614D01*
X127331508Y-140080317D01*
X127285555Y-140101111D01*
X127237455Y-140116324D01*
X127230879Y-140117930D01*
X127180093Y-140127047D01*
X127129884Y-140130519D01*
X127118772Y-140130631D01*
G37*
G36*
X127907920Y-139100500D02*
G01*
X127964157Y-139106453D01*
X128014280Y-139116872D01*
X128065030Y-139134670D01*
X128112840Y-139162452D01*
X128150240Y-139198509D01*
X128176954Y-139242442D01*
X128192983Y-139294252D01*
X128198242Y-139346047D01*
X128198325Y-139353939D01*
X128194307Y-139404783D01*
X128180415Y-139453889D01*
X128153675Y-139498925D01*
X128147523Y-139506102D01*
X128106863Y-139538290D01*
X128060534Y-139558134D01*
X128011210Y-139568327D01*
X127999267Y-139569605D01*
X128047693Y-139577114D01*
X128096282Y-139592306D01*
X128142333Y-139617828D01*
X128175611Y-139648007D01*
X128204065Y-139689921D01*
X128223207Y-139740374D01*
X128232404Y-139792390D01*
X128234473Y-139835830D01*
X128231348Y-139888043D01*
X128219801Y-139941795D01*
X128199745Y-139987833D01*
X128166406Y-140031003D01*
X128145569Y-140048810D01*
X128101344Y-140074600D01*
X128054953Y-140091665D01*
X128000731Y-140104076D01*
X127949564Y-140110863D01*
X127892959Y-140114418D01*
X127856385Y-140115000D01*
X127527635Y-140115000D01*
X127527635Y-139952822D01*
X127722540Y-139952822D01*
X127856385Y-139952822D01*
X127906094Y-139950233D01*
X127954464Y-139940038D01*
X127991696Y-139920094D01*
X128019220Y-139878838D01*
X128029106Y-139830610D01*
X128030042Y-139806521D01*
X128025280Y-139755277D01*
X128007373Y-139708931D01*
X127989742Y-139688063D01*
X127944381Y-139663352D01*
X127894573Y-139653645D01*
X127856385Y-139651915D01*
X127722540Y-139651915D01*
X127722540Y-139952822D01*
X127527635Y-139952822D01*
X127527635Y-139489738D01*
X127722540Y-139489738D01*
X127856385Y-139489738D01*
X127907951Y-139485925D01*
X127954634Y-139470437D01*
X127965806Y-139462627D01*
X127989498Y-139429410D01*
X127997770Y-139380480D01*
X127997802Y-139376409D01*
X127990611Y-139327583D01*
X127965073Y-139288726D01*
X127925750Y-139269187D01*
X127877390Y-139261630D01*
X127856385Y-139261127D01*
X127722540Y-139261127D01*
X127722540Y-139489738D01*
X127527635Y-139489738D01*
X127527635Y-139098949D01*
X127856385Y-139098949D01*
X127907920Y-139100500D01*
G37*
G36*
X114934473Y-138430631D02*
G01*
X114884854Y-138428528D01*
X114827016Y-138419986D01*
X114773828Y-138404872D01*
X114725292Y-138383187D01*
X114681407Y-138354931D01*
X114642173Y-138320104D01*
X114620865Y-138296053D01*
X114589554Y-138250883D01*
X114563550Y-138199940D01*
X114542852Y-138143225D01*
X114530115Y-138093697D01*
X114520775Y-138040475D01*
X114514831Y-137983559D01*
X114512284Y-137922948D01*
X114512177Y-137907219D01*
X114513876Y-137845410D01*
X114518970Y-137787356D01*
X114527462Y-137733058D01*
X114539349Y-137682515D01*
X114554634Y-137635727D01*
X114578515Y-137582524D01*
X114607704Y-137535187D01*
X114620865Y-137517896D01*
X114657309Y-137479126D01*
X114698403Y-137446927D01*
X114744148Y-137421299D01*
X114794545Y-137402243D01*
X114849593Y-137389757D01*
X114909291Y-137383843D01*
X114934473Y-137383318D01*
X114985404Y-137385795D01*
X115033903Y-137393229D01*
X115047314Y-137396263D01*
X115095782Y-137411418D01*
X115141352Y-137432155D01*
X115147209Y-137435341D01*
X115147209Y-137668838D01*
X115109552Y-137634657D01*
X115092010Y-137621454D01*
X115050190Y-137596083D01*
X115046092Y-137594099D01*
X114999727Y-137577581D01*
X114995046Y-137576514D01*
X114946319Y-137570902D01*
X114944732Y-137570896D01*
X114893318Y-137576178D01*
X114843361Y-137594747D01*
X114801750Y-137626685D01*
X114778646Y-137655404D01*
X114753856Y-137703474D01*
X114737974Y-137753675D01*
X114728678Y-137802751D01*
X114723365Y-137857408D01*
X114721982Y-137907219D01*
X114723365Y-137957199D01*
X114728678Y-138011902D01*
X114737974Y-138060851D01*
X114753856Y-138110688D01*
X114778646Y-138158056D01*
X114814693Y-138199143D01*
X114859086Y-138226784D01*
X114911826Y-138240977D01*
X114944732Y-138243053D01*
X114993386Y-138238330D01*
X115040430Y-138224162D01*
X115046581Y-138221559D01*
X115091031Y-138198032D01*
X115093964Y-138196158D01*
X115134560Y-138166152D01*
X115147209Y-138155614D01*
X115147209Y-138380317D01*
X115101256Y-138401111D01*
X115053156Y-138416324D01*
X115046581Y-138417930D01*
X114995794Y-138427047D01*
X114945585Y-138430519D01*
X114934473Y-138430631D01*
G37*
G36*
X115732175Y-137386556D02*
G01*
X115781250Y-137396269D01*
X115834630Y-137416474D01*
X115882000Y-137446003D01*
X115923359Y-137484858D01*
X115947593Y-137515942D01*
X115973557Y-137560399D01*
X115995120Y-137611034D01*
X116012282Y-137667847D01*
X116022844Y-137717745D01*
X116030589Y-137771597D01*
X116035518Y-137829402D01*
X116037630Y-137891161D01*
X116037718Y-137907219D01*
X116036310Y-137969691D01*
X116032085Y-138028271D01*
X116025044Y-138082959D01*
X116015187Y-138133754D01*
X115998904Y-138191773D01*
X115978221Y-138243711D01*
X115953137Y-138289566D01*
X115947593Y-138298007D01*
X115914823Y-138338619D01*
X115876627Y-138372132D01*
X115837195Y-138396437D01*
X115788410Y-138415905D01*
X115738951Y-138426591D01*
X115684626Y-138430598D01*
X115678926Y-138430631D01*
X115629080Y-138427926D01*
X115578590Y-138418576D01*
X115529002Y-138400578D01*
X115520656Y-138396437D01*
X115478031Y-138369465D01*
X115440833Y-138335567D01*
X115411724Y-138298740D01*
X115385478Y-138254276D01*
X115363681Y-138203624D01*
X115346333Y-138146781D01*
X115335657Y-138096851D01*
X115327828Y-138042959D01*
X115322845Y-137985106D01*
X115320710Y-137923291D01*
X115320621Y-137907219D01*
X115320632Y-137906730D01*
X115530670Y-137906730D01*
X115531535Y-137960261D01*
X115534855Y-138017917D01*
X115540665Y-138068396D01*
X115550591Y-138118214D01*
X115566085Y-138163185D01*
X115592427Y-138205303D01*
X115634742Y-138235253D01*
X115678926Y-138243053D01*
X115727498Y-138233615D01*
X115769098Y-138201793D01*
X115792498Y-138163185D01*
X115809618Y-138111695D01*
X115819060Y-138060481D01*
X115824455Y-138008806D01*
X115827360Y-137949953D01*
X115827914Y-137906730D01*
X115827049Y-137853340D01*
X115823729Y-137795821D01*
X115817919Y-137745446D01*
X115807993Y-137695704D01*
X115792498Y-137650764D01*
X115766085Y-137608646D01*
X115723495Y-137578696D01*
X115678926Y-137570896D01*
X115627222Y-137582128D01*
X115586785Y-137615822D01*
X115566085Y-137650764D01*
X115548966Y-137702215D01*
X115539524Y-137753346D01*
X115534129Y-137804911D01*
X115531223Y-137863621D01*
X115530670Y-137906730D01*
X115320632Y-137906730D01*
X115322045Y-137844780D01*
X115326315Y-137786181D01*
X115333433Y-137731421D01*
X115343397Y-137680500D01*
X115359856Y-137622248D01*
X115380763Y-137569995D01*
X115406119Y-137523740D01*
X115411724Y-137515209D01*
X115443261Y-137475705D01*
X115482745Y-137440792D01*
X115527251Y-137414825D01*
X115576028Y-137396887D01*
X115628326Y-137386395D01*
X115678926Y-137383318D01*
X115732175Y-137386556D01*
G37*
G36*
X116158863Y-137398949D02*
G01*
X116399442Y-137398949D01*
X116521075Y-137847623D01*
X116641975Y-137398949D01*
X116884020Y-137398949D01*
X116884020Y-138415000D01*
X116710363Y-138415000D01*
X116710363Y-137607288D01*
X116602408Y-138045216D01*
X116441696Y-138045216D01*
X116332519Y-137607288D01*
X116332519Y-138415000D01*
X116158863Y-138415000D01*
X116158863Y-137398949D01*
G37*
G36*
X117762561Y-138415000D02*
G01*
X117560817Y-138415000D01*
X117497802Y-138164895D01*
X117227914Y-138164895D01*
X117166364Y-138415000D01*
X116964620Y-138415000D01*
X117076412Y-138002718D01*
X117268214Y-138002718D01*
X117458967Y-138002718D01*
X117363224Y-137586284D01*
X117268214Y-138002718D01*
X117076412Y-138002718D01*
X117240126Y-137398949D01*
X117487055Y-137398949D01*
X117762561Y-138415000D01*
G37*
G36*
X120234647Y-131330631D02*
G01*
X120184119Y-131329105D01*
X120154535Y-131326723D01*
X120105897Y-131319739D01*
X120076622Y-131313534D01*
X120028212Y-131300769D01*
X119981902Y-131284759D01*
X119933384Y-131263402D01*
X119929099Y-131261266D01*
X119929099Y-131055614D01*
X119974366Y-131085444D01*
X120018667Y-131110637D01*
X120066757Y-131133191D01*
X120085659Y-131140610D01*
X120132914Y-131155293D01*
X120183683Y-131165164D01*
X120233182Y-131168454D01*
X120284896Y-131163680D01*
X120333336Y-131146042D01*
X120350174Y-131134504D01*
X120380949Y-131094509D01*
X120391167Y-131044703D01*
X120391207Y-131040959D01*
X120382551Y-130992530D01*
X120363852Y-130960847D01*
X120329169Y-130930073D01*
X120284473Y-130907358D01*
X120185310Y-130869989D01*
X120139004Y-130851342D01*
X120094294Y-130830774D01*
X120056106Y-130810150D01*
X120013967Y-130781542D01*
X119978925Y-130748600D01*
X119950460Y-130705424D01*
X119933856Y-130658775D01*
X119925791Y-130604745D01*
X119924947Y-130578363D01*
X119928073Y-130528560D01*
X119939620Y-130475840D01*
X119959675Y-130428917D01*
X119988239Y-130387791D01*
X120013852Y-130361964D01*
X120056130Y-130331320D01*
X120104532Y-130308202D01*
X120159059Y-130292611D01*
X120210671Y-130285238D01*
X120257117Y-130283318D01*
X120308156Y-130285078D01*
X120356829Y-130290360D01*
X120399023Y-130298217D01*
X120449512Y-130311749D01*
X120497605Y-130328620D01*
X120538241Y-130345600D01*
X120538241Y-130538796D01*
X120497118Y-130511917D01*
X120447613Y-130485676D01*
X120397936Y-130465996D01*
X120348088Y-130452875D01*
X120298068Y-130446315D01*
X120272993Y-130445495D01*
X120222607Y-130449582D01*
X120174017Y-130466187D01*
X120161374Y-130474560D01*
X120129973Y-130515183D01*
X120122540Y-130557358D01*
X120134846Y-130606726D01*
X120151116Y-130627212D01*
X120191905Y-130655055D01*
X120237586Y-130675752D01*
X120269574Y-130688272D01*
X120356280Y-130720757D01*
X120407277Y-130742024D01*
X120451916Y-130765863D01*
X120495147Y-130796256D01*
X120533856Y-130834463D01*
X120537508Y-130838970D01*
X120565608Y-130883861D01*
X120584512Y-130935553D01*
X120593594Y-130987210D01*
X120595638Y-131029480D01*
X120592418Y-131083089D01*
X120582758Y-131131443D01*
X120563349Y-131181215D01*
X120535174Y-131223834D01*
X120504047Y-131254672D01*
X120459850Y-131284269D01*
X120407402Y-131306597D01*
X120355879Y-131319949D01*
X120298294Y-131327961D01*
X120245676Y-131330557D01*
X120234647Y-131330631D01*
G37*
G36*
X120678925Y-130298949D02*
G01*
X120855268Y-130298949D01*
X120928541Y-131040226D01*
X121016713Y-130549054D01*
X121184019Y-130549054D01*
X121286601Y-131040226D01*
X121343998Y-130298949D01*
X121521807Y-130298949D01*
X121404326Y-131315000D01*
X121216259Y-131315000D01*
X121100000Y-130772292D01*
X120991311Y-131315000D01*
X120804710Y-131315000D01*
X120678925Y-130298949D01*
G37*
G36*
X121649546Y-131143053D02*
G01*
X121875226Y-131143053D01*
X121875226Y-130509975D01*
X121722086Y-130675572D01*
X121626343Y-130576165D01*
X121876448Y-130298949D01*
X122071353Y-130298949D01*
X122071353Y-131143053D01*
X122297034Y-131143053D01*
X122297034Y-131315000D01*
X121649546Y-131315000D01*
X121649546Y-131143053D01*
G37*
G36*
X127530496Y-124598949D02*
G01*
X128166260Y-124598949D01*
X128166260Y-124770896D01*
X127732240Y-124770896D01*
X127732240Y-124989738D01*
X128125227Y-124989738D01*
X128125227Y-125161685D01*
X127732240Y-125161685D01*
X127732240Y-125443053D01*
X128166260Y-125443053D01*
X128166260Y-125615000D01*
X127530496Y-125615000D01*
X127530496Y-124598949D01*
G37*
G36*
X128339184Y-124598949D02*
G01*
X128555827Y-124598949D01*
X128840370Y-125341203D01*
X128840370Y-124598949D01*
X129017935Y-124598949D01*
X129017935Y-125615000D01*
X128802757Y-125615000D01*
X128516992Y-124886912D01*
X128516992Y-125615000D01*
X128339184Y-125615000D01*
X128339184Y-124598949D01*
G37*
G36*
X129618772Y-125630631D02*
G01*
X129569153Y-125628528D01*
X129511314Y-125619986D01*
X129458127Y-125604872D01*
X129409591Y-125583187D01*
X129365706Y-125554931D01*
X129326472Y-125520104D01*
X129305164Y-125496053D01*
X129273853Y-125450883D01*
X129247848Y-125399940D01*
X129227151Y-125343225D01*
X129214414Y-125293697D01*
X129205073Y-125240475D01*
X129199130Y-125183559D01*
X129196582Y-125122948D01*
X129196476Y-125107219D01*
X129198174Y-125045410D01*
X129203269Y-124987356D01*
X129211760Y-124933058D01*
X129223648Y-124882515D01*
X129238932Y-124835727D01*
X129262814Y-124782524D01*
X129292003Y-124735187D01*
X129305164Y-124717896D01*
X129341607Y-124679126D01*
X129382702Y-124646927D01*
X129428447Y-124621299D01*
X129478844Y-124602243D01*
X129533891Y-124589757D01*
X129593590Y-124583843D01*
X129618772Y-124583318D01*
X129669702Y-124585795D01*
X129718202Y-124593229D01*
X129731612Y-124596263D01*
X129780080Y-124611418D01*
X129825650Y-124632155D01*
X129831508Y-124635341D01*
X129831508Y-124868838D01*
X129793851Y-124834657D01*
X129776309Y-124821454D01*
X129734488Y-124796083D01*
X129730391Y-124794099D01*
X129684026Y-124777581D01*
X129679344Y-124776514D01*
X129630617Y-124770902D01*
X129629030Y-124770896D01*
X129577617Y-124776178D01*
X129527660Y-124794747D01*
X129486049Y-124826685D01*
X129462945Y-124855404D01*
X129438154Y-124903474D01*
X129422273Y-124953675D01*
X129412976Y-125002751D01*
X129407664Y-125057408D01*
X129406281Y-125107219D01*
X129407664Y-125157199D01*
X129412976Y-125211902D01*
X129422273Y-125260851D01*
X129438154Y-125310688D01*
X129462945Y-125358056D01*
X129498992Y-125399143D01*
X129543385Y-125426784D01*
X129596124Y-125440977D01*
X129629030Y-125443053D01*
X129677684Y-125438330D01*
X129724729Y-125424162D01*
X129730879Y-125421559D01*
X129775330Y-125398032D01*
X129778263Y-125396158D01*
X129818858Y-125366152D01*
X129831508Y-125355614D01*
X129831508Y-125580317D01*
X129785555Y-125601111D01*
X129737455Y-125616324D01*
X129730879Y-125617930D01*
X129680093Y-125627047D01*
X129629884Y-125630519D01*
X129618772Y-125630631D01*
G37*
G36*
X130762561Y-125615000D02*
G01*
X130560817Y-125615000D01*
X130497802Y-125364895D01*
X130227914Y-125364895D01*
X130166364Y-125615000D01*
X129964620Y-125615000D01*
X130076412Y-125202718D01*
X130268214Y-125202718D01*
X130458967Y-125202718D01*
X130363224Y-124786284D01*
X130268214Y-125202718D01*
X130076412Y-125202718D01*
X130240126Y-124598949D01*
X130487055Y-124598949D01*
X130762561Y-125615000D01*
G37*
G36*
X124334647Y-116430631D02*
G01*
X124284119Y-116429105D01*
X124254535Y-116426723D01*
X124205897Y-116419739D01*
X124176622Y-116413534D01*
X124128212Y-116400769D01*
X124081902Y-116384759D01*
X124033384Y-116363402D01*
X124029099Y-116361266D01*
X124029099Y-116155614D01*
X124074366Y-116185444D01*
X124118667Y-116210637D01*
X124166757Y-116233191D01*
X124185659Y-116240610D01*
X124232914Y-116255293D01*
X124283683Y-116265164D01*
X124333182Y-116268454D01*
X124384896Y-116263680D01*
X124433336Y-116246042D01*
X124450174Y-116234504D01*
X124480949Y-116194509D01*
X124491167Y-116144703D01*
X124491207Y-116140959D01*
X124482551Y-116092530D01*
X124463852Y-116060847D01*
X124429169Y-116030073D01*
X124384473Y-116007358D01*
X124285310Y-115969989D01*
X124239004Y-115951342D01*
X124194294Y-115930774D01*
X124156106Y-115910150D01*
X124113967Y-115881542D01*
X124078925Y-115848600D01*
X124050460Y-115805424D01*
X124033856Y-115758775D01*
X124025791Y-115704745D01*
X124024947Y-115678363D01*
X124028073Y-115628560D01*
X124039620Y-115575840D01*
X124059675Y-115528917D01*
X124088239Y-115487791D01*
X124113852Y-115461964D01*
X124156130Y-115431320D01*
X124204532Y-115408202D01*
X124259059Y-115392611D01*
X124310671Y-115385238D01*
X124357117Y-115383318D01*
X124408156Y-115385078D01*
X124456829Y-115390360D01*
X124499023Y-115398217D01*
X124549512Y-115411749D01*
X124597605Y-115428620D01*
X124638241Y-115445600D01*
X124638241Y-115638796D01*
X124597118Y-115611917D01*
X124547613Y-115585676D01*
X124497936Y-115565996D01*
X124448088Y-115552875D01*
X124398068Y-115546315D01*
X124372993Y-115545495D01*
X124322607Y-115549582D01*
X124274017Y-115566187D01*
X124261374Y-115574560D01*
X124229973Y-115615183D01*
X124222540Y-115657358D01*
X124234846Y-115706726D01*
X124251116Y-115727212D01*
X124291905Y-115755055D01*
X124337586Y-115775752D01*
X124369574Y-115788272D01*
X124456280Y-115820757D01*
X124507277Y-115842024D01*
X124551916Y-115865863D01*
X124595147Y-115896256D01*
X124633856Y-115934463D01*
X124637508Y-115938970D01*
X124665608Y-115983861D01*
X124684512Y-116035553D01*
X124693594Y-116087210D01*
X124695638Y-116129480D01*
X124692418Y-116183089D01*
X124682758Y-116231443D01*
X124663349Y-116281215D01*
X124635174Y-116323834D01*
X124604047Y-116354672D01*
X124559850Y-116384269D01*
X124507402Y-116406597D01*
X124455879Y-116419949D01*
X124398294Y-116427961D01*
X124345676Y-116430557D01*
X124334647Y-116430631D01*
G37*
G36*
X124778925Y-115398949D02*
G01*
X124955268Y-115398949D01*
X125028541Y-116140226D01*
X125116713Y-115649054D01*
X125284019Y-115649054D01*
X125386601Y-116140226D01*
X125443998Y-115398949D01*
X125621807Y-115398949D01*
X125504326Y-116415000D01*
X125316259Y-116415000D01*
X125200000Y-115872292D01*
X125091311Y-116415000D01*
X124904710Y-116415000D01*
X124778925Y-115398949D01*
G37*
G36*
X125699720Y-116269187D02*
G01*
X125716817Y-116227421D01*
X125809141Y-116130212D01*
X125845045Y-116091820D01*
X125880765Y-116053775D01*
X125914654Y-116017892D01*
X125929309Y-116002473D01*
X125964511Y-115965301D01*
X125998918Y-115928224D01*
X126033287Y-115890947D01*
X126045568Y-115877665D01*
X126077147Y-115840125D01*
X126089288Y-115824665D01*
X126116349Y-115782029D01*
X126119330Y-115775816D01*
X126137053Y-115727410D01*
X126142044Y-115684469D01*
X126134050Y-115633118D01*
X126107743Y-115589823D01*
X126100279Y-115582620D01*
X126057329Y-115557242D01*
X126005978Y-115546401D01*
X125983286Y-115545495D01*
X125932256Y-115549843D01*
X125882275Y-115561666D01*
X125862386Y-115568210D01*
X125815569Y-115586638D01*
X125793754Y-115596542D01*
X125749027Y-115619688D01*
X125721458Y-115635865D01*
X125721458Y-115440226D01*
X125768721Y-115423472D01*
X125799371Y-115414092D01*
X125848322Y-115401167D01*
X125865073Y-115397484D01*
X125917280Y-115388851D01*
X125968388Y-115384203D01*
X126001849Y-115383318D01*
X126051880Y-115385453D01*
X126103761Y-115392655D01*
X126140823Y-115401392D01*
X126187099Y-115417867D01*
X126232116Y-115442304D01*
X126254152Y-115458300D01*
X126290845Y-115495166D01*
X126318952Y-115538900D01*
X126322051Y-115545251D01*
X126338747Y-115593703D01*
X126345879Y-115645476D01*
X126346475Y-115667128D01*
X126341967Y-115719134D01*
X126329626Y-115766899D01*
X126325959Y-115777037D01*
X126304332Y-115821963D01*
X126277553Y-115865514D01*
X126256838Y-115893785D01*
X126222955Y-115933224D01*
X126186985Y-115971699D01*
X126151111Y-116008656D01*
X126115105Y-116045162D01*
X126078072Y-116082348D01*
X126057780Y-116102613D01*
X126020764Y-116139099D01*
X125982819Y-116173553D01*
X125979134Y-116176618D01*
X125939792Y-116207465D01*
X125932728Y-116212522D01*
X125897313Y-116243053D01*
X126347697Y-116243053D01*
X126347697Y-116415000D01*
X125699720Y-116415000D01*
X125699720Y-116269187D01*
G37*
G36*
X118834473Y-114330631D02*
G01*
X118784854Y-114328528D01*
X118727016Y-114319986D01*
X118673828Y-114304872D01*
X118625292Y-114283187D01*
X118581407Y-114254931D01*
X118542173Y-114220104D01*
X118520865Y-114196053D01*
X118489554Y-114150883D01*
X118463550Y-114099940D01*
X118442852Y-114043225D01*
X118430115Y-113993697D01*
X118420775Y-113940475D01*
X118414831Y-113883559D01*
X118412284Y-113822948D01*
X118412177Y-113807219D01*
X118413876Y-113745410D01*
X118418970Y-113687356D01*
X118427462Y-113633058D01*
X118439349Y-113582515D01*
X118454634Y-113535727D01*
X118478515Y-113482524D01*
X118507704Y-113435187D01*
X118520865Y-113417896D01*
X118557309Y-113379126D01*
X118598403Y-113346927D01*
X118644148Y-113321299D01*
X118694545Y-113302243D01*
X118749593Y-113289757D01*
X118809291Y-113283843D01*
X118834473Y-113283318D01*
X118885404Y-113285795D01*
X118933903Y-113293229D01*
X118947314Y-113296263D01*
X118995782Y-113311418D01*
X119041352Y-113332155D01*
X119047209Y-113335341D01*
X119047209Y-113568838D01*
X119009552Y-113534657D01*
X118992010Y-113521454D01*
X118950190Y-113496083D01*
X118946092Y-113494099D01*
X118899727Y-113477581D01*
X118895046Y-113476514D01*
X118846319Y-113470902D01*
X118844732Y-113470896D01*
X118793318Y-113476178D01*
X118743361Y-113494747D01*
X118701750Y-113526685D01*
X118678646Y-113555404D01*
X118653856Y-113603474D01*
X118637974Y-113653675D01*
X118628678Y-113702751D01*
X118623365Y-113757408D01*
X118621982Y-113807219D01*
X118623365Y-113857199D01*
X118628678Y-113911902D01*
X118637974Y-113960851D01*
X118653856Y-114010688D01*
X118678646Y-114058056D01*
X118714693Y-114099143D01*
X118759086Y-114126784D01*
X118811826Y-114140977D01*
X118844732Y-114143053D01*
X118893386Y-114138330D01*
X118940430Y-114124162D01*
X118946581Y-114121559D01*
X118991031Y-114098032D01*
X118993964Y-114096158D01*
X119034560Y-114066152D01*
X119047209Y-114055614D01*
X119047209Y-114280317D01*
X119001256Y-114301111D01*
X118953156Y-114316324D01*
X118946581Y-114317930D01*
X118895794Y-114327047D01*
X118845585Y-114330519D01*
X118834473Y-114330631D01*
G37*
G36*
X119632175Y-113286556D02*
G01*
X119681250Y-113296269D01*
X119734630Y-113316474D01*
X119782000Y-113346003D01*
X119823359Y-113384858D01*
X119847593Y-113415942D01*
X119873557Y-113460399D01*
X119895120Y-113511034D01*
X119912282Y-113567847D01*
X119922844Y-113617745D01*
X119930589Y-113671597D01*
X119935518Y-113729402D01*
X119937630Y-113791161D01*
X119937718Y-113807219D01*
X119936310Y-113869691D01*
X119932085Y-113928271D01*
X119925044Y-113982959D01*
X119915187Y-114033754D01*
X119898904Y-114091773D01*
X119878221Y-114143711D01*
X119853137Y-114189566D01*
X119847593Y-114198007D01*
X119814823Y-114238619D01*
X119776627Y-114272132D01*
X119737195Y-114296437D01*
X119688410Y-114315905D01*
X119638951Y-114326591D01*
X119584626Y-114330598D01*
X119578926Y-114330631D01*
X119529080Y-114327926D01*
X119478590Y-114318576D01*
X119429002Y-114300578D01*
X119420656Y-114296437D01*
X119378031Y-114269465D01*
X119340833Y-114235567D01*
X119311724Y-114198740D01*
X119285478Y-114154276D01*
X119263681Y-114103624D01*
X119246333Y-114046781D01*
X119235657Y-113996851D01*
X119227828Y-113942959D01*
X119222845Y-113885106D01*
X119220710Y-113823291D01*
X119220621Y-113807219D01*
X119220632Y-113806730D01*
X119430670Y-113806730D01*
X119431535Y-113860261D01*
X119434855Y-113917917D01*
X119440665Y-113968396D01*
X119450591Y-114018214D01*
X119466085Y-114063185D01*
X119492427Y-114105303D01*
X119534742Y-114135253D01*
X119578926Y-114143053D01*
X119627498Y-114133615D01*
X119669098Y-114101793D01*
X119692498Y-114063185D01*
X119709618Y-114011695D01*
X119719060Y-113960481D01*
X119724455Y-113908806D01*
X119727360Y-113849953D01*
X119727914Y-113806730D01*
X119727049Y-113753340D01*
X119723729Y-113695821D01*
X119717919Y-113645446D01*
X119707993Y-113595704D01*
X119692498Y-113550764D01*
X119666085Y-113508646D01*
X119623495Y-113478696D01*
X119578926Y-113470896D01*
X119527222Y-113482128D01*
X119486785Y-113515822D01*
X119466085Y-113550764D01*
X119448966Y-113602215D01*
X119439524Y-113653346D01*
X119434129Y-113704911D01*
X119431223Y-113763621D01*
X119430670Y-113806730D01*
X119220632Y-113806730D01*
X119222045Y-113744780D01*
X119226315Y-113686181D01*
X119233433Y-113631421D01*
X119243397Y-113580500D01*
X119259856Y-113522248D01*
X119280763Y-113469995D01*
X119306119Y-113423740D01*
X119311724Y-113415209D01*
X119343261Y-113375705D01*
X119382745Y-113340792D01*
X119427251Y-113314825D01*
X119476028Y-113296887D01*
X119528326Y-113286395D01*
X119578926Y-113283318D01*
X119632175Y-113286556D01*
G37*
G36*
X120058863Y-113298949D02*
G01*
X120299442Y-113298949D01*
X120421075Y-113747623D01*
X120541975Y-113298949D01*
X120784020Y-113298949D01*
X120784020Y-114315000D01*
X120610363Y-114315000D01*
X120610363Y-113507288D01*
X120502408Y-113945216D01*
X120341696Y-113945216D01*
X120232519Y-113507288D01*
X120232519Y-114315000D01*
X120058863Y-114315000D01*
X120058863Y-113298949D01*
G37*
G36*
X121307920Y-113300500D02*
G01*
X121364157Y-113306453D01*
X121414280Y-113316872D01*
X121465030Y-113334670D01*
X121512840Y-113362452D01*
X121550240Y-113398509D01*
X121576954Y-113442442D01*
X121592983Y-113494252D01*
X121598242Y-113546047D01*
X121598325Y-113553939D01*
X121594307Y-113604783D01*
X121580415Y-113653889D01*
X121553675Y-113698925D01*
X121547523Y-113706102D01*
X121506863Y-113738290D01*
X121460534Y-113758134D01*
X121411210Y-113768327D01*
X121399267Y-113769605D01*
X121447693Y-113777114D01*
X121496282Y-113792306D01*
X121542333Y-113817828D01*
X121575611Y-113848007D01*
X121604065Y-113889921D01*
X121623207Y-113940374D01*
X121632404Y-113992390D01*
X121634473Y-114035830D01*
X121631348Y-114088043D01*
X121619801Y-114141795D01*
X121599745Y-114187833D01*
X121566406Y-114231003D01*
X121545569Y-114248810D01*
X121501344Y-114274600D01*
X121454953Y-114291665D01*
X121400731Y-114304076D01*
X121349564Y-114310863D01*
X121292959Y-114314418D01*
X121256385Y-114315000D01*
X120927635Y-114315000D01*
X120927635Y-114152822D01*
X121122540Y-114152822D01*
X121256385Y-114152822D01*
X121306094Y-114150233D01*
X121354464Y-114140038D01*
X121391696Y-114120094D01*
X121419220Y-114078838D01*
X121429106Y-114030610D01*
X121430042Y-114006521D01*
X121425280Y-113955277D01*
X121407373Y-113908931D01*
X121389742Y-113888063D01*
X121344381Y-113863352D01*
X121294573Y-113853645D01*
X121256385Y-113851915D01*
X121122540Y-113851915D01*
X121122540Y-114152822D01*
X120927635Y-114152822D01*
X120927635Y-113689738D01*
X121122540Y-113689738D01*
X121256385Y-113689738D01*
X121307951Y-113685925D01*
X121354634Y-113670437D01*
X121365806Y-113662627D01*
X121389498Y-113629410D01*
X121397770Y-113580480D01*
X121397802Y-113576409D01*
X121390611Y-113527583D01*
X121365073Y-113488726D01*
X121325750Y-113469187D01*
X121277390Y-113461630D01*
X121256385Y-113461127D01*
X121122540Y-113461127D01*
X121122540Y-113689738D01*
X120927635Y-113689738D01*
X120927635Y-113298949D01*
X121256385Y-113298949D01*
X121307920Y-113300500D01*
G37*
G36*
X134002546Y-140150500D02*
G01*
X134058783Y-140156453D01*
X134108906Y-140166872D01*
X134159656Y-140184670D01*
X134207466Y-140212452D01*
X134244866Y-140248509D01*
X134271580Y-140292442D01*
X134287609Y-140344252D01*
X134292868Y-140396047D01*
X134292951Y-140403939D01*
X134288933Y-140454783D01*
X134275041Y-140503889D01*
X134248301Y-140548925D01*
X134242149Y-140556102D01*
X134201489Y-140588290D01*
X134155160Y-140608134D01*
X134105836Y-140618327D01*
X134093893Y-140619605D01*
X134142319Y-140627114D01*
X134190908Y-140642306D01*
X134236959Y-140667828D01*
X134270237Y-140698007D01*
X134298691Y-140739921D01*
X134317833Y-140790374D01*
X134327030Y-140842390D01*
X134329099Y-140885830D01*
X134325974Y-140938043D01*
X134314427Y-140991795D01*
X134294371Y-141037833D01*
X134261032Y-141081003D01*
X134240195Y-141098810D01*
X134195970Y-141124600D01*
X134149579Y-141141665D01*
X134095357Y-141154076D01*
X134044190Y-141160863D01*
X133987585Y-141164418D01*
X133951011Y-141165000D01*
X133622260Y-141165000D01*
X133622260Y-141002822D01*
X133817166Y-141002822D01*
X133951011Y-141002822D01*
X134000720Y-141000233D01*
X134049090Y-140990038D01*
X134086322Y-140970094D01*
X134113846Y-140928838D01*
X134123732Y-140880610D01*
X134124668Y-140856521D01*
X134119906Y-140805277D01*
X134101999Y-140758931D01*
X134084368Y-140738063D01*
X134039007Y-140713352D01*
X133989199Y-140703645D01*
X133951011Y-140701915D01*
X133817166Y-140701915D01*
X133817166Y-141002822D01*
X133622260Y-141002822D01*
X133622260Y-140539738D01*
X133817166Y-140539738D01*
X133951011Y-140539738D01*
X134002577Y-140535925D01*
X134049260Y-140520437D01*
X134060432Y-140512627D01*
X134084124Y-140479410D01*
X134092396Y-140430480D01*
X134092428Y-140426409D01*
X134085237Y-140377583D01*
X134059699Y-140338726D01*
X134020376Y-140319187D01*
X133972016Y-140311630D01*
X133951011Y-140311127D01*
X133817166Y-140311127D01*
X133817166Y-140539738D01*
X133622260Y-140539738D01*
X133622260Y-140148949D01*
X133951011Y-140148949D01*
X134002546Y-140150500D01*
G37*
G36*
X135199337Y-141165000D02*
G01*
X134997592Y-141165000D01*
X134934577Y-140914895D01*
X134664689Y-140914895D01*
X134603140Y-141165000D01*
X134401395Y-141165000D01*
X134513187Y-140752718D01*
X134704989Y-140752718D01*
X134895743Y-140752718D01*
X134800000Y-140336284D01*
X134704989Y-140752718D01*
X134513187Y-140752718D01*
X134676901Y-140148949D01*
X134923831Y-140148949D01*
X135199337Y-141165000D01*
G37*
G36*
X135541765Y-140320896D02*
G01*
X135282623Y-140320896D01*
X135282623Y-140148949D01*
X136002407Y-140148949D01*
X136002407Y-140320896D01*
X135743265Y-140320896D01*
X135743265Y-141165000D01*
X135541765Y-141165000D01*
X135541765Y-140320896D01*
G37*
D13*
%TO.C,SW4*%
X110700000Y-144000000D02*
G75*
G02*
X108300000Y-144000000I-1200000J0D01*
G01*
X108300000Y-144000000D02*
G75*
G02*
X110700000Y-144000000I1200000J0D01*
G01*
%TO.C,SW5*%
X106700000Y-127000000D02*
G75*
G02*
X104300000Y-127000000I-1200000J0D01*
G01*
X104300000Y-127000000D02*
G75*
G02*
X106700000Y-127000000I1200000J0D01*
G01*
%TO.C,SW3*%
X138200000Y-134500000D02*
G75*
G02*
X135800000Y-134500000I-1200000J0D01*
G01*
X135800000Y-134500000D02*
G75*
G02*
X138200000Y-134500000I1200000J0D01*
G01*
%TO.C,ENCB*%
X127700000Y-137500000D02*
G75*
G02*
X125300000Y-137500000I-1200000J0D01*
G01*
X125300000Y-137500000D02*
G75*
G02*
X127700000Y-137500000I1200000J0D01*
G01*
%TO.C,COMA*%
X117200000Y-136000000D02*
G75*
G02*
X114800000Y-136000000I-1200000J0D01*
G01*
X114800000Y-136000000D02*
G75*
G02*
X117200000Y-136000000I1200000J0D01*
G01*
%TO.C,SW1*%
X122200000Y-129000000D02*
G75*
G02*
X119800000Y-129000000I-1200000J0D01*
G01*
X119800000Y-129000000D02*
G75*
G02*
X122200000Y-129000000I1200000J0D01*
G01*
%TO.C,ENCA*%
X130200000Y-123000000D02*
G75*
G02*
X127800000Y-123000000I-1200000J0D01*
G01*
X127800000Y-123000000D02*
G75*
G02*
X130200000Y-123000000I1200000J0D01*
G01*
%TO.C,SW2*%
X126200000Y-114000000D02*
G75*
G02*
X123800000Y-114000000I-1200000J0D01*
G01*
X123800000Y-114000000D02*
G75*
G02*
X126200000Y-114000000I1200000J0D01*
G01*
%TO.C,COMB*%
X121200000Y-112000000D02*
G75*
G02*
X118800000Y-112000000I-1200000J0D01*
G01*
X118800000Y-112000000D02*
G75*
G02*
X121200000Y-112000000I1200000J0D01*
G01*
D14*
%TO.C,REF\u002A\u002A*%
X135103910Y-102242348D02*
X135182454Y-102242778D01*
X135239298Y-102243942D01*
X135278105Y-102246207D01*
X135302538Y-102249940D01*
X135316262Y-102255506D01*
X135322940Y-102263273D01*
X135326236Y-102273605D01*
X135326556Y-102274943D01*
X135331562Y-102299079D01*
X135340829Y-102346701D01*
X135353392Y-102412741D01*
X135368287Y-102492128D01*
X135384551Y-102579796D01*
X135385119Y-102582875D01*
X135401410Y-102668789D01*
X135416652Y-102744696D01*
X135429861Y-102806045D01*
X135440054Y-102848282D01*
X135446248Y-102866855D01*
X135446543Y-102867184D01*
X135464788Y-102876253D01*
X135502405Y-102891367D01*
X135551271Y-102909262D01*
X135551543Y-102909358D01*
X135613093Y-102932493D01*
X135685657Y-102961965D01*
X135754057Y-102991597D01*
X135757294Y-102993062D01*
X135868702Y-103043626D01*
X136115399Y-102875160D01*
X136191077Y-102823803D01*
X136259631Y-102777889D01*
X136317088Y-102740030D01*
X136359476Y-102712837D01*
X136382825Y-102698921D01*
X136385042Y-102697889D01*
X136402010Y-102702484D01*
X136433701Y-102724655D01*
X136481352Y-102765447D01*
X136546198Y-102825905D01*
X136612397Y-102890227D01*
X136676214Y-102953612D01*
X136733329Y-103011451D01*
X136780305Y-103060175D01*
X136813703Y-103096210D01*
X136830085Y-103115984D01*
X136830694Y-103117002D01*
X136832505Y-103130572D01*
X136825683Y-103152733D01*
X136808540Y-103186478D01*
X136779393Y-103234800D01*
X136736555Y-103300692D01*
X136679448Y-103385517D01*
X136628766Y-103460177D01*
X136583461Y-103527140D01*
X136546150Y-103582516D01*
X136519452Y-103622420D01*
X136505985Y-103642962D01*
X136505137Y-103644356D01*
X136506781Y-103664038D01*
X136519245Y-103702293D01*
X136540048Y-103751889D01*
X136547462Y-103767728D01*
X136579814Y-103838290D01*
X136614328Y-103918353D01*
X136642365Y-103987629D01*
X136662568Y-104039045D01*
X136678615Y-104078119D01*
X136687888Y-104098541D01*
X136689041Y-104100114D01*
X136706096Y-104102721D01*
X136746298Y-104109863D01*
X136804302Y-104120523D01*
X136874763Y-104133685D01*
X136952335Y-104148333D01*
X137031672Y-104163449D01*
X137107431Y-104178018D01*
X137174264Y-104191022D01*
X137226828Y-104201445D01*
X137259776Y-104208270D01*
X137267857Y-104210199D01*
X137276205Y-104214962D01*
X137282506Y-104225718D01*
X137287045Y-104246098D01*
X137290104Y-104279734D01*
X137291967Y-104330255D01*
X137292918Y-104401292D01*
X137293240Y-104496476D01*
X137293257Y-104535492D01*
X137293257Y-104852799D01*
X137217057Y-104867839D01*
X137174663Y-104875995D01*
X137111400Y-104887899D01*
X137034962Y-104902116D01*
X136953043Y-104917210D01*
X136930400Y-104921355D01*
X136854806Y-104936053D01*
X136788953Y-104950505D01*
X136738366Y-104963375D01*
X136708574Y-104973322D01*
X136703612Y-104976287D01*
X136691426Y-104997283D01*
X136673953Y-105037967D01*
X136654577Y-105090322D01*
X136650734Y-105101600D01*
X136625339Y-105171523D01*
X136593817Y-105250418D01*
X136562969Y-105321266D01*
X136562817Y-105321595D01*
X136511447Y-105432733D01*
X136680399Y-105681253D01*
X136849352Y-105929772D01*
X136632429Y-106147058D01*
X136566819Y-106211726D01*
X136506979Y-106268733D01*
X136456267Y-106315033D01*
X136418046Y-106347584D01*
X136395675Y-106363343D01*
X136392466Y-106364343D01*
X136373626Y-106356469D01*
X136335180Y-106334578D01*
X136281330Y-106301267D01*
X136216276Y-106259131D01*
X136145940Y-106211943D01*
X136074555Y-106163810D01*
X136010908Y-106121928D01*
X135959041Y-106088871D01*
X135922995Y-106067218D01*
X135906867Y-106059543D01*
X135887189Y-106066037D01*
X135849875Y-106083150D01*
X135802621Y-106107326D01*
X135797612Y-106110013D01*
X135733977Y-106141927D01*
X135690341Y-106157579D01*
X135663202Y-106157745D01*
X135649057Y-106143204D01*
X135648975Y-106143000D01*
X135641905Y-106125779D01*
X135625042Y-106084899D01*
X135599695Y-106023525D01*
X135567171Y-105944819D01*
X135528778Y-105851947D01*
X135485822Y-105748072D01*
X135444222Y-105647502D01*
X135398504Y-105536516D01*
X135356526Y-105433703D01*
X135319548Y-105342215D01*
X135288827Y-105265201D01*
X135265622Y-105205815D01*
X135251190Y-105167209D01*
X135246743Y-105152800D01*
X135257896Y-105136272D01*
X135287069Y-105109930D01*
X135325971Y-105080887D01*
X135436757Y-104989039D01*
X135523351Y-104883759D01*
X135584716Y-104767266D01*
X135619815Y-104641776D01*
X135627608Y-104509507D01*
X135621943Y-104448457D01*
X135591078Y-104321795D01*
X135537920Y-104209941D01*
X135465767Y-104114001D01*
X135377917Y-104035076D01*
X135277665Y-103974270D01*
X135168310Y-103932687D01*
X135053147Y-103911428D01*
X134935475Y-103911599D01*
X134818590Y-103934301D01*
X134705789Y-103980638D01*
X134600369Y-104051713D01*
X134556368Y-104091911D01*
X134471979Y-104195129D01*
X134413222Y-104307925D01*
X134379704Y-104427010D01*
X134371035Y-104549095D01*
X134386823Y-104670893D01*
X134426678Y-104789116D01*
X134490207Y-104900475D01*
X134577021Y-105001684D01*
X134674029Y-105080887D01*
X134714437Y-105111162D01*
X134742982Y-105137219D01*
X134753257Y-105152825D01*
X134747877Y-105169843D01*
X134732575Y-105210500D01*
X134708612Y-105271642D01*
X134677244Y-105350119D01*
X134639732Y-105442780D01*
X134597333Y-105546472D01*
X134555663Y-105647526D01*
X134509690Y-105758607D01*
X134467107Y-105861541D01*
X134429221Y-105953165D01*
X134397340Y-106030316D01*
X134372771Y-106089831D01*
X134356820Y-106128544D01*
X134350910Y-106143000D01*
X134336948Y-106157685D01*
X134309940Y-106157642D01*
X134266413Y-106142099D01*
X134202890Y-106110284D01*
X134202388Y-106110013D01*
X134154560Y-106085323D01*
X134115897Y-106067338D01*
X134094095Y-106059614D01*
X134093133Y-106059543D01*
X134076721Y-106067378D01*
X134040487Y-106089165D01*
X133988474Y-106122328D01*
X133924725Y-106164291D01*
X133854060Y-106211943D01*
X133782116Y-106260191D01*
X133717274Y-106302151D01*
X133663735Y-106335227D01*
X133625697Y-106356821D01*
X133607533Y-106364343D01*
X133590808Y-106354457D01*
X133557180Y-106326826D01*
X133510010Y-106284495D01*
X133452658Y-106230505D01*
X133388484Y-106167899D01*
X133367497Y-106146983D01*
X133150499Y-105929623D01*
X133315668Y-105687220D01*
X133365864Y-105612781D01*
X133409919Y-105545972D01*
X133445362Y-105490665D01*
X133469719Y-105450729D01*
X133480522Y-105430036D01*
X133480838Y-105428563D01*
X133475143Y-105409058D01*
X133459826Y-105369822D01*
X133437537Y-105317430D01*
X133421893Y-105282355D01*
X133392641Y-105215201D01*
X133365094Y-105147358D01*
X133343737Y-105090034D01*
X133337935Y-105072572D01*
X133321452Y-105025938D01*
X133305340Y-104989905D01*
X133296490Y-104976287D01*
X133276960Y-104967952D01*
X133234334Y-104956137D01*
X133174145Y-104942181D01*
X133101922Y-104927422D01*
X133069600Y-104921355D01*
X132987522Y-104906273D01*
X132908795Y-104891669D01*
X132841109Y-104878980D01*
X132792160Y-104869642D01*
X132782943Y-104867839D01*
X132706743Y-104852799D01*
X132706743Y-104535492D01*
X132706914Y-104431154D01*
X132707616Y-104352213D01*
X132709134Y-104295038D01*
X132711749Y-104255999D01*
X132715746Y-104231465D01*
X132721409Y-104217805D01*
X132729020Y-104211389D01*
X132732143Y-104210199D01*
X132750978Y-104205980D01*
X132792588Y-104197562D01*
X132851630Y-104185961D01*
X132922757Y-104172195D01*
X133000625Y-104157280D01*
X133079887Y-104142232D01*
X133155198Y-104128069D01*
X133221213Y-104115806D01*
X133272587Y-104106461D01*
X133303975Y-104101050D01*
X133310959Y-104100114D01*
X133317285Y-104087596D01*
X133331290Y-104054246D01*
X133350355Y-104006377D01*
X133357634Y-103987629D01*
X133386996Y-103915195D01*
X133421571Y-103835170D01*
X133452537Y-103767728D01*
X133475323Y-103716159D01*
X133490482Y-103673785D01*
X133495542Y-103647834D01*
X133494736Y-103644356D01*
X133484041Y-103627936D01*
X133459620Y-103591417D01*
X133424095Y-103538687D01*
X133380087Y-103473635D01*
X133330217Y-103400151D01*
X133320356Y-103385645D01*
X133262492Y-103299704D01*
X133219956Y-103234261D01*
X133191054Y-103186304D01*
X133174090Y-103152820D01*
X133167367Y-103130795D01*
X133169190Y-103117217D01*
X133169236Y-103117131D01*
X133183586Y-103099297D01*
X133215323Y-103064817D01*
X133261010Y-103017268D01*
X133317204Y-102960222D01*
X133380468Y-102897255D01*
X133387602Y-102890227D01*
X133467330Y-102813020D01*
X133528857Y-102756330D01*
X133573421Y-102719110D01*
X133602257Y-102700315D01*
X133614958Y-102697889D01*
X133633494Y-102708471D01*
X133671961Y-102732916D01*
X133726386Y-102768612D01*
X133792798Y-102812947D01*
X133867225Y-102863311D01*
X133884601Y-102875160D01*
X134131297Y-103043626D01*
X134242706Y-102993062D01*
X134310457Y-102963595D01*
X134383183Y-102933959D01*
X134445703Y-102910330D01*
X134448457Y-102909358D01*
X134497360Y-102891457D01*
X134535057Y-102876320D01*
X134553425Y-102867210D01*
X134553456Y-102867184D01*
X134559285Y-102850717D01*
X134569192Y-102810219D01*
X134582195Y-102750242D01*
X134597309Y-102675340D01*
X134613552Y-102590064D01*
X134614881Y-102582875D01*
X134631175Y-102495014D01*
X134646133Y-102415260D01*
X134658791Y-102348681D01*
X134668186Y-102300347D01*
X134673354Y-102275325D01*
X134673444Y-102274943D01*
X134676589Y-102264299D01*
X134682704Y-102256262D01*
X134695453Y-102250467D01*
X134718500Y-102246547D01*
X134755509Y-102244135D01*
X134810144Y-102242865D01*
X134886067Y-102242371D01*
X134986944Y-102242286D01*
X135000000Y-102242286D01*
X135103910Y-102242348D01*
G36*
X135103910Y-102242348D02*
G01*
X135182454Y-102242778D01*
X135239298Y-102243942D01*
X135278105Y-102246207D01*
X135302538Y-102249940D01*
X135316262Y-102255506D01*
X135322940Y-102263273D01*
X135326236Y-102273605D01*
X135326556Y-102274943D01*
X135331562Y-102299079D01*
X135340829Y-102346701D01*
X135353392Y-102412741D01*
X135368287Y-102492128D01*
X135384551Y-102579796D01*
X135385119Y-102582875D01*
X135401410Y-102668789D01*
X135416652Y-102744696D01*
X135429861Y-102806045D01*
X135440054Y-102848282D01*
X135446248Y-102866855D01*
X135446543Y-102867184D01*
X135464788Y-102876253D01*
X135502405Y-102891367D01*
X135551271Y-102909262D01*
X135551543Y-102909358D01*
X135613093Y-102932493D01*
X135685657Y-102961965D01*
X135754057Y-102991597D01*
X135757294Y-102993062D01*
X135868702Y-103043626D01*
X136115399Y-102875160D01*
X136191077Y-102823803D01*
X136259631Y-102777889D01*
X136317088Y-102740030D01*
X136359476Y-102712837D01*
X136382825Y-102698921D01*
X136385042Y-102697889D01*
X136402010Y-102702484D01*
X136433701Y-102724655D01*
X136481352Y-102765447D01*
X136546198Y-102825905D01*
X136612397Y-102890227D01*
X136676214Y-102953612D01*
X136733329Y-103011451D01*
X136780305Y-103060175D01*
X136813703Y-103096210D01*
X136830085Y-103115984D01*
X136830694Y-103117002D01*
X136832505Y-103130572D01*
X136825683Y-103152733D01*
X136808540Y-103186478D01*
X136779393Y-103234800D01*
X136736555Y-103300692D01*
X136679448Y-103385517D01*
X136628766Y-103460177D01*
X136583461Y-103527140D01*
X136546150Y-103582516D01*
X136519452Y-103622420D01*
X136505985Y-103642962D01*
X136505137Y-103644356D01*
X136506781Y-103664038D01*
X136519245Y-103702293D01*
X136540048Y-103751889D01*
X136547462Y-103767728D01*
X136579814Y-103838290D01*
X136614328Y-103918353D01*
X136642365Y-103987629D01*
X136662568Y-104039045D01*
X136678615Y-104078119D01*
X136687888Y-104098541D01*
X136689041Y-104100114D01*
X136706096Y-104102721D01*
X136746298Y-104109863D01*
X136804302Y-104120523D01*
X136874763Y-104133685D01*
X136952335Y-104148333D01*
X137031672Y-104163449D01*
X137107431Y-104178018D01*
X137174264Y-104191022D01*
X137226828Y-104201445D01*
X137259776Y-104208270D01*
X137267857Y-104210199D01*
X137276205Y-104214962D01*
X137282506Y-104225718D01*
X137287045Y-104246098D01*
X137290104Y-104279734D01*
X137291967Y-104330255D01*
X137292918Y-104401292D01*
X137293240Y-104496476D01*
X137293257Y-104535492D01*
X137293257Y-104852799D01*
X137217057Y-104867839D01*
X137174663Y-104875995D01*
X137111400Y-104887899D01*
X137034962Y-104902116D01*
X136953043Y-104917210D01*
X136930400Y-104921355D01*
X136854806Y-104936053D01*
X136788953Y-104950505D01*
X136738366Y-104963375D01*
X136708574Y-104973322D01*
X136703612Y-104976287D01*
X136691426Y-104997283D01*
X136673953Y-105037967D01*
X136654577Y-105090322D01*
X136650734Y-105101600D01*
X136625339Y-105171523D01*
X136593817Y-105250418D01*
X136562969Y-105321266D01*
X136562817Y-105321595D01*
X136511447Y-105432733D01*
X136680399Y-105681253D01*
X136849352Y-105929772D01*
X136632429Y-106147058D01*
X136566819Y-106211726D01*
X136506979Y-106268733D01*
X136456267Y-106315033D01*
X136418046Y-106347584D01*
X136395675Y-106363343D01*
X136392466Y-106364343D01*
X136373626Y-106356469D01*
X136335180Y-106334578D01*
X136281330Y-106301267D01*
X136216276Y-106259131D01*
X136145940Y-106211943D01*
X136074555Y-106163810D01*
X136010908Y-106121928D01*
X135959041Y-106088871D01*
X135922995Y-106067218D01*
X135906867Y-106059543D01*
X135887189Y-106066037D01*
X135849875Y-106083150D01*
X135802621Y-106107326D01*
X135797612Y-106110013D01*
X135733977Y-106141927D01*
X135690341Y-106157579D01*
X135663202Y-106157745D01*
X135649057Y-106143204D01*
X135648975Y-106143000D01*
X135641905Y-106125779D01*
X135625042Y-106084899D01*
X135599695Y-106023525D01*
X135567171Y-105944819D01*
X135528778Y-105851947D01*
X135485822Y-105748072D01*
X135444222Y-105647502D01*
X135398504Y-105536516D01*
X135356526Y-105433703D01*
X135319548Y-105342215D01*
X135288827Y-105265201D01*
X135265622Y-105205815D01*
X135251190Y-105167209D01*
X135246743Y-105152800D01*
X135257896Y-105136272D01*
X135287069Y-105109930D01*
X135325971Y-105080887D01*
X135436757Y-104989039D01*
X135523351Y-104883759D01*
X135584716Y-104767266D01*
X135619815Y-104641776D01*
X135627608Y-104509507D01*
X135621943Y-104448457D01*
X135591078Y-104321795D01*
X135537920Y-104209941D01*
X135465767Y-104114001D01*
X135377917Y-104035076D01*
X135277665Y-103974270D01*
X135168310Y-103932687D01*
X135053147Y-103911428D01*
X134935475Y-103911599D01*
X134818590Y-103934301D01*
X134705789Y-103980638D01*
X134600369Y-104051713D01*
X134556368Y-104091911D01*
X134471979Y-104195129D01*
X134413222Y-104307925D01*
X134379704Y-104427010D01*
X134371035Y-104549095D01*
X134386823Y-104670893D01*
X134426678Y-104789116D01*
X134490207Y-104900475D01*
X134577021Y-105001684D01*
X134674029Y-105080887D01*
X134714437Y-105111162D01*
X134742982Y-105137219D01*
X134753257Y-105152825D01*
X134747877Y-105169843D01*
X134732575Y-105210500D01*
X134708612Y-105271642D01*
X134677244Y-105350119D01*
X134639732Y-105442780D01*
X134597333Y-105546472D01*
X134555663Y-105647526D01*
X134509690Y-105758607D01*
X134467107Y-105861541D01*
X134429221Y-105953165D01*
X134397340Y-106030316D01*
X134372771Y-106089831D01*
X134356820Y-106128544D01*
X134350910Y-106143000D01*
X134336948Y-106157685D01*
X134309940Y-106157642D01*
X134266413Y-106142099D01*
X134202890Y-106110284D01*
X134202388Y-106110013D01*
X134154560Y-106085323D01*
X134115897Y-106067338D01*
X134094095Y-106059614D01*
X134093133Y-106059543D01*
X134076721Y-106067378D01*
X134040487Y-106089165D01*
X133988474Y-106122328D01*
X133924725Y-106164291D01*
X133854060Y-106211943D01*
X133782116Y-106260191D01*
X133717274Y-106302151D01*
X133663735Y-106335227D01*
X133625697Y-106356821D01*
X133607533Y-106364343D01*
X133590808Y-106354457D01*
X133557180Y-106326826D01*
X133510010Y-106284495D01*
X133452658Y-106230505D01*
X133388484Y-106167899D01*
X133367497Y-106146983D01*
X133150499Y-105929623D01*
X133315668Y-105687220D01*
X133365864Y-105612781D01*
X133409919Y-105545972D01*
X133445362Y-105490665D01*
X133469719Y-105450729D01*
X133480522Y-105430036D01*
X133480838Y-105428563D01*
X133475143Y-105409058D01*
X133459826Y-105369822D01*
X133437537Y-105317430D01*
X133421893Y-105282355D01*
X133392641Y-105215201D01*
X133365094Y-105147358D01*
X133343737Y-105090034D01*
X133337935Y-105072572D01*
X133321452Y-105025938D01*
X133305340Y-104989905D01*
X133296490Y-104976287D01*
X133276960Y-104967952D01*
X133234334Y-104956137D01*
X133174145Y-104942181D01*
X133101922Y-104927422D01*
X133069600Y-104921355D01*
X132987522Y-104906273D01*
X132908795Y-104891669D01*
X132841109Y-104878980D01*
X132792160Y-104869642D01*
X132782943Y-104867839D01*
X132706743Y-104852799D01*
X132706743Y-104535492D01*
X132706914Y-104431154D01*
X132707616Y-104352213D01*
X132709134Y-104295038D01*
X132711749Y-104255999D01*
X132715746Y-104231465D01*
X132721409Y-104217805D01*
X132729020Y-104211389D01*
X132732143Y-104210199D01*
X132750978Y-104205980D01*
X132792588Y-104197562D01*
X132851630Y-104185961D01*
X132922757Y-104172195D01*
X133000625Y-104157280D01*
X133079887Y-104142232D01*
X133155198Y-104128069D01*
X133221213Y-104115806D01*
X133272587Y-104106461D01*
X133303975Y-104101050D01*
X133310959Y-104100114D01*
X133317285Y-104087596D01*
X133331290Y-104054246D01*
X133350355Y-104006377D01*
X133357634Y-103987629D01*
X133386996Y-103915195D01*
X133421571Y-103835170D01*
X133452537Y-103767728D01*
X133475323Y-103716159D01*
X133490482Y-103673785D01*
X133495542Y-103647834D01*
X133494736Y-103644356D01*
X133484041Y-103627936D01*
X133459620Y-103591417D01*
X133424095Y-103538687D01*
X133380087Y-103473635D01*
X133330217Y-103400151D01*
X133320356Y-103385645D01*
X133262492Y-103299704D01*
X133219956Y-103234261D01*
X133191054Y-103186304D01*
X133174090Y-103152820D01*
X133167367Y-103130795D01*
X133169190Y-103117217D01*
X133169236Y-103117131D01*
X133183586Y-103099297D01*
X133215323Y-103064817D01*
X133261010Y-103017268D01*
X133317204Y-102960222D01*
X133380468Y-102897255D01*
X133387602Y-102890227D01*
X133467330Y-102813020D01*
X133528857Y-102756330D01*
X133573421Y-102719110D01*
X133602257Y-102700315D01*
X133614958Y-102697889D01*
X133633494Y-102708471D01*
X133671961Y-102732916D01*
X133726386Y-102768612D01*
X133792798Y-102812947D01*
X133867225Y-102863311D01*
X133884601Y-102875160D01*
X134131297Y-103043626D01*
X134242706Y-102993062D01*
X134310457Y-102963595D01*
X134383183Y-102933959D01*
X134445703Y-102910330D01*
X134448457Y-102909358D01*
X134497360Y-102891457D01*
X134535057Y-102876320D01*
X134553425Y-102867210D01*
X134553456Y-102867184D01*
X134559285Y-102850717D01*
X134569192Y-102810219D01*
X134582195Y-102750242D01*
X134597309Y-102675340D01*
X134613552Y-102590064D01*
X134614881Y-102582875D01*
X134631175Y-102495014D01*
X134646133Y-102415260D01*
X134658791Y-102348681D01*
X134668186Y-102300347D01*
X134673354Y-102275325D01*
X134673444Y-102274943D01*
X134676589Y-102264299D01*
X134682704Y-102256262D01*
X134695453Y-102250467D01*
X134718500Y-102246547D01*
X134755509Y-102244135D01*
X134810144Y-102242865D01*
X134886067Y-102242371D01*
X134986944Y-102242286D01*
X135000000Y-102242286D01*
X135103910Y-102242348D01*
G37*
X137144876Y-106956335D02*
X137186667Y-106975344D01*
X137219469Y-106998378D01*
X137243503Y-107024133D01*
X137260097Y-107057358D01*
X137270577Y-107102800D01*
X137276271Y-107165207D01*
X137278507Y-107249327D01*
X137278743Y-107304721D01*
X137278743Y-107520826D01*
X137241774Y-107537670D01*
X137212656Y-107549981D01*
X137198231Y-107554514D01*
X137195472Y-107541025D01*
X137193282Y-107504653D01*
X137191942Y-107451542D01*
X137191657Y-107409372D01*
X137190434Y-107348447D01*
X137187136Y-107300115D01*
X137182321Y-107270518D01*
X137178496Y-107264229D01*
X137152783Y-107270652D01*
X137112418Y-107287125D01*
X137065679Y-107309458D01*
X137020845Y-107333457D01*
X136986193Y-107354930D01*
X136970002Y-107369685D01*
X136969938Y-107369845D01*
X136971330Y-107397152D01*
X136983818Y-107423219D01*
X137005743Y-107444392D01*
X137037743Y-107451474D01*
X137065092Y-107450649D01*
X137103826Y-107450042D01*
X137124158Y-107459116D01*
X137136369Y-107483092D01*
X137137909Y-107487613D01*
X137143203Y-107521806D01*
X137129047Y-107542568D01*
X137092148Y-107552462D01*
X137052289Y-107554292D01*
X136980562Y-107540727D01*
X136943432Y-107521355D01*
X136897576Y-107475845D01*
X136873256Y-107419983D01*
X136871073Y-107360957D01*
X136891629Y-107305953D01*
X136922549Y-107271486D01*
X136953420Y-107252189D01*
X137001942Y-107227759D01*
X137058485Y-107202985D01*
X137067910Y-107199199D01*
X137130019Y-107171791D01*
X137165822Y-107147634D01*
X137177337Y-107123619D01*
X137166580Y-107096635D01*
X137148114Y-107075543D01*
X137104469Y-107049572D01*
X137056446Y-107047624D01*
X137012406Y-107067637D01*
X136980709Y-107107551D01*
X136976549Y-107117848D01*
X136952327Y-107155724D01*
X136916965Y-107183842D01*
X136872343Y-107206917D01*
X136872343Y-107141485D01*
X136874969Y-107101506D01*
X136886230Y-107069997D01*
X136911199Y-107036378D01*
X136935169Y-107010484D01*
X136972441Y-106973817D01*
X137001401Y-106954121D01*
X137032505Y-106946220D01*
X137067713Y-106944914D01*
X137144876Y-106956335D01*
G36*
X137144876Y-106956335D02*
G01*
X137186667Y-106975344D01*
X137219469Y-106998378D01*
X137243503Y-107024133D01*
X137260097Y-107057358D01*
X137270577Y-107102800D01*
X137276271Y-107165207D01*
X137278507Y-107249327D01*
X137278743Y-107304721D01*
X137278743Y-107520826D01*
X137241774Y-107537670D01*
X137212656Y-107549981D01*
X137198231Y-107554514D01*
X137195472Y-107541025D01*
X137193282Y-107504653D01*
X137191942Y-107451542D01*
X137191657Y-107409372D01*
X137190434Y-107348447D01*
X137187136Y-107300115D01*
X137182321Y-107270518D01*
X137178496Y-107264229D01*
X137152783Y-107270652D01*
X137112418Y-107287125D01*
X137065679Y-107309458D01*
X137020845Y-107333457D01*
X136986193Y-107354930D01*
X136970002Y-107369685D01*
X136969938Y-107369845D01*
X136971330Y-107397152D01*
X136983818Y-107423219D01*
X137005743Y-107444392D01*
X137037743Y-107451474D01*
X137065092Y-107450649D01*
X137103826Y-107450042D01*
X137124158Y-107459116D01*
X137136369Y-107483092D01*
X137137909Y-107487613D01*
X137143203Y-107521806D01*
X137129047Y-107542568D01*
X137092148Y-107552462D01*
X137052289Y-107554292D01*
X136980562Y-107540727D01*
X136943432Y-107521355D01*
X136897576Y-107475845D01*
X136873256Y-107419983D01*
X136871073Y-107360957D01*
X136891629Y-107305953D01*
X136922549Y-107271486D01*
X136953420Y-107252189D01*
X137001942Y-107227759D01*
X137058485Y-107202985D01*
X137067910Y-107199199D01*
X137130019Y-107171791D01*
X137165822Y-107147634D01*
X137177337Y-107123619D01*
X137166580Y-107096635D01*
X137148114Y-107075543D01*
X137104469Y-107049572D01*
X137056446Y-107047624D01*
X137012406Y-107067637D01*
X136980709Y-107107551D01*
X136976549Y-107117848D01*
X136952327Y-107155724D01*
X136916965Y-107183842D01*
X136872343Y-107206917D01*
X136872343Y-107141485D01*
X136874969Y-107101506D01*
X136886230Y-107069997D01*
X136911199Y-107036378D01*
X136935169Y-107010484D01*
X136972441Y-106973817D01*
X137001401Y-106954121D01*
X137032505Y-106946220D01*
X137067713Y-106944914D01*
X137144876Y-106956335D01*
G37*
X132599744Y-106919918D02*
X132655201Y-106947568D01*
X132704148Y-106998480D01*
X132717629Y-107017338D01*
X132732314Y-107042015D01*
X132741842Y-107068816D01*
X132747293Y-107104587D01*
X132749747Y-107156169D01*
X132750286Y-107224267D01*
X132747852Y-107317588D01*
X132739394Y-107387657D01*
X132723174Y-107439931D01*
X132697454Y-107479869D01*
X132660497Y-107512929D01*
X132657782Y-107514886D01*
X132621360Y-107534908D01*
X132577502Y-107544815D01*
X132521724Y-107547257D01*
X132431048Y-107547257D01*
X132431010Y-107635283D01*
X132430166Y-107684308D01*
X132425024Y-107713065D01*
X132411587Y-107730311D01*
X132385858Y-107744808D01*
X132379679Y-107747769D01*
X132350764Y-107761648D01*
X132328376Y-107770414D01*
X132311729Y-107771171D01*
X132300036Y-107761023D01*
X132292510Y-107737073D01*
X132288366Y-107696426D01*
X132286815Y-107636186D01*
X132287071Y-107553455D01*
X132288349Y-107445339D01*
X132288748Y-107413000D01*
X132290185Y-107301524D01*
X132291472Y-107228603D01*
X132430971Y-107228603D01*
X132431755Y-107290499D01*
X132435240Y-107330997D01*
X132443124Y-107357708D01*
X132457105Y-107378244D01*
X132466597Y-107388260D01*
X132505404Y-107417567D01*
X132539763Y-107419952D01*
X132575216Y-107395750D01*
X132576114Y-107394857D01*
X132590539Y-107376153D01*
X132599313Y-107350732D01*
X132603739Y-107311584D01*
X132605118Y-107251697D01*
X132605143Y-107238430D01*
X132601812Y-107155901D01*
X132590969Y-107098691D01*
X132571340Y-107063766D01*
X132541650Y-107048094D01*
X132524491Y-107046514D01*
X132483766Y-107053926D01*
X132455832Y-107078330D01*
X132439017Y-107122980D01*
X132431650Y-107191130D01*
X132430971Y-107228603D01*
X132291472Y-107228603D01*
X132291708Y-107215245D01*
X132293677Y-107150333D01*
X132296450Y-107102958D01*
X132300388Y-107069290D01*
X132305849Y-107045498D01*
X132313192Y-107027753D01*
X132322777Y-107012224D01*
X132326887Y-107006381D01*
X132381405Y-106951185D01*
X132450336Y-106919890D01*
X132530072Y-106911165D01*
X132599744Y-106919918D01*
G36*
X132599744Y-106919918D02*
G01*
X132655201Y-106947568D01*
X132704148Y-106998480D01*
X132717629Y-107017338D01*
X132732314Y-107042015D01*
X132741842Y-107068816D01*
X132747293Y-107104587D01*
X132749747Y-107156169D01*
X132750286Y-107224267D01*
X132747852Y-107317588D01*
X132739394Y-107387657D01*
X132723174Y-107439931D01*
X132697454Y-107479869D01*
X132660497Y-107512929D01*
X132657782Y-107514886D01*
X132621360Y-107534908D01*
X132577502Y-107544815D01*
X132521724Y-107547257D01*
X132431048Y-107547257D01*
X132431010Y-107635283D01*
X132430166Y-107684308D01*
X132425024Y-107713065D01*
X132411587Y-107730311D01*
X132385858Y-107744808D01*
X132379679Y-107747769D01*
X132350764Y-107761648D01*
X132328376Y-107770414D01*
X132311729Y-107771171D01*
X132300036Y-107761023D01*
X132292510Y-107737073D01*
X132288366Y-107696426D01*
X132286815Y-107636186D01*
X132287071Y-107553455D01*
X132288349Y-107445339D01*
X132288748Y-107413000D01*
X132290185Y-107301524D01*
X132291472Y-107228603D01*
X132430971Y-107228603D01*
X132431755Y-107290499D01*
X132435240Y-107330997D01*
X132443124Y-107357708D01*
X132457105Y-107378244D01*
X132466597Y-107388260D01*
X132505404Y-107417567D01*
X132539763Y-107419952D01*
X132575216Y-107395750D01*
X132576114Y-107394857D01*
X132590539Y-107376153D01*
X132599313Y-107350732D01*
X132603739Y-107311584D01*
X132605118Y-107251697D01*
X132605143Y-107238430D01*
X132601812Y-107155901D01*
X132590969Y-107098691D01*
X132571340Y-107063766D01*
X132541650Y-107048094D01*
X132524491Y-107046514D01*
X132483766Y-107053926D01*
X132455832Y-107078330D01*
X132439017Y-107122980D01*
X132431650Y-107191130D01*
X132430971Y-107228603D01*
X132291472Y-107228603D01*
X132291708Y-107215245D01*
X132293677Y-107150333D01*
X132296450Y-107102958D01*
X132300388Y-107069290D01*
X132305849Y-107045498D01*
X132313192Y-107027753D01*
X132322777Y-107012224D01*
X132326887Y-107006381D01*
X132381405Y-106951185D01*
X132450336Y-106919890D01*
X132530072Y-106911165D01*
X132599744Y-106919918D01*
G37*
X135039744Y-106950968D02*
X135096616Y-106972087D01*
X135097267Y-106972493D01*
X135132440Y-106998380D01*
X135158407Y-107028633D01*
X135176670Y-107068058D01*
X135188732Y-107121462D01*
X135196096Y-107193651D01*
X135200264Y-107289432D01*
X135200629Y-107303078D01*
X135205876Y-107508842D01*
X135161716Y-107531678D01*
X135129763Y-107547110D01*
X135110470Y-107554423D01*
X135109578Y-107554514D01*
X135106239Y-107541022D01*
X135103587Y-107504626D01*
X135101956Y-107451452D01*
X135101600Y-107408393D01*
X135101592Y-107338641D01*
X135098403Y-107294837D01*
X135087288Y-107273944D01*
X135063501Y-107272925D01*
X135022296Y-107288741D01*
X134960086Y-107317815D01*
X134914341Y-107341963D01*
X134890813Y-107362913D01*
X134883896Y-107385747D01*
X134883886Y-107386877D01*
X134895299Y-107426212D01*
X134929092Y-107447462D01*
X134980809Y-107450539D01*
X135018061Y-107450006D01*
X135037703Y-107460735D01*
X135049952Y-107486505D01*
X135057002Y-107519337D01*
X135046842Y-107537966D01*
X135043017Y-107540632D01*
X135007001Y-107551340D01*
X134956566Y-107552856D01*
X134904626Y-107545759D01*
X134867822Y-107532788D01*
X134816938Y-107489585D01*
X134788014Y-107429446D01*
X134782286Y-107382462D01*
X134786657Y-107340082D01*
X134802475Y-107305488D01*
X134833797Y-107274763D01*
X134884678Y-107243990D01*
X134959176Y-107209252D01*
X134963714Y-107207288D01*
X135030821Y-107176287D01*
X135072232Y-107150862D01*
X135089981Y-107128014D01*
X135086107Y-107104745D01*
X135062643Y-107078056D01*
X135055627Y-107071914D01*
X135008630Y-107048100D01*
X134959933Y-107049103D01*
X134917522Y-107072451D01*
X134889384Y-107115675D01*
X134886769Y-107124160D01*
X134861308Y-107165308D01*
X134829001Y-107185128D01*
X134782286Y-107204770D01*
X134782286Y-107153950D01*
X134796496Y-107080082D01*
X134838675Y-107012327D01*
X134860624Y-106989661D01*
X134910517Y-106960569D01*
X134973967Y-106947400D01*
X135039744Y-106950968D01*
G36*
X135039744Y-106950968D02*
G01*
X135096616Y-106972087D01*
X135097267Y-106972493D01*
X135132440Y-106998380D01*
X135158407Y-107028633D01*
X135176670Y-107068058D01*
X135188732Y-107121462D01*
X135196096Y-107193651D01*
X135200264Y-107289432D01*
X135200629Y-107303078D01*
X135205876Y-107508842D01*
X135161716Y-107531678D01*
X135129763Y-107547110D01*
X135110470Y-107554423D01*
X135109578Y-107554514D01*
X135106239Y-107541022D01*
X135103587Y-107504626D01*
X135101956Y-107451452D01*
X135101600Y-107408393D01*
X135101592Y-107338641D01*
X135098403Y-107294837D01*
X135087288Y-107273944D01*
X135063501Y-107272925D01*
X135022296Y-107288741D01*
X134960086Y-107317815D01*
X134914341Y-107341963D01*
X134890813Y-107362913D01*
X134883896Y-107385747D01*
X134883886Y-107386877D01*
X134895299Y-107426212D01*
X134929092Y-107447462D01*
X134980809Y-107450539D01*
X135018061Y-107450006D01*
X135037703Y-107460735D01*
X135049952Y-107486505D01*
X135057002Y-107519337D01*
X135046842Y-107537966D01*
X135043017Y-107540632D01*
X135007001Y-107551340D01*
X134956566Y-107552856D01*
X134904626Y-107545759D01*
X134867822Y-107532788D01*
X134816938Y-107489585D01*
X134788014Y-107429446D01*
X134782286Y-107382462D01*
X134786657Y-107340082D01*
X134802475Y-107305488D01*
X134833797Y-107274763D01*
X134884678Y-107243990D01*
X134959176Y-107209252D01*
X134963714Y-107207288D01*
X135030821Y-107176287D01*
X135072232Y-107150862D01*
X135089981Y-107128014D01*
X135086107Y-107104745D01*
X135062643Y-107078056D01*
X135055627Y-107071914D01*
X135008630Y-107048100D01*
X134959933Y-107049103D01*
X134917522Y-107072451D01*
X134889384Y-107115675D01*
X134886769Y-107124160D01*
X134861308Y-107165308D01*
X134829001Y-107185128D01*
X134782286Y-107204770D01*
X134782286Y-107153950D01*
X134796496Y-107080082D01*
X134838675Y-107012327D01*
X134860624Y-106989661D01*
X134910517Y-106960569D01*
X134973967Y-106947400D01*
X135039744Y-106950968D01*
G37*
X133168303Y-106931239D02*
X133225527Y-106969735D01*
X133269749Y-107025335D01*
X133296167Y-107096086D01*
X133301510Y-107148162D01*
X133300903Y-107169893D01*
X133295822Y-107186531D01*
X133281855Y-107201437D01*
X133254589Y-107217973D01*
X133209612Y-107239498D01*
X133142511Y-107269374D01*
X133142171Y-107269524D01*
X133080407Y-107297813D01*
X133029759Y-107322933D01*
X132995404Y-107342179D01*
X132982518Y-107352848D01*
X132982514Y-107352934D01*
X132993872Y-107376166D01*
X133020431Y-107401774D01*
X133050923Y-107420221D01*
X133066370Y-107423886D01*
X133108515Y-107411212D01*
X133144808Y-107379471D01*
X133162517Y-107344572D01*
X133179552Y-107318845D01*
X133212922Y-107289546D01*
X133252149Y-107264235D01*
X133286756Y-107250471D01*
X133293993Y-107249714D01*
X133302139Y-107262160D01*
X133302630Y-107293972D01*
X133296643Y-107336866D01*
X133285357Y-107382558D01*
X133269950Y-107422761D01*
X133269171Y-107424322D01*
X133222804Y-107489062D01*
X133162711Y-107533097D01*
X133094465Y-107554711D01*
X133023638Y-107552185D01*
X132955804Y-107523804D01*
X132952788Y-107521808D01*
X132899427Y-107473448D01*
X132864340Y-107410352D01*
X132844922Y-107327387D01*
X132842316Y-107304078D01*
X132837701Y-107194055D01*
X132843233Y-107142748D01*
X132982514Y-107142748D01*
X132984324Y-107174753D01*
X132994222Y-107184093D01*
X133018898Y-107177105D01*
X133057795Y-107160587D01*
X133101275Y-107139881D01*
X133102356Y-107139333D01*
X133139209Y-107119949D01*
X133154000Y-107107013D01*
X133150353Y-107093451D01*
X133134995Y-107075632D01*
X133095923Y-107049845D01*
X133053846Y-107047950D01*
X133016103Y-107066717D01*
X132990034Y-107102915D01*
X132982514Y-107142748D01*
X132843233Y-107142748D01*
X132847194Y-107106027D01*
X132871550Y-107036212D01*
X132905456Y-106987302D01*
X132966653Y-106937878D01*
X133034063Y-106913359D01*
X133102880Y-106911797D01*
X133168303Y-106931239D01*
G36*
X133168303Y-106931239D02*
G01*
X133225527Y-106969735D01*
X133269749Y-107025335D01*
X133296167Y-107096086D01*
X133301510Y-107148162D01*
X133300903Y-107169893D01*
X133295822Y-107186531D01*
X133281855Y-107201437D01*
X133254589Y-107217973D01*
X133209612Y-107239498D01*
X133142511Y-107269374D01*
X133142171Y-107269524D01*
X133080407Y-107297813D01*
X133029759Y-107322933D01*
X132995404Y-107342179D01*
X132982518Y-107352848D01*
X132982514Y-107352934D01*
X132993872Y-107376166D01*
X133020431Y-107401774D01*
X133050923Y-107420221D01*
X133066370Y-107423886D01*
X133108515Y-107411212D01*
X133144808Y-107379471D01*
X133162517Y-107344572D01*
X133179552Y-107318845D01*
X133212922Y-107289546D01*
X133252149Y-107264235D01*
X133286756Y-107250471D01*
X133293993Y-107249714D01*
X133302139Y-107262160D01*
X133302630Y-107293972D01*
X133296643Y-107336866D01*
X133285357Y-107382558D01*
X133269950Y-107422761D01*
X133269171Y-107424322D01*
X133222804Y-107489062D01*
X133162711Y-107533097D01*
X133094465Y-107554711D01*
X133023638Y-107552185D01*
X132955804Y-107523804D01*
X132952788Y-107521808D01*
X132899427Y-107473448D01*
X132864340Y-107410352D01*
X132844922Y-107327387D01*
X132842316Y-107304078D01*
X132837701Y-107194055D01*
X132843233Y-107142748D01*
X132982514Y-107142748D01*
X132984324Y-107174753D01*
X132994222Y-107184093D01*
X133018898Y-107177105D01*
X133057795Y-107160587D01*
X133101275Y-107139881D01*
X133102356Y-107139333D01*
X133139209Y-107119949D01*
X133154000Y-107107013D01*
X133150353Y-107093451D01*
X133134995Y-107075632D01*
X133095923Y-107049845D01*
X133053846Y-107047950D01*
X133016103Y-107066717D01*
X132990034Y-107102915D01*
X132982514Y-107142748D01*
X132843233Y-107142748D01*
X132847194Y-107106027D01*
X132871550Y-107036212D01*
X132905456Y-106987302D01*
X132966653Y-106937878D01*
X133034063Y-106913359D01*
X133102880Y-106911797D01*
X133168303Y-106931239D01*
G37*
X136190117Y-107065358D02*
X136189933Y-107173837D01*
X136189219Y-107257287D01*
X136187675Y-107319704D01*
X136185001Y-107365085D01*
X136180894Y-107397429D01*
X136175055Y-107420733D01*
X136167182Y-107438995D01*
X136161221Y-107449418D01*
X136111855Y-107505945D01*
X136049264Y-107541377D01*
X135980013Y-107554090D01*
X135910668Y-107542463D01*
X135869375Y-107521568D01*
X135826025Y-107485422D01*
X135796481Y-107441276D01*
X135778655Y-107383462D01*
X135770463Y-107306313D01*
X135769302Y-107249714D01*
X135769458Y-107245647D01*
X135870857Y-107245647D01*
X135871476Y-107310550D01*
X135874314Y-107353514D01*
X135880840Y-107381622D01*
X135892523Y-107401953D01*
X135906483Y-107417288D01*
X135953365Y-107446890D01*
X136003701Y-107449419D01*
X136051276Y-107424705D01*
X136054979Y-107421356D01*
X136070783Y-107403935D01*
X136080693Y-107383209D01*
X136086058Y-107352362D01*
X136088228Y-107304577D01*
X136088571Y-107251748D01*
X136087827Y-107185381D01*
X136084748Y-107141106D01*
X136078061Y-107112009D01*
X136066496Y-107091173D01*
X136057013Y-107080107D01*
X136012960Y-107052198D01*
X135962224Y-107048843D01*
X135913796Y-107070159D01*
X135904450Y-107078073D01*
X135888540Y-107095647D01*
X135878610Y-107116587D01*
X135873278Y-107147782D01*
X135871163Y-107196122D01*
X135870857Y-107245647D01*
X135769458Y-107245647D01*
X135772810Y-107158568D01*
X135784726Y-107090086D01*
X135807135Y-107038600D01*
X135842124Y-106998443D01*
X135869375Y-106977861D01*
X135918907Y-106955625D01*
X135976316Y-106945304D01*
X136029682Y-106948067D01*
X136059543Y-106959212D01*
X136071261Y-106962383D01*
X136079037Y-106950557D01*
X136084465Y-106918866D01*
X136088571Y-106870593D01*
X136093067Y-106816829D01*
X136099313Y-106784482D01*
X136110676Y-106765985D01*
X136130528Y-106753770D01*
X136143000Y-106748362D01*
X136190171Y-106728601D01*
X136190117Y-107065358D01*
G36*
X136190117Y-107065358D02*
G01*
X136189933Y-107173837D01*
X136189219Y-107257287D01*
X136187675Y-107319704D01*
X136185001Y-107365085D01*
X136180894Y-107397429D01*
X136175055Y-107420733D01*
X136167182Y-107438995D01*
X136161221Y-107449418D01*
X136111855Y-107505945D01*
X136049264Y-107541377D01*
X135980013Y-107554090D01*
X135910668Y-107542463D01*
X135869375Y-107521568D01*
X135826025Y-107485422D01*
X135796481Y-107441276D01*
X135778655Y-107383462D01*
X135770463Y-107306313D01*
X135769302Y-107249714D01*
X135769458Y-107245647D01*
X135870857Y-107245647D01*
X135871476Y-107310550D01*
X135874314Y-107353514D01*
X135880840Y-107381622D01*
X135892523Y-107401953D01*
X135906483Y-107417288D01*
X135953365Y-107446890D01*
X136003701Y-107449419D01*
X136051276Y-107424705D01*
X136054979Y-107421356D01*
X136070783Y-107403935D01*
X136080693Y-107383209D01*
X136086058Y-107352362D01*
X136088228Y-107304577D01*
X136088571Y-107251748D01*
X136087827Y-107185381D01*
X136084748Y-107141106D01*
X136078061Y-107112009D01*
X136066496Y-107091173D01*
X136057013Y-107080107D01*
X136012960Y-107052198D01*
X135962224Y-107048843D01*
X135913796Y-107070159D01*
X135904450Y-107078073D01*
X135888540Y-107095647D01*
X135878610Y-107116587D01*
X135873278Y-107147782D01*
X135871163Y-107196122D01*
X135870857Y-107245647D01*
X135769458Y-107245647D01*
X135772810Y-107158568D01*
X135784726Y-107090086D01*
X135807135Y-107038600D01*
X135842124Y-106998443D01*
X135869375Y-106977861D01*
X135918907Y-106955625D01*
X135976316Y-106945304D01*
X136029682Y-106948067D01*
X136059543Y-106959212D01*
X136071261Y-106962383D01*
X136079037Y-106950557D01*
X136084465Y-106918866D01*
X136088571Y-106870593D01*
X136093067Y-106816829D01*
X136099313Y-106784482D01*
X136110676Y-106765985D01*
X136130528Y-106753770D01*
X136143000Y-106748362D01*
X136190171Y-106728601D01*
X136190117Y-107065358D01*
G37*
X138153595Y-106966966D02*
X138211021Y-107004497D01*
X138238719Y-107038096D01*
X138260662Y-107099064D01*
X138262405Y-107147308D01*
X138258457Y-107211816D01*
X138109686Y-107276934D01*
X138037349Y-107310202D01*
X137990084Y-107336964D01*
X137965507Y-107360144D01*
X137961237Y-107382667D01*
X137974889Y-107407455D01*
X137989943Y-107423886D01*
X138033746Y-107450235D01*
X138081389Y-107452081D01*
X138125145Y-107431546D01*
X138157289Y-107390752D01*
X138163038Y-107376347D01*
X138190576Y-107331356D01*
X138222258Y-107312182D01*
X138265714Y-107295779D01*
X138265714Y-107357966D01*
X138261872Y-107400283D01*
X138246823Y-107435969D01*
X138215280Y-107476943D01*
X138210592Y-107482267D01*
X138175506Y-107518720D01*
X138145347Y-107538283D01*
X138107615Y-107547283D01*
X138076335Y-107550230D01*
X138020385Y-107550965D01*
X137980555Y-107541660D01*
X137955708Y-107527846D01*
X137916656Y-107497467D01*
X137889625Y-107464613D01*
X137872517Y-107423294D01*
X137863238Y-107367521D01*
X137859693Y-107291305D01*
X137859410Y-107252622D01*
X137860372Y-107206247D01*
X137948007Y-107206247D01*
X137949023Y-107231126D01*
X137951556Y-107235200D01*
X137968274Y-107229665D01*
X138004249Y-107215017D01*
X138052331Y-107194190D01*
X138062386Y-107189714D01*
X138123152Y-107158814D01*
X138156632Y-107131657D01*
X138163990Y-107106220D01*
X138146391Y-107080481D01*
X138131856Y-107069109D01*
X138079410Y-107046364D01*
X138030322Y-107050122D01*
X137989227Y-107077884D01*
X137960758Y-107127152D01*
X137951631Y-107166257D01*
X137948007Y-107206247D01*
X137860372Y-107206247D01*
X137861285Y-107162249D01*
X137868196Y-107095384D01*
X137881884Y-107046695D01*
X137904096Y-107010849D01*
X137936574Y-106982513D01*
X137950733Y-106973355D01*
X138015053Y-106949507D01*
X138085473Y-106948006D01*
X138153595Y-106966966D01*
G36*
X138153595Y-106966966D02*
G01*
X138211021Y-107004497D01*
X138238719Y-107038096D01*
X138260662Y-107099064D01*
X138262405Y-107147308D01*
X138258457Y-107211816D01*
X138109686Y-107276934D01*
X138037349Y-107310202D01*
X137990084Y-107336964D01*
X137965507Y-107360144D01*
X137961237Y-107382667D01*
X137974889Y-107407455D01*
X137989943Y-107423886D01*
X138033746Y-107450235D01*
X138081389Y-107452081D01*
X138125145Y-107431546D01*
X138157289Y-107390752D01*
X138163038Y-107376347D01*
X138190576Y-107331356D01*
X138222258Y-107312182D01*
X138265714Y-107295779D01*
X138265714Y-107357966D01*
X138261872Y-107400283D01*
X138246823Y-107435969D01*
X138215280Y-107476943D01*
X138210592Y-107482267D01*
X138175506Y-107518720D01*
X138145347Y-107538283D01*
X138107615Y-107547283D01*
X138076335Y-107550230D01*
X138020385Y-107550965D01*
X137980555Y-107541660D01*
X137955708Y-107527846D01*
X137916656Y-107497467D01*
X137889625Y-107464613D01*
X137872517Y-107423294D01*
X137863238Y-107367521D01*
X137859693Y-107291305D01*
X137859410Y-107252622D01*
X137860372Y-107206247D01*
X137948007Y-107206247D01*
X137949023Y-107231126D01*
X137951556Y-107235200D01*
X137968274Y-107229665D01*
X138004249Y-107215017D01*
X138052331Y-107194190D01*
X138062386Y-107189714D01*
X138123152Y-107158814D01*
X138156632Y-107131657D01*
X138163990Y-107106220D01*
X138146391Y-107080481D01*
X138131856Y-107069109D01*
X138079410Y-107046364D01*
X138030322Y-107050122D01*
X137989227Y-107077884D01*
X137960758Y-107127152D01*
X137951631Y-107166257D01*
X137948007Y-107206247D01*
X137860372Y-107206247D01*
X137861285Y-107162249D01*
X137868196Y-107095384D01*
X137881884Y-107046695D01*
X137904096Y-107010849D01*
X137936574Y-106982513D01*
X137950733Y-106973355D01*
X138015053Y-106949507D01*
X138085473Y-106948006D01*
X138153595Y-106966966D01*
G37*
X132041115Y-106921962D02*
X132109145Y-106957733D01*
X132159351Y-107015301D01*
X132177185Y-107052312D01*
X132191063Y-107107882D01*
X132198167Y-107178096D01*
X132198840Y-107254727D01*
X132193427Y-107329552D01*
X132182270Y-107394342D01*
X132165714Y-107440873D01*
X132160626Y-107448887D01*
X132100355Y-107508707D01*
X132028769Y-107544535D01*
X131951092Y-107555020D01*
X131872548Y-107538810D01*
X131850689Y-107529092D01*
X131808122Y-107499143D01*
X131770763Y-107459433D01*
X131767232Y-107454397D01*
X131752881Y-107430124D01*
X131743394Y-107404178D01*
X131737790Y-107370022D01*
X131735086Y-107321119D01*
X131734299Y-107250935D01*
X131734286Y-107235200D01*
X131734322Y-107230192D01*
X131879429Y-107230192D01*
X131880273Y-107296430D01*
X131883596Y-107340386D01*
X131890583Y-107368779D01*
X131902416Y-107388325D01*
X131908457Y-107394857D01*
X131943186Y-107419680D01*
X131976903Y-107418548D01*
X132010995Y-107397016D01*
X132031329Y-107374029D01*
X132043371Y-107340478D01*
X132050134Y-107287569D01*
X132050598Y-107281399D01*
X132051752Y-107185513D01*
X132039688Y-107114299D01*
X132014570Y-107068194D01*
X131976560Y-107047635D01*
X131962992Y-107046514D01*
X131927364Y-107052152D01*
X131902994Y-107071686D01*
X131888093Y-107109042D01*
X131880875Y-107168150D01*
X131879429Y-107230192D01*
X131734322Y-107230192D01*
X131734826Y-107160413D01*
X131737096Y-107108159D01*
X131742068Y-107071949D01*
X131750713Y-107045299D01*
X131764005Y-107021722D01*
X131766943Y-107017338D01*
X131816313Y-106958249D01*
X131870109Y-106923947D01*
X131935602Y-106910331D01*
X131957842Y-106909665D01*
X132041115Y-106921962D01*
G36*
X132041115Y-106921962D02*
G01*
X132109145Y-106957733D01*
X132159351Y-107015301D01*
X132177185Y-107052312D01*
X132191063Y-107107882D01*
X132198167Y-107178096D01*
X132198840Y-107254727D01*
X132193427Y-107329552D01*
X132182270Y-107394342D01*
X132165714Y-107440873D01*
X132160626Y-107448887D01*
X132100355Y-107508707D01*
X132028769Y-107544535D01*
X131951092Y-107555020D01*
X131872548Y-107538810D01*
X131850689Y-107529092D01*
X131808122Y-107499143D01*
X131770763Y-107459433D01*
X131767232Y-107454397D01*
X131752881Y-107430124D01*
X131743394Y-107404178D01*
X131737790Y-107370022D01*
X131735086Y-107321119D01*
X131734299Y-107250935D01*
X131734286Y-107235200D01*
X131734322Y-107230192D01*
X131879429Y-107230192D01*
X131880273Y-107296430D01*
X131883596Y-107340386D01*
X131890583Y-107368779D01*
X131902416Y-107388325D01*
X131908457Y-107394857D01*
X131943186Y-107419680D01*
X131976903Y-107418548D01*
X132010995Y-107397016D01*
X132031329Y-107374029D01*
X132043371Y-107340478D01*
X132050134Y-107287569D01*
X132050598Y-107281399D01*
X132051752Y-107185513D01*
X132039688Y-107114299D01*
X132014570Y-107068194D01*
X131976560Y-107047635D01*
X131962992Y-107046514D01*
X131927364Y-107052152D01*
X131902994Y-107071686D01*
X131888093Y-107109042D01*
X131880875Y-107168150D01*
X131879429Y-107230192D01*
X131734322Y-107230192D01*
X131734826Y-107160413D01*
X131737096Y-107108159D01*
X131742068Y-107071949D01*
X131750713Y-107045299D01*
X131764005Y-107021722D01*
X131766943Y-107017338D01*
X131816313Y-106958249D01*
X131870109Y-106923947D01*
X131935602Y-106910331D01*
X131957842Y-106909665D01*
X132041115Y-106921962D01*
G37*
X136779833Y-106958663D02*
X136782048Y-106996850D01*
X136783784Y-107054886D01*
X136784899Y-107128180D01*
X136785257Y-107205055D01*
X136785257Y-107465196D01*
X136739326Y-107511127D01*
X136707675Y-107539429D01*
X136679890Y-107550893D01*
X136641915Y-107550168D01*
X136626840Y-107548321D01*
X136579726Y-107542948D01*
X136540756Y-107539869D01*
X136531257Y-107539585D01*
X136499233Y-107541445D01*
X136453432Y-107546114D01*
X136435674Y-107548321D01*
X136392057Y-107551735D01*
X136362745Y-107544320D01*
X136333680Y-107521427D01*
X136323188Y-107511127D01*
X136277257Y-107465196D01*
X136277257Y-106978602D01*
X136314226Y-106961758D01*
X136346059Y-106949282D01*
X136364683Y-106944914D01*
X136369458Y-106958718D01*
X136373921Y-106997286D01*
X136377775Y-107056356D01*
X136380722Y-107131663D01*
X136382143Y-107195286D01*
X136386114Y-107445657D01*
X136420759Y-107450556D01*
X136452268Y-107447131D01*
X136467708Y-107436041D01*
X136472023Y-107415308D01*
X136475708Y-107371145D01*
X136478469Y-107309146D01*
X136480012Y-107234909D01*
X136480235Y-107196706D01*
X136480457Y-106976783D01*
X136526166Y-106960849D01*
X136558518Y-106950015D01*
X136576115Y-106944962D01*
X136576623Y-106944914D01*
X136578388Y-106958648D01*
X136580329Y-106996730D01*
X136582282Y-107054482D01*
X136584084Y-107127227D01*
X136585343Y-107195286D01*
X136589314Y-107445657D01*
X136676400Y-107445657D01*
X136680396Y-107217240D01*
X136684392Y-106988822D01*
X136726847Y-106966868D01*
X136758192Y-106951793D01*
X136776744Y-106944951D01*
X136777279Y-106944914D01*
X136779833Y-106958663D01*
G36*
X136779833Y-106958663D02*
G01*
X136782048Y-106996850D01*
X136783784Y-107054886D01*
X136784899Y-107128180D01*
X136785257Y-107205055D01*
X136785257Y-107465196D01*
X136739326Y-107511127D01*
X136707675Y-107539429D01*
X136679890Y-107550893D01*
X136641915Y-107550168D01*
X136626840Y-107548321D01*
X136579726Y-107542948D01*
X136540756Y-107539869D01*
X136531257Y-107539585D01*
X136499233Y-107541445D01*
X136453432Y-107546114D01*
X136435674Y-107548321D01*
X136392057Y-107551735D01*
X136362745Y-107544320D01*
X136333680Y-107521427D01*
X136323188Y-107511127D01*
X136277257Y-107465196D01*
X136277257Y-106978602D01*
X136314226Y-106961758D01*
X136346059Y-106949282D01*
X136364683Y-106944914D01*
X136369458Y-106958718D01*
X136373921Y-106997286D01*
X136377775Y-107056356D01*
X136380722Y-107131663D01*
X136382143Y-107195286D01*
X136386114Y-107445657D01*
X136420759Y-107450556D01*
X136452268Y-107447131D01*
X136467708Y-107436041D01*
X136472023Y-107415308D01*
X136475708Y-107371145D01*
X136478469Y-107309146D01*
X136480012Y-107234909D01*
X136480235Y-107196706D01*
X136480457Y-106976783D01*
X136526166Y-106960849D01*
X136558518Y-106950015D01*
X136576115Y-106944962D01*
X136576623Y-106944914D01*
X136578388Y-106958648D01*
X136580329Y-106996730D01*
X136582282Y-107054482D01*
X136584084Y-107127227D01*
X136585343Y-107195286D01*
X136589314Y-107445657D01*
X136676400Y-107445657D01*
X136680396Y-107217240D01*
X136684392Y-106988822D01*
X136726847Y-106966868D01*
X136758192Y-106951793D01*
X136776744Y-106944951D01*
X136777279Y-106944914D01*
X136779833Y-106958663D01*
G37*
X134375886Y-106851289D02*
X134380139Y-106910613D01*
X134385025Y-106945572D01*
X134391795Y-106960820D01*
X134401702Y-106961015D01*
X134404914Y-106959195D01*
X134447644Y-106946015D01*
X134503227Y-106946785D01*
X134559737Y-106960333D01*
X134595082Y-106977861D01*
X134631321Y-107005861D01*
X134657813Y-107037549D01*
X134675999Y-107077813D01*
X134687322Y-107131543D01*
X134693222Y-107203626D01*
X134695143Y-107298951D01*
X134695177Y-107317237D01*
X134695200Y-107522646D01*
X134649491Y-107538580D01*
X134617027Y-107549420D01*
X134599215Y-107554468D01*
X134598691Y-107554514D01*
X134596937Y-107540828D01*
X134595444Y-107503076D01*
X134594326Y-107446224D01*
X134593697Y-107375234D01*
X134593600Y-107332073D01*
X134593398Y-107246973D01*
X134592358Y-107185981D01*
X134589831Y-107144177D01*
X134585164Y-107116642D01*
X134577707Y-107098456D01*
X134566811Y-107084698D01*
X134560007Y-107078073D01*
X134513272Y-107051375D01*
X134462272Y-107049375D01*
X134416001Y-107071955D01*
X134407444Y-107080107D01*
X134394893Y-107095436D01*
X134386188Y-107113618D01*
X134380631Y-107139909D01*
X134377526Y-107179562D01*
X134376176Y-107237832D01*
X134375886Y-107318173D01*
X134375886Y-107522646D01*
X134330177Y-107538580D01*
X134297713Y-107549420D01*
X134279901Y-107554468D01*
X134279377Y-107554514D01*
X134278037Y-107540623D01*
X134276828Y-107501439D01*
X134275801Y-107440700D01*
X134275002Y-107362141D01*
X134274481Y-107269498D01*
X134274286Y-107166509D01*
X134274286Y-106769342D01*
X134321457Y-106749444D01*
X134368629Y-106729547D01*
X134375886Y-106851289D01*
G36*
X134375886Y-106851289D02*
G01*
X134380139Y-106910613D01*
X134385025Y-106945572D01*
X134391795Y-106960820D01*
X134401702Y-106961015D01*
X134404914Y-106959195D01*
X134447644Y-106946015D01*
X134503227Y-106946785D01*
X134559737Y-106960333D01*
X134595082Y-106977861D01*
X134631321Y-107005861D01*
X134657813Y-107037549D01*
X134675999Y-107077813D01*
X134687322Y-107131543D01*
X134693222Y-107203626D01*
X134695143Y-107298951D01*
X134695177Y-107317237D01*
X134695200Y-107522646D01*
X134649491Y-107538580D01*
X134617027Y-107549420D01*
X134599215Y-107554468D01*
X134598691Y-107554514D01*
X134596937Y-107540828D01*
X134595444Y-107503076D01*
X134594326Y-107446224D01*
X134593697Y-107375234D01*
X134593600Y-107332073D01*
X134593398Y-107246973D01*
X134592358Y-107185981D01*
X134589831Y-107144177D01*
X134585164Y-107116642D01*
X134577707Y-107098456D01*
X134566811Y-107084698D01*
X134560007Y-107078073D01*
X134513272Y-107051375D01*
X134462272Y-107049375D01*
X134416001Y-107071955D01*
X134407444Y-107080107D01*
X134394893Y-107095436D01*
X134386188Y-107113618D01*
X134380631Y-107139909D01*
X134377526Y-107179562D01*
X134376176Y-107237832D01*
X134375886Y-107318173D01*
X134375886Y-107522646D01*
X134330177Y-107538580D01*
X134297713Y-107549420D01*
X134279901Y-107554468D01*
X134279377Y-107554514D01*
X134278037Y-107540623D01*
X134276828Y-107501439D01*
X134275801Y-107440700D01*
X134275002Y-107362141D01*
X134274481Y-107269498D01*
X134274286Y-107166509D01*
X134274286Y-106769342D01*
X134321457Y-106749444D01*
X134368629Y-106729547D01*
X134375886Y-106851289D01*
G37*
X135529926Y-106949755D02*
X135595858Y-106974084D01*
X135649273Y-107017117D01*
X135670164Y-107047409D01*
X135692939Y-107102994D01*
X135692466Y-107143186D01*
X135668562Y-107170217D01*
X135659717Y-107174813D01*
X135621530Y-107189144D01*
X135602028Y-107185472D01*
X135595422Y-107161407D01*
X135595086Y-107148114D01*
X135582992Y-107099210D01*
X135551471Y-107064999D01*
X135507659Y-107048476D01*
X135458695Y-107052634D01*
X135418894Y-107074227D01*
X135405450Y-107086544D01*
X135395921Y-107101487D01*
X135389485Y-107124075D01*
X135385317Y-107159328D01*
X135382597Y-107212266D01*
X135380502Y-107287907D01*
X135379960Y-107311857D01*
X135377981Y-107393790D01*
X135375731Y-107451455D01*
X135372357Y-107489608D01*
X135367006Y-107513004D01*
X135358824Y-107526398D01*
X135346959Y-107534545D01*
X135339362Y-107538144D01*
X135307102Y-107550452D01*
X135288111Y-107554514D01*
X135281836Y-107540948D01*
X135278006Y-107499934D01*
X135276600Y-107430999D01*
X135277598Y-107333669D01*
X135277908Y-107318657D01*
X135280101Y-107229859D01*
X135282693Y-107165019D01*
X135286382Y-107119067D01*
X135291864Y-107086935D01*
X135299835Y-107063553D01*
X135310993Y-107043852D01*
X135316830Y-107035410D01*
X135350296Y-106998057D01*
X135387727Y-106969003D01*
X135392309Y-106966467D01*
X135459426Y-106946443D01*
X135529926Y-106949755D01*
G36*
X135529926Y-106949755D02*
G01*
X135595858Y-106974084D01*
X135649273Y-107017117D01*
X135670164Y-107047409D01*
X135692939Y-107102994D01*
X135692466Y-107143186D01*
X135668562Y-107170217D01*
X135659717Y-107174813D01*
X135621530Y-107189144D01*
X135602028Y-107185472D01*
X135595422Y-107161407D01*
X135595086Y-107148114D01*
X135582992Y-107099210D01*
X135551471Y-107064999D01*
X135507659Y-107048476D01*
X135458695Y-107052634D01*
X135418894Y-107074227D01*
X135405450Y-107086544D01*
X135395921Y-107101487D01*
X135389485Y-107124075D01*
X135385317Y-107159328D01*
X135382597Y-107212266D01*
X135380502Y-107287907D01*
X135379960Y-107311857D01*
X135377981Y-107393790D01*
X135375731Y-107451455D01*
X135372357Y-107489608D01*
X135367006Y-107513004D01*
X135358824Y-107526398D01*
X135346959Y-107534545D01*
X135339362Y-107538144D01*
X135307102Y-107550452D01*
X135288111Y-107554514D01*
X135281836Y-107540948D01*
X135278006Y-107499934D01*
X135276600Y-107430999D01*
X135277598Y-107333669D01*
X135277908Y-107318657D01*
X135280101Y-107229859D01*
X135282693Y-107165019D01*
X135286382Y-107119067D01*
X135291864Y-107086935D01*
X135299835Y-107063553D01*
X135310993Y-107043852D01*
X135316830Y-107035410D01*
X135350296Y-106998057D01*
X135387727Y-106969003D01*
X135392309Y-106966467D01*
X135459426Y-106946443D01*
X135529926Y-106949755D01*
G37*
X133716093Y-106927780D02*
X133762672Y-106954723D01*
X133795057Y-106981466D01*
X133818742Y-107009484D01*
X133835059Y-107043748D01*
X133845339Y-107089227D01*
X133850914Y-107150892D01*
X133853116Y-107233711D01*
X133853371Y-107293246D01*
X133853371Y-107512391D01*
X133791686Y-107540044D01*
X133730000Y-107567697D01*
X133722743Y-107327670D01*
X133719744Y-107238028D01*
X133716598Y-107172962D01*
X133712701Y-107128026D01*
X133707447Y-107098770D01*
X133700231Y-107080748D01*
X133690450Y-107069511D01*
X133687312Y-107067079D01*
X133639761Y-107048083D01*
X133591697Y-107055600D01*
X133563086Y-107075543D01*
X133551447Y-107089675D01*
X133543391Y-107108220D01*
X133538271Y-107136334D01*
X133535441Y-107179173D01*
X133534256Y-107241895D01*
X133534057Y-107307261D01*
X133534018Y-107389268D01*
X133532614Y-107447316D01*
X133527914Y-107486465D01*
X133517987Y-107511780D01*
X133500903Y-107528323D01*
X133474732Y-107541156D01*
X133439775Y-107554491D01*
X133401596Y-107569007D01*
X133406141Y-107311389D01*
X133407971Y-107218519D01*
X133410112Y-107149889D01*
X133413181Y-107100711D01*
X133417794Y-107066198D01*
X133424568Y-107041562D01*
X133434119Y-107022016D01*
X133445634Y-107004770D01*
X133501190Y-106949680D01*
X133568980Y-106917822D01*
X133642713Y-106910191D01*
X133716093Y-106927780D01*
G36*
X133716093Y-106927780D02*
G01*
X133762672Y-106954723D01*
X133795057Y-106981466D01*
X133818742Y-107009484D01*
X133835059Y-107043748D01*
X133845339Y-107089227D01*
X133850914Y-107150892D01*
X133853116Y-107233711D01*
X133853371Y-107293246D01*
X133853371Y-107512391D01*
X133791686Y-107540044D01*
X133730000Y-107567697D01*
X133722743Y-107327670D01*
X133719744Y-107238028D01*
X133716598Y-107172962D01*
X133712701Y-107128026D01*
X133707447Y-107098770D01*
X133700231Y-107080748D01*
X133690450Y-107069511D01*
X133687312Y-107067079D01*
X133639761Y-107048083D01*
X133591697Y-107055600D01*
X133563086Y-107075543D01*
X133551447Y-107089675D01*
X133543391Y-107108220D01*
X133538271Y-107136334D01*
X133535441Y-107179173D01*
X133534256Y-107241895D01*
X133534057Y-107307261D01*
X133534018Y-107389268D01*
X133532614Y-107447316D01*
X133527914Y-107486465D01*
X133517987Y-107511780D01*
X133500903Y-107528323D01*
X133474732Y-107541156D01*
X133439775Y-107554491D01*
X133401596Y-107569007D01*
X133406141Y-107311389D01*
X133407971Y-107218519D01*
X133410112Y-107149889D01*
X133413181Y-107100711D01*
X133417794Y-107066198D01*
X133424568Y-107041562D01*
X133434119Y-107022016D01*
X133445634Y-107004770D01*
X133501190Y-106949680D01*
X133568980Y-106917822D01*
X133642713Y-106910191D01*
X133716093Y-106927780D01*
G37*
X137652600Y-106958752D02*
X137669948Y-106966334D01*
X137711356Y-106999128D01*
X137746765Y-107046547D01*
X137768664Y-107097151D01*
X137772229Y-107122098D01*
X137760279Y-107156927D01*
X137734067Y-107175357D01*
X137705964Y-107186516D01*
X137693095Y-107188572D01*
X137686829Y-107173649D01*
X137674456Y-107141175D01*
X137669028Y-107126502D01*
X137638590Y-107075744D01*
X137594520Y-107050427D01*
X137538010Y-107051206D01*
X137533825Y-107052203D01*
X137503655Y-107066507D01*
X137481476Y-107094393D01*
X137466327Y-107139287D01*
X137457250Y-107204615D01*
X137453286Y-107293804D01*
X137452914Y-107341261D01*
X137452730Y-107416071D01*
X137451522Y-107467069D01*
X137448309Y-107499471D01*
X137442109Y-107518495D01*
X137431940Y-107529356D01*
X137416819Y-107537272D01*
X137415946Y-107537670D01*
X137386828Y-107549981D01*
X137372403Y-107554514D01*
X137370186Y-107540809D01*
X137368289Y-107502925D01*
X137366847Y-107445715D01*
X137365998Y-107374027D01*
X137365829Y-107321565D01*
X137366692Y-107220047D01*
X137370070Y-107143032D01*
X137377142Y-107086023D01*
X137389088Y-107044526D01*
X137407090Y-107014043D01*
X137432327Y-106990080D01*
X137457247Y-106973355D01*
X137517171Y-106951097D01*
X137586911Y-106946076D01*
X137652600Y-106958752D01*
G36*
X137652600Y-106958752D02*
G01*
X137669948Y-106966334D01*
X137711356Y-106999128D01*
X137746765Y-107046547D01*
X137768664Y-107097151D01*
X137772229Y-107122098D01*
X137760279Y-107156927D01*
X137734067Y-107175357D01*
X137705964Y-107186516D01*
X137693095Y-107188572D01*
X137686829Y-107173649D01*
X137674456Y-107141175D01*
X137669028Y-107126502D01*
X137638590Y-107075744D01*
X137594520Y-107050427D01*
X137538010Y-107051206D01*
X137533825Y-107052203D01*
X137503655Y-107066507D01*
X137481476Y-107094393D01*
X137466327Y-107139287D01*
X137457250Y-107204615D01*
X137453286Y-107293804D01*
X137452914Y-107341261D01*
X137452730Y-107416071D01*
X137451522Y-107467069D01*
X137448309Y-107499471D01*
X137442109Y-107518495D01*
X137431940Y-107529356D01*
X137416819Y-107537272D01*
X137415946Y-107537670D01*
X137386828Y-107549981D01*
X137372403Y-107554514D01*
X137370186Y-107540809D01*
X137368289Y-107502925D01*
X137366847Y-107445715D01*
X137365998Y-107374027D01*
X137365829Y-107321565D01*
X137366692Y-107220047D01*
X137370070Y-107143032D01*
X137377142Y-107086023D01*
X137389088Y-107044526D01*
X137407090Y-107014043D01*
X137432327Y-106990080D01*
X137457247Y-106973355D01*
X137517171Y-106951097D01*
X137586911Y-106946076D01*
X137652600Y-106958752D01*
G37*
D13*
%TO.C,J5*%
X104250000Y-61950000D02*
X105580000Y-61950000D01*
X105580000Y-51330000D02*
X106130000Y-51330000D01*
X105580000Y-61950000D02*
X105580000Y-51330000D01*
X106130000Y-49330000D02*
X111370000Y-49330000D01*
X106130000Y-51330000D02*
X106130000Y-49330000D01*
X111370000Y-49330000D02*
X111370000Y-51330000D01*
X111370000Y-51330000D02*
X111920000Y-51330000D01*
X111920000Y-51330000D02*
X111920000Y-53850000D01*
X111920000Y-55450000D02*
X111920000Y-56850000D01*
X111920000Y-58450000D02*
X111920000Y-60850000D01*
X111920000Y-63670000D02*
X104250000Y-63670000D01*
X111920000Y-63670000D02*
X111920000Y-62450000D01*
%TO.C,R14*%
X133227500Y-85012742D02*
X133227500Y-85487258D01*
X134272500Y-85012742D02*
X134272500Y-85487258D01*
%TO.C,R11*%
X119177500Y-79950242D02*
X119177500Y-80424758D01*
X120222500Y-79950242D02*
X120222500Y-80424758D01*
%TO.C,R17*%
X133977500Y-80262258D02*
X133977500Y-79787742D01*
X135022500Y-80262258D02*
X135022500Y-79787742D01*
%TO.C,C14*%
X112490000Y-102640580D02*
X112490000Y-102359420D01*
X113510000Y-102640580D02*
X113510000Y-102359420D01*
%TO.C,C20*%
X110377500Y-80484420D02*
X110377500Y-80765580D01*
X111397500Y-80484420D02*
X111397500Y-80765580D01*
%TO.C,Q2*%
X115390000Y-80437500D02*
X115390000Y-79787500D01*
X115390000Y-80437500D02*
X115390000Y-81087500D01*
X118510000Y-80437500D02*
X118510000Y-79787500D01*
X118510000Y-80437500D02*
X118510000Y-81087500D01*
X118790000Y-79515000D02*
X118460000Y-79275000D01*
X118790000Y-79035000D01*
X118790000Y-79515000D01*
G36*
X118790000Y-79515000D02*
G01*
X118460000Y-79275000D01*
X118790000Y-79035000D01*
X118790000Y-79515000D01*
G37*
%TO.C,R15*%
X130227500Y-85487258D02*
X130227500Y-85012742D01*
X131272500Y-85487258D02*
X131272500Y-85012742D01*
%TO.C,U1*%
X116450000Y-50060000D02*
X116450000Y-56260000D01*
X116450000Y-50060000D02*
X134850000Y-50060000D01*
X116450000Y-74910000D02*
X116450000Y-75910000D01*
X116450000Y-75910000D02*
X117950000Y-75910000D01*
X134850000Y-50060000D02*
X134850000Y-56260000D01*
X134850000Y-75910000D02*
X133350000Y-75910000D01*
X134850000Y-75910000D02*
X134850000Y-74910000D01*
X116450000Y-56935000D02*
X115950000Y-56935000D01*
X116450000Y-56435000D01*
X116450000Y-56935000D01*
G36*
X116450000Y-56935000D02*
G01*
X115950000Y-56935000D01*
X116450000Y-56435000D01*
X116450000Y-56935000D01*
G37*
%TO.C,Q1*%
X104562500Y-92890000D02*
X103912500Y-92890000D01*
X104562500Y-92890000D02*
X105212500Y-92890000D01*
X104562500Y-96010000D02*
X103912500Y-96010000D01*
X104562500Y-96010000D02*
X105212500Y-96010000D01*
X105965000Y-96290000D02*
X105485000Y-96290000D01*
X105725000Y-95960000D01*
X105965000Y-96290000D01*
G36*
X105965000Y-96290000D02*
G01*
X105485000Y-96290000D01*
X105725000Y-95960000D01*
X105965000Y-96290000D01*
G37*
%TO.C,R1*%
X118977500Y-138737258D02*
X118977500Y-138262742D01*
X120022500Y-138737258D02*
X120022500Y-138262742D01*
%TO.C,J1*%
X126092500Y-88430000D02*
X126092500Y-91110000D01*
X126092500Y-93410000D02*
X126092500Y-97080000D01*
X126092500Y-99380000D02*
X126092500Y-100610000D01*
X126092500Y-100610000D02*
X135912500Y-100610000D01*
X126812500Y-88430000D02*
X126092500Y-88430000D01*
X130512500Y-88430000D02*
X128212500Y-88430000D01*
X136362500Y-88430000D02*
X131912500Y-88430000D01*
X137732500Y-89910000D02*
X137732500Y-90770000D01*
%TO.C,SW2*%
X136750000Y-77100000D02*
X137750000Y-77100000D01*
X136750000Y-77700000D02*
X136750000Y-77100000D01*
X136750000Y-81300000D02*
X136750000Y-81900000D01*
X136750000Y-81900000D02*
X137750000Y-81900000D01*
X139550000Y-80500000D02*
X139550000Y-78500000D01*
%TO.C,C2*%
X118813748Y-105640000D02*
X120236252Y-105640000D01*
X118813748Y-108360000D02*
X120236252Y-108360000D01*
%TO.C,D2*%
X131600000Y-144640000D02*
X131600000Y-147300000D01*
X131600000Y-144640000D02*
X129900000Y-144640000D01*
X129900000Y-144640000D02*
X129900000Y-147300000D01*
%TO.C,J6*%
X100670000Y-136590000D02*
X102000000Y-136590000D01*
X100670000Y-137920000D02*
X100670000Y-136590000D01*
X100670000Y-139190000D02*
X100670000Y-144330000D01*
X100670000Y-139190000D02*
X103330000Y-139190000D01*
X100670000Y-144330000D02*
X103330000Y-144330000D01*
X103330000Y-139190000D02*
X103330000Y-144330000D01*
%TO.C,RST1*%
X125100000Y-78600000D02*
X125400000Y-78600000D01*
X125100000Y-81900000D02*
X125100000Y-78600000D01*
X125400000Y-81900000D02*
X125100000Y-81900000D01*
X127600000Y-81900000D02*
X127900000Y-81900000D01*
X127900000Y-78600000D02*
X127600000Y-78600000D01*
X127900000Y-81900000D02*
X127900000Y-78600000D01*
%TO.C,BOOT1*%
X128600000Y-78600000D02*
X128600000Y-81900000D01*
X128600000Y-81900000D02*
X128900000Y-81900000D01*
X128900000Y-78600000D02*
X128600000Y-78600000D01*
X131100000Y-78600000D02*
X131400000Y-78600000D01*
X131400000Y-78600000D02*
X131400000Y-81900000D01*
X131400000Y-81900000D02*
X131100000Y-81900000D01*
%TO.C,R3*%
X134727500Y-85012742D02*
X134727500Y-85487258D01*
X135772500Y-85012742D02*
X135772500Y-85487258D01*
%TO.C,C15*%
X110990000Y-72359420D02*
X110990000Y-72640580D01*
X112010000Y-72359420D02*
X112010000Y-72640580D01*
%TO.C,R2*%
X120477500Y-138737258D02*
X120477500Y-138262742D01*
X121522500Y-138737258D02*
X121522500Y-138262742D01*
%TO.C,C8*%
X112490000Y-91859420D02*
X112490000Y-92140580D01*
X113510000Y-91859420D02*
X113510000Y-92140580D01*
%TO.C,SW1*%
X136750000Y-71350000D02*
X137750000Y-71350000D01*
X136750000Y-71950000D02*
X136750000Y-71350000D01*
X136750000Y-75550000D02*
X136750000Y-76150000D01*
X136750000Y-76150000D02*
X137750000Y-76150000D01*
X139550000Y-74750000D02*
X139550000Y-72750000D01*
%TO.C,R13*%
X108262742Y-94977500D02*
X108737258Y-94977500D01*
X108262742Y-96022500D02*
X108737258Y-96022500D01*
%TO.C,C10*%
X114540580Y-51090000D02*
X114259420Y-51090000D01*
X114540580Y-52110000D02*
X114259420Y-52110000D01*
%TO.C,U4*%
X105387500Y-71240000D02*
X103187500Y-71240000D01*
X105387500Y-71240000D02*
X107587500Y-71240000D01*
X105387500Y-78010000D02*
X103187500Y-78010000D01*
X105387500Y-78010000D02*
X107587500Y-78010000D01*
X101527500Y-71700000D02*
X101197500Y-71940000D01*
X101197500Y-71460000D01*
X101527500Y-71700000D01*
G36*
X101527500Y-71700000D02*
G01*
X101197500Y-71940000D01*
X101197500Y-71460000D01*
X101527500Y-71700000D01*
G37*
%TO.C,R10*%
X108262742Y-92977500D02*
X108737258Y-92977500D01*
X108262742Y-94022500D02*
X108737258Y-94022500D01*
%TO.C,C23*%
X112490000Y-72359420D02*
X112490000Y-72640580D01*
X113510000Y-72359420D02*
X113510000Y-72640580D01*
%TO.C,R18*%
X113477500Y-65512742D02*
X113477500Y-65987258D01*
X114522500Y-65512742D02*
X114522500Y-65987258D01*
%TO.C,C1*%
X119353733Y-95990000D02*
X119646267Y-95990000D01*
X119353733Y-97010000D02*
X119646267Y-97010000D01*
%TO.C,R19*%
X111967500Y-65512742D02*
X111967500Y-65987258D01*
X113012500Y-65512742D02*
X113012500Y-65987258D01*
%TO.C,R7*%
X113977500Y-92237258D02*
X113977500Y-91762742D01*
X115022500Y-92237258D02*
X115022500Y-91762742D01*
%TO.C,C12*%
X113490000Y-68609420D02*
X113490000Y-68890580D01*
X114510000Y-68609420D02*
X114510000Y-68890580D01*
%TO.C,C18*%
X105890580Y-79990000D02*
X105609420Y-79990000D01*
X105890580Y-81010000D02*
X105609420Y-81010000D01*
%TO.C,C21*%
X108877500Y-80765580D02*
X108877500Y-80484420D01*
X109897500Y-80765580D02*
X109897500Y-80484420D01*
%TO.C,R16*%
X131727500Y-85487258D02*
X131727500Y-85012742D01*
X132772500Y-85487258D02*
X132772500Y-85012742D01*
%TO.C,U2*%
X106440000Y-101000000D02*
X106440000Y-99050000D01*
X106440000Y-101000000D02*
X106440000Y-102950000D01*
X111560000Y-101000000D02*
X111560000Y-99050000D01*
X111560000Y-101000000D02*
X111560000Y-102950000D01*
X106535000Y-103700000D02*
X106205000Y-103940000D01*
X106205000Y-103460000D01*
X106535000Y-103700000D01*
G36*
X106535000Y-103700000D02*
G01*
X106205000Y-103940000D01*
X106205000Y-103460000D01*
X106535000Y-103700000D01*
G37*
%TO.C,R6*%
X113977500Y-95237258D02*
X113977500Y-94762742D01*
X115022500Y-95237258D02*
X115022500Y-94762742D01*
%TO.C,C19*%
X102778080Y-79990000D02*
X102496920Y-79990000D01*
X102778080Y-81010000D02*
X102496920Y-81010000D01*
%TO.C,C13*%
X111990000Y-68609420D02*
X111990000Y-68890580D01*
X113010000Y-68609420D02*
X113010000Y-68890580D01*
%TO.C,C11*%
X132490000Y-79884420D02*
X132490000Y-80165580D01*
X133510000Y-79884420D02*
X133510000Y-80165580D01*
%TO.C,SL2*%
X103090000Y-65050000D02*
X103090000Y-65250000D01*
X103090000Y-62050000D02*
X103090000Y-63750000D01*
X102040000Y-60200000D02*
X101250000Y-60200000D01*
X101250000Y-67100000D02*
X102040000Y-67100000D01*
X100240000Y-62250000D02*
X98950000Y-62250000D01*
X100240000Y-60800000D02*
X100240000Y-66500000D01*
X98950000Y-63550000D02*
X100240000Y-63550000D01*
X98950000Y-63550000D02*
X98740000Y-63350000D01*
X98950000Y-62250000D02*
X98740000Y-62450000D01*
X98740000Y-62450000D02*
X98740000Y-63350000D01*
%TO.C,C16*%
X112490000Y-75359420D02*
X112490000Y-75640580D01*
X113510000Y-75359420D02*
X113510000Y-75640580D01*
%TO.C,R12*%
X117727500Y-91487258D02*
X117727500Y-91012742D01*
X118772500Y-91487258D02*
X118772500Y-91012742D01*
%TO.C,R8*%
X128727500Y-85487258D02*
X128727500Y-85012742D01*
X129772500Y-85487258D02*
X129772500Y-85012742D01*
%TO.C,C3*%
X106390580Y-65240000D02*
X106109420Y-65240000D01*
X106390580Y-66260000D02*
X106109420Y-66260000D01*
%TO.C,C4*%
X109109420Y-65240000D02*
X109390580Y-65240000D01*
X109109420Y-66260000D02*
X109390580Y-66260000D01*
%TO.C,U5*%
X117650000Y-97890000D02*
X121410000Y-97890000D01*
X117650000Y-104710000D02*
X121410000Y-104710000D01*
X121410000Y-97890000D02*
X121410000Y-99150000D01*
X121410000Y-104710000D02*
X121410000Y-103450000D01*
X116370000Y-97990000D02*
X116130000Y-97660000D01*
X116610000Y-97660000D01*
X116370000Y-97990000D01*
G36*
X116370000Y-97990000D02*
G01*
X116130000Y-97660000D01*
X116610000Y-97660000D01*
X116370000Y-97990000D01*
G37*
%TO.C,C7*%
X112490000Y-99359420D02*
X112490000Y-99640580D01*
X113510000Y-99359420D02*
X113510000Y-99640580D01*
D15*
%TO.C,BAT*%
X132470000Y-142100000D02*
X132970000Y-141600000D01*
X132470000Y-142900000D02*
X132470000Y-142100000D01*
X132970000Y-141600000D02*
X136570000Y-141600000D01*
X132970000Y-143400000D02*
X132470000Y-142900000D01*
X136570000Y-141600000D02*
X137070000Y-142100000D01*
X136570000Y-143400000D02*
X132970000Y-143400000D01*
X137070000Y-142100000D02*
X137070000Y-142900000D01*
X137070000Y-142900000D02*
X136570000Y-143400000D01*
D13*
%TO.C,D1*%
X122650000Y-136640000D02*
X122650000Y-139300000D01*
X124350000Y-136640000D02*
X122650000Y-136640000D01*
X124350000Y-136640000D02*
X124350000Y-139300000D01*
%TO.C,R9*%
X136227500Y-85012742D02*
X136227500Y-85487258D01*
X137272500Y-85012742D02*
X137272500Y-85487258D01*
%TO.C,R5*%
X107977500Y-68262258D02*
X107977500Y-67787742D01*
X109022500Y-68262258D02*
X109022500Y-67787742D01*
%TO.C,J2*%
X124580000Y-150785000D02*
X115420000Y-150785000D01*
X124580000Y-149080000D02*
X124580000Y-150785000D01*
X124580000Y-147070000D02*
X124580000Y-145150000D01*
X115420000Y-150785000D02*
X115420000Y-149080000D01*
X115420000Y-145150000D02*
X115420000Y-147070000D01*
%TO.C,C17*%
X102746920Y-69115000D02*
X103028080Y-69115000D01*
X102746920Y-70135000D02*
X103028080Y-70135000D01*
%TO.C,C6*%
X102496920Y-81490000D02*
X102778080Y-81490000D01*
X102496920Y-82510000D02*
X102778080Y-82510000D01*
%TO.C,R4*%
X106477500Y-68262258D02*
X106477500Y-67787742D01*
X107522500Y-68262258D02*
X107522500Y-67787742D01*
%TO.C,C9*%
X114540580Y-52590000D02*
X114259420Y-52590000D01*
X114540580Y-53610000D02*
X114259420Y-53610000D01*
%TO.C,C5*%
X110990000Y-75359420D02*
X110990000Y-75640580D01*
X112010000Y-75359420D02*
X112010000Y-75640580D01*
%TD*%
M02*
