M48
; DRILL file {KiCad 8.0.7} date 2025-01-01T16:03:06-0500
; FORMAT={-:-/ absolute / inch / decimal}
; #@! TF.CreationDate,2025-01-01T16:03:06-05:00
; #@! TF.GenerationSoftware,Kicad,Pcbnew,8.0.7
; #@! TF.FileFunction,Plated,1,4,PTH
FMAT,2
INCH
; #@! TA.AperFunction,Plated,PTH,ComponentDrill
T1C0.0079
; #@! TA.AperFunction,Plated,PTH,ViaDrill
T2C0.0118
; #@! TA.AperFunction,Plated,PTH,ComponentDrill
T3C0.0236
; #@! TA.AperFunction,Plated,PTH,ComponentDrill
T4C0.0315
; #@! TA.AperFunction,Plated,PTH,ComponentDrill
T5C0.0394
; #@! TA.AperFunction,Plated,PTH,ComponentDrill
T6C0.0551
%
G90
G05
T1
X4.8327Y-2.548
X4.8327Y-2.6031
X4.8602Y-2.5205
X4.8602Y-2.5756
X4.8602Y-2.6307
X4.8878Y-2.548
X4.8878Y-2.6031
X4.9154Y-2.5205
X4.9154Y-2.5756
X4.9154Y-2.6307
X4.9429Y-2.548
X4.9429Y-2.6031
T2
X4.0157Y-3.2776
X4.0709Y-2.4488
X4.3041Y-3.7205
X4.3098Y-2.9352
X4.311Y-2.9685
X4.311Y-3.0
X4.4094Y-3.1437
X4.4284Y-2.5856
X4.4488Y-2.7913
X4.4587Y-2.6476
X4.5344Y-2.0
X4.5571Y-2.4717
X4.5571Y-2.5217
X4.5571Y-2.5717
X4.5571Y-2.8717
X4.5571Y-2.9217
X4.5591Y-2.6717
X4.5876Y-4.1526
X4.5965Y-3.4449
X4.6043Y-3.248
X4.6529Y-3.5271
X4.6555Y-3.5955
X4.6719Y-3.0217
X4.7047Y-5.5709
X4.7441Y-5.5709
X4.8524Y-3.4547
X4.872Y-3.0217
X4.9213Y-3.0217
X4.9803Y-3.1299
X5.0219Y-3.0217
X5.0719Y-3.0217
X5.1476Y-3.3593
X5.1575Y-3.1299
X5.2072Y-3.3593
X5.2461Y-2.3217
X5.2461Y-2.3717
X5.2461Y-2.4217
X5.2461Y-2.4717
X5.2461Y-2.5217
X5.2461Y-2.5717
X5.2461Y-2.6217
X5.2461Y-2.6717
X5.2461Y-2.7217
X5.2461Y-2.7717
X5.2461Y-2.8217
X5.2461Y-2.874
X5.2657Y-3.1496
X5.2657Y-3.3593
X5.2756Y-3.2579
X5.4429Y-3.7303
T4
X5.2559Y-5.6102
X5.3559Y-5.6102
T5
X4.0157Y-5.4299
X4.0157Y-5.5299
X4.0157Y-5.6299
T6
X4.0886Y-4.8974
X4.4193Y-5.634
X4.4666Y-5.2972
X4.5964Y-4.4063
X4.6807Y-4.9957
X4.9822Y-4.7816
X4.9822Y-5.2972
X5.0295Y-4.4447
X5.3602Y-5.1813
T3
G00X4.5543Y-5.6427
M15
G01X4.5543Y-5.686
M16
G05
G00X4.5543Y-5.814
M15
G01X4.5543Y-5.8455
M16
G05
G00X4.8945Y-5.6427
M15
G01X4.8945Y-5.686
M16
G05
G00X4.8945Y-5.814
M15
G01X4.8945Y-5.8455
M16
G05
M30
