%TF.GenerationSoftware,KiCad,Pcbnew,8.0.7*%
%TF.CreationDate,2025-01-01T16:03:08-05:00*%
%TF.ProjectId,JPL.mp3,4a504c2e-6d70-4332-9e6b-696361645f70,rev?*%
%TF.SameCoordinates,Original*%
%TF.FileFunction,Drillmap*%
%TF.FilePolarity,Positive*%
%FSLAX45Y45*%
G04 Gerber Fmt 4.5, Leading zero omitted, Abs format (unit mm)*
G04 Created by KiCad (PCBNEW 8.0.7) date 2025-01-01 16:03:08*
%MOMM*%
%LPD*%
G01*
G04 APERTURE LIST*
%ADD10C,0.050000*%
%ADD11C,0.200000*%
%ADD12C,0.100000*%
%ADD13C,0.140000*%
G04 APERTURE END LIST*
D10*
X14000000Y-14750000D02*
G75*
G02*
X13750000Y-15000000I-250000J0D01*
G01*
X13850000Y-5250000D02*
G75*
G02*
X13650000Y-5250000I-100000J0D01*
G01*
X13650000Y-5250000D02*
G75*
G02*
X13850000Y-5250000I100000J0D01*
G01*
X10350000Y-5250000D02*
G75*
G02*
X10150000Y-5250000I-100000J0D01*
G01*
X10150000Y-5250000D02*
G75*
G02*
X10350000Y-5250000I100000J0D01*
G01*
X10000000Y-5250000D02*
G75*
G02*
X10250000Y-5000000I250000J0D01*
G01*
X13850000Y-14750000D02*
G75*
G02*
X13650000Y-14750000I-100000J0D01*
G01*
X13650000Y-14750000D02*
G75*
G02*
X13850000Y-14750000I100000J0D01*
G01*
X10250000Y-15000000D02*
G75*
G02*
X10000000Y-14750000I0J250000D01*
G01*
X10000000Y-14750000D02*
X10000000Y-5250000D01*
X14000000Y-5250000D02*
X14000000Y-14750000D01*
X10250000Y-5000000D02*
X13750000Y-5000000D01*
X13750000Y-15000000D02*
X10250000Y-15000000D01*
X10350000Y-14750000D02*
G75*
G02*
X10150000Y-14750000I-100000J0D01*
G01*
X10150000Y-14750000D02*
G75*
G02*
X10350000Y-14750000I100000J0D01*
G01*
X13750000Y-5000000D02*
G75*
G02*
X14000000Y-5250000I0J-250000D01*
G01*
D11*
D12*
X12265000Y-6462000D02*
X12285000Y-6482000D01*
X12285000Y-6462000D02*
X12265000Y-6482000D01*
X12265000Y-6602000D02*
X12285000Y-6622000D01*
X12285000Y-6602000D02*
X12265000Y-6622000D01*
X12335000Y-6392000D02*
X12355000Y-6412000D01*
X12355000Y-6392000D02*
X12335000Y-6412000D01*
X12335000Y-6532000D02*
X12355000Y-6552000D01*
X12355000Y-6532000D02*
X12335000Y-6552000D01*
X12335000Y-6672000D02*
X12355000Y-6692000D01*
X12355000Y-6672000D02*
X12335000Y-6692000D01*
X12405000Y-6462000D02*
X12425000Y-6482000D01*
X12425000Y-6462000D02*
X12405000Y-6482000D01*
X12405000Y-6602000D02*
X12425000Y-6622000D01*
X12425000Y-6602000D02*
X12405000Y-6622000D01*
X12475000Y-6392000D02*
X12495000Y-6412000D01*
X12495000Y-6392000D02*
X12475000Y-6412000D01*
X12475000Y-6532000D02*
X12495000Y-6552000D01*
X12495000Y-6532000D02*
X12475000Y-6552000D01*
X12475000Y-6672000D02*
X12495000Y-6692000D01*
X12495000Y-6672000D02*
X12475000Y-6692000D01*
X12545000Y-6462000D02*
X12565000Y-6482000D01*
X12565000Y-6462000D02*
X12545000Y-6482000D01*
X12545000Y-6602000D02*
X12565000Y-6622000D01*
X12565000Y-6602000D02*
X12545000Y-6622000D01*
X10215000Y-8325000D02*
G75*
G02*
X10185000Y-8325000I-15000J0D01*
G01*
X10185000Y-8325000D02*
G75*
G02*
X10215000Y-8325000I15000J0D01*
G01*
X10355000Y-6220000D02*
G75*
G02*
X10325000Y-6220000I-15000J0D01*
G01*
X10325000Y-6220000D02*
G75*
G02*
X10355000Y-6220000I15000J0D01*
G01*
X10947500Y-9450000D02*
G75*
G02*
X10917500Y-9450000I-15000J0D01*
G01*
X10917500Y-9450000D02*
G75*
G02*
X10947500Y-9450000I15000J0D01*
G01*
X10961798Y-7455532D02*
G75*
G02*
X10931798Y-7455532I-15000J0D01*
G01*
X10931798Y-7455532D02*
G75*
G02*
X10961798Y-7455532I15000J0D01*
G01*
X10965000Y-7540000D02*
G75*
G02*
X10935000Y-7540000I-15000J0D01*
G01*
X10935000Y-7540000D02*
G75*
G02*
X10965000Y-7540000I15000J0D01*
G01*
X10965000Y-7620000D02*
G75*
G02*
X10935000Y-7620000I-15000J0D01*
G01*
X10935000Y-7620000D02*
G75*
G02*
X10965000Y-7620000I15000J0D01*
G01*
X11215000Y-7985000D02*
G75*
G02*
X11185000Y-7985000I-15000J0D01*
G01*
X11185000Y-7985000D02*
G75*
G02*
X11215000Y-7985000I15000J0D01*
G01*
X11263095Y-6567500D02*
G75*
G02*
X11233095Y-6567500I-15000J0D01*
G01*
X11233095Y-6567500D02*
G75*
G02*
X11263095Y-6567500I15000J0D01*
G01*
X11315000Y-7090000D02*
G75*
G02*
X11285000Y-7090000I-15000J0D01*
G01*
X11285000Y-7090000D02*
G75*
G02*
X11315000Y-7090000I15000J0D01*
G01*
X11340000Y-6725000D02*
G75*
G02*
X11310000Y-6725000I-15000J0D01*
G01*
X11310000Y-6725000D02*
G75*
G02*
X11340000Y-6725000I15000J0D01*
G01*
X11532500Y-5080000D02*
G75*
G02*
X11502500Y-5080000I-15000J0D01*
G01*
X11502500Y-5080000D02*
G75*
G02*
X11532500Y-5080000I15000J0D01*
G01*
X11590000Y-6278000D02*
G75*
G02*
X11560000Y-6278000I-15000J0D01*
G01*
X11560000Y-6278000D02*
G75*
G02*
X11590000Y-6278000I15000J0D01*
G01*
X11590000Y-6405000D02*
G75*
G02*
X11560000Y-6405000I-15000J0D01*
G01*
X11560000Y-6405000D02*
G75*
G02*
X11590000Y-6405000I15000J0D01*
G01*
X11590000Y-6532000D02*
G75*
G02*
X11560000Y-6532000I-15000J0D01*
G01*
X11560000Y-6532000D02*
G75*
G02*
X11590000Y-6532000I15000J0D01*
G01*
X11590000Y-7294000D02*
G75*
G02*
X11560000Y-7294000I-15000J0D01*
G01*
X11560000Y-7294000D02*
G75*
G02*
X11590000Y-7294000I15000J0D01*
G01*
X11590000Y-7421000D02*
G75*
G02*
X11560000Y-7421000I-15000J0D01*
G01*
X11560000Y-7421000D02*
G75*
G02*
X11590000Y-7421000I15000J0D01*
G01*
X11595000Y-6786000D02*
G75*
G02*
X11565000Y-6786000I-15000J0D01*
G01*
X11565000Y-6786000D02*
G75*
G02*
X11595000Y-6786000I15000J0D01*
G01*
X11667500Y-10547500D02*
G75*
G02*
X11637500Y-10547500I-15000J0D01*
G01*
X11637500Y-10547500D02*
G75*
G02*
X11667500Y-10547500I15000J0D01*
G01*
X11690000Y-8750000D02*
G75*
G02*
X11660000Y-8750000I-15000J0D01*
G01*
X11660000Y-8750000D02*
G75*
G02*
X11690000Y-8750000I15000J0D01*
G01*
X11710000Y-8250000D02*
G75*
G02*
X11680000Y-8250000I-15000J0D01*
G01*
X11680000Y-8250000D02*
G75*
G02*
X11710000Y-8250000I15000J0D01*
G01*
X11833466Y-8958887D02*
G75*
G02*
X11803466Y-8958887I-15000J0D01*
G01*
X11803466Y-8958887D02*
G75*
G02*
X11833466Y-8958887I15000J0D01*
G01*
X11840000Y-9132500D02*
G75*
G02*
X11810000Y-9132500I-15000J0D01*
G01*
X11810000Y-9132500D02*
G75*
G02*
X11840000Y-9132500I15000J0D01*
G01*
X11881500Y-7675000D02*
G75*
G02*
X11851500Y-7675000I-15000J0D01*
G01*
X11851500Y-7675000D02*
G75*
G02*
X11881500Y-7675000I15000J0D01*
G01*
X11965000Y-14150000D02*
G75*
G02*
X11935000Y-14150000I-15000J0D01*
G01*
X11935000Y-14150000D02*
G75*
G02*
X11965000Y-14150000I15000J0D01*
G01*
X12065000Y-14150000D02*
G75*
G02*
X12035000Y-14150000I-15000J0D01*
G01*
X12035000Y-14150000D02*
G75*
G02*
X12065000Y-14150000I15000J0D01*
G01*
X12340000Y-8775000D02*
G75*
G02*
X12310000Y-8775000I-15000J0D01*
G01*
X12310000Y-8775000D02*
G75*
G02*
X12340000Y-8775000I15000J0D01*
G01*
X12390000Y-7675000D02*
G75*
G02*
X12360000Y-7675000I-15000J0D01*
G01*
X12360000Y-7675000D02*
G75*
G02*
X12390000Y-7675000I15000J0D01*
G01*
X12515000Y-7675000D02*
G75*
G02*
X12485000Y-7675000I-15000J0D01*
G01*
X12485000Y-7675000D02*
G75*
G02*
X12515000Y-7675000I15000J0D01*
G01*
X12665000Y-7950000D02*
G75*
G02*
X12635000Y-7950000I-15000J0D01*
G01*
X12635000Y-7950000D02*
G75*
G02*
X12665000Y-7950000I15000J0D01*
G01*
X12770500Y-7675000D02*
G75*
G02*
X12740500Y-7675000I-15000J0D01*
G01*
X12740500Y-7675000D02*
G75*
G02*
X12770500Y-7675000I15000J0D01*
G01*
X12897500Y-7675000D02*
G75*
G02*
X12867500Y-7675000I-15000J0D01*
G01*
X12867500Y-7675000D02*
G75*
G02*
X12897500Y-7675000I15000J0D01*
G01*
X13090000Y-8532500D02*
G75*
G02*
X13060000Y-8532500I-15000J0D01*
G01*
X13060000Y-8532500D02*
G75*
G02*
X13090000Y-8532500I15000J0D01*
G01*
X13115000Y-7950000D02*
G75*
G02*
X13085000Y-7950000I-15000J0D01*
G01*
X13085000Y-7950000D02*
G75*
G02*
X13115000Y-7950000I15000J0D01*
G01*
X13241335Y-8532500D02*
G75*
G02*
X13211335Y-8532500I-15000J0D01*
G01*
X13211335Y-8532500D02*
G75*
G02*
X13241335Y-8532500I15000J0D01*
G01*
X13340000Y-5897000D02*
G75*
G02*
X13310000Y-5897000I-15000J0D01*
G01*
X13310000Y-5897000D02*
G75*
G02*
X13340000Y-5897000I15000J0D01*
G01*
X13340000Y-6024000D02*
G75*
G02*
X13310000Y-6024000I-15000J0D01*
G01*
X13310000Y-6024000D02*
G75*
G02*
X13340000Y-6024000I15000J0D01*
G01*
X13340000Y-6151000D02*
G75*
G02*
X13310000Y-6151000I-15000J0D01*
G01*
X13310000Y-6151000D02*
G75*
G02*
X13340000Y-6151000I15000J0D01*
G01*
X13340000Y-6278000D02*
G75*
G02*
X13310000Y-6278000I-15000J0D01*
G01*
X13310000Y-6278000D02*
G75*
G02*
X13340000Y-6278000I15000J0D01*
G01*
X13340000Y-6405000D02*
G75*
G02*
X13310000Y-6405000I-15000J0D01*
G01*
X13310000Y-6405000D02*
G75*
G02*
X13340000Y-6405000I15000J0D01*
G01*
X13340000Y-6532000D02*
G75*
G02*
X13310000Y-6532000I-15000J0D01*
G01*
X13310000Y-6532000D02*
G75*
G02*
X13340000Y-6532000I15000J0D01*
G01*
X13340000Y-6659000D02*
G75*
G02*
X13310000Y-6659000I-15000J0D01*
G01*
X13310000Y-6659000D02*
G75*
G02*
X13340000Y-6659000I15000J0D01*
G01*
X13340000Y-6786000D02*
G75*
G02*
X13310000Y-6786000I-15000J0D01*
G01*
X13310000Y-6786000D02*
G75*
G02*
X13340000Y-6786000I15000J0D01*
G01*
X13340000Y-6913000D02*
G75*
G02*
X13310000Y-6913000I-15000J0D01*
G01*
X13310000Y-6913000D02*
G75*
G02*
X13340000Y-6913000I15000J0D01*
G01*
X13340000Y-7040000D02*
G75*
G02*
X13310000Y-7040000I-15000J0D01*
G01*
X13310000Y-7040000D02*
G75*
G02*
X13340000Y-7040000I15000J0D01*
G01*
X13340000Y-7167000D02*
G75*
G02*
X13310000Y-7167000I-15000J0D01*
G01*
X13310000Y-7167000D02*
G75*
G02*
X13340000Y-7167000I15000J0D01*
G01*
X13340000Y-7300000D02*
G75*
G02*
X13310000Y-7300000I-15000J0D01*
G01*
X13310000Y-7300000D02*
G75*
G02*
X13340000Y-7300000I15000J0D01*
G01*
X13390000Y-8000000D02*
G75*
G02*
X13360000Y-8000000I-15000J0D01*
G01*
X13360000Y-8000000D02*
G75*
G02*
X13390000Y-8000000I15000J0D01*
G01*
X13390000Y-8532500D02*
G75*
G02*
X13360000Y-8532500I-15000J0D01*
G01*
X13360000Y-8532500D02*
G75*
G02*
X13390000Y-8532500I15000J0D01*
G01*
X13415000Y-8275000D02*
G75*
G02*
X13385000Y-8275000I-15000J0D01*
G01*
X13385000Y-8275000D02*
G75*
G02*
X13415000Y-8275000I15000J0D01*
G01*
X13840000Y-9475000D02*
G75*
G02*
X13810000Y-9475000I-15000J0D01*
G01*
X13810000Y-9475000D02*
G75*
G02*
X13840000Y-9475000I15000J0D01*
G01*
X11568000Y-14357500D02*
X11568000Y-14417500D01*
X11538000Y-14387500D02*
X11598000Y-14387500D01*
X11538000Y-14332500D02*
X11538000Y-14442500D01*
X11598000Y-14442500D02*
G75*
G02*
X11538000Y-14442500I-30000J0D01*
G01*
X11598000Y-14442500D02*
X11598000Y-14332500D01*
X11598000Y-14332500D02*
G75*
G03*
X11538000Y-14332500I-30000J0D01*
G01*
X11568000Y-14777500D02*
X11568000Y-14837500D01*
X11538000Y-14807500D02*
X11598000Y-14807500D01*
X11538000Y-14767500D02*
X11538000Y-14847500D01*
X11598000Y-14847500D02*
G75*
G02*
X11538000Y-14847500I-30000J0D01*
G01*
X11598000Y-14847500D02*
X11598000Y-14767500D01*
X11598000Y-14767500D02*
G75*
G03*
X11538000Y-14767500I-30000J0D01*
G01*
X12432000Y-14357500D02*
X12432000Y-14417500D01*
X12402000Y-14387500D02*
X12462000Y-14387500D01*
X12402000Y-14332500D02*
X12402000Y-14442500D01*
X12462000Y-14442500D02*
G75*
G02*
X12402000Y-14442500I-30000J0D01*
G01*
X12462000Y-14442500D02*
X12462000Y-14332500D01*
X12462000Y-14332500D02*
G75*
G03*
X12402000Y-14332500I-30000J0D01*
G01*
X12432000Y-14777500D02*
X12432000Y-14837500D01*
X12402000Y-14807500D02*
X12462000Y-14807500D01*
X12402000Y-14767500D02*
X12402000Y-14847500D01*
X12462000Y-14847500D02*
G75*
G02*
X12402000Y-14847500I-30000J0D01*
G01*
X12462000Y-14847500D02*
X12462000Y-14767500D01*
X12462000Y-14767500D02*
G75*
G03*
X12402000Y-14767500I-30000J0D01*
G01*
X13378284Y-14278284D02*
X13378284Y-14221715D01*
X13321715Y-14221715D01*
X13321715Y-14278284D01*
X13378284Y-14278284D01*
X13632284Y-14278284D02*
X13632284Y-14221715D01*
X13575715Y-14221715D01*
X13575715Y-14278284D01*
X13632284Y-14278284D01*
X10200000Y-13842000D02*
X10250000Y-13792000D01*
X10200000Y-13742000D01*
X10150000Y-13792000D01*
X10200000Y-13842000D01*
X10200000Y-14096000D02*
X10250000Y-14046000D01*
X10200000Y-13996000D01*
X10150000Y-14046000D01*
X10200000Y-14096000D01*
X10200000Y-14350000D02*
X10250000Y-14300000D01*
X10200000Y-14250000D01*
X10150000Y-14300000D01*
X10200000Y-14350000D01*
D13*
X10314968Y-12369375D02*
X10454968Y-12509375D01*
X10454968Y-12369375D02*
X10314968Y-12509375D01*
X10454968Y-12439375D02*
G75*
G02*
X10314968Y-12439375I-70000J0D01*
G01*
X10314968Y-12439375D02*
G75*
G02*
X10454968Y-12439375I70000J0D01*
G01*
X11155011Y-14240380D02*
X11295011Y-14380380D01*
X11295011Y-14240380D02*
X11155011Y-14380380D01*
X11295011Y-14310380D02*
G75*
G02*
X11155011Y-14310380I-70000J0D01*
G01*
X11155011Y-14310380D02*
G75*
G02*
X11295011Y-14310380I70000J0D01*
G01*
X11275219Y-13384781D02*
X11415219Y-13524781D01*
X11415219Y-13384781D02*
X11275219Y-13524781D01*
X11415219Y-13454781D02*
G75*
G02*
X11275219Y-13454781I-70000J0D01*
G01*
X11275219Y-13454781D02*
G75*
G02*
X11415219Y-13454781I70000J0D01*
G01*
X11604731Y-11122039D02*
X11744731Y-11262039D01*
X11744731Y-11122039D02*
X11604731Y-11262039D01*
X11744731Y-11192039D02*
G75*
G02*
X11604731Y-11192039I-70000J0D01*
G01*
X11604731Y-11192039D02*
G75*
G02*
X11744731Y-11192039I70000J0D01*
G01*
X11818984Y-12618984D02*
X11958984Y-12758984D01*
X11958984Y-12618984D02*
X11818984Y-12758984D01*
X11958984Y-12688984D02*
G75*
G02*
X11818984Y-12688984I-70000J0D01*
G01*
X11818984Y-12688984D02*
G75*
G02*
X11958984Y-12688984I70000J0D01*
G01*
X12584781Y-12075219D02*
X12724781Y-12215219D01*
X12724781Y-12075219D02*
X12584781Y-12215219D01*
X12724781Y-12145219D02*
G75*
G02*
X12584781Y-12145219I-70000J0D01*
G01*
X12584781Y-12145219D02*
G75*
G02*
X12724781Y-12145219I70000J0D01*
G01*
X12584781Y-13384781D02*
X12724781Y-13524781D01*
X12724781Y-13384781D02*
X12584781Y-13524781D01*
X12724781Y-13454781D02*
G75*
G02*
X12584781Y-13454781I-70000J0D01*
G01*
X12584781Y-13454781D02*
G75*
G02*
X12724781Y-13454781I70000J0D01*
G01*
X12704989Y-11219620D02*
X12844989Y-11359620D01*
X12844989Y-11219620D02*
X12704989Y-11359620D01*
X12844989Y-11289620D02*
G75*
G02*
X12704989Y-11289620I-70000J0D01*
G01*
X12704989Y-11289620D02*
G75*
G02*
X12844989Y-11289620I70000J0D01*
G01*
X13545032Y-13090624D02*
X13685032Y-13230624D01*
X13685032Y-13090624D02*
X13545032Y-13230624D01*
X13685032Y-13160624D02*
G75*
G02*
X13545032Y-13160624I-70000J0D01*
G01*
X13545032Y-13160624D02*
G75*
G02*
X13685032Y-13160624I70000J0D01*
G01*
D11*
X10258277Y-15313984D02*
X10258277Y-15113984D01*
X10258277Y-15113984D02*
X10305896Y-15113984D01*
X10305896Y-15113984D02*
X10334467Y-15123508D01*
X10334467Y-15123508D02*
X10353515Y-15142555D01*
X10353515Y-15142555D02*
X10363039Y-15161603D01*
X10363039Y-15161603D02*
X10372563Y-15199698D01*
X10372563Y-15199698D02*
X10372563Y-15228269D01*
X10372563Y-15228269D02*
X10363039Y-15266365D01*
X10363039Y-15266365D02*
X10353515Y-15285412D01*
X10353515Y-15285412D02*
X10334467Y-15304460D01*
X10334467Y-15304460D02*
X10305896Y-15313984D01*
X10305896Y-15313984D02*
X10258277Y-15313984D01*
X10458277Y-15313984D02*
X10458277Y-15180650D01*
X10458277Y-15218746D02*
X10467801Y-15199698D01*
X10467801Y-15199698D02*
X10477324Y-15190174D01*
X10477324Y-15190174D02*
X10496372Y-15180650D01*
X10496372Y-15180650D02*
X10515420Y-15180650D01*
X10582086Y-15313984D02*
X10582086Y-15180650D01*
X10582086Y-15113984D02*
X10572563Y-15123508D01*
X10572563Y-15123508D02*
X10582086Y-15133031D01*
X10582086Y-15133031D02*
X10591610Y-15123508D01*
X10591610Y-15123508D02*
X10582086Y-15113984D01*
X10582086Y-15113984D02*
X10582086Y-15133031D01*
X10705896Y-15313984D02*
X10686848Y-15304460D01*
X10686848Y-15304460D02*
X10677324Y-15285412D01*
X10677324Y-15285412D02*
X10677324Y-15113984D01*
X10810658Y-15313984D02*
X10791610Y-15304460D01*
X10791610Y-15304460D02*
X10782086Y-15285412D01*
X10782086Y-15285412D02*
X10782086Y-15113984D01*
X11039229Y-15313984D02*
X11039229Y-15113984D01*
X11039229Y-15113984D02*
X11105896Y-15256841D01*
X11105896Y-15256841D02*
X11172563Y-15113984D01*
X11172563Y-15113984D02*
X11172563Y-15313984D01*
X11353515Y-15313984D02*
X11353515Y-15209222D01*
X11353515Y-15209222D02*
X11343991Y-15190174D01*
X11343991Y-15190174D02*
X11324943Y-15180650D01*
X11324943Y-15180650D02*
X11286848Y-15180650D01*
X11286848Y-15180650D02*
X11267801Y-15190174D01*
X11353515Y-15304460D02*
X11334467Y-15313984D01*
X11334467Y-15313984D02*
X11286848Y-15313984D01*
X11286848Y-15313984D02*
X11267801Y-15304460D01*
X11267801Y-15304460D02*
X11258277Y-15285412D01*
X11258277Y-15285412D02*
X11258277Y-15266365D01*
X11258277Y-15266365D02*
X11267801Y-15247317D01*
X11267801Y-15247317D02*
X11286848Y-15237793D01*
X11286848Y-15237793D02*
X11334467Y-15237793D01*
X11334467Y-15237793D02*
X11353515Y-15228269D01*
X11448753Y-15180650D02*
X11448753Y-15380650D01*
X11448753Y-15190174D02*
X11467801Y-15180650D01*
X11467801Y-15180650D02*
X11505896Y-15180650D01*
X11505896Y-15180650D02*
X11524943Y-15190174D01*
X11524943Y-15190174D02*
X11534467Y-15199698D01*
X11534467Y-15199698D02*
X11543991Y-15218746D01*
X11543991Y-15218746D02*
X11543991Y-15275888D01*
X11543991Y-15275888D02*
X11534467Y-15294936D01*
X11534467Y-15294936D02*
X11524943Y-15304460D01*
X11524943Y-15304460D02*
X11505896Y-15313984D01*
X11505896Y-15313984D02*
X11467801Y-15313984D01*
X11467801Y-15313984D02*
X11448753Y-15304460D01*
X11629705Y-15294936D02*
X11639229Y-15304460D01*
X11639229Y-15304460D02*
X11629705Y-15313984D01*
X11629705Y-15313984D02*
X11620182Y-15304460D01*
X11620182Y-15304460D02*
X11629705Y-15294936D01*
X11629705Y-15294936D02*
X11629705Y-15313984D01*
X11629705Y-15190174D02*
X11639229Y-15199698D01*
X11639229Y-15199698D02*
X11629705Y-15209222D01*
X11629705Y-15209222D02*
X11620182Y-15199698D01*
X11620182Y-15199698D02*
X11629705Y-15190174D01*
X11629705Y-15190174D02*
X11629705Y-15209222D01*
D12*
X9977500Y-15632500D02*
X9997500Y-15652500D01*
X9997500Y-15632500D02*
X9977500Y-15652500D01*
D11*
X10296372Y-15533984D02*
X10315420Y-15533984D01*
X10315420Y-15533984D02*
X10334467Y-15543508D01*
X10334467Y-15543508D02*
X10343991Y-15553031D01*
X10343991Y-15553031D02*
X10353515Y-15572079D01*
X10353515Y-15572079D02*
X10363039Y-15610174D01*
X10363039Y-15610174D02*
X10363039Y-15657793D01*
X10363039Y-15657793D02*
X10353515Y-15695888D01*
X10353515Y-15695888D02*
X10343991Y-15714936D01*
X10343991Y-15714936D02*
X10334467Y-15724460D01*
X10334467Y-15724460D02*
X10315420Y-15733984D01*
X10315420Y-15733984D02*
X10296372Y-15733984D01*
X10296372Y-15733984D02*
X10277324Y-15724460D01*
X10277324Y-15724460D02*
X10267801Y-15714936D01*
X10267801Y-15714936D02*
X10258277Y-15695888D01*
X10258277Y-15695888D02*
X10248753Y-15657793D01*
X10248753Y-15657793D02*
X10248753Y-15610174D01*
X10248753Y-15610174D02*
X10258277Y-15572079D01*
X10258277Y-15572079D02*
X10267801Y-15553031D01*
X10267801Y-15553031D02*
X10277324Y-15543508D01*
X10277324Y-15543508D02*
X10296372Y-15533984D01*
X10448753Y-15714936D02*
X10458277Y-15724460D01*
X10458277Y-15724460D02*
X10448753Y-15733984D01*
X10448753Y-15733984D02*
X10439229Y-15724460D01*
X10439229Y-15724460D02*
X10448753Y-15714936D01*
X10448753Y-15714936D02*
X10448753Y-15733984D01*
X10534467Y-15553031D02*
X10543991Y-15543508D01*
X10543991Y-15543508D02*
X10563039Y-15533984D01*
X10563039Y-15533984D02*
X10610658Y-15533984D01*
X10610658Y-15533984D02*
X10629705Y-15543508D01*
X10629705Y-15543508D02*
X10639229Y-15553031D01*
X10639229Y-15553031D02*
X10648753Y-15572079D01*
X10648753Y-15572079D02*
X10648753Y-15591127D01*
X10648753Y-15591127D02*
X10639229Y-15619698D01*
X10639229Y-15619698D02*
X10524944Y-15733984D01*
X10524944Y-15733984D02*
X10648753Y-15733984D01*
X10772563Y-15533984D02*
X10791610Y-15533984D01*
X10791610Y-15533984D02*
X10810658Y-15543508D01*
X10810658Y-15543508D02*
X10820182Y-15553031D01*
X10820182Y-15553031D02*
X10829705Y-15572079D01*
X10829705Y-15572079D02*
X10839229Y-15610174D01*
X10839229Y-15610174D02*
X10839229Y-15657793D01*
X10839229Y-15657793D02*
X10829705Y-15695888D01*
X10829705Y-15695888D02*
X10820182Y-15714936D01*
X10820182Y-15714936D02*
X10810658Y-15724460D01*
X10810658Y-15724460D02*
X10791610Y-15733984D01*
X10791610Y-15733984D02*
X10772563Y-15733984D01*
X10772563Y-15733984D02*
X10753515Y-15724460D01*
X10753515Y-15724460D02*
X10743991Y-15714936D01*
X10743991Y-15714936D02*
X10734467Y-15695888D01*
X10734467Y-15695888D02*
X10724944Y-15657793D01*
X10724944Y-15657793D02*
X10724944Y-15610174D01*
X10724944Y-15610174D02*
X10734467Y-15572079D01*
X10734467Y-15572079D02*
X10743991Y-15553031D01*
X10743991Y-15553031D02*
X10753515Y-15543508D01*
X10753515Y-15543508D02*
X10772563Y-15533984D01*
X10963039Y-15533984D02*
X10982086Y-15533984D01*
X10982086Y-15533984D02*
X11001134Y-15543508D01*
X11001134Y-15543508D02*
X11010658Y-15553031D01*
X11010658Y-15553031D02*
X11020182Y-15572079D01*
X11020182Y-15572079D02*
X11029705Y-15610174D01*
X11029705Y-15610174D02*
X11029705Y-15657793D01*
X11029705Y-15657793D02*
X11020182Y-15695888D01*
X11020182Y-15695888D02*
X11010658Y-15714936D01*
X11010658Y-15714936D02*
X11001134Y-15724460D01*
X11001134Y-15724460D02*
X10982086Y-15733984D01*
X10982086Y-15733984D02*
X10963039Y-15733984D01*
X10963039Y-15733984D02*
X10943991Y-15724460D01*
X10943991Y-15724460D02*
X10934467Y-15714936D01*
X10934467Y-15714936D02*
X10924944Y-15695888D01*
X10924944Y-15695888D02*
X10915420Y-15657793D01*
X10915420Y-15657793D02*
X10915420Y-15610174D01*
X10915420Y-15610174D02*
X10924944Y-15572079D01*
X10924944Y-15572079D02*
X10934467Y-15553031D01*
X10934467Y-15553031D02*
X10943991Y-15543508D01*
X10943991Y-15543508D02*
X10963039Y-15533984D01*
X11115420Y-15733984D02*
X11115420Y-15600650D01*
X11115420Y-15619698D02*
X11124944Y-15610174D01*
X11124944Y-15610174D02*
X11143991Y-15600650D01*
X11143991Y-15600650D02*
X11172563Y-15600650D01*
X11172563Y-15600650D02*
X11191610Y-15610174D01*
X11191610Y-15610174D02*
X11201134Y-15629222D01*
X11201134Y-15629222D02*
X11201134Y-15733984D01*
X11201134Y-15629222D02*
X11210658Y-15610174D01*
X11210658Y-15610174D02*
X11229705Y-15600650D01*
X11229705Y-15600650D02*
X11258277Y-15600650D01*
X11258277Y-15600650D02*
X11277324Y-15610174D01*
X11277324Y-15610174D02*
X11286848Y-15629222D01*
X11286848Y-15629222D02*
X11286848Y-15733984D01*
X11382086Y-15733984D02*
X11382086Y-15600650D01*
X11382086Y-15619698D02*
X11391610Y-15610174D01*
X11391610Y-15610174D02*
X11410658Y-15600650D01*
X11410658Y-15600650D02*
X11439229Y-15600650D01*
X11439229Y-15600650D02*
X11458277Y-15610174D01*
X11458277Y-15610174D02*
X11467801Y-15629222D01*
X11467801Y-15629222D02*
X11467801Y-15733984D01*
X11467801Y-15629222D02*
X11477324Y-15610174D01*
X11477324Y-15610174D02*
X11496372Y-15600650D01*
X11496372Y-15600650D02*
X11524943Y-15600650D01*
X11524943Y-15600650D02*
X11543991Y-15610174D01*
X11543991Y-15610174D02*
X11553515Y-15629222D01*
X11553515Y-15629222D02*
X11553515Y-15733984D01*
X11943991Y-15524460D02*
X11772563Y-15781603D01*
X12201134Y-15533984D02*
X12220182Y-15533984D01*
X12220182Y-15533984D02*
X12239229Y-15543508D01*
X12239229Y-15543508D02*
X12248753Y-15553031D01*
X12248753Y-15553031D02*
X12258277Y-15572079D01*
X12258277Y-15572079D02*
X12267801Y-15610174D01*
X12267801Y-15610174D02*
X12267801Y-15657793D01*
X12267801Y-15657793D02*
X12258277Y-15695888D01*
X12258277Y-15695888D02*
X12248753Y-15714936D01*
X12248753Y-15714936D02*
X12239229Y-15724460D01*
X12239229Y-15724460D02*
X12220182Y-15733984D01*
X12220182Y-15733984D02*
X12201134Y-15733984D01*
X12201134Y-15733984D02*
X12182086Y-15724460D01*
X12182086Y-15724460D02*
X12172563Y-15714936D01*
X12172563Y-15714936D02*
X12163039Y-15695888D01*
X12163039Y-15695888D02*
X12153515Y-15657793D01*
X12153515Y-15657793D02*
X12153515Y-15610174D01*
X12153515Y-15610174D02*
X12163039Y-15572079D01*
X12163039Y-15572079D02*
X12172563Y-15553031D01*
X12172563Y-15553031D02*
X12182086Y-15543508D01*
X12182086Y-15543508D02*
X12201134Y-15533984D01*
X12353515Y-15714936D02*
X12363039Y-15724460D01*
X12363039Y-15724460D02*
X12353515Y-15733984D01*
X12353515Y-15733984D02*
X12343991Y-15724460D01*
X12343991Y-15724460D02*
X12353515Y-15714936D01*
X12353515Y-15714936D02*
X12353515Y-15733984D01*
X12486848Y-15533984D02*
X12505896Y-15533984D01*
X12505896Y-15533984D02*
X12524944Y-15543508D01*
X12524944Y-15543508D02*
X12534467Y-15553031D01*
X12534467Y-15553031D02*
X12543991Y-15572079D01*
X12543991Y-15572079D02*
X12553515Y-15610174D01*
X12553515Y-15610174D02*
X12553515Y-15657793D01*
X12553515Y-15657793D02*
X12543991Y-15695888D01*
X12543991Y-15695888D02*
X12534467Y-15714936D01*
X12534467Y-15714936D02*
X12524944Y-15724460D01*
X12524944Y-15724460D02*
X12505896Y-15733984D01*
X12505896Y-15733984D02*
X12486848Y-15733984D01*
X12486848Y-15733984D02*
X12467801Y-15724460D01*
X12467801Y-15724460D02*
X12458277Y-15714936D01*
X12458277Y-15714936D02*
X12448753Y-15695888D01*
X12448753Y-15695888D02*
X12439229Y-15657793D01*
X12439229Y-15657793D02*
X12439229Y-15610174D01*
X12439229Y-15610174D02*
X12448753Y-15572079D01*
X12448753Y-15572079D02*
X12458277Y-15553031D01*
X12458277Y-15553031D02*
X12467801Y-15543508D01*
X12467801Y-15543508D02*
X12486848Y-15533984D01*
X12677325Y-15533984D02*
X12696372Y-15533984D01*
X12696372Y-15533984D02*
X12715420Y-15543508D01*
X12715420Y-15543508D02*
X12724944Y-15553031D01*
X12724944Y-15553031D02*
X12734467Y-15572079D01*
X12734467Y-15572079D02*
X12743991Y-15610174D01*
X12743991Y-15610174D02*
X12743991Y-15657793D01*
X12743991Y-15657793D02*
X12734467Y-15695888D01*
X12734467Y-15695888D02*
X12724944Y-15714936D01*
X12724944Y-15714936D02*
X12715420Y-15724460D01*
X12715420Y-15724460D02*
X12696372Y-15733984D01*
X12696372Y-15733984D02*
X12677325Y-15733984D01*
X12677325Y-15733984D02*
X12658277Y-15724460D01*
X12658277Y-15724460D02*
X12648753Y-15714936D01*
X12648753Y-15714936D02*
X12639229Y-15695888D01*
X12639229Y-15695888D02*
X12629706Y-15657793D01*
X12629706Y-15657793D02*
X12629706Y-15610174D01*
X12629706Y-15610174D02*
X12639229Y-15572079D01*
X12639229Y-15572079D02*
X12648753Y-15553031D01*
X12648753Y-15553031D02*
X12658277Y-15543508D01*
X12658277Y-15543508D02*
X12677325Y-15533984D01*
X12810658Y-15533984D02*
X12943991Y-15533984D01*
X12943991Y-15533984D02*
X12858277Y-15733984D01*
X13029706Y-15733984D02*
X13067801Y-15733984D01*
X13067801Y-15733984D02*
X13086848Y-15724460D01*
X13086848Y-15724460D02*
X13096372Y-15714936D01*
X13096372Y-15714936D02*
X13115420Y-15686365D01*
X13115420Y-15686365D02*
X13124944Y-15648269D01*
X13124944Y-15648269D02*
X13124944Y-15572079D01*
X13124944Y-15572079D02*
X13115420Y-15553031D01*
X13115420Y-15553031D02*
X13105896Y-15543508D01*
X13105896Y-15543508D02*
X13086848Y-15533984D01*
X13086848Y-15533984D02*
X13048753Y-15533984D01*
X13048753Y-15533984D02*
X13029706Y-15543508D01*
X13029706Y-15543508D02*
X13020182Y-15553031D01*
X13020182Y-15553031D02*
X13010658Y-15572079D01*
X13010658Y-15572079D02*
X13010658Y-15619698D01*
X13010658Y-15619698D02*
X13020182Y-15638746D01*
X13020182Y-15638746D02*
X13029706Y-15648269D01*
X13029706Y-15648269D02*
X13048753Y-15657793D01*
X13048753Y-15657793D02*
X13086848Y-15657793D01*
X13086848Y-15657793D02*
X13105896Y-15648269D01*
X13105896Y-15648269D02*
X13115420Y-15638746D01*
X13115420Y-15638746D02*
X13124944Y-15619698D01*
X13201134Y-15533984D02*
X13201134Y-15572079D01*
X13277325Y-15533984D02*
X13277325Y-15572079D01*
X13572563Y-15810174D02*
X13563039Y-15800650D01*
X13563039Y-15800650D02*
X13543991Y-15772079D01*
X13543991Y-15772079D02*
X13534468Y-15753031D01*
X13534468Y-15753031D02*
X13524944Y-15724460D01*
X13524944Y-15724460D02*
X13515420Y-15676841D01*
X13515420Y-15676841D02*
X13515420Y-15638746D01*
X13515420Y-15638746D02*
X13524944Y-15591127D01*
X13524944Y-15591127D02*
X13534468Y-15562555D01*
X13534468Y-15562555D02*
X13543991Y-15543508D01*
X13543991Y-15543508D02*
X13563039Y-15514936D01*
X13563039Y-15514936D02*
X13572563Y-15505412D01*
X13753515Y-15733984D02*
X13639229Y-15733984D01*
X13696372Y-15733984D02*
X13696372Y-15533984D01*
X13696372Y-15533984D02*
X13677325Y-15562555D01*
X13677325Y-15562555D02*
X13658277Y-15581603D01*
X13658277Y-15581603D02*
X13639229Y-15591127D01*
X13829706Y-15553031D02*
X13839229Y-15543508D01*
X13839229Y-15543508D02*
X13858277Y-15533984D01*
X13858277Y-15533984D02*
X13905896Y-15533984D01*
X13905896Y-15533984D02*
X13924944Y-15543508D01*
X13924944Y-15543508D02*
X13934468Y-15553031D01*
X13934468Y-15553031D02*
X13943991Y-15572079D01*
X13943991Y-15572079D02*
X13943991Y-15591127D01*
X13943991Y-15591127D02*
X13934468Y-15619698D01*
X13934468Y-15619698D02*
X13820182Y-15733984D01*
X13820182Y-15733984D02*
X13943991Y-15733984D01*
X14182087Y-15733984D02*
X14182087Y-15533984D01*
X14267801Y-15733984D02*
X14267801Y-15629222D01*
X14267801Y-15629222D02*
X14258277Y-15610174D01*
X14258277Y-15610174D02*
X14239230Y-15600650D01*
X14239230Y-15600650D02*
X14210658Y-15600650D01*
X14210658Y-15600650D02*
X14191610Y-15610174D01*
X14191610Y-15610174D02*
X14182087Y-15619698D01*
X14391610Y-15733984D02*
X14372563Y-15724460D01*
X14372563Y-15724460D02*
X14363039Y-15714936D01*
X14363039Y-15714936D02*
X14353515Y-15695888D01*
X14353515Y-15695888D02*
X14353515Y-15638746D01*
X14353515Y-15638746D02*
X14363039Y-15619698D01*
X14363039Y-15619698D02*
X14372563Y-15610174D01*
X14372563Y-15610174D02*
X14391610Y-15600650D01*
X14391610Y-15600650D02*
X14420182Y-15600650D01*
X14420182Y-15600650D02*
X14439230Y-15610174D01*
X14439230Y-15610174D02*
X14448753Y-15619698D01*
X14448753Y-15619698D02*
X14458277Y-15638746D01*
X14458277Y-15638746D02*
X14458277Y-15695888D01*
X14458277Y-15695888D02*
X14448753Y-15714936D01*
X14448753Y-15714936D02*
X14439230Y-15724460D01*
X14439230Y-15724460D02*
X14420182Y-15733984D01*
X14420182Y-15733984D02*
X14391610Y-15733984D01*
X14572563Y-15733984D02*
X14553515Y-15724460D01*
X14553515Y-15724460D02*
X14543991Y-15705412D01*
X14543991Y-15705412D02*
X14543991Y-15533984D01*
X14724944Y-15724460D02*
X14705896Y-15733984D01*
X14705896Y-15733984D02*
X14667801Y-15733984D01*
X14667801Y-15733984D02*
X14648753Y-15724460D01*
X14648753Y-15724460D02*
X14639230Y-15705412D01*
X14639230Y-15705412D02*
X14639230Y-15629222D01*
X14639230Y-15629222D02*
X14648753Y-15610174D01*
X14648753Y-15610174D02*
X14667801Y-15600650D01*
X14667801Y-15600650D02*
X14705896Y-15600650D01*
X14705896Y-15600650D02*
X14724944Y-15610174D01*
X14724944Y-15610174D02*
X14734468Y-15629222D01*
X14734468Y-15629222D02*
X14734468Y-15648269D01*
X14734468Y-15648269D02*
X14639230Y-15667317D01*
X14810658Y-15724460D02*
X14829706Y-15733984D01*
X14829706Y-15733984D02*
X14867801Y-15733984D01*
X14867801Y-15733984D02*
X14886849Y-15724460D01*
X14886849Y-15724460D02*
X14896372Y-15705412D01*
X14896372Y-15705412D02*
X14896372Y-15695888D01*
X14896372Y-15695888D02*
X14886849Y-15676841D01*
X14886849Y-15676841D02*
X14867801Y-15667317D01*
X14867801Y-15667317D02*
X14839230Y-15667317D01*
X14839230Y-15667317D02*
X14820182Y-15657793D01*
X14820182Y-15657793D02*
X14810658Y-15638746D01*
X14810658Y-15638746D02*
X14810658Y-15629222D01*
X14810658Y-15629222D02*
X14820182Y-15610174D01*
X14820182Y-15610174D02*
X14839230Y-15600650D01*
X14839230Y-15600650D02*
X14867801Y-15600650D01*
X14867801Y-15600650D02*
X14886849Y-15610174D01*
X14963039Y-15810174D02*
X14972563Y-15800650D01*
X14972563Y-15800650D02*
X14991611Y-15772079D01*
X14991611Y-15772079D02*
X15001134Y-15753031D01*
X15001134Y-15753031D02*
X15010658Y-15724460D01*
X15010658Y-15724460D02*
X15020182Y-15676841D01*
X15020182Y-15676841D02*
X15020182Y-15638746D01*
X15020182Y-15638746D02*
X15010658Y-15591127D01*
X15010658Y-15591127D02*
X15001134Y-15562555D01*
X15001134Y-15562555D02*
X14991611Y-15543508D01*
X14991611Y-15543508D02*
X14972563Y-15514936D01*
X14972563Y-15514936D02*
X14963039Y-15505412D01*
D12*
X9997500Y-15906500D02*
G75*
G02*
X9967500Y-15906500I-15000J0D01*
G01*
X9967500Y-15906500D02*
G75*
G02*
X9997500Y-15906500I15000J0D01*
G01*
D11*
X10296372Y-15797984D02*
X10315420Y-15797984D01*
X10315420Y-15797984D02*
X10334467Y-15807508D01*
X10334467Y-15807508D02*
X10343991Y-15817031D01*
X10343991Y-15817031D02*
X10353515Y-15836079D01*
X10353515Y-15836079D02*
X10363039Y-15874174D01*
X10363039Y-15874174D02*
X10363039Y-15921793D01*
X10363039Y-15921793D02*
X10353515Y-15959888D01*
X10353515Y-15959888D02*
X10343991Y-15978936D01*
X10343991Y-15978936D02*
X10334467Y-15988460D01*
X10334467Y-15988460D02*
X10315420Y-15997984D01*
X10315420Y-15997984D02*
X10296372Y-15997984D01*
X10296372Y-15997984D02*
X10277324Y-15988460D01*
X10277324Y-15988460D02*
X10267801Y-15978936D01*
X10267801Y-15978936D02*
X10258277Y-15959888D01*
X10258277Y-15959888D02*
X10248753Y-15921793D01*
X10248753Y-15921793D02*
X10248753Y-15874174D01*
X10248753Y-15874174D02*
X10258277Y-15836079D01*
X10258277Y-15836079D02*
X10267801Y-15817031D01*
X10267801Y-15817031D02*
X10277324Y-15807508D01*
X10277324Y-15807508D02*
X10296372Y-15797984D01*
X10448753Y-15978936D02*
X10458277Y-15988460D01*
X10458277Y-15988460D02*
X10448753Y-15997984D01*
X10448753Y-15997984D02*
X10439229Y-15988460D01*
X10439229Y-15988460D02*
X10448753Y-15978936D01*
X10448753Y-15978936D02*
X10448753Y-15997984D01*
X10524944Y-15797984D02*
X10648753Y-15797984D01*
X10648753Y-15797984D02*
X10582086Y-15874174D01*
X10582086Y-15874174D02*
X10610658Y-15874174D01*
X10610658Y-15874174D02*
X10629705Y-15883698D01*
X10629705Y-15883698D02*
X10639229Y-15893222D01*
X10639229Y-15893222D02*
X10648753Y-15912269D01*
X10648753Y-15912269D02*
X10648753Y-15959888D01*
X10648753Y-15959888D02*
X10639229Y-15978936D01*
X10639229Y-15978936D02*
X10629705Y-15988460D01*
X10629705Y-15988460D02*
X10610658Y-15997984D01*
X10610658Y-15997984D02*
X10553515Y-15997984D01*
X10553515Y-15997984D02*
X10534467Y-15988460D01*
X10534467Y-15988460D02*
X10524944Y-15978936D01*
X10772563Y-15797984D02*
X10791610Y-15797984D01*
X10791610Y-15797984D02*
X10810658Y-15807508D01*
X10810658Y-15807508D02*
X10820182Y-15817031D01*
X10820182Y-15817031D02*
X10829705Y-15836079D01*
X10829705Y-15836079D02*
X10839229Y-15874174D01*
X10839229Y-15874174D02*
X10839229Y-15921793D01*
X10839229Y-15921793D02*
X10829705Y-15959888D01*
X10829705Y-15959888D02*
X10820182Y-15978936D01*
X10820182Y-15978936D02*
X10810658Y-15988460D01*
X10810658Y-15988460D02*
X10791610Y-15997984D01*
X10791610Y-15997984D02*
X10772563Y-15997984D01*
X10772563Y-15997984D02*
X10753515Y-15988460D01*
X10753515Y-15988460D02*
X10743991Y-15978936D01*
X10743991Y-15978936D02*
X10734467Y-15959888D01*
X10734467Y-15959888D02*
X10724944Y-15921793D01*
X10724944Y-15921793D02*
X10724944Y-15874174D01*
X10724944Y-15874174D02*
X10734467Y-15836079D01*
X10734467Y-15836079D02*
X10743991Y-15817031D01*
X10743991Y-15817031D02*
X10753515Y-15807508D01*
X10753515Y-15807508D02*
X10772563Y-15797984D01*
X10963039Y-15797984D02*
X10982086Y-15797984D01*
X10982086Y-15797984D02*
X11001134Y-15807508D01*
X11001134Y-15807508D02*
X11010658Y-15817031D01*
X11010658Y-15817031D02*
X11020182Y-15836079D01*
X11020182Y-15836079D02*
X11029705Y-15874174D01*
X11029705Y-15874174D02*
X11029705Y-15921793D01*
X11029705Y-15921793D02*
X11020182Y-15959888D01*
X11020182Y-15959888D02*
X11010658Y-15978936D01*
X11010658Y-15978936D02*
X11001134Y-15988460D01*
X11001134Y-15988460D02*
X10982086Y-15997984D01*
X10982086Y-15997984D02*
X10963039Y-15997984D01*
X10963039Y-15997984D02*
X10943991Y-15988460D01*
X10943991Y-15988460D02*
X10934467Y-15978936D01*
X10934467Y-15978936D02*
X10924944Y-15959888D01*
X10924944Y-15959888D02*
X10915420Y-15921793D01*
X10915420Y-15921793D02*
X10915420Y-15874174D01*
X10915420Y-15874174D02*
X10924944Y-15836079D01*
X10924944Y-15836079D02*
X10934467Y-15817031D01*
X10934467Y-15817031D02*
X10943991Y-15807508D01*
X10943991Y-15807508D02*
X10963039Y-15797984D01*
X11115420Y-15997984D02*
X11115420Y-15864650D01*
X11115420Y-15883698D02*
X11124944Y-15874174D01*
X11124944Y-15874174D02*
X11143991Y-15864650D01*
X11143991Y-15864650D02*
X11172563Y-15864650D01*
X11172563Y-15864650D02*
X11191610Y-15874174D01*
X11191610Y-15874174D02*
X11201134Y-15893222D01*
X11201134Y-15893222D02*
X11201134Y-15997984D01*
X11201134Y-15893222D02*
X11210658Y-15874174D01*
X11210658Y-15874174D02*
X11229705Y-15864650D01*
X11229705Y-15864650D02*
X11258277Y-15864650D01*
X11258277Y-15864650D02*
X11277324Y-15874174D01*
X11277324Y-15874174D02*
X11286848Y-15893222D01*
X11286848Y-15893222D02*
X11286848Y-15997984D01*
X11382086Y-15997984D02*
X11382086Y-15864650D01*
X11382086Y-15883698D02*
X11391610Y-15874174D01*
X11391610Y-15874174D02*
X11410658Y-15864650D01*
X11410658Y-15864650D02*
X11439229Y-15864650D01*
X11439229Y-15864650D02*
X11458277Y-15874174D01*
X11458277Y-15874174D02*
X11467801Y-15893222D01*
X11467801Y-15893222D02*
X11467801Y-15997984D01*
X11467801Y-15893222D02*
X11477324Y-15874174D01*
X11477324Y-15874174D02*
X11496372Y-15864650D01*
X11496372Y-15864650D02*
X11524943Y-15864650D01*
X11524943Y-15864650D02*
X11543991Y-15874174D01*
X11543991Y-15874174D02*
X11553515Y-15893222D01*
X11553515Y-15893222D02*
X11553515Y-15997984D01*
X11943991Y-15788460D02*
X11772563Y-16045603D01*
X12201134Y-15797984D02*
X12220182Y-15797984D01*
X12220182Y-15797984D02*
X12239229Y-15807508D01*
X12239229Y-15807508D02*
X12248753Y-15817031D01*
X12248753Y-15817031D02*
X12258277Y-15836079D01*
X12258277Y-15836079D02*
X12267801Y-15874174D01*
X12267801Y-15874174D02*
X12267801Y-15921793D01*
X12267801Y-15921793D02*
X12258277Y-15959888D01*
X12258277Y-15959888D02*
X12248753Y-15978936D01*
X12248753Y-15978936D02*
X12239229Y-15988460D01*
X12239229Y-15988460D02*
X12220182Y-15997984D01*
X12220182Y-15997984D02*
X12201134Y-15997984D01*
X12201134Y-15997984D02*
X12182086Y-15988460D01*
X12182086Y-15988460D02*
X12172563Y-15978936D01*
X12172563Y-15978936D02*
X12163039Y-15959888D01*
X12163039Y-15959888D02*
X12153515Y-15921793D01*
X12153515Y-15921793D02*
X12153515Y-15874174D01*
X12153515Y-15874174D02*
X12163039Y-15836079D01*
X12163039Y-15836079D02*
X12172563Y-15817031D01*
X12172563Y-15817031D02*
X12182086Y-15807508D01*
X12182086Y-15807508D02*
X12201134Y-15797984D01*
X12353515Y-15978936D02*
X12363039Y-15988460D01*
X12363039Y-15988460D02*
X12353515Y-15997984D01*
X12353515Y-15997984D02*
X12343991Y-15988460D01*
X12343991Y-15988460D02*
X12353515Y-15978936D01*
X12353515Y-15978936D02*
X12353515Y-15997984D01*
X12486848Y-15797984D02*
X12505896Y-15797984D01*
X12505896Y-15797984D02*
X12524944Y-15807508D01*
X12524944Y-15807508D02*
X12534467Y-15817031D01*
X12534467Y-15817031D02*
X12543991Y-15836079D01*
X12543991Y-15836079D02*
X12553515Y-15874174D01*
X12553515Y-15874174D02*
X12553515Y-15921793D01*
X12553515Y-15921793D02*
X12543991Y-15959888D01*
X12543991Y-15959888D02*
X12534467Y-15978936D01*
X12534467Y-15978936D02*
X12524944Y-15988460D01*
X12524944Y-15988460D02*
X12505896Y-15997984D01*
X12505896Y-15997984D02*
X12486848Y-15997984D01*
X12486848Y-15997984D02*
X12467801Y-15988460D01*
X12467801Y-15988460D02*
X12458277Y-15978936D01*
X12458277Y-15978936D02*
X12448753Y-15959888D01*
X12448753Y-15959888D02*
X12439229Y-15921793D01*
X12439229Y-15921793D02*
X12439229Y-15874174D01*
X12439229Y-15874174D02*
X12448753Y-15836079D01*
X12448753Y-15836079D02*
X12458277Y-15817031D01*
X12458277Y-15817031D02*
X12467801Y-15807508D01*
X12467801Y-15807508D02*
X12486848Y-15797984D01*
X12743991Y-15997984D02*
X12629706Y-15997984D01*
X12686848Y-15997984D02*
X12686848Y-15797984D01*
X12686848Y-15797984D02*
X12667801Y-15826555D01*
X12667801Y-15826555D02*
X12648753Y-15845603D01*
X12648753Y-15845603D02*
X12629706Y-15855127D01*
X12934467Y-15997984D02*
X12820182Y-15997984D01*
X12877325Y-15997984D02*
X12877325Y-15797984D01*
X12877325Y-15797984D02*
X12858277Y-15826555D01*
X12858277Y-15826555D02*
X12839229Y-15845603D01*
X12839229Y-15845603D02*
X12820182Y-15855127D01*
X13048753Y-15883698D02*
X13029706Y-15874174D01*
X13029706Y-15874174D02*
X13020182Y-15864650D01*
X13020182Y-15864650D02*
X13010658Y-15845603D01*
X13010658Y-15845603D02*
X13010658Y-15836079D01*
X13010658Y-15836079D02*
X13020182Y-15817031D01*
X13020182Y-15817031D02*
X13029706Y-15807508D01*
X13029706Y-15807508D02*
X13048753Y-15797984D01*
X13048753Y-15797984D02*
X13086848Y-15797984D01*
X13086848Y-15797984D02*
X13105896Y-15807508D01*
X13105896Y-15807508D02*
X13115420Y-15817031D01*
X13115420Y-15817031D02*
X13124944Y-15836079D01*
X13124944Y-15836079D02*
X13124944Y-15845603D01*
X13124944Y-15845603D02*
X13115420Y-15864650D01*
X13115420Y-15864650D02*
X13105896Y-15874174D01*
X13105896Y-15874174D02*
X13086848Y-15883698D01*
X13086848Y-15883698D02*
X13048753Y-15883698D01*
X13048753Y-15883698D02*
X13029706Y-15893222D01*
X13029706Y-15893222D02*
X13020182Y-15902746D01*
X13020182Y-15902746D02*
X13010658Y-15921793D01*
X13010658Y-15921793D02*
X13010658Y-15959888D01*
X13010658Y-15959888D02*
X13020182Y-15978936D01*
X13020182Y-15978936D02*
X13029706Y-15988460D01*
X13029706Y-15988460D02*
X13048753Y-15997984D01*
X13048753Y-15997984D02*
X13086848Y-15997984D01*
X13086848Y-15997984D02*
X13105896Y-15988460D01*
X13105896Y-15988460D02*
X13115420Y-15978936D01*
X13115420Y-15978936D02*
X13124944Y-15959888D01*
X13124944Y-15959888D02*
X13124944Y-15921793D01*
X13124944Y-15921793D02*
X13115420Y-15902746D01*
X13115420Y-15902746D02*
X13105896Y-15893222D01*
X13105896Y-15893222D02*
X13086848Y-15883698D01*
X13201134Y-15797984D02*
X13201134Y-15836079D01*
X13277325Y-15797984D02*
X13277325Y-15836079D01*
X13572563Y-16074174D02*
X13563039Y-16064650D01*
X13563039Y-16064650D02*
X13543991Y-16036079D01*
X13543991Y-16036079D02*
X13534468Y-16017031D01*
X13534468Y-16017031D02*
X13524944Y-15988460D01*
X13524944Y-15988460D02*
X13515420Y-15940841D01*
X13515420Y-15940841D02*
X13515420Y-15902746D01*
X13515420Y-15902746D02*
X13524944Y-15855127D01*
X13524944Y-15855127D02*
X13534468Y-15826555D01*
X13534468Y-15826555D02*
X13543991Y-15807508D01*
X13543991Y-15807508D02*
X13563039Y-15778936D01*
X13563039Y-15778936D02*
X13572563Y-15769412D01*
X13743991Y-15797984D02*
X13648753Y-15797984D01*
X13648753Y-15797984D02*
X13639229Y-15893222D01*
X13639229Y-15893222D02*
X13648753Y-15883698D01*
X13648753Y-15883698D02*
X13667801Y-15874174D01*
X13667801Y-15874174D02*
X13715420Y-15874174D01*
X13715420Y-15874174D02*
X13734468Y-15883698D01*
X13734468Y-15883698D02*
X13743991Y-15893222D01*
X13743991Y-15893222D02*
X13753515Y-15912269D01*
X13753515Y-15912269D02*
X13753515Y-15959888D01*
X13753515Y-15959888D02*
X13743991Y-15978936D01*
X13743991Y-15978936D02*
X13734468Y-15988460D01*
X13734468Y-15988460D02*
X13715420Y-15997984D01*
X13715420Y-15997984D02*
X13667801Y-15997984D01*
X13667801Y-15997984D02*
X13648753Y-15988460D01*
X13648753Y-15988460D02*
X13639229Y-15978936D01*
X13877325Y-15797984D02*
X13896372Y-15797984D01*
X13896372Y-15797984D02*
X13915420Y-15807508D01*
X13915420Y-15807508D02*
X13924944Y-15817031D01*
X13924944Y-15817031D02*
X13934468Y-15836079D01*
X13934468Y-15836079D02*
X13943991Y-15874174D01*
X13943991Y-15874174D02*
X13943991Y-15921793D01*
X13943991Y-15921793D02*
X13934468Y-15959888D01*
X13934468Y-15959888D02*
X13924944Y-15978936D01*
X13924944Y-15978936D02*
X13915420Y-15988460D01*
X13915420Y-15988460D02*
X13896372Y-15997984D01*
X13896372Y-15997984D02*
X13877325Y-15997984D01*
X13877325Y-15997984D02*
X13858277Y-15988460D01*
X13858277Y-15988460D02*
X13848753Y-15978936D01*
X13848753Y-15978936D02*
X13839229Y-15959888D01*
X13839229Y-15959888D02*
X13829706Y-15921793D01*
X13829706Y-15921793D02*
X13829706Y-15874174D01*
X13829706Y-15874174D02*
X13839229Y-15836079D01*
X13839229Y-15836079D02*
X13848753Y-15817031D01*
X13848753Y-15817031D02*
X13858277Y-15807508D01*
X13858277Y-15807508D02*
X13877325Y-15797984D01*
X14182087Y-15997984D02*
X14182087Y-15797984D01*
X14267801Y-15997984D02*
X14267801Y-15893222D01*
X14267801Y-15893222D02*
X14258277Y-15874174D01*
X14258277Y-15874174D02*
X14239230Y-15864650D01*
X14239230Y-15864650D02*
X14210658Y-15864650D01*
X14210658Y-15864650D02*
X14191610Y-15874174D01*
X14191610Y-15874174D02*
X14182087Y-15883698D01*
X14391610Y-15997984D02*
X14372563Y-15988460D01*
X14372563Y-15988460D02*
X14363039Y-15978936D01*
X14363039Y-15978936D02*
X14353515Y-15959888D01*
X14353515Y-15959888D02*
X14353515Y-15902746D01*
X14353515Y-15902746D02*
X14363039Y-15883698D01*
X14363039Y-15883698D02*
X14372563Y-15874174D01*
X14372563Y-15874174D02*
X14391610Y-15864650D01*
X14391610Y-15864650D02*
X14420182Y-15864650D01*
X14420182Y-15864650D02*
X14439230Y-15874174D01*
X14439230Y-15874174D02*
X14448753Y-15883698D01*
X14448753Y-15883698D02*
X14458277Y-15902746D01*
X14458277Y-15902746D02*
X14458277Y-15959888D01*
X14458277Y-15959888D02*
X14448753Y-15978936D01*
X14448753Y-15978936D02*
X14439230Y-15988460D01*
X14439230Y-15988460D02*
X14420182Y-15997984D01*
X14420182Y-15997984D02*
X14391610Y-15997984D01*
X14572563Y-15997984D02*
X14553515Y-15988460D01*
X14553515Y-15988460D02*
X14543991Y-15969412D01*
X14543991Y-15969412D02*
X14543991Y-15797984D01*
X14724944Y-15988460D02*
X14705896Y-15997984D01*
X14705896Y-15997984D02*
X14667801Y-15997984D01*
X14667801Y-15997984D02*
X14648753Y-15988460D01*
X14648753Y-15988460D02*
X14639230Y-15969412D01*
X14639230Y-15969412D02*
X14639230Y-15893222D01*
X14639230Y-15893222D02*
X14648753Y-15874174D01*
X14648753Y-15874174D02*
X14667801Y-15864650D01*
X14667801Y-15864650D02*
X14705896Y-15864650D01*
X14705896Y-15864650D02*
X14724944Y-15874174D01*
X14724944Y-15874174D02*
X14734468Y-15893222D01*
X14734468Y-15893222D02*
X14734468Y-15912269D01*
X14734468Y-15912269D02*
X14639230Y-15931317D01*
X14810658Y-15988460D02*
X14829706Y-15997984D01*
X14829706Y-15997984D02*
X14867801Y-15997984D01*
X14867801Y-15997984D02*
X14886849Y-15988460D01*
X14886849Y-15988460D02*
X14896372Y-15969412D01*
X14896372Y-15969412D02*
X14896372Y-15959888D01*
X14896372Y-15959888D02*
X14886849Y-15940841D01*
X14886849Y-15940841D02*
X14867801Y-15931317D01*
X14867801Y-15931317D02*
X14839230Y-15931317D01*
X14839230Y-15931317D02*
X14820182Y-15921793D01*
X14820182Y-15921793D02*
X14810658Y-15902746D01*
X14810658Y-15902746D02*
X14810658Y-15893222D01*
X14810658Y-15893222D02*
X14820182Y-15874174D01*
X14820182Y-15874174D02*
X14839230Y-15864650D01*
X14839230Y-15864650D02*
X14867801Y-15864650D01*
X14867801Y-15864650D02*
X14886849Y-15874174D01*
X14963039Y-16074174D02*
X14972563Y-16064650D01*
X14972563Y-16064650D02*
X14991611Y-16036079D01*
X14991611Y-16036079D02*
X15001134Y-16017031D01*
X15001134Y-16017031D02*
X15010658Y-15988460D01*
X15010658Y-15988460D02*
X15020182Y-15940841D01*
X15020182Y-15940841D02*
X15020182Y-15902746D01*
X15020182Y-15902746D02*
X15010658Y-15855127D01*
X15010658Y-15855127D02*
X15001134Y-15826555D01*
X15001134Y-15826555D02*
X14991611Y-15807508D01*
X14991611Y-15807508D02*
X14972563Y-15778936D01*
X14972563Y-15778936D02*
X14963039Y-15769412D01*
D12*
X9967500Y-16140500D02*
X9967500Y-16200500D01*
X9937500Y-16170500D02*
X9997500Y-16170500D01*
D11*
X10296372Y-16061984D02*
X10315420Y-16061984D01*
X10315420Y-16061984D02*
X10334467Y-16071508D01*
X10334467Y-16071508D02*
X10343991Y-16081031D01*
X10343991Y-16081031D02*
X10353515Y-16100079D01*
X10353515Y-16100079D02*
X10363039Y-16138174D01*
X10363039Y-16138174D02*
X10363039Y-16185793D01*
X10363039Y-16185793D02*
X10353515Y-16223888D01*
X10353515Y-16223888D02*
X10343991Y-16242936D01*
X10343991Y-16242936D02*
X10334467Y-16252460D01*
X10334467Y-16252460D02*
X10315420Y-16261984D01*
X10315420Y-16261984D02*
X10296372Y-16261984D01*
X10296372Y-16261984D02*
X10277324Y-16252460D01*
X10277324Y-16252460D02*
X10267801Y-16242936D01*
X10267801Y-16242936D02*
X10258277Y-16223888D01*
X10258277Y-16223888D02*
X10248753Y-16185793D01*
X10248753Y-16185793D02*
X10248753Y-16138174D01*
X10248753Y-16138174D02*
X10258277Y-16100079D01*
X10258277Y-16100079D02*
X10267801Y-16081031D01*
X10267801Y-16081031D02*
X10277324Y-16071508D01*
X10277324Y-16071508D02*
X10296372Y-16061984D01*
X10448753Y-16242936D02*
X10458277Y-16252460D01*
X10458277Y-16252460D02*
X10448753Y-16261984D01*
X10448753Y-16261984D02*
X10439229Y-16252460D01*
X10439229Y-16252460D02*
X10448753Y-16242936D01*
X10448753Y-16242936D02*
X10448753Y-16261984D01*
X10629705Y-16061984D02*
X10591610Y-16061984D01*
X10591610Y-16061984D02*
X10572563Y-16071508D01*
X10572563Y-16071508D02*
X10563039Y-16081031D01*
X10563039Y-16081031D02*
X10543991Y-16109603D01*
X10543991Y-16109603D02*
X10534467Y-16147698D01*
X10534467Y-16147698D02*
X10534467Y-16223888D01*
X10534467Y-16223888D02*
X10543991Y-16242936D01*
X10543991Y-16242936D02*
X10553515Y-16252460D01*
X10553515Y-16252460D02*
X10572563Y-16261984D01*
X10572563Y-16261984D02*
X10610658Y-16261984D01*
X10610658Y-16261984D02*
X10629705Y-16252460D01*
X10629705Y-16252460D02*
X10639229Y-16242936D01*
X10639229Y-16242936D02*
X10648753Y-16223888D01*
X10648753Y-16223888D02*
X10648753Y-16176269D01*
X10648753Y-16176269D02*
X10639229Y-16157222D01*
X10639229Y-16157222D02*
X10629705Y-16147698D01*
X10629705Y-16147698D02*
X10610658Y-16138174D01*
X10610658Y-16138174D02*
X10572563Y-16138174D01*
X10572563Y-16138174D02*
X10553515Y-16147698D01*
X10553515Y-16147698D02*
X10543991Y-16157222D01*
X10543991Y-16157222D02*
X10534467Y-16176269D01*
X10772563Y-16061984D02*
X10791610Y-16061984D01*
X10791610Y-16061984D02*
X10810658Y-16071508D01*
X10810658Y-16071508D02*
X10820182Y-16081031D01*
X10820182Y-16081031D02*
X10829705Y-16100079D01*
X10829705Y-16100079D02*
X10839229Y-16138174D01*
X10839229Y-16138174D02*
X10839229Y-16185793D01*
X10839229Y-16185793D02*
X10829705Y-16223888D01*
X10829705Y-16223888D02*
X10820182Y-16242936D01*
X10820182Y-16242936D02*
X10810658Y-16252460D01*
X10810658Y-16252460D02*
X10791610Y-16261984D01*
X10791610Y-16261984D02*
X10772563Y-16261984D01*
X10772563Y-16261984D02*
X10753515Y-16252460D01*
X10753515Y-16252460D02*
X10743991Y-16242936D01*
X10743991Y-16242936D02*
X10734467Y-16223888D01*
X10734467Y-16223888D02*
X10724944Y-16185793D01*
X10724944Y-16185793D02*
X10724944Y-16138174D01*
X10724944Y-16138174D02*
X10734467Y-16100079D01*
X10734467Y-16100079D02*
X10743991Y-16081031D01*
X10743991Y-16081031D02*
X10753515Y-16071508D01*
X10753515Y-16071508D02*
X10772563Y-16061984D01*
X10963039Y-16061984D02*
X10982086Y-16061984D01*
X10982086Y-16061984D02*
X11001134Y-16071508D01*
X11001134Y-16071508D02*
X11010658Y-16081031D01*
X11010658Y-16081031D02*
X11020182Y-16100079D01*
X11020182Y-16100079D02*
X11029705Y-16138174D01*
X11029705Y-16138174D02*
X11029705Y-16185793D01*
X11029705Y-16185793D02*
X11020182Y-16223888D01*
X11020182Y-16223888D02*
X11010658Y-16242936D01*
X11010658Y-16242936D02*
X11001134Y-16252460D01*
X11001134Y-16252460D02*
X10982086Y-16261984D01*
X10982086Y-16261984D02*
X10963039Y-16261984D01*
X10963039Y-16261984D02*
X10943991Y-16252460D01*
X10943991Y-16252460D02*
X10934467Y-16242936D01*
X10934467Y-16242936D02*
X10924944Y-16223888D01*
X10924944Y-16223888D02*
X10915420Y-16185793D01*
X10915420Y-16185793D02*
X10915420Y-16138174D01*
X10915420Y-16138174D02*
X10924944Y-16100079D01*
X10924944Y-16100079D02*
X10934467Y-16081031D01*
X10934467Y-16081031D02*
X10943991Y-16071508D01*
X10943991Y-16071508D02*
X10963039Y-16061984D01*
X11115420Y-16261984D02*
X11115420Y-16128650D01*
X11115420Y-16147698D02*
X11124944Y-16138174D01*
X11124944Y-16138174D02*
X11143991Y-16128650D01*
X11143991Y-16128650D02*
X11172563Y-16128650D01*
X11172563Y-16128650D02*
X11191610Y-16138174D01*
X11191610Y-16138174D02*
X11201134Y-16157222D01*
X11201134Y-16157222D02*
X11201134Y-16261984D01*
X11201134Y-16157222D02*
X11210658Y-16138174D01*
X11210658Y-16138174D02*
X11229705Y-16128650D01*
X11229705Y-16128650D02*
X11258277Y-16128650D01*
X11258277Y-16128650D02*
X11277324Y-16138174D01*
X11277324Y-16138174D02*
X11286848Y-16157222D01*
X11286848Y-16157222D02*
X11286848Y-16261984D01*
X11382086Y-16261984D02*
X11382086Y-16128650D01*
X11382086Y-16147698D02*
X11391610Y-16138174D01*
X11391610Y-16138174D02*
X11410658Y-16128650D01*
X11410658Y-16128650D02*
X11439229Y-16128650D01*
X11439229Y-16128650D02*
X11458277Y-16138174D01*
X11458277Y-16138174D02*
X11467801Y-16157222D01*
X11467801Y-16157222D02*
X11467801Y-16261984D01*
X11467801Y-16157222D02*
X11477324Y-16138174D01*
X11477324Y-16138174D02*
X11496372Y-16128650D01*
X11496372Y-16128650D02*
X11524943Y-16128650D01*
X11524943Y-16128650D02*
X11543991Y-16138174D01*
X11543991Y-16138174D02*
X11553515Y-16157222D01*
X11553515Y-16157222D02*
X11553515Y-16261984D01*
X11943991Y-16052460D02*
X11772563Y-16309603D01*
X12201134Y-16061984D02*
X12220182Y-16061984D01*
X12220182Y-16061984D02*
X12239229Y-16071508D01*
X12239229Y-16071508D02*
X12248753Y-16081031D01*
X12248753Y-16081031D02*
X12258277Y-16100079D01*
X12258277Y-16100079D02*
X12267801Y-16138174D01*
X12267801Y-16138174D02*
X12267801Y-16185793D01*
X12267801Y-16185793D02*
X12258277Y-16223888D01*
X12258277Y-16223888D02*
X12248753Y-16242936D01*
X12248753Y-16242936D02*
X12239229Y-16252460D01*
X12239229Y-16252460D02*
X12220182Y-16261984D01*
X12220182Y-16261984D02*
X12201134Y-16261984D01*
X12201134Y-16261984D02*
X12182086Y-16252460D01*
X12182086Y-16252460D02*
X12172563Y-16242936D01*
X12172563Y-16242936D02*
X12163039Y-16223888D01*
X12163039Y-16223888D02*
X12153515Y-16185793D01*
X12153515Y-16185793D02*
X12153515Y-16138174D01*
X12153515Y-16138174D02*
X12163039Y-16100079D01*
X12163039Y-16100079D02*
X12172563Y-16081031D01*
X12172563Y-16081031D02*
X12182086Y-16071508D01*
X12182086Y-16071508D02*
X12201134Y-16061984D01*
X12353515Y-16242936D02*
X12363039Y-16252460D01*
X12363039Y-16252460D02*
X12353515Y-16261984D01*
X12353515Y-16261984D02*
X12343991Y-16252460D01*
X12343991Y-16252460D02*
X12353515Y-16242936D01*
X12353515Y-16242936D02*
X12353515Y-16261984D01*
X12486848Y-16061984D02*
X12505896Y-16061984D01*
X12505896Y-16061984D02*
X12524944Y-16071508D01*
X12524944Y-16071508D02*
X12534467Y-16081031D01*
X12534467Y-16081031D02*
X12543991Y-16100079D01*
X12543991Y-16100079D02*
X12553515Y-16138174D01*
X12553515Y-16138174D02*
X12553515Y-16185793D01*
X12553515Y-16185793D02*
X12543991Y-16223888D01*
X12543991Y-16223888D02*
X12534467Y-16242936D01*
X12534467Y-16242936D02*
X12524944Y-16252460D01*
X12524944Y-16252460D02*
X12505896Y-16261984D01*
X12505896Y-16261984D02*
X12486848Y-16261984D01*
X12486848Y-16261984D02*
X12467801Y-16252460D01*
X12467801Y-16252460D02*
X12458277Y-16242936D01*
X12458277Y-16242936D02*
X12448753Y-16223888D01*
X12448753Y-16223888D02*
X12439229Y-16185793D01*
X12439229Y-16185793D02*
X12439229Y-16138174D01*
X12439229Y-16138174D02*
X12448753Y-16100079D01*
X12448753Y-16100079D02*
X12458277Y-16081031D01*
X12458277Y-16081031D02*
X12467801Y-16071508D01*
X12467801Y-16071508D02*
X12486848Y-16061984D01*
X12629706Y-16081031D02*
X12639229Y-16071508D01*
X12639229Y-16071508D02*
X12658277Y-16061984D01*
X12658277Y-16061984D02*
X12705896Y-16061984D01*
X12705896Y-16061984D02*
X12724944Y-16071508D01*
X12724944Y-16071508D02*
X12734467Y-16081031D01*
X12734467Y-16081031D02*
X12743991Y-16100079D01*
X12743991Y-16100079D02*
X12743991Y-16119127D01*
X12743991Y-16119127D02*
X12734467Y-16147698D01*
X12734467Y-16147698D02*
X12620182Y-16261984D01*
X12620182Y-16261984D02*
X12743991Y-16261984D01*
X12810658Y-16061984D02*
X12934467Y-16061984D01*
X12934467Y-16061984D02*
X12867801Y-16138174D01*
X12867801Y-16138174D02*
X12896372Y-16138174D01*
X12896372Y-16138174D02*
X12915420Y-16147698D01*
X12915420Y-16147698D02*
X12924944Y-16157222D01*
X12924944Y-16157222D02*
X12934467Y-16176269D01*
X12934467Y-16176269D02*
X12934467Y-16223888D01*
X12934467Y-16223888D02*
X12924944Y-16242936D01*
X12924944Y-16242936D02*
X12915420Y-16252460D01*
X12915420Y-16252460D02*
X12896372Y-16261984D01*
X12896372Y-16261984D02*
X12839229Y-16261984D01*
X12839229Y-16261984D02*
X12820182Y-16252460D01*
X12820182Y-16252460D02*
X12810658Y-16242936D01*
X13105896Y-16061984D02*
X13067801Y-16061984D01*
X13067801Y-16061984D02*
X13048753Y-16071508D01*
X13048753Y-16071508D02*
X13039229Y-16081031D01*
X13039229Y-16081031D02*
X13020182Y-16109603D01*
X13020182Y-16109603D02*
X13010658Y-16147698D01*
X13010658Y-16147698D02*
X13010658Y-16223888D01*
X13010658Y-16223888D02*
X13020182Y-16242936D01*
X13020182Y-16242936D02*
X13029706Y-16252460D01*
X13029706Y-16252460D02*
X13048753Y-16261984D01*
X13048753Y-16261984D02*
X13086848Y-16261984D01*
X13086848Y-16261984D02*
X13105896Y-16252460D01*
X13105896Y-16252460D02*
X13115420Y-16242936D01*
X13115420Y-16242936D02*
X13124944Y-16223888D01*
X13124944Y-16223888D02*
X13124944Y-16176269D01*
X13124944Y-16176269D02*
X13115420Y-16157222D01*
X13115420Y-16157222D02*
X13105896Y-16147698D01*
X13105896Y-16147698D02*
X13086848Y-16138174D01*
X13086848Y-16138174D02*
X13048753Y-16138174D01*
X13048753Y-16138174D02*
X13029706Y-16147698D01*
X13029706Y-16147698D02*
X13020182Y-16157222D01*
X13020182Y-16157222D02*
X13010658Y-16176269D01*
X13201134Y-16061984D02*
X13201134Y-16100079D01*
X13277325Y-16061984D02*
X13277325Y-16100079D01*
X13572563Y-16338174D02*
X13563039Y-16328650D01*
X13563039Y-16328650D02*
X13543991Y-16300079D01*
X13543991Y-16300079D02*
X13534468Y-16281031D01*
X13534468Y-16281031D02*
X13524944Y-16252460D01*
X13524944Y-16252460D02*
X13515420Y-16204841D01*
X13515420Y-16204841D02*
X13515420Y-16166746D01*
X13515420Y-16166746D02*
X13524944Y-16119127D01*
X13524944Y-16119127D02*
X13534468Y-16090555D01*
X13534468Y-16090555D02*
X13543991Y-16071508D01*
X13543991Y-16071508D02*
X13563039Y-16042936D01*
X13563039Y-16042936D02*
X13572563Y-16033412D01*
X13686848Y-16061984D02*
X13705896Y-16061984D01*
X13705896Y-16061984D02*
X13724944Y-16071508D01*
X13724944Y-16071508D02*
X13734468Y-16081031D01*
X13734468Y-16081031D02*
X13743991Y-16100079D01*
X13743991Y-16100079D02*
X13753515Y-16138174D01*
X13753515Y-16138174D02*
X13753515Y-16185793D01*
X13753515Y-16185793D02*
X13743991Y-16223888D01*
X13743991Y-16223888D02*
X13734468Y-16242936D01*
X13734468Y-16242936D02*
X13724944Y-16252460D01*
X13724944Y-16252460D02*
X13705896Y-16261984D01*
X13705896Y-16261984D02*
X13686848Y-16261984D01*
X13686848Y-16261984D02*
X13667801Y-16252460D01*
X13667801Y-16252460D02*
X13658277Y-16242936D01*
X13658277Y-16242936D02*
X13648753Y-16223888D01*
X13648753Y-16223888D02*
X13639229Y-16185793D01*
X13639229Y-16185793D02*
X13639229Y-16138174D01*
X13639229Y-16138174D02*
X13648753Y-16100079D01*
X13648753Y-16100079D02*
X13658277Y-16081031D01*
X13658277Y-16081031D02*
X13667801Y-16071508D01*
X13667801Y-16071508D02*
X13686848Y-16061984D01*
X13991610Y-16261984D02*
X13991610Y-16061984D01*
X14077325Y-16261984D02*
X14077325Y-16157222D01*
X14077325Y-16157222D02*
X14067801Y-16138174D01*
X14067801Y-16138174D02*
X14048753Y-16128650D01*
X14048753Y-16128650D02*
X14020182Y-16128650D01*
X14020182Y-16128650D02*
X14001134Y-16138174D01*
X14001134Y-16138174D02*
X13991610Y-16147698D01*
X14201134Y-16261984D02*
X14182087Y-16252460D01*
X14182087Y-16252460D02*
X14172563Y-16242936D01*
X14172563Y-16242936D02*
X14163039Y-16223888D01*
X14163039Y-16223888D02*
X14163039Y-16166746D01*
X14163039Y-16166746D02*
X14172563Y-16147698D01*
X14172563Y-16147698D02*
X14182087Y-16138174D01*
X14182087Y-16138174D02*
X14201134Y-16128650D01*
X14201134Y-16128650D02*
X14229706Y-16128650D01*
X14229706Y-16128650D02*
X14248753Y-16138174D01*
X14248753Y-16138174D02*
X14258277Y-16147698D01*
X14258277Y-16147698D02*
X14267801Y-16166746D01*
X14267801Y-16166746D02*
X14267801Y-16223888D01*
X14267801Y-16223888D02*
X14258277Y-16242936D01*
X14258277Y-16242936D02*
X14248753Y-16252460D01*
X14248753Y-16252460D02*
X14229706Y-16261984D01*
X14229706Y-16261984D02*
X14201134Y-16261984D01*
X14382087Y-16261984D02*
X14363039Y-16252460D01*
X14363039Y-16252460D02*
X14353515Y-16233412D01*
X14353515Y-16233412D02*
X14353515Y-16061984D01*
X14534468Y-16252460D02*
X14515420Y-16261984D01*
X14515420Y-16261984D02*
X14477325Y-16261984D01*
X14477325Y-16261984D02*
X14458277Y-16252460D01*
X14458277Y-16252460D02*
X14448753Y-16233412D01*
X14448753Y-16233412D02*
X14448753Y-16157222D01*
X14448753Y-16157222D02*
X14458277Y-16138174D01*
X14458277Y-16138174D02*
X14477325Y-16128650D01*
X14477325Y-16128650D02*
X14515420Y-16128650D01*
X14515420Y-16128650D02*
X14534468Y-16138174D01*
X14534468Y-16138174D02*
X14543991Y-16157222D01*
X14543991Y-16157222D02*
X14543991Y-16176269D01*
X14543991Y-16176269D02*
X14448753Y-16195317D01*
X14620182Y-16252460D02*
X14639230Y-16261984D01*
X14639230Y-16261984D02*
X14677325Y-16261984D01*
X14677325Y-16261984D02*
X14696372Y-16252460D01*
X14696372Y-16252460D02*
X14705896Y-16233412D01*
X14705896Y-16233412D02*
X14705896Y-16223888D01*
X14705896Y-16223888D02*
X14696372Y-16204841D01*
X14696372Y-16204841D02*
X14677325Y-16195317D01*
X14677325Y-16195317D02*
X14648753Y-16195317D01*
X14648753Y-16195317D02*
X14629706Y-16185793D01*
X14629706Y-16185793D02*
X14620182Y-16166746D01*
X14620182Y-16166746D02*
X14620182Y-16157222D01*
X14620182Y-16157222D02*
X14629706Y-16138174D01*
X14629706Y-16138174D02*
X14648753Y-16128650D01*
X14648753Y-16128650D02*
X14677325Y-16128650D01*
X14677325Y-16128650D02*
X14696372Y-16138174D01*
X14943992Y-16185793D02*
X15096373Y-16185793D01*
X15020182Y-16261984D02*
X15020182Y-16109603D01*
X15429706Y-16128650D02*
X15429706Y-16261984D01*
X15382087Y-16052460D02*
X15334468Y-16195317D01*
X15334468Y-16195317D02*
X15458277Y-16195317D01*
X15677325Y-16252460D02*
X15696373Y-16261984D01*
X15696373Y-16261984D02*
X15734468Y-16261984D01*
X15734468Y-16261984D02*
X15753515Y-16252460D01*
X15753515Y-16252460D02*
X15763039Y-16233412D01*
X15763039Y-16233412D02*
X15763039Y-16223888D01*
X15763039Y-16223888D02*
X15753515Y-16204841D01*
X15753515Y-16204841D02*
X15734468Y-16195317D01*
X15734468Y-16195317D02*
X15705896Y-16195317D01*
X15705896Y-16195317D02*
X15686849Y-16185793D01*
X15686849Y-16185793D02*
X15677325Y-16166746D01*
X15677325Y-16166746D02*
X15677325Y-16157222D01*
X15677325Y-16157222D02*
X15686849Y-16138174D01*
X15686849Y-16138174D02*
X15705896Y-16128650D01*
X15705896Y-16128650D02*
X15734468Y-16128650D01*
X15734468Y-16128650D02*
X15753515Y-16138174D01*
X15877325Y-16261984D02*
X15858277Y-16252460D01*
X15858277Y-16252460D02*
X15848754Y-16233412D01*
X15848754Y-16233412D02*
X15848754Y-16061984D01*
X15982087Y-16261984D02*
X15963039Y-16252460D01*
X15963039Y-16252460D02*
X15953515Y-16242936D01*
X15953515Y-16242936D02*
X15943992Y-16223888D01*
X15943992Y-16223888D02*
X15943992Y-16166746D01*
X15943992Y-16166746D02*
X15953515Y-16147698D01*
X15953515Y-16147698D02*
X15963039Y-16138174D01*
X15963039Y-16138174D02*
X15982087Y-16128650D01*
X15982087Y-16128650D02*
X16010658Y-16128650D01*
X16010658Y-16128650D02*
X16029706Y-16138174D01*
X16029706Y-16138174D02*
X16039230Y-16147698D01*
X16039230Y-16147698D02*
X16048754Y-16166746D01*
X16048754Y-16166746D02*
X16048754Y-16223888D01*
X16048754Y-16223888D02*
X16039230Y-16242936D01*
X16039230Y-16242936D02*
X16029706Y-16252460D01*
X16029706Y-16252460D02*
X16010658Y-16261984D01*
X16010658Y-16261984D02*
X15982087Y-16261984D01*
X16105896Y-16128650D02*
X16182087Y-16128650D01*
X16134468Y-16061984D02*
X16134468Y-16233412D01*
X16134468Y-16233412D02*
X16143992Y-16252460D01*
X16143992Y-16252460D02*
X16163039Y-16261984D01*
X16163039Y-16261984D02*
X16182087Y-16261984D01*
X16239230Y-16252460D02*
X16258277Y-16261984D01*
X16258277Y-16261984D02*
X16296373Y-16261984D01*
X16296373Y-16261984D02*
X16315420Y-16252460D01*
X16315420Y-16252460D02*
X16324944Y-16233412D01*
X16324944Y-16233412D02*
X16324944Y-16223888D01*
X16324944Y-16223888D02*
X16315420Y-16204841D01*
X16315420Y-16204841D02*
X16296373Y-16195317D01*
X16296373Y-16195317D02*
X16267801Y-16195317D01*
X16267801Y-16195317D02*
X16248754Y-16185793D01*
X16248754Y-16185793D02*
X16239230Y-16166746D01*
X16239230Y-16166746D02*
X16239230Y-16157222D01*
X16239230Y-16157222D02*
X16248754Y-16138174D01*
X16248754Y-16138174D02*
X16267801Y-16128650D01*
X16267801Y-16128650D02*
X16296373Y-16128650D01*
X16296373Y-16128650D02*
X16315420Y-16138174D01*
X16391611Y-16338174D02*
X16401135Y-16328650D01*
X16401135Y-16328650D02*
X16420182Y-16300079D01*
X16420182Y-16300079D02*
X16429706Y-16281031D01*
X16429706Y-16281031D02*
X16439230Y-16252460D01*
X16439230Y-16252460D02*
X16448754Y-16204841D01*
X16448754Y-16204841D02*
X16448754Y-16166746D01*
X16448754Y-16166746D02*
X16439230Y-16119127D01*
X16439230Y-16119127D02*
X16429706Y-16090555D01*
X16429706Y-16090555D02*
X16420182Y-16071508D01*
X16420182Y-16071508D02*
X16401135Y-16042936D01*
X16401135Y-16042936D02*
X16391611Y-16033412D01*
D12*
X9985785Y-16462784D02*
X9985785Y-16406215D01*
X9929216Y-16406215D01*
X9929216Y-16462784D01*
X9985785Y-16462784D01*
D11*
X10296372Y-16325984D02*
X10315420Y-16325984D01*
X10315420Y-16325984D02*
X10334467Y-16335508D01*
X10334467Y-16335508D02*
X10343991Y-16345031D01*
X10343991Y-16345031D02*
X10353515Y-16364079D01*
X10353515Y-16364079D02*
X10363039Y-16402174D01*
X10363039Y-16402174D02*
X10363039Y-16449793D01*
X10363039Y-16449793D02*
X10353515Y-16487888D01*
X10353515Y-16487888D02*
X10343991Y-16506936D01*
X10343991Y-16506936D02*
X10334467Y-16516460D01*
X10334467Y-16516460D02*
X10315420Y-16525984D01*
X10315420Y-16525984D02*
X10296372Y-16525984D01*
X10296372Y-16525984D02*
X10277324Y-16516460D01*
X10277324Y-16516460D02*
X10267801Y-16506936D01*
X10267801Y-16506936D02*
X10258277Y-16487888D01*
X10258277Y-16487888D02*
X10248753Y-16449793D01*
X10248753Y-16449793D02*
X10248753Y-16402174D01*
X10248753Y-16402174D02*
X10258277Y-16364079D01*
X10258277Y-16364079D02*
X10267801Y-16345031D01*
X10267801Y-16345031D02*
X10277324Y-16335508D01*
X10277324Y-16335508D02*
X10296372Y-16325984D01*
X10448753Y-16506936D02*
X10458277Y-16516460D01*
X10458277Y-16516460D02*
X10448753Y-16525984D01*
X10448753Y-16525984D02*
X10439229Y-16516460D01*
X10439229Y-16516460D02*
X10448753Y-16506936D01*
X10448753Y-16506936D02*
X10448753Y-16525984D01*
X10572563Y-16411698D02*
X10553515Y-16402174D01*
X10553515Y-16402174D02*
X10543991Y-16392650D01*
X10543991Y-16392650D02*
X10534467Y-16373603D01*
X10534467Y-16373603D02*
X10534467Y-16364079D01*
X10534467Y-16364079D02*
X10543991Y-16345031D01*
X10543991Y-16345031D02*
X10553515Y-16335508D01*
X10553515Y-16335508D02*
X10572563Y-16325984D01*
X10572563Y-16325984D02*
X10610658Y-16325984D01*
X10610658Y-16325984D02*
X10629705Y-16335508D01*
X10629705Y-16335508D02*
X10639229Y-16345031D01*
X10639229Y-16345031D02*
X10648753Y-16364079D01*
X10648753Y-16364079D02*
X10648753Y-16373603D01*
X10648753Y-16373603D02*
X10639229Y-16392650D01*
X10639229Y-16392650D02*
X10629705Y-16402174D01*
X10629705Y-16402174D02*
X10610658Y-16411698D01*
X10610658Y-16411698D02*
X10572563Y-16411698D01*
X10572563Y-16411698D02*
X10553515Y-16421222D01*
X10553515Y-16421222D02*
X10543991Y-16430746D01*
X10543991Y-16430746D02*
X10534467Y-16449793D01*
X10534467Y-16449793D02*
X10534467Y-16487888D01*
X10534467Y-16487888D02*
X10543991Y-16506936D01*
X10543991Y-16506936D02*
X10553515Y-16516460D01*
X10553515Y-16516460D02*
X10572563Y-16525984D01*
X10572563Y-16525984D02*
X10610658Y-16525984D01*
X10610658Y-16525984D02*
X10629705Y-16516460D01*
X10629705Y-16516460D02*
X10639229Y-16506936D01*
X10639229Y-16506936D02*
X10648753Y-16487888D01*
X10648753Y-16487888D02*
X10648753Y-16449793D01*
X10648753Y-16449793D02*
X10639229Y-16430746D01*
X10639229Y-16430746D02*
X10629705Y-16421222D01*
X10629705Y-16421222D02*
X10610658Y-16411698D01*
X10772563Y-16325984D02*
X10791610Y-16325984D01*
X10791610Y-16325984D02*
X10810658Y-16335508D01*
X10810658Y-16335508D02*
X10820182Y-16345031D01*
X10820182Y-16345031D02*
X10829705Y-16364079D01*
X10829705Y-16364079D02*
X10839229Y-16402174D01*
X10839229Y-16402174D02*
X10839229Y-16449793D01*
X10839229Y-16449793D02*
X10829705Y-16487888D01*
X10829705Y-16487888D02*
X10820182Y-16506936D01*
X10820182Y-16506936D02*
X10810658Y-16516460D01*
X10810658Y-16516460D02*
X10791610Y-16525984D01*
X10791610Y-16525984D02*
X10772563Y-16525984D01*
X10772563Y-16525984D02*
X10753515Y-16516460D01*
X10753515Y-16516460D02*
X10743991Y-16506936D01*
X10743991Y-16506936D02*
X10734467Y-16487888D01*
X10734467Y-16487888D02*
X10724944Y-16449793D01*
X10724944Y-16449793D02*
X10724944Y-16402174D01*
X10724944Y-16402174D02*
X10734467Y-16364079D01*
X10734467Y-16364079D02*
X10743991Y-16345031D01*
X10743991Y-16345031D02*
X10753515Y-16335508D01*
X10753515Y-16335508D02*
X10772563Y-16325984D01*
X10963039Y-16325984D02*
X10982086Y-16325984D01*
X10982086Y-16325984D02*
X11001134Y-16335508D01*
X11001134Y-16335508D02*
X11010658Y-16345031D01*
X11010658Y-16345031D02*
X11020182Y-16364079D01*
X11020182Y-16364079D02*
X11029705Y-16402174D01*
X11029705Y-16402174D02*
X11029705Y-16449793D01*
X11029705Y-16449793D02*
X11020182Y-16487888D01*
X11020182Y-16487888D02*
X11010658Y-16506936D01*
X11010658Y-16506936D02*
X11001134Y-16516460D01*
X11001134Y-16516460D02*
X10982086Y-16525984D01*
X10982086Y-16525984D02*
X10963039Y-16525984D01*
X10963039Y-16525984D02*
X10943991Y-16516460D01*
X10943991Y-16516460D02*
X10934467Y-16506936D01*
X10934467Y-16506936D02*
X10924944Y-16487888D01*
X10924944Y-16487888D02*
X10915420Y-16449793D01*
X10915420Y-16449793D02*
X10915420Y-16402174D01*
X10915420Y-16402174D02*
X10924944Y-16364079D01*
X10924944Y-16364079D02*
X10934467Y-16345031D01*
X10934467Y-16345031D02*
X10943991Y-16335508D01*
X10943991Y-16335508D02*
X10963039Y-16325984D01*
X11115420Y-16525984D02*
X11115420Y-16392650D01*
X11115420Y-16411698D02*
X11124944Y-16402174D01*
X11124944Y-16402174D02*
X11143991Y-16392650D01*
X11143991Y-16392650D02*
X11172563Y-16392650D01*
X11172563Y-16392650D02*
X11191610Y-16402174D01*
X11191610Y-16402174D02*
X11201134Y-16421222D01*
X11201134Y-16421222D02*
X11201134Y-16525984D01*
X11201134Y-16421222D02*
X11210658Y-16402174D01*
X11210658Y-16402174D02*
X11229705Y-16392650D01*
X11229705Y-16392650D02*
X11258277Y-16392650D01*
X11258277Y-16392650D02*
X11277324Y-16402174D01*
X11277324Y-16402174D02*
X11286848Y-16421222D01*
X11286848Y-16421222D02*
X11286848Y-16525984D01*
X11382086Y-16525984D02*
X11382086Y-16392650D01*
X11382086Y-16411698D02*
X11391610Y-16402174D01*
X11391610Y-16402174D02*
X11410658Y-16392650D01*
X11410658Y-16392650D02*
X11439229Y-16392650D01*
X11439229Y-16392650D02*
X11458277Y-16402174D01*
X11458277Y-16402174D02*
X11467801Y-16421222D01*
X11467801Y-16421222D02*
X11467801Y-16525984D01*
X11467801Y-16421222D02*
X11477324Y-16402174D01*
X11477324Y-16402174D02*
X11496372Y-16392650D01*
X11496372Y-16392650D02*
X11524943Y-16392650D01*
X11524943Y-16392650D02*
X11543991Y-16402174D01*
X11543991Y-16402174D02*
X11553515Y-16421222D01*
X11553515Y-16421222D02*
X11553515Y-16525984D01*
X11943991Y-16316460D02*
X11772563Y-16573603D01*
X12201134Y-16325984D02*
X12220182Y-16325984D01*
X12220182Y-16325984D02*
X12239229Y-16335508D01*
X12239229Y-16335508D02*
X12248753Y-16345031D01*
X12248753Y-16345031D02*
X12258277Y-16364079D01*
X12258277Y-16364079D02*
X12267801Y-16402174D01*
X12267801Y-16402174D02*
X12267801Y-16449793D01*
X12267801Y-16449793D02*
X12258277Y-16487888D01*
X12258277Y-16487888D02*
X12248753Y-16506936D01*
X12248753Y-16506936D02*
X12239229Y-16516460D01*
X12239229Y-16516460D02*
X12220182Y-16525984D01*
X12220182Y-16525984D02*
X12201134Y-16525984D01*
X12201134Y-16525984D02*
X12182086Y-16516460D01*
X12182086Y-16516460D02*
X12172563Y-16506936D01*
X12172563Y-16506936D02*
X12163039Y-16487888D01*
X12163039Y-16487888D02*
X12153515Y-16449793D01*
X12153515Y-16449793D02*
X12153515Y-16402174D01*
X12153515Y-16402174D02*
X12163039Y-16364079D01*
X12163039Y-16364079D02*
X12172563Y-16345031D01*
X12172563Y-16345031D02*
X12182086Y-16335508D01*
X12182086Y-16335508D02*
X12201134Y-16325984D01*
X12353515Y-16506936D02*
X12363039Y-16516460D01*
X12363039Y-16516460D02*
X12353515Y-16525984D01*
X12353515Y-16525984D02*
X12343991Y-16516460D01*
X12343991Y-16516460D02*
X12353515Y-16506936D01*
X12353515Y-16506936D02*
X12353515Y-16525984D01*
X12486848Y-16325984D02*
X12505896Y-16325984D01*
X12505896Y-16325984D02*
X12524944Y-16335508D01*
X12524944Y-16335508D02*
X12534467Y-16345031D01*
X12534467Y-16345031D02*
X12543991Y-16364079D01*
X12543991Y-16364079D02*
X12553515Y-16402174D01*
X12553515Y-16402174D02*
X12553515Y-16449793D01*
X12553515Y-16449793D02*
X12543991Y-16487888D01*
X12543991Y-16487888D02*
X12534467Y-16506936D01*
X12534467Y-16506936D02*
X12524944Y-16516460D01*
X12524944Y-16516460D02*
X12505896Y-16525984D01*
X12505896Y-16525984D02*
X12486848Y-16525984D01*
X12486848Y-16525984D02*
X12467801Y-16516460D01*
X12467801Y-16516460D02*
X12458277Y-16506936D01*
X12458277Y-16506936D02*
X12448753Y-16487888D01*
X12448753Y-16487888D02*
X12439229Y-16449793D01*
X12439229Y-16449793D02*
X12439229Y-16402174D01*
X12439229Y-16402174D02*
X12448753Y-16364079D01*
X12448753Y-16364079D02*
X12458277Y-16345031D01*
X12458277Y-16345031D02*
X12467801Y-16335508D01*
X12467801Y-16335508D02*
X12486848Y-16325984D01*
X12620182Y-16325984D02*
X12743991Y-16325984D01*
X12743991Y-16325984D02*
X12677325Y-16402174D01*
X12677325Y-16402174D02*
X12705896Y-16402174D01*
X12705896Y-16402174D02*
X12724944Y-16411698D01*
X12724944Y-16411698D02*
X12734467Y-16421222D01*
X12734467Y-16421222D02*
X12743991Y-16440269D01*
X12743991Y-16440269D02*
X12743991Y-16487888D01*
X12743991Y-16487888D02*
X12734467Y-16506936D01*
X12734467Y-16506936D02*
X12724944Y-16516460D01*
X12724944Y-16516460D02*
X12705896Y-16525984D01*
X12705896Y-16525984D02*
X12648753Y-16525984D01*
X12648753Y-16525984D02*
X12629706Y-16516460D01*
X12629706Y-16516460D02*
X12620182Y-16506936D01*
X12934467Y-16525984D02*
X12820182Y-16525984D01*
X12877325Y-16525984D02*
X12877325Y-16325984D01*
X12877325Y-16325984D02*
X12858277Y-16354555D01*
X12858277Y-16354555D02*
X12839229Y-16373603D01*
X12839229Y-16373603D02*
X12820182Y-16383127D01*
X13115420Y-16325984D02*
X13020182Y-16325984D01*
X13020182Y-16325984D02*
X13010658Y-16421222D01*
X13010658Y-16421222D02*
X13020182Y-16411698D01*
X13020182Y-16411698D02*
X13039229Y-16402174D01*
X13039229Y-16402174D02*
X13086848Y-16402174D01*
X13086848Y-16402174D02*
X13105896Y-16411698D01*
X13105896Y-16411698D02*
X13115420Y-16421222D01*
X13115420Y-16421222D02*
X13124944Y-16440269D01*
X13124944Y-16440269D02*
X13124944Y-16487888D01*
X13124944Y-16487888D02*
X13115420Y-16506936D01*
X13115420Y-16506936D02*
X13105896Y-16516460D01*
X13105896Y-16516460D02*
X13086848Y-16525984D01*
X13086848Y-16525984D02*
X13039229Y-16525984D01*
X13039229Y-16525984D02*
X13020182Y-16516460D01*
X13020182Y-16516460D02*
X13010658Y-16506936D01*
X13201134Y-16325984D02*
X13201134Y-16364079D01*
X13277325Y-16325984D02*
X13277325Y-16364079D01*
X13572563Y-16602174D02*
X13563039Y-16592650D01*
X13563039Y-16592650D02*
X13543991Y-16564079D01*
X13543991Y-16564079D02*
X13534468Y-16545031D01*
X13534468Y-16545031D02*
X13524944Y-16516460D01*
X13524944Y-16516460D02*
X13515420Y-16468841D01*
X13515420Y-16468841D02*
X13515420Y-16430746D01*
X13515420Y-16430746D02*
X13524944Y-16383127D01*
X13524944Y-16383127D02*
X13534468Y-16354555D01*
X13534468Y-16354555D02*
X13543991Y-16335508D01*
X13543991Y-16335508D02*
X13563039Y-16306936D01*
X13563039Y-16306936D02*
X13572563Y-16297412D01*
X13639229Y-16345031D02*
X13648753Y-16335508D01*
X13648753Y-16335508D02*
X13667801Y-16325984D01*
X13667801Y-16325984D02*
X13715420Y-16325984D01*
X13715420Y-16325984D02*
X13734468Y-16335508D01*
X13734468Y-16335508D02*
X13743991Y-16345031D01*
X13743991Y-16345031D02*
X13753515Y-16364079D01*
X13753515Y-16364079D02*
X13753515Y-16383127D01*
X13753515Y-16383127D02*
X13743991Y-16411698D01*
X13743991Y-16411698D02*
X13629706Y-16525984D01*
X13629706Y-16525984D02*
X13753515Y-16525984D01*
X13991610Y-16525984D02*
X13991610Y-16325984D01*
X14077325Y-16525984D02*
X14077325Y-16421222D01*
X14077325Y-16421222D02*
X14067801Y-16402174D01*
X14067801Y-16402174D02*
X14048753Y-16392650D01*
X14048753Y-16392650D02*
X14020182Y-16392650D01*
X14020182Y-16392650D02*
X14001134Y-16402174D01*
X14001134Y-16402174D02*
X13991610Y-16411698D01*
X14201134Y-16525984D02*
X14182087Y-16516460D01*
X14182087Y-16516460D02*
X14172563Y-16506936D01*
X14172563Y-16506936D02*
X14163039Y-16487888D01*
X14163039Y-16487888D02*
X14163039Y-16430746D01*
X14163039Y-16430746D02*
X14172563Y-16411698D01*
X14172563Y-16411698D02*
X14182087Y-16402174D01*
X14182087Y-16402174D02*
X14201134Y-16392650D01*
X14201134Y-16392650D02*
X14229706Y-16392650D01*
X14229706Y-16392650D02*
X14248753Y-16402174D01*
X14248753Y-16402174D02*
X14258277Y-16411698D01*
X14258277Y-16411698D02*
X14267801Y-16430746D01*
X14267801Y-16430746D02*
X14267801Y-16487888D01*
X14267801Y-16487888D02*
X14258277Y-16506936D01*
X14258277Y-16506936D02*
X14248753Y-16516460D01*
X14248753Y-16516460D02*
X14229706Y-16525984D01*
X14229706Y-16525984D02*
X14201134Y-16525984D01*
X14382087Y-16525984D02*
X14363039Y-16516460D01*
X14363039Y-16516460D02*
X14353515Y-16497412D01*
X14353515Y-16497412D02*
X14353515Y-16325984D01*
X14534468Y-16516460D02*
X14515420Y-16525984D01*
X14515420Y-16525984D02*
X14477325Y-16525984D01*
X14477325Y-16525984D02*
X14458277Y-16516460D01*
X14458277Y-16516460D02*
X14448753Y-16497412D01*
X14448753Y-16497412D02*
X14448753Y-16421222D01*
X14448753Y-16421222D02*
X14458277Y-16402174D01*
X14458277Y-16402174D02*
X14477325Y-16392650D01*
X14477325Y-16392650D02*
X14515420Y-16392650D01*
X14515420Y-16392650D02*
X14534468Y-16402174D01*
X14534468Y-16402174D02*
X14543991Y-16421222D01*
X14543991Y-16421222D02*
X14543991Y-16440269D01*
X14543991Y-16440269D02*
X14448753Y-16459317D01*
X14620182Y-16516460D02*
X14639230Y-16525984D01*
X14639230Y-16525984D02*
X14677325Y-16525984D01*
X14677325Y-16525984D02*
X14696372Y-16516460D01*
X14696372Y-16516460D02*
X14705896Y-16497412D01*
X14705896Y-16497412D02*
X14705896Y-16487888D01*
X14705896Y-16487888D02*
X14696372Y-16468841D01*
X14696372Y-16468841D02*
X14677325Y-16459317D01*
X14677325Y-16459317D02*
X14648753Y-16459317D01*
X14648753Y-16459317D02*
X14629706Y-16449793D01*
X14629706Y-16449793D02*
X14620182Y-16430746D01*
X14620182Y-16430746D02*
X14620182Y-16421222D01*
X14620182Y-16421222D02*
X14629706Y-16402174D01*
X14629706Y-16402174D02*
X14648753Y-16392650D01*
X14648753Y-16392650D02*
X14677325Y-16392650D01*
X14677325Y-16392650D02*
X14696372Y-16402174D01*
X14772563Y-16602174D02*
X14782087Y-16592650D01*
X14782087Y-16592650D02*
X14801134Y-16564079D01*
X14801134Y-16564079D02*
X14810658Y-16545031D01*
X14810658Y-16545031D02*
X14820182Y-16516460D01*
X14820182Y-16516460D02*
X14829706Y-16468841D01*
X14829706Y-16468841D02*
X14829706Y-16430746D01*
X14829706Y-16430746D02*
X14820182Y-16383127D01*
X14820182Y-16383127D02*
X14810658Y-16354555D01*
X14810658Y-16354555D02*
X14801134Y-16335508D01*
X14801134Y-16335508D02*
X14782087Y-16306936D01*
X14782087Y-16306936D02*
X14772563Y-16297412D01*
D12*
X9947500Y-16748500D02*
X9997500Y-16698500D01*
X9947500Y-16648500D01*
X9897500Y-16698500D01*
X9947500Y-16748500D01*
D11*
X10363039Y-16789984D02*
X10248753Y-16789984D01*
X10305896Y-16789984D02*
X10305896Y-16589984D01*
X10305896Y-16589984D02*
X10286848Y-16618555D01*
X10286848Y-16618555D02*
X10267801Y-16637603D01*
X10267801Y-16637603D02*
X10248753Y-16647127D01*
X10448753Y-16770936D02*
X10458277Y-16780460D01*
X10458277Y-16780460D02*
X10448753Y-16789984D01*
X10448753Y-16789984D02*
X10439229Y-16780460D01*
X10439229Y-16780460D02*
X10448753Y-16770936D01*
X10448753Y-16770936D02*
X10448753Y-16789984D01*
X10582086Y-16589984D02*
X10601134Y-16589984D01*
X10601134Y-16589984D02*
X10620182Y-16599508D01*
X10620182Y-16599508D02*
X10629705Y-16609031D01*
X10629705Y-16609031D02*
X10639229Y-16628079D01*
X10639229Y-16628079D02*
X10648753Y-16666174D01*
X10648753Y-16666174D02*
X10648753Y-16713793D01*
X10648753Y-16713793D02*
X10639229Y-16751888D01*
X10639229Y-16751888D02*
X10629705Y-16770936D01*
X10629705Y-16770936D02*
X10620182Y-16780460D01*
X10620182Y-16780460D02*
X10601134Y-16789984D01*
X10601134Y-16789984D02*
X10582086Y-16789984D01*
X10582086Y-16789984D02*
X10563039Y-16780460D01*
X10563039Y-16780460D02*
X10553515Y-16770936D01*
X10553515Y-16770936D02*
X10543991Y-16751888D01*
X10543991Y-16751888D02*
X10534467Y-16713793D01*
X10534467Y-16713793D02*
X10534467Y-16666174D01*
X10534467Y-16666174D02*
X10543991Y-16628079D01*
X10543991Y-16628079D02*
X10553515Y-16609031D01*
X10553515Y-16609031D02*
X10563039Y-16599508D01*
X10563039Y-16599508D02*
X10582086Y-16589984D01*
X10772563Y-16589984D02*
X10791610Y-16589984D01*
X10791610Y-16589984D02*
X10810658Y-16599508D01*
X10810658Y-16599508D02*
X10820182Y-16609031D01*
X10820182Y-16609031D02*
X10829705Y-16628079D01*
X10829705Y-16628079D02*
X10839229Y-16666174D01*
X10839229Y-16666174D02*
X10839229Y-16713793D01*
X10839229Y-16713793D02*
X10829705Y-16751888D01*
X10829705Y-16751888D02*
X10820182Y-16770936D01*
X10820182Y-16770936D02*
X10810658Y-16780460D01*
X10810658Y-16780460D02*
X10791610Y-16789984D01*
X10791610Y-16789984D02*
X10772563Y-16789984D01*
X10772563Y-16789984D02*
X10753515Y-16780460D01*
X10753515Y-16780460D02*
X10743991Y-16770936D01*
X10743991Y-16770936D02*
X10734467Y-16751888D01*
X10734467Y-16751888D02*
X10724944Y-16713793D01*
X10724944Y-16713793D02*
X10724944Y-16666174D01*
X10724944Y-16666174D02*
X10734467Y-16628079D01*
X10734467Y-16628079D02*
X10743991Y-16609031D01*
X10743991Y-16609031D02*
X10753515Y-16599508D01*
X10753515Y-16599508D02*
X10772563Y-16589984D01*
X10963039Y-16589984D02*
X10982086Y-16589984D01*
X10982086Y-16589984D02*
X11001134Y-16599508D01*
X11001134Y-16599508D02*
X11010658Y-16609031D01*
X11010658Y-16609031D02*
X11020182Y-16628079D01*
X11020182Y-16628079D02*
X11029705Y-16666174D01*
X11029705Y-16666174D02*
X11029705Y-16713793D01*
X11029705Y-16713793D02*
X11020182Y-16751888D01*
X11020182Y-16751888D02*
X11010658Y-16770936D01*
X11010658Y-16770936D02*
X11001134Y-16780460D01*
X11001134Y-16780460D02*
X10982086Y-16789984D01*
X10982086Y-16789984D02*
X10963039Y-16789984D01*
X10963039Y-16789984D02*
X10943991Y-16780460D01*
X10943991Y-16780460D02*
X10934467Y-16770936D01*
X10934467Y-16770936D02*
X10924944Y-16751888D01*
X10924944Y-16751888D02*
X10915420Y-16713793D01*
X10915420Y-16713793D02*
X10915420Y-16666174D01*
X10915420Y-16666174D02*
X10924944Y-16628079D01*
X10924944Y-16628079D02*
X10934467Y-16609031D01*
X10934467Y-16609031D02*
X10943991Y-16599508D01*
X10943991Y-16599508D02*
X10963039Y-16589984D01*
X11115420Y-16789984D02*
X11115420Y-16656650D01*
X11115420Y-16675698D02*
X11124944Y-16666174D01*
X11124944Y-16666174D02*
X11143991Y-16656650D01*
X11143991Y-16656650D02*
X11172563Y-16656650D01*
X11172563Y-16656650D02*
X11191610Y-16666174D01*
X11191610Y-16666174D02*
X11201134Y-16685222D01*
X11201134Y-16685222D02*
X11201134Y-16789984D01*
X11201134Y-16685222D02*
X11210658Y-16666174D01*
X11210658Y-16666174D02*
X11229705Y-16656650D01*
X11229705Y-16656650D02*
X11258277Y-16656650D01*
X11258277Y-16656650D02*
X11277324Y-16666174D01*
X11277324Y-16666174D02*
X11286848Y-16685222D01*
X11286848Y-16685222D02*
X11286848Y-16789984D01*
X11382086Y-16789984D02*
X11382086Y-16656650D01*
X11382086Y-16675698D02*
X11391610Y-16666174D01*
X11391610Y-16666174D02*
X11410658Y-16656650D01*
X11410658Y-16656650D02*
X11439229Y-16656650D01*
X11439229Y-16656650D02*
X11458277Y-16666174D01*
X11458277Y-16666174D02*
X11467801Y-16685222D01*
X11467801Y-16685222D02*
X11467801Y-16789984D01*
X11467801Y-16685222D02*
X11477324Y-16666174D01*
X11477324Y-16666174D02*
X11496372Y-16656650D01*
X11496372Y-16656650D02*
X11524943Y-16656650D01*
X11524943Y-16656650D02*
X11543991Y-16666174D01*
X11543991Y-16666174D02*
X11553515Y-16685222D01*
X11553515Y-16685222D02*
X11553515Y-16789984D01*
X11943991Y-16580460D02*
X11772563Y-16837603D01*
X12201134Y-16589984D02*
X12220182Y-16589984D01*
X12220182Y-16589984D02*
X12239229Y-16599508D01*
X12239229Y-16599508D02*
X12248753Y-16609031D01*
X12248753Y-16609031D02*
X12258277Y-16628079D01*
X12258277Y-16628079D02*
X12267801Y-16666174D01*
X12267801Y-16666174D02*
X12267801Y-16713793D01*
X12267801Y-16713793D02*
X12258277Y-16751888D01*
X12258277Y-16751888D02*
X12248753Y-16770936D01*
X12248753Y-16770936D02*
X12239229Y-16780460D01*
X12239229Y-16780460D02*
X12220182Y-16789984D01*
X12220182Y-16789984D02*
X12201134Y-16789984D01*
X12201134Y-16789984D02*
X12182086Y-16780460D01*
X12182086Y-16780460D02*
X12172563Y-16770936D01*
X12172563Y-16770936D02*
X12163039Y-16751888D01*
X12163039Y-16751888D02*
X12153515Y-16713793D01*
X12153515Y-16713793D02*
X12153515Y-16666174D01*
X12153515Y-16666174D02*
X12163039Y-16628079D01*
X12163039Y-16628079D02*
X12172563Y-16609031D01*
X12172563Y-16609031D02*
X12182086Y-16599508D01*
X12182086Y-16599508D02*
X12201134Y-16589984D01*
X12353515Y-16770936D02*
X12363039Y-16780460D01*
X12363039Y-16780460D02*
X12353515Y-16789984D01*
X12353515Y-16789984D02*
X12343991Y-16780460D01*
X12343991Y-16780460D02*
X12353515Y-16770936D01*
X12353515Y-16770936D02*
X12353515Y-16789984D01*
X12486848Y-16589984D02*
X12505896Y-16589984D01*
X12505896Y-16589984D02*
X12524944Y-16599508D01*
X12524944Y-16599508D02*
X12534467Y-16609031D01*
X12534467Y-16609031D02*
X12543991Y-16628079D01*
X12543991Y-16628079D02*
X12553515Y-16666174D01*
X12553515Y-16666174D02*
X12553515Y-16713793D01*
X12553515Y-16713793D02*
X12543991Y-16751888D01*
X12543991Y-16751888D02*
X12534467Y-16770936D01*
X12534467Y-16770936D02*
X12524944Y-16780460D01*
X12524944Y-16780460D02*
X12505896Y-16789984D01*
X12505896Y-16789984D02*
X12486848Y-16789984D01*
X12486848Y-16789984D02*
X12467801Y-16780460D01*
X12467801Y-16780460D02*
X12458277Y-16770936D01*
X12458277Y-16770936D02*
X12448753Y-16751888D01*
X12448753Y-16751888D02*
X12439229Y-16713793D01*
X12439229Y-16713793D02*
X12439229Y-16666174D01*
X12439229Y-16666174D02*
X12448753Y-16628079D01*
X12448753Y-16628079D02*
X12458277Y-16609031D01*
X12458277Y-16609031D02*
X12467801Y-16599508D01*
X12467801Y-16599508D02*
X12486848Y-16589984D01*
X12620182Y-16589984D02*
X12743991Y-16589984D01*
X12743991Y-16589984D02*
X12677325Y-16666174D01*
X12677325Y-16666174D02*
X12705896Y-16666174D01*
X12705896Y-16666174D02*
X12724944Y-16675698D01*
X12724944Y-16675698D02*
X12734467Y-16685222D01*
X12734467Y-16685222D02*
X12743991Y-16704269D01*
X12743991Y-16704269D02*
X12743991Y-16751888D01*
X12743991Y-16751888D02*
X12734467Y-16770936D01*
X12734467Y-16770936D02*
X12724944Y-16780460D01*
X12724944Y-16780460D02*
X12705896Y-16789984D01*
X12705896Y-16789984D02*
X12648753Y-16789984D01*
X12648753Y-16789984D02*
X12629706Y-16780460D01*
X12629706Y-16780460D02*
X12620182Y-16770936D01*
X12839229Y-16789984D02*
X12877325Y-16789984D01*
X12877325Y-16789984D02*
X12896372Y-16780460D01*
X12896372Y-16780460D02*
X12905896Y-16770936D01*
X12905896Y-16770936D02*
X12924944Y-16742365D01*
X12924944Y-16742365D02*
X12934467Y-16704269D01*
X12934467Y-16704269D02*
X12934467Y-16628079D01*
X12934467Y-16628079D02*
X12924944Y-16609031D01*
X12924944Y-16609031D02*
X12915420Y-16599508D01*
X12915420Y-16599508D02*
X12896372Y-16589984D01*
X12896372Y-16589984D02*
X12858277Y-16589984D01*
X12858277Y-16589984D02*
X12839229Y-16599508D01*
X12839229Y-16599508D02*
X12829706Y-16609031D01*
X12829706Y-16609031D02*
X12820182Y-16628079D01*
X12820182Y-16628079D02*
X12820182Y-16675698D01*
X12820182Y-16675698D02*
X12829706Y-16694746D01*
X12829706Y-16694746D02*
X12839229Y-16704269D01*
X12839229Y-16704269D02*
X12858277Y-16713793D01*
X12858277Y-16713793D02*
X12896372Y-16713793D01*
X12896372Y-16713793D02*
X12915420Y-16704269D01*
X12915420Y-16704269D02*
X12924944Y-16694746D01*
X12924944Y-16694746D02*
X12934467Y-16675698D01*
X13105896Y-16656650D02*
X13105896Y-16789984D01*
X13058277Y-16580460D02*
X13010658Y-16723317D01*
X13010658Y-16723317D02*
X13134467Y-16723317D01*
X13201134Y-16589984D02*
X13201134Y-16628079D01*
X13277325Y-16589984D02*
X13277325Y-16628079D01*
X13572563Y-16866174D02*
X13563039Y-16856650D01*
X13563039Y-16856650D02*
X13543991Y-16828079D01*
X13543991Y-16828079D02*
X13534468Y-16809031D01*
X13534468Y-16809031D02*
X13524944Y-16780460D01*
X13524944Y-16780460D02*
X13515420Y-16732841D01*
X13515420Y-16732841D02*
X13515420Y-16694746D01*
X13515420Y-16694746D02*
X13524944Y-16647127D01*
X13524944Y-16647127D02*
X13534468Y-16618555D01*
X13534468Y-16618555D02*
X13543991Y-16599508D01*
X13543991Y-16599508D02*
X13563039Y-16570936D01*
X13563039Y-16570936D02*
X13572563Y-16561412D01*
X13629706Y-16589984D02*
X13753515Y-16589984D01*
X13753515Y-16589984D02*
X13686848Y-16666174D01*
X13686848Y-16666174D02*
X13715420Y-16666174D01*
X13715420Y-16666174D02*
X13734468Y-16675698D01*
X13734468Y-16675698D02*
X13743991Y-16685222D01*
X13743991Y-16685222D02*
X13753515Y-16704269D01*
X13753515Y-16704269D02*
X13753515Y-16751888D01*
X13753515Y-16751888D02*
X13743991Y-16770936D01*
X13743991Y-16770936D02*
X13734468Y-16780460D01*
X13734468Y-16780460D02*
X13715420Y-16789984D01*
X13715420Y-16789984D02*
X13658277Y-16789984D01*
X13658277Y-16789984D02*
X13639229Y-16780460D01*
X13639229Y-16780460D02*
X13629706Y-16770936D01*
X13991610Y-16789984D02*
X13991610Y-16589984D01*
X14077325Y-16789984D02*
X14077325Y-16685222D01*
X14077325Y-16685222D02*
X14067801Y-16666174D01*
X14067801Y-16666174D02*
X14048753Y-16656650D01*
X14048753Y-16656650D02*
X14020182Y-16656650D01*
X14020182Y-16656650D02*
X14001134Y-16666174D01*
X14001134Y-16666174D02*
X13991610Y-16675698D01*
X14201134Y-16789984D02*
X14182087Y-16780460D01*
X14182087Y-16780460D02*
X14172563Y-16770936D01*
X14172563Y-16770936D02*
X14163039Y-16751888D01*
X14163039Y-16751888D02*
X14163039Y-16694746D01*
X14163039Y-16694746D02*
X14172563Y-16675698D01*
X14172563Y-16675698D02*
X14182087Y-16666174D01*
X14182087Y-16666174D02*
X14201134Y-16656650D01*
X14201134Y-16656650D02*
X14229706Y-16656650D01*
X14229706Y-16656650D02*
X14248753Y-16666174D01*
X14248753Y-16666174D02*
X14258277Y-16675698D01*
X14258277Y-16675698D02*
X14267801Y-16694746D01*
X14267801Y-16694746D02*
X14267801Y-16751888D01*
X14267801Y-16751888D02*
X14258277Y-16770936D01*
X14258277Y-16770936D02*
X14248753Y-16780460D01*
X14248753Y-16780460D02*
X14229706Y-16789984D01*
X14229706Y-16789984D02*
X14201134Y-16789984D01*
X14382087Y-16789984D02*
X14363039Y-16780460D01*
X14363039Y-16780460D02*
X14353515Y-16761412D01*
X14353515Y-16761412D02*
X14353515Y-16589984D01*
X14534468Y-16780460D02*
X14515420Y-16789984D01*
X14515420Y-16789984D02*
X14477325Y-16789984D01*
X14477325Y-16789984D02*
X14458277Y-16780460D01*
X14458277Y-16780460D02*
X14448753Y-16761412D01*
X14448753Y-16761412D02*
X14448753Y-16685222D01*
X14448753Y-16685222D02*
X14458277Y-16666174D01*
X14458277Y-16666174D02*
X14477325Y-16656650D01*
X14477325Y-16656650D02*
X14515420Y-16656650D01*
X14515420Y-16656650D02*
X14534468Y-16666174D01*
X14534468Y-16666174D02*
X14543991Y-16685222D01*
X14543991Y-16685222D02*
X14543991Y-16704269D01*
X14543991Y-16704269D02*
X14448753Y-16723317D01*
X14620182Y-16780460D02*
X14639230Y-16789984D01*
X14639230Y-16789984D02*
X14677325Y-16789984D01*
X14677325Y-16789984D02*
X14696372Y-16780460D01*
X14696372Y-16780460D02*
X14705896Y-16761412D01*
X14705896Y-16761412D02*
X14705896Y-16751888D01*
X14705896Y-16751888D02*
X14696372Y-16732841D01*
X14696372Y-16732841D02*
X14677325Y-16723317D01*
X14677325Y-16723317D02*
X14648753Y-16723317D01*
X14648753Y-16723317D02*
X14629706Y-16713793D01*
X14629706Y-16713793D02*
X14620182Y-16694746D01*
X14620182Y-16694746D02*
X14620182Y-16685222D01*
X14620182Y-16685222D02*
X14629706Y-16666174D01*
X14629706Y-16666174D02*
X14648753Y-16656650D01*
X14648753Y-16656650D02*
X14677325Y-16656650D01*
X14677325Y-16656650D02*
X14696372Y-16666174D01*
X14772563Y-16866174D02*
X14782087Y-16856650D01*
X14782087Y-16856650D02*
X14801134Y-16828079D01*
X14801134Y-16828079D02*
X14810658Y-16809031D01*
X14810658Y-16809031D02*
X14820182Y-16780460D01*
X14820182Y-16780460D02*
X14829706Y-16732841D01*
X14829706Y-16732841D02*
X14829706Y-16694746D01*
X14829706Y-16694746D02*
X14820182Y-16647127D01*
X14820182Y-16647127D02*
X14810658Y-16618555D01*
X14810658Y-16618555D02*
X14801134Y-16599508D01*
X14801134Y-16599508D02*
X14782087Y-16570936D01*
X14782087Y-16570936D02*
X14772563Y-16561412D01*
D13*
X9857500Y-16892500D02*
X9997500Y-17032500D01*
X9997500Y-16892500D02*
X9857500Y-17032500D01*
X9997500Y-16962500D02*
G75*
G02*
X9857500Y-16962500I-70000J0D01*
G01*
X9857500Y-16962500D02*
G75*
G02*
X9997500Y-16962500I70000J0D01*
G01*
D11*
X10363039Y-17053984D02*
X10248753Y-17053984D01*
X10305896Y-17053984D02*
X10305896Y-16853984D01*
X10305896Y-16853984D02*
X10286848Y-16882555D01*
X10286848Y-16882555D02*
X10267801Y-16901603D01*
X10267801Y-16901603D02*
X10248753Y-16911127D01*
X10448753Y-17034936D02*
X10458277Y-17044460D01*
X10458277Y-17044460D02*
X10448753Y-17053984D01*
X10448753Y-17053984D02*
X10439229Y-17044460D01*
X10439229Y-17044460D02*
X10448753Y-17034936D01*
X10448753Y-17034936D02*
X10448753Y-17053984D01*
X10629705Y-16920650D02*
X10629705Y-17053984D01*
X10582086Y-16844460D02*
X10534467Y-16987317D01*
X10534467Y-16987317D02*
X10658277Y-16987317D01*
X10772563Y-16853984D02*
X10791610Y-16853984D01*
X10791610Y-16853984D02*
X10810658Y-16863508D01*
X10810658Y-16863508D02*
X10820182Y-16873031D01*
X10820182Y-16873031D02*
X10829705Y-16892079D01*
X10829705Y-16892079D02*
X10839229Y-16930174D01*
X10839229Y-16930174D02*
X10839229Y-16977793D01*
X10839229Y-16977793D02*
X10829705Y-17015889D01*
X10829705Y-17015889D02*
X10820182Y-17034936D01*
X10820182Y-17034936D02*
X10810658Y-17044460D01*
X10810658Y-17044460D02*
X10791610Y-17053984D01*
X10791610Y-17053984D02*
X10772563Y-17053984D01*
X10772563Y-17053984D02*
X10753515Y-17044460D01*
X10753515Y-17044460D02*
X10743991Y-17034936D01*
X10743991Y-17034936D02*
X10734467Y-17015889D01*
X10734467Y-17015889D02*
X10724944Y-16977793D01*
X10724944Y-16977793D02*
X10724944Y-16930174D01*
X10724944Y-16930174D02*
X10734467Y-16892079D01*
X10734467Y-16892079D02*
X10743991Y-16873031D01*
X10743991Y-16873031D02*
X10753515Y-16863508D01*
X10753515Y-16863508D02*
X10772563Y-16853984D01*
X10963039Y-16853984D02*
X10982086Y-16853984D01*
X10982086Y-16853984D02*
X11001134Y-16863508D01*
X11001134Y-16863508D02*
X11010658Y-16873031D01*
X11010658Y-16873031D02*
X11020182Y-16892079D01*
X11020182Y-16892079D02*
X11029705Y-16930174D01*
X11029705Y-16930174D02*
X11029705Y-16977793D01*
X11029705Y-16977793D02*
X11020182Y-17015889D01*
X11020182Y-17015889D02*
X11010658Y-17034936D01*
X11010658Y-17034936D02*
X11001134Y-17044460D01*
X11001134Y-17044460D02*
X10982086Y-17053984D01*
X10982086Y-17053984D02*
X10963039Y-17053984D01*
X10963039Y-17053984D02*
X10943991Y-17044460D01*
X10943991Y-17044460D02*
X10934467Y-17034936D01*
X10934467Y-17034936D02*
X10924944Y-17015889D01*
X10924944Y-17015889D02*
X10915420Y-16977793D01*
X10915420Y-16977793D02*
X10915420Y-16930174D01*
X10915420Y-16930174D02*
X10924944Y-16892079D01*
X10924944Y-16892079D02*
X10934467Y-16873031D01*
X10934467Y-16873031D02*
X10943991Y-16863508D01*
X10943991Y-16863508D02*
X10963039Y-16853984D01*
X11115420Y-17053984D02*
X11115420Y-16920650D01*
X11115420Y-16939698D02*
X11124944Y-16930174D01*
X11124944Y-16930174D02*
X11143991Y-16920650D01*
X11143991Y-16920650D02*
X11172563Y-16920650D01*
X11172563Y-16920650D02*
X11191610Y-16930174D01*
X11191610Y-16930174D02*
X11201134Y-16949222D01*
X11201134Y-16949222D02*
X11201134Y-17053984D01*
X11201134Y-16949222D02*
X11210658Y-16930174D01*
X11210658Y-16930174D02*
X11229705Y-16920650D01*
X11229705Y-16920650D02*
X11258277Y-16920650D01*
X11258277Y-16920650D02*
X11277324Y-16930174D01*
X11277324Y-16930174D02*
X11286848Y-16949222D01*
X11286848Y-16949222D02*
X11286848Y-17053984D01*
X11382086Y-17053984D02*
X11382086Y-16920650D01*
X11382086Y-16939698D02*
X11391610Y-16930174D01*
X11391610Y-16930174D02*
X11410658Y-16920650D01*
X11410658Y-16920650D02*
X11439229Y-16920650D01*
X11439229Y-16920650D02*
X11458277Y-16930174D01*
X11458277Y-16930174D02*
X11467801Y-16949222D01*
X11467801Y-16949222D02*
X11467801Y-17053984D01*
X11467801Y-16949222D02*
X11477324Y-16930174D01*
X11477324Y-16930174D02*
X11496372Y-16920650D01*
X11496372Y-16920650D02*
X11524943Y-16920650D01*
X11524943Y-16920650D02*
X11543991Y-16930174D01*
X11543991Y-16930174D02*
X11553515Y-16949222D01*
X11553515Y-16949222D02*
X11553515Y-17053984D01*
X11943991Y-16844460D02*
X11772563Y-17101603D01*
X12201134Y-16853984D02*
X12220182Y-16853984D01*
X12220182Y-16853984D02*
X12239229Y-16863508D01*
X12239229Y-16863508D02*
X12248753Y-16873031D01*
X12248753Y-16873031D02*
X12258277Y-16892079D01*
X12258277Y-16892079D02*
X12267801Y-16930174D01*
X12267801Y-16930174D02*
X12267801Y-16977793D01*
X12267801Y-16977793D02*
X12258277Y-17015889D01*
X12258277Y-17015889D02*
X12248753Y-17034936D01*
X12248753Y-17034936D02*
X12239229Y-17044460D01*
X12239229Y-17044460D02*
X12220182Y-17053984D01*
X12220182Y-17053984D02*
X12201134Y-17053984D01*
X12201134Y-17053984D02*
X12182086Y-17044460D01*
X12182086Y-17044460D02*
X12172563Y-17034936D01*
X12172563Y-17034936D02*
X12163039Y-17015889D01*
X12163039Y-17015889D02*
X12153515Y-16977793D01*
X12153515Y-16977793D02*
X12153515Y-16930174D01*
X12153515Y-16930174D02*
X12163039Y-16892079D01*
X12163039Y-16892079D02*
X12172563Y-16873031D01*
X12172563Y-16873031D02*
X12182086Y-16863508D01*
X12182086Y-16863508D02*
X12201134Y-16853984D01*
X12353515Y-17034936D02*
X12363039Y-17044460D01*
X12363039Y-17044460D02*
X12353515Y-17053984D01*
X12353515Y-17053984D02*
X12343991Y-17044460D01*
X12343991Y-17044460D02*
X12353515Y-17034936D01*
X12353515Y-17034936D02*
X12353515Y-17053984D01*
X12486848Y-16853984D02*
X12505896Y-16853984D01*
X12505896Y-16853984D02*
X12524944Y-16863508D01*
X12524944Y-16863508D02*
X12534467Y-16873031D01*
X12534467Y-16873031D02*
X12543991Y-16892079D01*
X12543991Y-16892079D02*
X12553515Y-16930174D01*
X12553515Y-16930174D02*
X12553515Y-16977793D01*
X12553515Y-16977793D02*
X12543991Y-17015889D01*
X12543991Y-17015889D02*
X12534467Y-17034936D01*
X12534467Y-17034936D02*
X12524944Y-17044460D01*
X12524944Y-17044460D02*
X12505896Y-17053984D01*
X12505896Y-17053984D02*
X12486848Y-17053984D01*
X12486848Y-17053984D02*
X12467801Y-17044460D01*
X12467801Y-17044460D02*
X12458277Y-17034936D01*
X12458277Y-17034936D02*
X12448753Y-17015889D01*
X12448753Y-17015889D02*
X12439229Y-16977793D01*
X12439229Y-16977793D02*
X12439229Y-16930174D01*
X12439229Y-16930174D02*
X12448753Y-16892079D01*
X12448753Y-16892079D02*
X12458277Y-16873031D01*
X12458277Y-16873031D02*
X12467801Y-16863508D01*
X12467801Y-16863508D02*
X12486848Y-16853984D01*
X12734467Y-16853984D02*
X12639229Y-16853984D01*
X12639229Y-16853984D02*
X12629706Y-16949222D01*
X12629706Y-16949222D02*
X12639229Y-16939698D01*
X12639229Y-16939698D02*
X12658277Y-16930174D01*
X12658277Y-16930174D02*
X12705896Y-16930174D01*
X12705896Y-16930174D02*
X12724944Y-16939698D01*
X12724944Y-16939698D02*
X12734467Y-16949222D01*
X12734467Y-16949222D02*
X12743991Y-16968270D01*
X12743991Y-16968270D02*
X12743991Y-17015889D01*
X12743991Y-17015889D02*
X12734467Y-17034936D01*
X12734467Y-17034936D02*
X12724944Y-17044460D01*
X12724944Y-17044460D02*
X12705896Y-17053984D01*
X12705896Y-17053984D02*
X12658277Y-17053984D01*
X12658277Y-17053984D02*
X12639229Y-17044460D01*
X12639229Y-17044460D02*
X12629706Y-17034936D01*
X12924944Y-16853984D02*
X12829706Y-16853984D01*
X12829706Y-16853984D02*
X12820182Y-16949222D01*
X12820182Y-16949222D02*
X12829706Y-16939698D01*
X12829706Y-16939698D02*
X12848753Y-16930174D01*
X12848753Y-16930174D02*
X12896372Y-16930174D01*
X12896372Y-16930174D02*
X12915420Y-16939698D01*
X12915420Y-16939698D02*
X12924944Y-16949222D01*
X12924944Y-16949222D02*
X12934467Y-16968270D01*
X12934467Y-16968270D02*
X12934467Y-17015889D01*
X12934467Y-17015889D02*
X12924944Y-17034936D01*
X12924944Y-17034936D02*
X12915420Y-17044460D01*
X12915420Y-17044460D02*
X12896372Y-17053984D01*
X12896372Y-17053984D02*
X12848753Y-17053984D01*
X12848753Y-17053984D02*
X12829706Y-17044460D01*
X12829706Y-17044460D02*
X12820182Y-17034936D01*
X13124944Y-17053984D02*
X13010658Y-17053984D01*
X13067801Y-17053984D02*
X13067801Y-16853984D01*
X13067801Y-16853984D02*
X13048753Y-16882555D01*
X13048753Y-16882555D02*
X13029706Y-16901603D01*
X13029706Y-16901603D02*
X13010658Y-16911127D01*
X13201134Y-16853984D02*
X13201134Y-16892079D01*
X13277325Y-16853984D02*
X13277325Y-16892079D01*
X13572563Y-17130174D02*
X13563039Y-17120650D01*
X13563039Y-17120650D02*
X13543991Y-17092079D01*
X13543991Y-17092079D02*
X13534468Y-17073031D01*
X13534468Y-17073031D02*
X13524944Y-17044460D01*
X13524944Y-17044460D02*
X13515420Y-16996841D01*
X13515420Y-16996841D02*
X13515420Y-16958746D01*
X13515420Y-16958746D02*
X13524944Y-16911127D01*
X13524944Y-16911127D02*
X13534468Y-16882555D01*
X13534468Y-16882555D02*
X13543991Y-16863508D01*
X13543991Y-16863508D02*
X13563039Y-16834936D01*
X13563039Y-16834936D02*
X13572563Y-16825412D01*
X13658277Y-17053984D02*
X13696372Y-17053984D01*
X13696372Y-17053984D02*
X13715420Y-17044460D01*
X13715420Y-17044460D02*
X13724944Y-17034936D01*
X13724944Y-17034936D02*
X13743991Y-17006365D01*
X13743991Y-17006365D02*
X13753515Y-16968270D01*
X13753515Y-16968270D02*
X13753515Y-16892079D01*
X13753515Y-16892079D02*
X13743991Y-16873031D01*
X13743991Y-16873031D02*
X13734468Y-16863508D01*
X13734468Y-16863508D02*
X13715420Y-16853984D01*
X13715420Y-16853984D02*
X13677325Y-16853984D01*
X13677325Y-16853984D02*
X13658277Y-16863508D01*
X13658277Y-16863508D02*
X13648753Y-16873031D01*
X13648753Y-16873031D02*
X13639229Y-16892079D01*
X13639229Y-16892079D02*
X13639229Y-16939698D01*
X13639229Y-16939698D02*
X13648753Y-16958746D01*
X13648753Y-16958746D02*
X13658277Y-16968270D01*
X13658277Y-16968270D02*
X13677325Y-16977793D01*
X13677325Y-16977793D02*
X13715420Y-16977793D01*
X13715420Y-16977793D02*
X13734468Y-16968270D01*
X13734468Y-16968270D02*
X13743991Y-16958746D01*
X13743991Y-16958746D02*
X13753515Y-16939698D01*
X13991610Y-17053984D02*
X13991610Y-16853984D01*
X14077325Y-17053984D02*
X14077325Y-16949222D01*
X14077325Y-16949222D02*
X14067801Y-16930174D01*
X14067801Y-16930174D02*
X14048753Y-16920650D01*
X14048753Y-16920650D02*
X14020182Y-16920650D01*
X14020182Y-16920650D02*
X14001134Y-16930174D01*
X14001134Y-16930174D02*
X13991610Y-16939698D01*
X14201134Y-17053984D02*
X14182087Y-17044460D01*
X14182087Y-17044460D02*
X14172563Y-17034936D01*
X14172563Y-17034936D02*
X14163039Y-17015889D01*
X14163039Y-17015889D02*
X14163039Y-16958746D01*
X14163039Y-16958746D02*
X14172563Y-16939698D01*
X14172563Y-16939698D02*
X14182087Y-16930174D01*
X14182087Y-16930174D02*
X14201134Y-16920650D01*
X14201134Y-16920650D02*
X14229706Y-16920650D01*
X14229706Y-16920650D02*
X14248753Y-16930174D01*
X14248753Y-16930174D02*
X14258277Y-16939698D01*
X14258277Y-16939698D02*
X14267801Y-16958746D01*
X14267801Y-16958746D02*
X14267801Y-17015889D01*
X14267801Y-17015889D02*
X14258277Y-17034936D01*
X14258277Y-17034936D02*
X14248753Y-17044460D01*
X14248753Y-17044460D02*
X14229706Y-17053984D01*
X14229706Y-17053984D02*
X14201134Y-17053984D01*
X14382087Y-17053984D02*
X14363039Y-17044460D01*
X14363039Y-17044460D02*
X14353515Y-17025412D01*
X14353515Y-17025412D02*
X14353515Y-16853984D01*
X14534468Y-17044460D02*
X14515420Y-17053984D01*
X14515420Y-17053984D02*
X14477325Y-17053984D01*
X14477325Y-17053984D02*
X14458277Y-17044460D01*
X14458277Y-17044460D02*
X14448753Y-17025412D01*
X14448753Y-17025412D02*
X14448753Y-16949222D01*
X14448753Y-16949222D02*
X14458277Y-16930174D01*
X14458277Y-16930174D02*
X14477325Y-16920650D01*
X14477325Y-16920650D02*
X14515420Y-16920650D01*
X14515420Y-16920650D02*
X14534468Y-16930174D01*
X14534468Y-16930174D02*
X14543991Y-16949222D01*
X14543991Y-16949222D02*
X14543991Y-16968270D01*
X14543991Y-16968270D02*
X14448753Y-16987317D01*
X14620182Y-17044460D02*
X14639230Y-17053984D01*
X14639230Y-17053984D02*
X14677325Y-17053984D01*
X14677325Y-17053984D02*
X14696372Y-17044460D01*
X14696372Y-17044460D02*
X14705896Y-17025412D01*
X14705896Y-17025412D02*
X14705896Y-17015889D01*
X14705896Y-17015889D02*
X14696372Y-16996841D01*
X14696372Y-16996841D02*
X14677325Y-16987317D01*
X14677325Y-16987317D02*
X14648753Y-16987317D01*
X14648753Y-16987317D02*
X14629706Y-16977793D01*
X14629706Y-16977793D02*
X14620182Y-16958746D01*
X14620182Y-16958746D02*
X14620182Y-16949222D01*
X14620182Y-16949222D02*
X14629706Y-16930174D01*
X14629706Y-16930174D02*
X14648753Y-16920650D01*
X14648753Y-16920650D02*
X14677325Y-16920650D01*
X14677325Y-16920650D02*
X14696372Y-16930174D01*
X14772563Y-17130174D02*
X14782087Y-17120650D01*
X14782087Y-17120650D02*
X14801134Y-17092079D01*
X14801134Y-17092079D02*
X14810658Y-17073031D01*
X14810658Y-17073031D02*
X14820182Y-17044460D01*
X14820182Y-17044460D02*
X14829706Y-16996841D01*
X14829706Y-16996841D02*
X14829706Y-16958746D01*
X14829706Y-16958746D02*
X14820182Y-16911127D01*
X14820182Y-16911127D02*
X14810658Y-16882555D01*
X14810658Y-16882555D02*
X14801134Y-16863508D01*
X14801134Y-16863508D02*
X14782087Y-16834936D01*
X14782087Y-16834936D02*
X14772563Y-16825412D01*
M02*
