%TF.GenerationSoftware,KiCad,Pcbnew,8.0.7*%
%TF.CreationDate,2025-01-01T16:00:04-05:00*%
%TF.ProjectId,JPL.mp3,4a504c2e-6d70-4332-9e6b-696361645f70,rev?*%
%TF.SameCoordinates,Original*%
%TF.FileFunction,Soldermask,Bot*%
%TF.FilePolarity,Negative*%
%FSLAX46Y46*%
G04 Gerber Fmt 4.6, Leading zero omitted, Abs format (unit mm)*
G04 Created by KiCad (PCBNEW 8.0.7) date 2025-01-01 16:00:04*
%MOMM*%
%LPD*%
G01*
G04 APERTURE LIST*
%ADD10C,1.600000*%
%ADD11C,0.900000*%
%ADD12R,1.700000X1.700000*%
%ADD13O,1.700000X1.700000*%
%ADD14C,4.000000*%
%ADD15C,2.641600*%
%ADD16C,1.400000*%
%ADD17O,1.000000X1.800000*%
%ADD18O,1.000000X2.100000*%
%ADD19C,0.650000*%
%ADD20R,0.300000X1.100000*%
%ADD21R,2.300000X3.100000*%
G04 APERTURE END LIST*
D10*
%TO.C,J5*%
X108750000Y-53050000D03*
X108750000Y-60050000D03*
%TD*%
D11*
%TO.C,SW2*%
X138250000Y-81625000D03*
X138250000Y-77375000D03*
%TD*%
D12*
%TO.C,J6*%
X102000000Y-137920000D03*
D13*
X102000000Y-140460000D03*
X102000000Y-143000000D03*
%TD*%
D11*
%TO.C,SW1*%
X138250000Y-75875000D03*
X138250000Y-71625000D03*
%TD*%
D14*
%TO.C,Enc1*%
X109393398Y-117393398D03*
X109393398Y-138606602D03*
D10*
X116818019Y-131181981D03*
X123181981Y-124818019D03*
D14*
X130606602Y-117393398D03*
X130606602Y-138606602D03*
D15*
X126547809Y-121452191D03*
X126547809Y-134547809D03*
X113452191Y-134547809D03*
X116747309Y-111920392D03*
X118889842Y-126889842D03*
X127749890Y-112896199D03*
X136150319Y-131606245D03*
X112250110Y-143103801D03*
X103849681Y-124393755D03*
%TD*%
D11*
%TO.C,SL2*%
X101640000Y-62150000D03*
X101640000Y-65150000D03*
%TD*%
D16*
%TO.C,BAT*%
X133500000Y-142500000D03*
X136040000Y-142500000D03*
%TD*%
D17*
%TO.C,J2*%
X124320000Y-148075000D03*
D18*
X124320000Y-143875000D03*
D17*
X115680000Y-148075000D03*
D18*
X115680000Y-143875000D03*
D19*
X122890000Y-144395000D03*
X117110000Y-144395000D03*
%TD*%
D20*
%TO.C,J4*%
X122650000Y-88650000D03*
X122150000Y-88650000D03*
X121650000Y-88650000D03*
X121150000Y-88650000D03*
X120650000Y-88650000D03*
X120150000Y-88650000D03*
X119650000Y-88650000D03*
X119150000Y-88650000D03*
X118650000Y-88650000D03*
X118150000Y-88650000D03*
X117650000Y-88650000D03*
X117150000Y-88650000D03*
D21*
X124320000Y-90350000D03*
X115480000Y-90350000D03*
%TD*%
M02*
