%TF.GenerationSoftware,KiCad,Pcbnew,8.0.7*%
%TF.CreationDate,2025-01-01T16:00:03-05:00*%
%TF.ProjectId,JPL.mp3,4a504c2e-6d70-4332-9e6b-696361645f70,rev?*%
%TF.SameCoordinates,Original*%
%TF.FileFunction,Copper,L3,Inr*%
%TF.FilePolarity,Positive*%
%FSLAX46Y46*%
G04 Gerber Fmt 4.6, Leading zero omitted, Abs format (unit mm)*
G04 Created by KiCad (PCBNEW 8.0.7) date 2025-01-01 16:00:03*
%MOMM*%
%LPD*%
G01*
G04 APERTURE LIST*
%TA.AperFunction,HeatsinkPad*%
%ADD10C,0.600000*%
%TD*%
%TA.AperFunction,ComponentPad*%
%ADD11R,1.700000X1.700000*%
%TD*%
%TA.AperFunction,ComponentPad*%
%ADD12O,1.700000X1.700000*%
%TD*%
%TA.AperFunction,ComponentPad*%
%ADD13C,2.540000*%
%TD*%
%TA.AperFunction,ComponentPad*%
%ADD14C,1.400000*%
%TD*%
%TA.AperFunction,ComponentPad*%
%ADD15O,1.000000X1.800000*%
%TD*%
%TA.AperFunction,ComponentPad*%
%ADD16O,1.000000X2.100000*%
%TD*%
%TA.AperFunction,ViaPad*%
%ADD17C,0.600000*%
%TD*%
%TA.AperFunction,Conductor*%
%ADD18C,0.200000*%
%TD*%
G04 APERTURE END LIST*
D10*
%TO.N,GND*%
%TO.C,U1*%
X122750000Y-64720000D03*
X122750000Y-66120000D03*
X123450000Y-64020000D03*
X123450000Y-65420000D03*
X123450000Y-66820000D03*
X124150000Y-64720000D03*
X124150000Y-66120000D03*
X124850000Y-64020000D03*
X124850000Y-65420000D03*
X124850000Y-66820000D03*
X125550000Y-64720000D03*
X125550000Y-66120000D03*
%TD*%
D11*
%TO.N,UART_RX*%
%TO.C,J6*%
X102000000Y-137920000D03*
D12*
%TO.N,UART_TX*%
X102000000Y-140460000D03*
%TO.N,GND*%
X102000000Y-143000000D03*
%TD*%
D13*
%TO.N,ENCA*%
%TO.C,Enc1*%
X126547809Y-121452191D03*
%TO.N,ENCB*%
X126547809Y-134547809D03*
%TO.N,GND*%
X113452191Y-134547809D03*
X116747309Y-111920392D03*
%TO.N,SW1*%
X118889842Y-126889842D03*
%TO.N,SW2*%
X127749890Y-112896199D03*
%TO.N,SW3*%
X136150319Y-131606245D03*
%TO.N,SW4*%
X112250110Y-143103801D03*
%TO.N,SW5*%
X103849681Y-124393755D03*
%TD*%
D14*
%TO.N,Net-(BT1-+)*%
%TO.C,BAT*%
X133500000Y-142500000D03*
%TO.N,GND*%
X136040000Y-142500000D03*
%TD*%
D15*
%TO.N,GND*%
%TO.C,J2*%
X124320000Y-148075000D03*
D16*
X124320000Y-143875000D03*
D15*
X115680000Y-148075000D03*
D16*
X115680000Y-143875000D03*
%TD*%
D17*
%TO.N,+3.3V*%
X113000000Y-70900000D03*
X115175000Y-50800000D03*
X116525000Y-105475000D03*
%TO.N,HOLD*%
X115800000Y-67860000D03*
X103400000Y-62200000D03*
%TO.N,+3.3V*%
X138250000Y-94750000D03*
%TO.N,GND*%
X131000000Y-79500000D03*
%TO.N,+3.3V*%
X133750000Y-80000000D03*
%TO.N,GND*%
X123250000Y-87750000D03*
X116750000Y-87500000D03*
%TO.N,+3.3V*%
X118250000Y-91325000D03*
%TO.N,Net-(J4-Pin_10)*%
X118184662Y-89588867D03*
%TO.N,+3.3V*%
X109325000Y-94500000D03*
X102000000Y-83250000D03*
X112000000Y-79850000D03*
%TO.N,USB_D+*%
X115750000Y-74210000D03*
%TO.N,USB_D-*%
X115750000Y-72940000D03*
%TO.N,+3.3V*%
X112480955Y-65675000D03*
%TO.N,Net-(RST1-B)*%
X126500000Y-79500000D03*
X113250000Y-67250000D03*
%TO.N,SW2*%
X133250000Y-67860000D03*
%TO.N,SW4*%
X133250000Y-65320000D03*
%TO.N,ENCA*%
X133250000Y-60240000D03*
%TO.N,SW3*%
X133250000Y-66590000D03*
%TO.N,SW5*%
X133250000Y-64050000D03*
%TO.N,ENCB*%
X133250000Y-58970000D03*
%TO.N,SW1*%
X133250000Y-69130000D03*
%TO.N,SD_CMD*%
X133750000Y-85325000D03*
X133250000Y-73000000D03*
%TO.N,SD_D0*%
X130750000Y-85325000D03*
X133250000Y-70400000D03*
%TO.N,SD_CLK*%
X132263349Y-85325000D03*
X133250000Y-71670000D03*
%TO.N,USB_D+*%
X120500000Y-141500000D03*
%TO.N,USB_D-*%
X119500000Y-141500000D03*
%TO.N,TFT_DC*%
X127555000Y-76750000D03*
%TO.N,TFT_RST*%
X118665000Y-76750000D03*
%TO.N,TFT_CS*%
X128825000Y-76750000D03*
%TO.N,TFT_SDA*%
X123750000Y-76750000D03*
%TO.N,Net-(J4-Pin_11)*%
X116950000Y-82500000D03*
%TO.N,TFT_SCLK*%
X125000000Y-76750000D03*
%TO.N,UART_RX*%
X133250000Y-62780000D03*
%TO.N,UART_TX*%
X133250000Y-61510000D03*
%TO.N,I2S_SCLK*%
X115750000Y-65320000D03*
X109500000Y-76200000D03*
%TO.N,I2S_LRCLK*%
X115750000Y-62780000D03*
X109467984Y-74555324D03*
%TO.N,I2S_SD*%
X115750000Y-64050000D03*
X109500000Y-75400000D03*
%TO.N,+3.3V*%
X134000000Y-82750000D03*
%TD*%
D18*
%TO.N,UART_RX*%
X102000000Y-137920000D02*
X104104314Y-137920000D01*
X127315686Y-146500000D02*
X134400000Y-139415686D01*
X104104314Y-137920000D02*
X112684314Y-146500000D01*
X112684314Y-146500000D02*
X127315686Y-146500000D01*
X134400000Y-139415686D02*
X134400000Y-130165686D01*
X135500000Y-129065686D02*
X135500000Y-85500000D01*
X134400000Y-130165686D02*
X135500000Y-129065686D01*
X132000000Y-82000000D02*
X132000000Y-64030000D01*
X135500000Y-85500000D02*
X132000000Y-82000000D01*
X132000000Y-64030000D02*
X133250000Y-62780000D01*
%TO.N,HOLD*%
X103400000Y-62200000D02*
X109854484Y-62200000D01*
X109854484Y-62200000D02*
X115514484Y-67860000D01*
X115514484Y-67860000D02*
X115800000Y-67860000D01*
%TO.N,Net-(RST1-B)*%
X126500000Y-79500000D02*
X125651471Y-79500000D01*
X125651471Y-79500000D02*
X113401471Y-67250000D01*
X113401471Y-67250000D02*
X113250000Y-67250000D01*
%TO.N,USB_D-*%
X119500000Y-141500000D02*
X119500000Y-141136397D01*
X114727329Y-131354005D02*
X114727329Y-111083688D01*
X114727329Y-111083688D02*
X115300000Y-110511017D01*
X119500000Y-141136397D02*
X115300000Y-136936397D01*
X115300000Y-73390000D02*
X115750000Y-72940000D01*
X115300000Y-136936397D02*
X115300000Y-131926676D01*
X115300000Y-74608529D02*
X115150000Y-74458529D01*
X115300000Y-131926676D02*
X114727329Y-131354005D01*
X115150000Y-74458529D02*
X115150000Y-73961471D01*
X115300000Y-110511017D02*
X115300000Y-74608529D01*
X115150000Y-73961471D02*
X115300000Y-73811471D01*
X115300000Y-73811471D02*
X115300000Y-73390000D01*
%TO.N,USB_D+*%
X115177309Y-131167617D02*
X115177309Y-111270076D01*
X115750000Y-110697385D02*
X115750000Y-74210000D01*
X115177309Y-111270076D02*
X115750000Y-110697385D01*
X115750000Y-131740308D02*
X115177309Y-131167617D01*
X115750000Y-136750000D02*
X115750000Y-131740308D01*
X120500000Y-141500000D02*
X115750000Y-136750000D01*
%TO.N,UART_TX*%
X102000000Y-140460000D02*
X100850000Y-139310000D01*
X131600000Y-63160000D02*
X133250000Y-61510000D01*
X100850000Y-139310000D02*
X100850000Y-136900000D01*
X134000000Y-130000000D02*
X135100000Y-128900000D01*
X135100000Y-85826470D02*
X131600000Y-82326470D01*
X100850000Y-136900000D02*
X101000000Y-136750000D01*
X101000000Y-136750000D02*
X103500000Y-136750000D01*
X135100000Y-128900000D02*
X135100000Y-85826470D01*
X103500000Y-136750000D02*
X112750000Y-146000000D01*
X112750000Y-146000000D02*
X127250000Y-146000000D01*
X127250000Y-146000000D02*
X134000000Y-139250000D01*
X134000000Y-139250000D02*
X134000000Y-130000000D01*
X131600000Y-82326470D02*
X131600000Y-63160000D01*
%TD*%
%TA.AperFunction,Conductor*%
%TO.N,GND*%
G36*
X103871256Y-138540185D02*
G01*
X103891898Y-138556819D01*
X112199453Y-146864374D01*
X112199463Y-146864385D01*
X112203793Y-146868715D01*
X112203794Y-146868716D01*
X112315598Y-146980520D01*
X112315600Y-146980521D01*
X112315604Y-146980524D01*
X112428388Y-147045639D01*
X112452530Y-147059577D01*
X112564333Y-147089534D01*
X112605256Y-147100500D01*
X112605257Y-147100500D01*
X114649994Y-147100500D01*
X114717033Y-147120185D01*
X114762788Y-147172989D01*
X114772732Y-147242147D01*
X114764555Y-147271953D01*
X114718429Y-147383310D01*
X114718427Y-147383318D01*
X114680000Y-147576504D01*
X114680000Y-147825000D01*
X115380000Y-147825000D01*
X115380000Y-148325000D01*
X114680000Y-148325000D01*
X114680000Y-148573495D01*
X114718427Y-148766681D01*
X114718430Y-148766693D01*
X114793807Y-148948671D01*
X114793814Y-148948684D01*
X114903248Y-149112462D01*
X114903251Y-149112466D01*
X115042536Y-149251751D01*
X115073437Y-149272398D01*
X115118242Y-149326010D01*
X115126949Y-149395335D01*
X115096795Y-149458362D01*
X115037352Y-149495082D01*
X115004546Y-149499500D01*
X102504067Y-149499500D01*
X102495957Y-149499235D01*
X102247116Y-149482925D01*
X102231035Y-149480807D01*
X101990464Y-149432954D01*
X101974797Y-149428756D01*
X101742520Y-149349909D01*
X101727534Y-149343702D01*
X101507539Y-149235212D01*
X101493492Y-149227102D01*
X101289539Y-149090825D01*
X101276671Y-149080951D01*
X101092250Y-148919218D01*
X101080781Y-148907749D01*
X100919048Y-148723328D01*
X100909174Y-148710460D01*
X100840537Y-148607738D01*
X100772897Y-148506507D01*
X100764787Y-148492460D01*
X100658855Y-148277652D01*
X100656294Y-148272458D01*
X100650090Y-148257479D01*
X100571243Y-148025202D01*
X100567045Y-148009535D01*
X100540781Y-147877497D01*
X100519190Y-147768953D01*
X100517075Y-147752895D01*
X100500765Y-147504043D01*
X100500633Y-147499994D01*
X100994357Y-147499994D01*
X100994357Y-147500005D01*
X101014890Y-147747812D01*
X101014892Y-147747824D01*
X101075936Y-147988881D01*
X101175826Y-148216606D01*
X101311833Y-148424782D01*
X101311836Y-148424785D01*
X101480256Y-148607738D01*
X101676491Y-148760474D01*
X101895190Y-148878828D01*
X102130386Y-148959571D01*
X102375665Y-149000500D01*
X102624335Y-149000500D01*
X102869614Y-148959571D01*
X103104810Y-148878828D01*
X103323509Y-148760474D01*
X103519744Y-148607738D01*
X103688164Y-148424785D01*
X103824173Y-148216607D01*
X103924063Y-147988881D01*
X103985108Y-147747821D01*
X103992613Y-147657250D01*
X104005643Y-147500005D01*
X104005643Y-147499994D01*
X103985109Y-147252187D01*
X103985107Y-147252175D01*
X103924063Y-147011118D01*
X103824173Y-146783393D01*
X103688166Y-146575217D01*
X103666557Y-146551744D01*
X103519744Y-146392262D01*
X103323509Y-146239526D01*
X103323507Y-146239525D01*
X103323506Y-146239524D01*
X103104811Y-146121172D01*
X103104802Y-146121169D01*
X102869616Y-146040429D01*
X102624335Y-145999500D01*
X102375665Y-145999500D01*
X102130383Y-146040429D01*
X101895197Y-146121169D01*
X101895188Y-146121172D01*
X101676493Y-146239524D01*
X101480257Y-146392261D01*
X101311833Y-146575217D01*
X101175826Y-146783393D01*
X101075936Y-147011118D01*
X101014892Y-147252175D01*
X101014890Y-147252187D01*
X100994357Y-147499994D01*
X100500633Y-147499994D01*
X100500500Y-147495933D01*
X100500500Y-143538011D01*
X100520185Y-143470972D01*
X100572989Y-143425217D01*
X100642147Y-143415273D01*
X100705703Y-143444298D01*
X100736882Y-143485606D01*
X100826399Y-143677578D01*
X100961894Y-143871082D01*
X101128917Y-144038105D01*
X101322421Y-144173600D01*
X101536507Y-144273429D01*
X101536516Y-144273433D01*
X101750000Y-144330634D01*
X101750000Y-143433012D01*
X101807007Y-143465925D01*
X101934174Y-143500000D01*
X102065826Y-143500000D01*
X102192993Y-143465925D01*
X102250000Y-143433012D01*
X102250000Y-144330633D01*
X102463483Y-144273433D01*
X102463492Y-144273429D01*
X102677578Y-144173600D01*
X102871082Y-144038105D01*
X103038105Y-143871082D01*
X103173600Y-143677578D01*
X103273429Y-143463492D01*
X103273432Y-143463486D01*
X103330636Y-143250000D01*
X102433012Y-143250000D01*
X102465925Y-143192993D01*
X102500000Y-143065826D01*
X102500000Y-142934174D01*
X102465925Y-142807007D01*
X102433012Y-142750000D01*
X103330636Y-142750000D01*
X103330635Y-142749999D01*
X103273432Y-142536513D01*
X103273429Y-142536507D01*
X103173600Y-142322422D01*
X103173599Y-142322420D01*
X103038113Y-142128926D01*
X103038108Y-142128920D01*
X102871078Y-141961890D01*
X102685405Y-141831879D01*
X102641780Y-141777302D01*
X102634588Y-141707804D01*
X102666110Y-141645449D01*
X102685406Y-141628730D01*
X102774704Y-141566203D01*
X102871401Y-141498495D01*
X103038495Y-141331401D01*
X103174035Y-141137830D01*
X103273903Y-140923663D01*
X103335063Y-140695408D01*
X103355659Y-140460000D01*
X103335063Y-140224592D01*
X103273903Y-139996337D01*
X103174035Y-139782171D01*
X103101607Y-139678733D01*
X103038496Y-139588600D01*
X103038495Y-139588599D01*
X102916567Y-139466671D01*
X102883084Y-139405351D01*
X102888068Y-139335659D01*
X102929939Y-139279725D01*
X102960915Y-139262810D01*
X103092331Y-139213796D01*
X103207546Y-139127546D01*
X103293796Y-139012331D01*
X103344091Y-138877483D01*
X103350500Y-138817873D01*
X103350500Y-138644500D01*
X103370185Y-138577461D01*
X103422989Y-138531706D01*
X103474500Y-138520500D01*
X103804217Y-138520500D01*
X103871256Y-138540185D01*
G37*
%TD.AperFunction*%
%TA.AperFunction,Conductor*%
G36*
X123357033Y-147120185D02*
G01*
X123402788Y-147172989D01*
X123412732Y-147242147D01*
X123404555Y-147271953D01*
X123358429Y-147383310D01*
X123358427Y-147383318D01*
X123320000Y-147576504D01*
X123320000Y-147825000D01*
X124020000Y-147825000D01*
X124020000Y-148325000D01*
X123320000Y-148325000D01*
X123320000Y-148573495D01*
X123358427Y-148766681D01*
X123358430Y-148766693D01*
X123433807Y-148948671D01*
X123433814Y-148948684D01*
X123543248Y-149112462D01*
X123543251Y-149112466D01*
X123682536Y-149251751D01*
X123713437Y-149272398D01*
X123758242Y-149326010D01*
X123766949Y-149395335D01*
X123736795Y-149458362D01*
X123677352Y-149495082D01*
X123644546Y-149499500D01*
X116355454Y-149499500D01*
X116288415Y-149479815D01*
X116242660Y-149427011D01*
X116232716Y-149357853D01*
X116261741Y-149294297D01*
X116286563Y-149272398D01*
X116317463Y-149251751D01*
X116456748Y-149112466D01*
X116456751Y-149112462D01*
X116566185Y-148948684D01*
X116566192Y-148948671D01*
X116641569Y-148766693D01*
X116641572Y-148766681D01*
X116679999Y-148573495D01*
X116680000Y-148573492D01*
X116680000Y-148325000D01*
X115980000Y-148325000D01*
X115980000Y-147825000D01*
X116680000Y-147825000D01*
X116680000Y-147576508D01*
X116679999Y-147576504D01*
X116641572Y-147383318D01*
X116641570Y-147383310D01*
X116595445Y-147271953D01*
X116587976Y-147202483D01*
X116619251Y-147140004D01*
X116679340Y-147104352D01*
X116710006Y-147100500D01*
X123289994Y-147100500D01*
X123357033Y-147120185D01*
G37*
%TD.AperFunction*%
%TA.AperFunction,Conductor*%
G36*
X114331463Y-50520185D02*
G01*
X114377218Y-50572989D01*
X114387644Y-50638383D01*
X114369435Y-50799996D01*
X114369435Y-50800003D01*
X114389630Y-50979249D01*
X114389631Y-50979254D01*
X114449211Y-51149523D01*
X114505763Y-51239524D01*
X114545184Y-51302262D01*
X114672738Y-51429816D01*
X114825478Y-51525789D01*
X114966735Y-51575217D01*
X114995745Y-51585368D01*
X114995750Y-51585369D01*
X115174996Y-51605565D01*
X115175000Y-51605565D01*
X115175004Y-51605565D01*
X115354249Y-51585369D01*
X115354252Y-51585368D01*
X115354255Y-51585368D01*
X115524522Y-51525789D01*
X115677262Y-51429816D01*
X115804816Y-51302262D01*
X115900789Y-51149522D01*
X115960368Y-50979255D01*
X115967152Y-50919048D01*
X115980565Y-50800003D01*
X115980565Y-50799996D01*
X115962356Y-50638383D01*
X115974411Y-50569561D01*
X116021760Y-50518182D01*
X116085576Y-50500500D01*
X137434108Y-50500500D01*
X137495933Y-50500500D01*
X137504043Y-50500765D01*
X137752895Y-50517075D01*
X137768953Y-50519190D01*
X137976105Y-50560395D01*
X138009535Y-50567045D01*
X138025202Y-50571243D01*
X138171031Y-50620745D01*
X138257481Y-50650091D01*
X138272458Y-50656294D01*
X138481799Y-50759529D01*
X138492460Y-50764787D01*
X138506508Y-50772897D01*
X138710464Y-50909177D01*
X138723328Y-50919048D01*
X138907749Y-51080781D01*
X138919218Y-51092250D01*
X139080951Y-51276671D01*
X139090825Y-51289539D01*
X139227102Y-51493492D01*
X139235212Y-51507539D01*
X139343702Y-51727534D01*
X139349909Y-51742520D01*
X139428756Y-51974797D01*
X139432954Y-51990464D01*
X139480807Y-52231035D01*
X139482925Y-52247116D01*
X139499235Y-52495956D01*
X139499500Y-52504066D01*
X139499500Y-147495933D01*
X139499235Y-147504043D01*
X139482925Y-147752883D01*
X139480807Y-147768964D01*
X139432954Y-148009535D01*
X139428756Y-148025202D01*
X139349909Y-148257479D01*
X139343702Y-148272465D01*
X139235212Y-148492460D01*
X139227102Y-148506507D01*
X139090825Y-148710460D01*
X139080951Y-148723328D01*
X138919218Y-148907749D01*
X138907749Y-148919218D01*
X138723328Y-149080951D01*
X138710460Y-149090825D01*
X138506507Y-149227102D01*
X138492460Y-149235212D01*
X138272465Y-149343702D01*
X138257479Y-149349909D01*
X138025202Y-149428756D01*
X138009535Y-149432954D01*
X137768964Y-149480807D01*
X137752883Y-149482925D01*
X137504043Y-149499235D01*
X137495933Y-149499500D01*
X124995454Y-149499500D01*
X124928415Y-149479815D01*
X124882660Y-149427011D01*
X124872716Y-149357853D01*
X124901741Y-149294297D01*
X124926563Y-149272398D01*
X124957463Y-149251751D01*
X125096748Y-149112466D01*
X125096751Y-149112462D01*
X125206185Y-148948684D01*
X125206192Y-148948671D01*
X125281569Y-148766693D01*
X125281572Y-148766681D01*
X125319999Y-148573495D01*
X125320000Y-148573492D01*
X125320000Y-148325000D01*
X124620000Y-148325000D01*
X124620000Y-147825000D01*
X125320000Y-147825000D01*
X125320000Y-147576508D01*
X125319999Y-147576504D01*
X125304780Y-147499994D01*
X135994357Y-147499994D01*
X135994357Y-147500005D01*
X136014890Y-147747812D01*
X136014892Y-147747824D01*
X136075936Y-147988881D01*
X136175826Y-148216606D01*
X136311833Y-148424782D01*
X136311836Y-148424785D01*
X136480256Y-148607738D01*
X136676491Y-148760474D01*
X136895190Y-148878828D01*
X137130386Y-148959571D01*
X137375665Y-149000500D01*
X137624335Y-149000500D01*
X137869614Y-148959571D01*
X138104810Y-148878828D01*
X138323509Y-148760474D01*
X138519744Y-148607738D01*
X138688164Y-148424785D01*
X138824173Y-148216607D01*
X138924063Y-147988881D01*
X138985108Y-147747821D01*
X138992613Y-147657250D01*
X139005643Y-147500005D01*
X139005643Y-147499994D01*
X138985109Y-147252187D01*
X138985107Y-147252175D01*
X138924063Y-147011118D01*
X138824173Y-146783393D01*
X138688166Y-146575217D01*
X138666557Y-146551744D01*
X138519744Y-146392262D01*
X138323509Y-146239526D01*
X138323507Y-146239525D01*
X138323506Y-146239524D01*
X138104811Y-146121172D01*
X138104802Y-146121169D01*
X137869616Y-146040429D01*
X137624335Y-145999500D01*
X137375665Y-145999500D01*
X137130383Y-146040429D01*
X136895197Y-146121169D01*
X136895188Y-146121172D01*
X136676493Y-146239524D01*
X136480257Y-146392261D01*
X136311833Y-146575217D01*
X136175826Y-146783393D01*
X136075936Y-147011118D01*
X136014892Y-147252175D01*
X136014890Y-147252187D01*
X135994357Y-147499994D01*
X125304780Y-147499994D01*
X125281572Y-147383318D01*
X125281570Y-147383310D01*
X125235445Y-147271953D01*
X125227976Y-147202483D01*
X125259251Y-147140004D01*
X125319340Y-147104352D01*
X125350006Y-147100500D01*
X127229017Y-147100500D01*
X127229033Y-147100501D01*
X127236629Y-147100501D01*
X127394740Y-147100501D01*
X127394743Y-147100501D01*
X127547471Y-147059577D01*
X127640989Y-147005584D01*
X127684402Y-146980520D01*
X127796206Y-146868716D01*
X127796206Y-146868714D01*
X127806410Y-146858511D01*
X127806414Y-146858506D01*
X132096602Y-142568317D01*
X132157923Y-142534834D01*
X132227615Y-142539818D01*
X132283548Y-142581690D01*
X132307752Y-142644559D01*
X132314884Y-142721535D01*
X132314885Y-142721537D01*
X132375769Y-142935523D01*
X132375775Y-142935538D01*
X132474938Y-143134683D01*
X132474943Y-143134691D01*
X132609020Y-143312238D01*
X132773437Y-143462123D01*
X132773439Y-143462125D01*
X132962595Y-143579245D01*
X132962596Y-143579245D01*
X132962599Y-143579247D01*
X133170060Y-143659618D01*
X133388757Y-143700500D01*
X133388759Y-143700500D01*
X133611241Y-143700500D01*
X133611243Y-143700500D01*
X133829940Y-143659618D01*
X134037401Y-143579247D01*
X134226562Y-143462124D01*
X134390981Y-143312236D01*
X134525058Y-143134689D01*
X134540437Y-143103805D01*
X134624224Y-142935538D01*
X134624223Y-142935538D01*
X134624229Y-142935528D01*
X134650995Y-142841455D01*
X134688272Y-142782367D01*
X134751581Y-142752809D01*
X134820821Y-142762171D01*
X134874007Y-142807480D01*
X134889525Y-142841460D01*
X134916236Y-142935342D01*
X134916239Y-142935348D01*
X135015364Y-143134419D01*
X135015366Y-143134421D01*
X135031138Y-143155306D01*
X135640000Y-142546445D01*
X135640000Y-142552661D01*
X135667259Y-142654394D01*
X135719920Y-142745606D01*
X135794394Y-142820080D01*
X135885606Y-142872741D01*
X135987339Y-142900000D01*
X135993554Y-142900000D01*
X135386671Y-143506880D01*
X135502823Y-143578798D01*
X135502824Y-143578799D01*
X135710195Y-143659134D01*
X135928807Y-143700000D01*
X136151193Y-143700000D01*
X136369804Y-143659134D01*
X136577177Y-143578798D01*
X136577178Y-143578797D01*
X136693327Y-143506880D01*
X136086447Y-142900000D01*
X136092661Y-142900000D01*
X136194394Y-142872741D01*
X136285606Y-142820080D01*
X136360080Y-142745606D01*
X136412741Y-142654394D01*
X136440000Y-142552661D01*
X136440000Y-142546446D01*
X137048860Y-143155306D01*
X137048861Y-143155306D01*
X137064631Y-143134425D01*
X137064632Y-143134422D01*
X137163759Y-142935350D01*
X137224621Y-142721439D01*
X137245141Y-142500000D01*
X137245141Y-142499999D01*
X137224621Y-142278560D01*
X137163759Y-142064649D01*
X137064633Y-141865577D01*
X137064631Y-141865574D01*
X137048860Y-141844691D01*
X136440000Y-142453552D01*
X136440000Y-142447339D01*
X136412741Y-142345606D01*
X136360080Y-142254394D01*
X136285606Y-142179920D01*
X136194394Y-142127259D01*
X136092661Y-142100000D01*
X136086447Y-142100000D01*
X136693327Y-141493118D01*
X136693326Y-141493117D01*
X136577181Y-141421203D01*
X136577175Y-141421200D01*
X136369804Y-141340865D01*
X136151193Y-141300000D01*
X135928807Y-141300000D01*
X135710195Y-141340865D01*
X135502824Y-141421200D01*
X135502818Y-141421204D01*
X135386672Y-141493117D01*
X135386671Y-141493118D01*
X135993554Y-142100000D01*
X135987339Y-142100000D01*
X135885606Y-142127259D01*
X135794394Y-142179920D01*
X135719920Y-142254394D01*
X135667259Y-142345606D01*
X135640000Y-142447339D01*
X135640000Y-142453553D01*
X135031138Y-141844691D01*
X135031137Y-141844691D01*
X135015369Y-141865571D01*
X134916239Y-142064651D01*
X134916237Y-142064655D01*
X134889525Y-142158540D01*
X134852246Y-142217633D01*
X134788936Y-142247190D01*
X134719697Y-142237828D01*
X134666510Y-142192518D01*
X134650994Y-142158541D01*
X134624229Y-142064472D01*
X134593252Y-142002262D01*
X134525061Y-141865316D01*
X134525056Y-141865308D01*
X134390979Y-141687761D01*
X134226562Y-141537876D01*
X134226560Y-141537874D01*
X134037404Y-141420754D01*
X134037398Y-141420752D01*
X133829940Y-141340382D01*
X133635373Y-141304010D01*
X133573093Y-141272342D01*
X133537820Y-141212030D01*
X133540754Y-141142222D01*
X133570476Y-141094443D01*
X134758506Y-139906414D01*
X134758511Y-139906410D01*
X134768714Y-139896206D01*
X134768716Y-139896206D01*
X134880520Y-139784402D01*
X134883473Y-139779286D01*
X134941528Y-139678733D01*
X134941531Y-139678724D01*
X134941537Y-139678716D01*
X134959577Y-139647471D01*
X135000501Y-139494743D01*
X135000501Y-139336629D01*
X135000501Y-139329034D01*
X135000500Y-139329016D01*
X135000500Y-133199774D01*
X135020185Y-133132735D01*
X135072989Y-133086980D01*
X135142147Y-133077036D01*
X135194351Y-133097320D01*
X135262587Y-133143843D01*
X135501669Y-133258979D01*
X135755241Y-133337195D01*
X135755242Y-133337195D01*
X135755245Y-133337196D01*
X136017630Y-133376744D01*
X136017635Y-133376744D01*
X136017638Y-133376745D01*
X136017639Y-133376745D01*
X136282999Y-133376745D01*
X136283000Y-133376745D01*
X136283007Y-133376744D01*
X136545392Y-133337196D01*
X136545393Y-133337195D01*
X136545397Y-133337195D01*
X136798969Y-133258979D01*
X137038052Y-133143843D01*
X137257303Y-132994359D01*
X137451827Y-132813868D01*
X137617277Y-132606400D01*
X137749958Y-132376590D01*
X137846905Y-132129572D01*
X137905954Y-131870864D01*
X137908148Y-131841595D01*
X137925784Y-131606246D01*
X137925784Y-131606240D01*
X137905955Y-131341635D01*
X137905954Y-131341630D01*
X137905954Y-131341626D01*
X137846905Y-131082918D01*
X137749958Y-130835900D01*
X137617277Y-130606090D01*
X137451827Y-130398622D01*
X137257303Y-130218131D01*
X137189423Y-130171851D01*
X137038055Y-130068649D01*
X137038044Y-130068642D01*
X136798974Y-129953513D01*
X136798955Y-129953506D01*
X136545402Y-129875296D01*
X136545392Y-129875293D01*
X136283007Y-129835745D01*
X136283000Y-129835745D01*
X136017638Y-129835745D01*
X136017630Y-129835745D01*
X135873980Y-129857397D01*
X135804755Y-129847924D01*
X135751642Y-129802529D01*
X135731502Y-129735625D01*
X135750730Y-129668453D01*
X135767813Y-129647106D01*
X135868713Y-129546207D01*
X135868716Y-129546206D01*
X135980520Y-129434402D01*
X136030639Y-129347590D01*
X136059577Y-129297471D01*
X136100501Y-129144743D01*
X136100501Y-128986629D01*
X136100501Y-128979034D01*
X136100500Y-128979016D01*
X136100500Y-94749996D01*
X137444435Y-94749996D01*
X137444435Y-94750003D01*
X137464630Y-94929249D01*
X137464631Y-94929254D01*
X137524211Y-95099523D01*
X137603549Y-95225788D01*
X137620184Y-95252262D01*
X137747738Y-95379816D01*
X137900478Y-95475789D01*
X138070745Y-95535368D01*
X138070750Y-95535369D01*
X138249996Y-95555565D01*
X138250000Y-95555565D01*
X138250004Y-95555565D01*
X138429249Y-95535369D01*
X138429252Y-95535368D01*
X138429255Y-95535368D01*
X138599522Y-95475789D01*
X138752262Y-95379816D01*
X138879816Y-95252262D01*
X138975789Y-95099522D01*
X139035368Y-94929255D01*
X139055565Y-94750000D01*
X139047593Y-94679249D01*
X139035369Y-94570750D01*
X139035368Y-94570745D01*
X138975788Y-94400476D01*
X138936582Y-94338080D01*
X138879816Y-94247738D01*
X138752262Y-94120184D01*
X138599523Y-94024211D01*
X138429254Y-93964631D01*
X138429249Y-93964630D01*
X138250004Y-93944435D01*
X138249996Y-93944435D01*
X138070750Y-93964630D01*
X138070745Y-93964631D01*
X137900476Y-94024211D01*
X137747737Y-94120184D01*
X137620184Y-94247737D01*
X137524211Y-94400476D01*
X137464631Y-94570745D01*
X137464630Y-94570750D01*
X137444435Y-94749996D01*
X136100500Y-94749996D01*
X136100500Y-85420945D01*
X136100500Y-85420943D01*
X136059577Y-85268216D01*
X135988869Y-85145745D01*
X135980524Y-85131290D01*
X135980521Y-85131286D01*
X135980520Y-85131284D01*
X135868716Y-85019480D01*
X135868715Y-85019479D01*
X135864385Y-85015149D01*
X135864374Y-85015139D01*
X134444425Y-83595190D01*
X134410940Y-83533867D01*
X134415924Y-83464175D01*
X134457796Y-83408242D01*
X134466122Y-83402524D01*
X134502262Y-83379816D01*
X134629816Y-83252262D01*
X134725789Y-83099522D01*
X134785368Y-82929255D01*
X134785369Y-82929249D01*
X134805565Y-82750003D01*
X134805565Y-82749996D01*
X134785369Y-82570750D01*
X134785368Y-82570745D01*
X134732139Y-82418625D01*
X134725789Y-82400478D01*
X134629816Y-82247738D01*
X134502262Y-82120184D01*
X134424849Y-82071542D01*
X134349523Y-82024211D01*
X134179254Y-81964631D01*
X134179249Y-81964630D01*
X134000004Y-81944435D01*
X133999996Y-81944435D01*
X133820750Y-81964630D01*
X133820745Y-81964631D01*
X133650476Y-82024211D01*
X133497737Y-82120184D01*
X133370184Y-82247737D01*
X133347484Y-82283865D01*
X133295149Y-82330156D01*
X133226095Y-82340804D01*
X133162247Y-82312429D01*
X133154809Y-82305574D01*
X132636819Y-81787584D01*
X132603334Y-81726261D01*
X132600500Y-81699903D01*
X132600500Y-81693995D01*
X137549499Y-81693995D01*
X137576418Y-81829322D01*
X137576421Y-81829332D01*
X137629221Y-81956804D01*
X137629228Y-81956817D01*
X137705885Y-82071541D01*
X137705888Y-82071545D01*
X137803454Y-82169111D01*
X137803458Y-82169114D01*
X137918182Y-82245771D01*
X137918195Y-82245778D01*
X138045667Y-82298578D01*
X138045672Y-82298580D01*
X138045676Y-82298580D01*
X138045677Y-82298581D01*
X138181004Y-82325500D01*
X138181007Y-82325500D01*
X138318995Y-82325500D01*
X138419167Y-82305574D01*
X138454328Y-82298580D01*
X138581811Y-82245775D01*
X138696542Y-82169114D01*
X138794114Y-82071542D01*
X138870775Y-81956811D01*
X138923580Y-81829328D01*
X138939108Y-81751265D01*
X138950500Y-81693995D01*
X138950500Y-81556004D01*
X138923581Y-81420677D01*
X138923580Y-81420676D01*
X138923580Y-81420672D01*
X138923578Y-81420667D01*
X138870778Y-81293195D01*
X138870771Y-81293182D01*
X138794114Y-81178458D01*
X138794111Y-81178454D01*
X138696545Y-81080888D01*
X138696541Y-81080885D01*
X138581817Y-81004228D01*
X138581804Y-81004221D01*
X138454332Y-80951421D01*
X138454322Y-80951418D01*
X138318995Y-80924500D01*
X138318993Y-80924500D01*
X138181007Y-80924500D01*
X138181005Y-80924500D01*
X138045677Y-80951418D01*
X138045667Y-80951421D01*
X137918195Y-81004221D01*
X137918182Y-81004228D01*
X137803458Y-81080885D01*
X137803454Y-81080888D01*
X137705888Y-81178454D01*
X137705885Y-81178458D01*
X137629228Y-81293182D01*
X137629221Y-81293195D01*
X137576421Y-81420667D01*
X137576418Y-81420677D01*
X137549500Y-81556004D01*
X137549500Y-81556007D01*
X137549500Y-81693993D01*
X137549500Y-81693995D01*
X137549499Y-81693995D01*
X132600500Y-81693995D01*
X132600500Y-79999996D01*
X132944435Y-79999996D01*
X132944435Y-80000003D01*
X132964630Y-80179249D01*
X132964631Y-80179254D01*
X133024211Y-80349523D01*
X133106080Y-80479815D01*
X133120184Y-80502262D01*
X133247738Y-80629816D01*
X133400478Y-80725789D01*
X133570745Y-80785368D01*
X133570750Y-80785369D01*
X133749996Y-80805565D01*
X133750000Y-80805565D01*
X133750004Y-80805565D01*
X133929249Y-80785369D01*
X133929252Y-80785368D01*
X133929255Y-80785368D01*
X134099522Y-80725789D01*
X134252262Y-80629816D01*
X134379816Y-80502262D01*
X134475789Y-80349522D01*
X134535368Y-80179255D01*
X134535369Y-80179249D01*
X134555565Y-80000003D01*
X134555565Y-79999996D01*
X134535369Y-79820750D01*
X134535368Y-79820745D01*
X134475789Y-79650478D01*
X134379816Y-79497738D01*
X134252262Y-79370184D01*
X134099523Y-79274211D01*
X133929254Y-79214631D01*
X133929249Y-79214630D01*
X133750004Y-79194435D01*
X133749996Y-79194435D01*
X133570750Y-79214630D01*
X133570745Y-79214631D01*
X133400476Y-79274211D01*
X133247737Y-79370184D01*
X133120184Y-79497737D01*
X133024211Y-79650476D01*
X132964631Y-79820745D01*
X132964630Y-79820750D01*
X132944435Y-79999996D01*
X132600500Y-79999996D01*
X132600500Y-75943995D01*
X137549499Y-75943995D01*
X137576418Y-76079322D01*
X137576421Y-76079332D01*
X137629221Y-76206804D01*
X137629228Y-76206817D01*
X137705885Y-76321541D01*
X137705888Y-76321545D01*
X137803454Y-76419111D01*
X137803458Y-76419114D01*
X137918182Y-76495771D01*
X137918186Y-76495773D01*
X137918189Y-76495775D01*
X137930114Y-76500714D01*
X137953590Y-76510439D01*
X138007994Y-76554280D01*
X138030058Y-76620575D01*
X138012778Y-76688274D01*
X137961641Y-76735884D01*
X137953590Y-76739561D01*
X137918192Y-76754223D01*
X137918182Y-76754228D01*
X137803458Y-76830885D01*
X137803454Y-76830888D01*
X137705888Y-76928454D01*
X137705885Y-76928458D01*
X137629228Y-77043182D01*
X137629221Y-77043195D01*
X137576421Y-77170667D01*
X137576418Y-77170677D01*
X137549500Y-77306004D01*
X137549500Y-77306007D01*
X137549500Y-77443993D01*
X137549500Y-77443995D01*
X137549499Y-77443995D01*
X137576418Y-77579322D01*
X137576421Y-77579332D01*
X137629221Y-77706804D01*
X137629228Y-77706817D01*
X137705885Y-77821541D01*
X137705888Y-77821545D01*
X137803454Y-77919111D01*
X137803458Y-77919114D01*
X137918182Y-77995771D01*
X137918195Y-77995778D01*
X138045667Y-78048578D01*
X138045672Y-78048580D01*
X138045676Y-78048580D01*
X138045677Y-78048581D01*
X138181004Y-78075500D01*
X138181007Y-78075500D01*
X138318995Y-78075500D01*
X138410041Y-78057389D01*
X138454328Y-78048580D01*
X138581811Y-77995775D01*
X138696542Y-77919114D01*
X138794114Y-77821542D01*
X138870775Y-77706811D01*
X138923580Y-77579328D01*
X138932389Y-77535041D01*
X138950500Y-77443995D01*
X138950500Y-77306004D01*
X138923581Y-77170677D01*
X138923580Y-77170676D01*
X138923580Y-77170672D01*
X138923578Y-77170667D01*
X138870778Y-77043195D01*
X138870771Y-77043182D01*
X138794114Y-76928458D01*
X138794111Y-76928454D01*
X138696545Y-76830888D01*
X138696541Y-76830885D01*
X138581817Y-76754228D01*
X138581804Y-76754221D01*
X138546410Y-76739561D01*
X138492006Y-76695720D01*
X138469941Y-76629426D01*
X138487220Y-76561727D01*
X138538357Y-76514116D01*
X138546410Y-76510439D01*
X138581804Y-76495778D01*
X138581804Y-76495777D01*
X138581811Y-76495775D01*
X138696542Y-76419114D01*
X138794114Y-76321542D01*
X138870775Y-76206811D01*
X138923580Y-76079328D01*
X138950500Y-75943993D01*
X138950500Y-75806007D01*
X138950500Y-75806004D01*
X138923581Y-75670677D01*
X138923580Y-75670676D01*
X138923580Y-75670672D01*
X138885714Y-75579255D01*
X138870778Y-75543195D01*
X138870771Y-75543182D01*
X138794114Y-75428458D01*
X138794111Y-75428454D01*
X138696545Y-75330888D01*
X138696541Y-75330885D01*
X138581817Y-75254228D01*
X138581804Y-75254221D01*
X138454332Y-75201421D01*
X138454322Y-75201418D01*
X138318995Y-75174500D01*
X138318993Y-75174500D01*
X138181007Y-75174500D01*
X138181005Y-75174500D01*
X138045677Y-75201418D01*
X138045667Y-75201421D01*
X137918195Y-75254221D01*
X137918182Y-75254228D01*
X137803458Y-75330885D01*
X137803454Y-75330888D01*
X137705888Y-75428454D01*
X137705885Y-75428458D01*
X137629228Y-75543182D01*
X137629221Y-75543195D01*
X137576421Y-75670667D01*
X137576418Y-75670677D01*
X137549500Y-75806004D01*
X137549500Y-75806007D01*
X137549500Y-75943993D01*
X137549500Y-75943995D01*
X137549499Y-75943995D01*
X132600500Y-75943995D01*
X132600500Y-73761661D01*
X132620185Y-73694622D01*
X132672989Y-73648867D01*
X132742147Y-73638923D01*
X132790473Y-73656668D01*
X132900475Y-73725788D01*
X133070745Y-73785368D01*
X133070750Y-73785369D01*
X133249996Y-73805565D01*
X133250000Y-73805565D01*
X133250004Y-73805565D01*
X133429249Y-73785369D01*
X133429252Y-73785368D01*
X133429255Y-73785368D01*
X133599522Y-73725789D01*
X133752262Y-73629816D01*
X133879816Y-73502262D01*
X133975789Y-73349522D01*
X134035368Y-73179255D01*
X134037739Y-73158214D01*
X134055565Y-73000003D01*
X134055565Y-72999996D01*
X134035369Y-72820750D01*
X134035368Y-72820745D01*
X133975788Y-72650476D01*
X133879815Y-72497737D01*
X133804759Y-72422681D01*
X133771274Y-72361358D01*
X133776258Y-72291666D01*
X133804759Y-72247319D01*
X133837867Y-72214211D01*
X133879816Y-72172262D01*
X133975789Y-72019522D01*
X134035368Y-71849255D01*
X134037613Y-71829332D01*
X134052862Y-71693995D01*
X137549499Y-71693995D01*
X137576418Y-71829322D01*
X137576421Y-71829332D01*
X137629221Y-71956804D01*
X137629228Y-71956817D01*
X137705885Y-72071541D01*
X137705888Y-72071545D01*
X137803454Y-72169111D01*
X137803458Y-72169114D01*
X137918182Y-72245771D01*
X137918195Y-72245778D01*
X138028980Y-72291666D01*
X138045672Y-72298580D01*
X138045676Y-72298580D01*
X138045677Y-72298581D01*
X138181004Y-72325500D01*
X138181007Y-72325500D01*
X138318995Y-72325500D01*
X138410041Y-72307389D01*
X138454328Y-72298580D01*
X138552924Y-72257740D01*
X138581804Y-72245778D01*
X138581804Y-72245777D01*
X138581811Y-72245775D01*
X138696542Y-72169114D01*
X138794114Y-72071542D01*
X138870775Y-71956811D01*
X138923580Y-71829328D01*
X138932389Y-71785041D01*
X138950500Y-71693995D01*
X138950500Y-71556004D01*
X138923581Y-71420677D01*
X138923580Y-71420676D01*
X138923580Y-71420672D01*
X138915954Y-71402262D01*
X138870778Y-71293195D01*
X138870771Y-71293182D01*
X138794114Y-71178458D01*
X138794111Y-71178454D01*
X138696545Y-71080888D01*
X138696541Y-71080885D01*
X138581817Y-71004228D01*
X138581804Y-71004221D01*
X138454332Y-70951421D01*
X138454322Y-70951418D01*
X138318995Y-70924500D01*
X138318993Y-70924500D01*
X138181007Y-70924500D01*
X138181005Y-70924500D01*
X138045677Y-70951418D01*
X138045667Y-70951421D01*
X137918195Y-71004221D01*
X137918182Y-71004228D01*
X137803458Y-71080885D01*
X137803454Y-71080888D01*
X137705888Y-71178454D01*
X137705885Y-71178458D01*
X137629228Y-71293182D01*
X137629221Y-71293195D01*
X137576421Y-71420667D01*
X137576418Y-71420677D01*
X137549500Y-71556004D01*
X137549500Y-71556007D01*
X137549500Y-71693993D01*
X137549500Y-71693995D01*
X137549499Y-71693995D01*
X134052862Y-71693995D01*
X134055565Y-71670003D01*
X134055565Y-71669996D01*
X134035369Y-71490750D01*
X134035368Y-71490745D01*
X133975788Y-71320476D01*
X133879815Y-71167737D01*
X133834759Y-71122681D01*
X133801274Y-71061358D01*
X133806258Y-70991666D01*
X133834759Y-70947319D01*
X133879816Y-70902262D01*
X133975789Y-70749522D01*
X134035368Y-70579255D01*
X134035369Y-70579249D01*
X134055565Y-70400003D01*
X134055565Y-70399996D01*
X134035369Y-70220750D01*
X134035368Y-70220745D01*
X133975788Y-70050476D01*
X133879815Y-69897737D01*
X133834759Y-69852681D01*
X133801274Y-69791358D01*
X133806258Y-69721666D01*
X133834759Y-69677319D01*
X133879816Y-69632262D01*
X133975789Y-69479522D01*
X134035368Y-69309255D01*
X134055565Y-69130000D01*
X134035368Y-68950745D01*
X133975789Y-68780478D01*
X133879816Y-68627738D01*
X133834759Y-68582681D01*
X133801274Y-68521358D01*
X133806258Y-68451666D01*
X133834759Y-68407319D01*
X133879816Y-68362262D01*
X133975789Y-68209522D01*
X134035368Y-68039255D01*
X134042519Y-67975788D01*
X134055565Y-67860003D01*
X134055565Y-67859996D01*
X134035369Y-67680750D01*
X134035368Y-67680745D01*
X133975788Y-67510476D01*
X133924753Y-67429255D01*
X133879816Y-67357738D01*
X133834759Y-67312681D01*
X133801274Y-67251358D01*
X133806258Y-67181666D01*
X133834759Y-67137319D01*
X133837867Y-67134211D01*
X133879816Y-67092262D01*
X133975789Y-66939522D01*
X134035368Y-66769255D01*
X134035369Y-66769249D01*
X134055565Y-66590003D01*
X134055565Y-66589996D01*
X134035369Y-66410750D01*
X134035368Y-66410745D01*
X133975788Y-66240476D01*
X133890894Y-66105369D01*
X133879816Y-66087738D01*
X133834759Y-66042681D01*
X133801274Y-65981358D01*
X133806258Y-65911666D01*
X133834759Y-65867319D01*
X133851578Y-65850500D01*
X133879816Y-65822262D01*
X133975789Y-65669522D01*
X134035368Y-65499255D01*
X134035763Y-65495750D01*
X134055565Y-65320003D01*
X134055565Y-65319996D01*
X134035369Y-65140750D01*
X134035368Y-65140745D01*
X133975788Y-64970476D01*
X133879815Y-64817737D01*
X133834759Y-64772681D01*
X133801274Y-64711358D01*
X133806258Y-64641666D01*
X133834759Y-64597319D01*
X133879816Y-64552262D01*
X133975789Y-64399522D01*
X134035368Y-64229255D01*
X134055565Y-64050000D01*
X134035368Y-63870745D01*
X133975789Y-63700478D01*
X133879816Y-63547738D01*
X133834758Y-63502680D01*
X133801274Y-63441358D01*
X133806258Y-63371666D01*
X133834759Y-63327319D01*
X133879816Y-63282262D01*
X133975789Y-63129522D01*
X134035368Y-62959255D01*
X134035369Y-62959249D01*
X134055565Y-62780003D01*
X134055565Y-62779996D01*
X134035369Y-62600750D01*
X134035368Y-62600745D01*
X133975788Y-62430476D01*
X133879815Y-62277737D01*
X133834759Y-62232681D01*
X133801274Y-62171358D01*
X133806258Y-62101666D01*
X133834759Y-62057319D01*
X133837867Y-62054211D01*
X133879816Y-62012262D01*
X133975789Y-61859522D01*
X134035368Y-61689255D01*
X134035369Y-61689249D01*
X134055565Y-61510003D01*
X134055565Y-61509996D01*
X134035369Y-61330750D01*
X134035368Y-61330745D01*
X133975788Y-61160476D01*
X133879815Y-61007737D01*
X133834759Y-60962681D01*
X133801274Y-60901358D01*
X133806258Y-60831666D01*
X133834759Y-60787319D01*
X133879816Y-60742262D01*
X133975789Y-60589522D01*
X134035368Y-60419255D01*
X134055565Y-60240000D01*
X134045815Y-60153469D01*
X134035369Y-60060750D01*
X134035368Y-60060745D01*
X133975788Y-59890476D01*
X133883491Y-59743587D01*
X133879816Y-59737738D01*
X133834758Y-59692680D01*
X133801274Y-59631358D01*
X133806258Y-59561666D01*
X133834759Y-59517319D01*
X133879816Y-59472262D01*
X133975789Y-59319522D01*
X134035368Y-59149255D01*
X134035369Y-59149249D01*
X134055565Y-58970003D01*
X134055565Y-58969996D01*
X134035369Y-58790750D01*
X134035368Y-58790745D01*
X133975788Y-58620476D01*
X133879815Y-58467737D01*
X133752262Y-58340184D01*
X133599523Y-58244211D01*
X133429254Y-58184631D01*
X133429249Y-58184630D01*
X133250004Y-58164435D01*
X133249996Y-58164435D01*
X133070750Y-58184630D01*
X133070745Y-58184631D01*
X132900476Y-58244211D01*
X132747737Y-58340184D01*
X132620184Y-58467737D01*
X132524211Y-58620476D01*
X132464631Y-58790745D01*
X132464630Y-58790750D01*
X132444435Y-58969996D01*
X132444435Y-58970003D01*
X132464630Y-59149249D01*
X132464631Y-59149254D01*
X132524211Y-59319523D01*
X132620184Y-59472262D01*
X132620185Y-59472263D01*
X132665241Y-59517320D01*
X132698725Y-59578643D01*
X132693740Y-59648335D01*
X132665241Y-59692680D01*
X132620184Y-59737737D01*
X132524211Y-59890476D01*
X132464631Y-60060745D01*
X132464630Y-60060750D01*
X132444435Y-60239996D01*
X132444435Y-60240003D01*
X132464630Y-60419249D01*
X132464631Y-60419254D01*
X132524211Y-60589523D01*
X132620184Y-60742262D01*
X132620185Y-60742263D01*
X132665241Y-60787320D01*
X132698725Y-60848643D01*
X132693740Y-60918335D01*
X132665241Y-60962680D01*
X132620184Y-61007737D01*
X132524210Y-61160478D01*
X132464630Y-61330750D01*
X132454837Y-61417668D01*
X132427770Y-61482082D01*
X132419298Y-61491465D01*
X131231286Y-62679478D01*
X131119481Y-62791282D01*
X131119477Y-62791287D01*
X131099373Y-62826111D01*
X131097234Y-62829816D01*
X131040423Y-62928215D01*
X130999499Y-63080943D01*
X130999499Y-63080945D01*
X130999499Y-63249046D01*
X130999500Y-63249059D01*
X130999500Y-82239800D01*
X130999499Y-82239818D01*
X130999499Y-82405524D01*
X130999498Y-82405524D01*
X131040423Y-82558255D01*
X131069358Y-82608370D01*
X131069359Y-82608374D01*
X131069360Y-82608374D01*
X131110282Y-82679255D01*
X131119479Y-82695184D01*
X131119481Y-82695187D01*
X131238349Y-82814055D01*
X131238355Y-82814060D01*
X133099208Y-84674913D01*
X133132693Y-84736236D01*
X133127709Y-84805928D01*
X133116523Y-84828563D01*
X133111670Y-84836287D01*
X133059337Y-84882580D01*
X132990283Y-84893230D01*
X132926434Y-84864857D01*
X132901680Y-84836290D01*
X132893164Y-84822737D01*
X132765611Y-84695184D01*
X132612872Y-84599211D01*
X132442603Y-84539631D01*
X132442598Y-84539630D01*
X132263353Y-84519435D01*
X132263345Y-84519435D01*
X132084099Y-84539630D01*
X132084094Y-84539631D01*
X131913825Y-84599211D01*
X131761086Y-84695184D01*
X131633534Y-84822736D01*
X131611667Y-84857537D01*
X131559331Y-84903827D01*
X131490278Y-84914474D01*
X131426430Y-84886098D01*
X131401680Y-84857535D01*
X131379815Y-84822737D01*
X131252262Y-84695184D01*
X131099523Y-84599211D01*
X130929254Y-84539631D01*
X130929249Y-84539630D01*
X130750004Y-84519435D01*
X130749996Y-84519435D01*
X130570750Y-84539630D01*
X130570745Y-84539631D01*
X130400476Y-84599211D01*
X130247737Y-84695184D01*
X130120184Y-84822737D01*
X130024211Y-84975476D01*
X129964631Y-85145745D01*
X129964630Y-85145750D01*
X129944435Y-85324996D01*
X129944435Y-85325003D01*
X129964630Y-85504249D01*
X129964631Y-85504254D01*
X130024211Y-85674523D01*
X130111667Y-85813708D01*
X130120184Y-85827262D01*
X130247738Y-85954816D01*
X130338080Y-86011582D01*
X130400474Y-86050787D01*
X130400478Y-86050789D01*
X130470255Y-86075205D01*
X130570745Y-86110368D01*
X130570750Y-86110369D01*
X130749996Y-86130565D01*
X130750000Y-86130565D01*
X130750004Y-86130565D01*
X130929249Y-86110369D01*
X130929252Y-86110368D01*
X130929255Y-86110368D01*
X131099522Y-86050789D01*
X131252262Y-85954816D01*
X131379816Y-85827262D01*
X131401682Y-85792462D01*
X131454013Y-85746174D01*
X131523067Y-85735524D01*
X131586915Y-85763899D01*
X131611667Y-85792464D01*
X131633528Y-85827256D01*
X131633531Y-85827259D01*
X131633533Y-85827262D01*
X131761087Y-85954816D01*
X131851429Y-86011582D01*
X131913823Y-86050787D01*
X131913827Y-86050789D01*
X131983604Y-86075205D01*
X132084094Y-86110368D01*
X132084099Y-86110369D01*
X132263345Y-86130565D01*
X132263349Y-86130565D01*
X132263353Y-86130565D01*
X132442598Y-86110369D01*
X132442601Y-86110368D01*
X132442604Y-86110368D01*
X132612871Y-86050789D01*
X132765611Y-85954816D01*
X132893165Y-85827262D01*
X132901682Y-85813708D01*
X132954012Y-85767419D01*
X133023065Y-85756769D01*
X133086915Y-85785143D01*
X133111667Y-85813708D01*
X133120184Y-85827262D01*
X133247738Y-85954816D01*
X133338080Y-86011582D01*
X133400474Y-86050787D01*
X133400478Y-86050789D01*
X133470255Y-86075205D01*
X133570745Y-86110368D01*
X133570750Y-86110369D01*
X133749996Y-86130565D01*
X133750000Y-86130565D01*
X133750004Y-86130565D01*
X133929249Y-86110369D01*
X133929252Y-86110368D01*
X133929255Y-86110368D01*
X134099522Y-86050789D01*
X134099524Y-86050787D01*
X134099526Y-86050787D01*
X134246433Y-85958479D01*
X134313669Y-85939478D01*
X134380504Y-85959845D01*
X134400086Y-85975791D01*
X134463181Y-86038886D01*
X134496666Y-86100209D01*
X134499500Y-86126567D01*
X134499500Y-128599902D01*
X134479815Y-128666941D01*
X134463181Y-128687583D01*
X133519481Y-129631282D01*
X133519479Y-129631285D01*
X133469361Y-129718094D01*
X133469359Y-129718096D01*
X133440425Y-129768209D01*
X133440424Y-129768210D01*
X133440423Y-129768215D01*
X133399499Y-129920943D01*
X133399499Y-129920945D01*
X133399499Y-130089046D01*
X133399500Y-130089059D01*
X133399500Y-138949902D01*
X133379815Y-139016941D01*
X133363181Y-139037583D01*
X132949791Y-139450972D01*
X132888468Y-139484457D01*
X132818776Y-139479473D01*
X132762843Y-139437601D01*
X132738426Y-139372137D01*
X132742334Y-139331206D01*
X132818595Y-139046595D01*
X132857102Y-138754108D01*
X132857102Y-138459096D01*
X132818595Y-138166609D01*
X132742241Y-137881650D01*
X132629345Y-137609095D01*
X132481840Y-137353608D01*
X132302248Y-137119560D01*
X132302243Y-137119554D01*
X132093649Y-136910960D01*
X132093642Y-136910954D01*
X131859595Y-136731363D01*
X131604112Y-136583860D01*
X131604102Y-136583856D01*
X131331563Y-136470966D01*
X131331556Y-136470964D01*
X131331554Y-136470963D01*
X131046595Y-136394609D01*
X130997715Y-136388173D01*
X130754115Y-136356102D01*
X130754108Y-136356102D01*
X130459096Y-136356102D01*
X130459088Y-136356102D01*
X130180687Y-136392755D01*
X130166609Y-136394609D01*
X129960248Y-136449903D01*
X129881650Y-136470963D01*
X129881640Y-136470966D01*
X129609101Y-136583856D01*
X129609091Y-136583860D01*
X129353608Y-136731363D01*
X129119561Y-136910954D01*
X129119554Y-136910960D01*
X128910960Y-137119554D01*
X128910954Y-137119561D01*
X128731363Y-137353608D01*
X128583860Y-137609091D01*
X128583856Y-137609101D01*
X128470966Y-137881640D01*
X128470963Y-137881650D01*
X128394610Y-138166606D01*
X128394608Y-138166617D01*
X128356102Y-138459088D01*
X128356102Y-138754115D01*
X128381879Y-138949902D01*
X128394609Y-139046595D01*
X128470868Y-139331199D01*
X128470963Y-139331553D01*
X128470966Y-139331563D01*
X128583856Y-139604102D01*
X128583860Y-139604112D01*
X128731363Y-139859595D01*
X128910954Y-140093642D01*
X128910960Y-140093649D01*
X129119554Y-140302243D01*
X129119561Y-140302249D01*
X129353608Y-140481840D01*
X129609091Y-140629343D01*
X129609092Y-140629343D01*
X129609095Y-140629345D01*
X129779623Y-140699980D01*
X129872439Y-140738426D01*
X129881650Y-140742241D01*
X130166609Y-140818595D01*
X130459096Y-140857102D01*
X130459103Y-140857102D01*
X130754101Y-140857102D01*
X130754108Y-140857102D01*
X131046595Y-140818595D01*
X131331202Y-140742335D01*
X131401047Y-140743998D01*
X131458910Y-140783160D01*
X131486414Y-140847389D01*
X131474828Y-140916291D01*
X131450972Y-140949791D01*
X127037584Y-145363181D01*
X126976261Y-145396666D01*
X126949903Y-145399500D01*
X125059077Y-145399500D01*
X124992038Y-145379815D01*
X124946283Y-145327011D01*
X124936339Y-145257853D01*
X124965364Y-145194297D01*
X124971396Y-145187819D01*
X125096748Y-145062466D01*
X125096751Y-145062462D01*
X125206185Y-144898684D01*
X125206192Y-144898671D01*
X125281569Y-144716693D01*
X125281572Y-144716681D01*
X125319999Y-144523495D01*
X125320000Y-144523492D01*
X125320000Y-144125000D01*
X124620000Y-144125000D01*
X124620000Y-143625000D01*
X125320000Y-143625000D01*
X125320000Y-143226508D01*
X125319999Y-143226504D01*
X125281572Y-143033318D01*
X125281569Y-143033306D01*
X125206192Y-142851328D01*
X125206185Y-142851315D01*
X125096751Y-142687537D01*
X125096748Y-142687533D01*
X124957466Y-142548251D01*
X124957462Y-142548248D01*
X124793684Y-142438814D01*
X124793671Y-142438807D01*
X124611691Y-142363429D01*
X124611683Y-142363427D01*
X124570000Y-142355135D01*
X124570000Y-143158011D01*
X124560060Y-143140795D01*
X124504205Y-143084940D01*
X124435796Y-143045444D01*
X124359496Y-143025000D01*
X124280504Y-143025000D01*
X124204204Y-143045444D01*
X124135795Y-143084940D01*
X124079940Y-143140795D01*
X124070000Y-143158011D01*
X124070000Y-142355136D01*
X124069999Y-142355135D01*
X124028316Y-142363427D01*
X124028308Y-142363429D01*
X123846328Y-142438807D01*
X123846315Y-142438814D01*
X123682537Y-142548248D01*
X123682533Y-142548251D01*
X123543251Y-142687533D01*
X123543248Y-142687537D01*
X123433814Y-142851315D01*
X123433807Y-142851328D01*
X123358430Y-143033306D01*
X123358427Y-143033318D01*
X123320000Y-143226504D01*
X123320000Y-143625000D01*
X124020000Y-143625000D01*
X124020000Y-144125000D01*
X123470237Y-144125000D01*
X123403198Y-144105315D01*
X123362850Y-144063000D01*
X123350515Y-144041635D01*
X123243365Y-143934485D01*
X123177750Y-143896602D01*
X123112136Y-143858719D01*
X123038950Y-143839109D01*
X122965766Y-143819500D01*
X122814234Y-143819500D01*
X122667863Y-143858719D01*
X122536635Y-143934485D01*
X122536632Y-143934487D01*
X122429487Y-144041632D01*
X122429485Y-144041635D01*
X122353719Y-144172863D01*
X122353522Y-144173600D01*
X122314500Y-144319234D01*
X122314500Y-144470766D01*
X122328628Y-144523492D01*
X122353719Y-144617136D01*
X122391602Y-144682750D01*
X122429485Y-144748365D01*
X122536635Y-144855515D01*
X122667865Y-144931281D01*
X122814234Y-144970500D01*
X122814236Y-144970500D01*
X122965764Y-144970500D01*
X122965766Y-144970500D01*
X123112135Y-144931281D01*
X123243365Y-144855515D01*
X123243373Y-144855506D01*
X123246105Y-144853412D01*
X123248834Y-144852356D01*
X123250403Y-144851451D01*
X123250544Y-144851695D01*
X123311274Y-144828215D01*
X123379719Y-144842251D01*
X123429710Y-144891064D01*
X123430955Y-144893335D01*
X123433812Y-144898680D01*
X123543248Y-145062462D01*
X123543251Y-145062466D01*
X123668604Y-145187819D01*
X123702089Y-145249142D01*
X123697105Y-145318834D01*
X123655233Y-145374767D01*
X123589769Y-145399184D01*
X123580923Y-145399500D01*
X116419077Y-145399500D01*
X116352038Y-145379815D01*
X116306283Y-145327011D01*
X116296339Y-145257853D01*
X116325364Y-145194297D01*
X116331396Y-145187819D01*
X116456748Y-145062466D01*
X116456751Y-145062462D01*
X116566181Y-144898690D01*
X116569037Y-144893346D01*
X116617993Y-144843495D01*
X116686128Y-144828025D01*
X116751811Y-144851847D01*
X116753895Y-144853412D01*
X116756632Y-144855512D01*
X116756635Y-144855515D01*
X116887865Y-144931281D01*
X117034234Y-144970500D01*
X117034236Y-144970500D01*
X117185764Y-144970500D01*
X117185766Y-144970500D01*
X117332135Y-144931281D01*
X117463365Y-144855515D01*
X117570515Y-144748365D01*
X117646281Y-144617135D01*
X117685500Y-144470766D01*
X117685500Y-144319234D01*
X117646281Y-144172865D01*
X117570515Y-144041635D01*
X117463365Y-143934485D01*
X117397750Y-143896602D01*
X117332136Y-143858719D01*
X117258950Y-143839109D01*
X117185766Y-143819500D01*
X117034234Y-143819500D01*
X116887863Y-143858719D01*
X116756635Y-143934485D01*
X116756632Y-143934487D01*
X116649487Y-144041632D01*
X116649483Y-144041638D01*
X116637150Y-144063000D01*
X116586583Y-144111216D01*
X116529763Y-144125000D01*
X115980000Y-144125000D01*
X115980000Y-143625000D01*
X116680000Y-143625000D01*
X116680000Y-143226508D01*
X116679999Y-143226504D01*
X116641572Y-143033318D01*
X116641569Y-143033306D01*
X116566192Y-142851328D01*
X116566185Y-142851315D01*
X116456751Y-142687537D01*
X116456748Y-142687533D01*
X116317466Y-142548251D01*
X116317462Y-142548248D01*
X116153684Y-142438814D01*
X116153671Y-142438807D01*
X115971691Y-142363429D01*
X115971683Y-142363427D01*
X115930000Y-142355135D01*
X115930000Y-143158011D01*
X115920060Y-143140795D01*
X115864205Y-143084940D01*
X115795796Y-143045444D01*
X115719496Y-143025000D01*
X115640504Y-143025000D01*
X115564204Y-143045444D01*
X115495795Y-143084940D01*
X115439940Y-143140795D01*
X115430000Y-143158011D01*
X115430000Y-142355136D01*
X115429999Y-142355135D01*
X115388316Y-142363427D01*
X115388308Y-142363429D01*
X115206328Y-142438807D01*
X115206315Y-142438814D01*
X115042537Y-142548248D01*
X115042533Y-142548251D01*
X114903251Y-142687533D01*
X114903248Y-142687537D01*
X114793814Y-142851315D01*
X114793807Y-142851328D01*
X114718430Y-143033306D01*
X114718427Y-143033318D01*
X114680000Y-143226504D01*
X114680000Y-143625000D01*
X115380000Y-143625000D01*
X115380000Y-144125000D01*
X114680000Y-144125000D01*
X114680000Y-144523495D01*
X114718427Y-144716681D01*
X114718430Y-144716693D01*
X114793807Y-144898671D01*
X114793814Y-144898684D01*
X114903248Y-145062462D01*
X114903251Y-145062466D01*
X115028604Y-145187819D01*
X115062089Y-145249142D01*
X115057105Y-145318834D01*
X115015233Y-145374767D01*
X114949769Y-145399184D01*
X114940923Y-145399500D01*
X113050097Y-145399500D01*
X112983058Y-145379815D01*
X112962416Y-145363181D01*
X112629290Y-145030055D01*
X112595805Y-144968732D01*
X112600789Y-144899040D01*
X112642661Y-144843107D01*
X112680422Y-144823883D01*
X112755188Y-144800820D01*
X112898760Y-144756535D01*
X113137843Y-144641399D01*
X113357094Y-144491915D01*
X113551618Y-144311424D01*
X113717068Y-144103956D01*
X113849749Y-143874146D01*
X113946696Y-143627128D01*
X114005745Y-143368420D01*
X114009955Y-143312238D01*
X114025575Y-143103805D01*
X114025575Y-143103796D01*
X114005746Y-142839191D01*
X114005745Y-142839186D01*
X114005745Y-142839182D01*
X113946696Y-142580474D01*
X113849749Y-142333456D01*
X113717068Y-142103646D01*
X113551618Y-141896178D01*
X113357094Y-141715687D01*
X113316134Y-141687761D01*
X113137846Y-141566205D01*
X113137835Y-141566198D01*
X112898765Y-141451069D01*
X112898746Y-141451062D01*
X112645193Y-141372852D01*
X112645183Y-141372849D01*
X112382798Y-141333301D01*
X112382791Y-141333301D01*
X112117429Y-141333301D01*
X112117421Y-141333301D01*
X111855036Y-141372849D01*
X111855026Y-141372852D01*
X111601473Y-141451062D01*
X111601454Y-141451069D01*
X111362386Y-141566198D01*
X111362384Y-141566199D01*
X111143125Y-141715687D01*
X110948604Y-141896176D01*
X110948602Y-141896178D01*
X110783152Y-142103646D01*
X110650471Y-142333455D01*
X110553526Y-142580468D01*
X110553521Y-142580482D01*
X110533982Y-142666088D01*
X110499872Y-142727066D01*
X110438211Y-142759923D01*
X110368573Y-142754227D01*
X110325410Y-142726175D01*
X108549026Y-140949791D01*
X108515541Y-140888468D01*
X108520525Y-140818776D01*
X108562397Y-140762843D01*
X108627861Y-140738426D01*
X108668795Y-140742334D01*
X108953405Y-140818595D01*
X109245892Y-140857102D01*
X109245899Y-140857102D01*
X109540897Y-140857102D01*
X109540904Y-140857102D01*
X109833391Y-140818595D01*
X110118350Y-140742241D01*
X110390905Y-140629345D01*
X110646392Y-140481840D01*
X110880440Y-140302248D01*
X111089044Y-140093644D01*
X111268636Y-139859596D01*
X111416141Y-139604109D01*
X111529037Y-139331554D01*
X111605391Y-139046595D01*
X111643898Y-138754108D01*
X111643898Y-138459096D01*
X111605391Y-138166609D01*
X111529037Y-137881650D01*
X111416141Y-137609095D01*
X111268636Y-137353608D01*
X111089044Y-137119560D01*
X111089039Y-137119554D01*
X110880445Y-136910960D01*
X110880438Y-136910954D01*
X110646391Y-136731363D01*
X110390908Y-136583860D01*
X110390898Y-136583856D01*
X110118359Y-136470966D01*
X110118352Y-136470964D01*
X110118350Y-136470963D01*
X109833391Y-136394609D01*
X109784511Y-136388173D01*
X109540911Y-136356102D01*
X109540904Y-136356102D01*
X109245892Y-136356102D01*
X109245884Y-136356102D01*
X108967483Y-136392755D01*
X108953405Y-136394609D01*
X108747044Y-136449903D01*
X108668446Y-136470963D01*
X108668436Y-136470966D01*
X108395897Y-136583856D01*
X108395887Y-136583860D01*
X108140404Y-136731363D01*
X107906357Y-136910954D01*
X107906350Y-136910960D01*
X107697756Y-137119554D01*
X107697750Y-137119561D01*
X107518159Y-137353608D01*
X107370656Y-137609091D01*
X107370652Y-137609101D01*
X107257762Y-137881640D01*
X107257759Y-137881650D01*
X107181406Y-138166606D01*
X107181404Y-138166617D01*
X107142898Y-138459088D01*
X107142898Y-138754115D01*
X107168675Y-138949902D01*
X107181405Y-139046595D01*
X107243872Y-139279725D01*
X107257664Y-139331199D01*
X107256001Y-139401049D01*
X107216838Y-139458911D01*
X107152610Y-139486415D01*
X107083708Y-139474828D01*
X107050208Y-139450973D01*
X103987590Y-136388355D01*
X103987588Y-136388352D01*
X103868717Y-136269481D01*
X103868712Y-136269477D01*
X103749313Y-136200543D01*
X103749312Y-136200542D01*
X103741904Y-136196265D01*
X103731785Y-136190423D01*
X103579057Y-136149499D01*
X103420943Y-136149499D01*
X103413347Y-136149499D01*
X103413331Y-136149500D01*
X101086669Y-136149500D01*
X101086653Y-136149499D01*
X101079057Y-136149499D01*
X100920943Y-136149499D01*
X100768215Y-136190423D01*
X100750683Y-136200545D01*
X100686500Y-136237601D01*
X100618600Y-136254074D01*
X100552573Y-136231222D01*
X100509382Y-136176300D01*
X100500500Y-136130214D01*
X100500500Y-134547804D01*
X111677228Y-134547804D01*
X111677228Y-134547813D01*
X111697051Y-134812344D01*
X111697052Y-134812349D01*
X111756081Y-135070975D01*
X111756087Y-135070994D01*
X111853005Y-135317937D01*
X111853004Y-135317937D01*
X111985647Y-135547680D01*
X112035832Y-135610612D01*
X112812880Y-134833564D01*
X112831859Y-134879383D01*
X112908465Y-134994033D01*
X113005967Y-135091535D01*
X113120617Y-135168141D01*
X113166433Y-135187118D01*
X112388629Y-135964922D01*
X112564709Y-136084971D01*
X112564717Y-136084976D01*
X112803721Y-136200073D01*
X112803719Y-136200073D01*
X113057216Y-136278267D01*
X113057222Y-136278268D01*
X113319542Y-136317808D01*
X113319549Y-136317809D01*
X113584833Y-136317809D01*
X113584839Y-136317808D01*
X113847159Y-136278268D01*
X113847165Y-136278267D01*
X114100661Y-136200073D01*
X114339665Y-136084976D01*
X114339666Y-136084975D01*
X114505648Y-135971811D01*
X114572128Y-135950311D01*
X114639678Y-135968165D01*
X114686852Y-136019705D01*
X114699500Y-136074265D01*
X114699500Y-136849727D01*
X114699499Y-136849745D01*
X114699499Y-137015451D01*
X114699498Y-137015451D01*
X114740423Y-137168182D01*
X114769358Y-137218297D01*
X114769359Y-137218301D01*
X114769360Y-137218301D01*
X114819479Y-137305111D01*
X114819481Y-137305114D01*
X114938349Y-137423982D01*
X114938355Y-137423987D01*
X118690768Y-141176400D01*
X118724253Y-141237723D01*
X118720129Y-141305035D01*
X118714631Y-141320747D01*
X118694435Y-141499996D01*
X118694435Y-141500003D01*
X118714630Y-141679249D01*
X118714631Y-141679254D01*
X118774211Y-141849523D01*
X118844817Y-141961891D01*
X118870184Y-142002262D01*
X118997738Y-142129816D01*
X119043452Y-142158540D01*
X119137497Y-142217633D01*
X119150478Y-142225789D01*
X119301015Y-142278464D01*
X119320745Y-142285368D01*
X119320750Y-142285369D01*
X119499996Y-142305565D01*
X119500000Y-142305565D01*
X119500004Y-142305565D01*
X119679249Y-142285369D01*
X119679252Y-142285368D01*
X119679255Y-142285368D01*
X119849522Y-142225789D01*
X119862503Y-142217633D01*
X119934027Y-142172691D01*
X120001264Y-142153690D01*
X120065973Y-142172691D01*
X120150475Y-142225788D01*
X120320745Y-142285368D01*
X120320750Y-142285369D01*
X120499996Y-142305565D01*
X120500000Y-142305565D01*
X120500004Y-142305565D01*
X120679249Y-142285369D01*
X120679252Y-142285368D01*
X120679255Y-142285368D01*
X120849522Y-142225789D01*
X121002262Y-142129816D01*
X121129816Y-142002262D01*
X121225789Y-141849522D01*
X121285368Y-141679255D01*
X121298106Y-141566203D01*
X121305565Y-141500003D01*
X121305565Y-141499996D01*
X121285369Y-141320750D01*
X121285368Y-141320745D01*
X121279811Y-141304865D01*
X121225789Y-141150478D01*
X121220601Y-141142222D01*
X121129815Y-140997737D01*
X121002262Y-140870184D01*
X120849521Y-140774210D01*
X120679249Y-140714630D01*
X120592330Y-140704837D01*
X120527916Y-140677770D01*
X120518533Y-140669298D01*
X116386819Y-136537584D01*
X116353334Y-136476261D01*
X116350500Y-136449903D01*
X116350500Y-134547804D01*
X124772344Y-134547804D01*
X124772344Y-134547813D01*
X124792172Y-134812418D01*
X124792173Y-134812423D01*
X124851219Y-135071122D01*
X124851221Y-135071131D01*
X124851223Y-135071136D01*
X124948170Y-135318154D01*
X125080851Y-135547964D01*
X125246301Y-135755432D01*
X125440825Y-135935923D01*
X125660077Y-136085407D01*
X125660082Y-136085409D01*
X125660083Y-136085410D01*
X125660085Y-136085411D01*
X125793165Y-136149499D01*
X125899159Y-136200543D01*
X126152731Y-136278759D01*
X126152732Y-136278759D01*
X126152735Y-136278760D01*
X126415120Y-136318308D01*
X126415125Y-136318308D01*
X126415128Y-136318309D01*
X126415129Y-136318309D01*
X126680489Y-136318309D01*
X126680490Y-136318309D01*
X126680497Y-136318308D01*
X126942882Y-136278760D01*
X126942883Y-136278759D01*
X126942887Y-136278759D01*
X127196459Y-136200543D01*
X127435542Y-136085407D01*
X127654793Y-135935923D01*
X127849317Y-135755432D01*
X128014767Y-135547964D01*
X128147448Y-135318154D01*
X128244395Y-135071136D01*
X128303444Y-134812428D01*
X128303450Y-134812349D01*
X128323274Y-134547813D01*
X128323274Y-134547804D01*
X128303445Y-134283199D01*
X128303444Y-134283194D01*
X128303444Y-134283190D01*
X128244395Y-134024482D01*
X128147448Y-133777464D01*
X128014767Y-133547654D01*
X127849317Y-133340186D01*
X127654793Y-133159695D01*
X127631548Y-133143847D01*
X127435545Y-133010213D01*
X127435534Y-133010206D01*
X127196464Y-132895077D01*
X127196445Y-132895070D01*
X126942892Y-132816860D01*
X126942882Y-132816857D01*
X126680497Y-132777309D01*
X126680490Y-132777309D01*
X126415128Y-132777309D01*
X126415120Y-132777309D01*
X126152735Y-132816857D01*
X126152725Y-132816860D01*
X125899172Y-132895070D01*
X125899153Y-132895077D01*
X125660085Y-133010206D01*
X125660083Y-133010207D01*
X125660077Y-133010210D01*
X125660077Y-133010211D01*
X125659439Y-133010646D01*
X125440824Y-133159695D01*
X125246303Y-133340184D01*
X125246301Y-133340186D01*
X125080851Y-133547654D01*
X124948170Y-133777463D01*
X124851225Y-134024476D01*
X124851219Y-134024495D01*
X124792173Y-134283194D01*
X124792172Y-134283199D01*
X124772344Y-134547804D01*
X116350500Y-134547804D01*
X116350500Y-132310436D01*
X116370185Y-132243397D01*
X116422989Y-132197642D01*
X116492147Y-132187698D01*
X116510509Y-132191780D01*
X116511591Y-132192107D01*
X116511599Y-132192111D01*
X116685858Y-132226773D01*
X116714549Y-132232480D01*
X116714553Y-132232481D01*
X116714554Y-132232481D01*
X116921485Y-132232481D01*
X116921486Y-132232480D01*
X117124439Y-132192111D01*
X117315617Y-132112922D01*
X117487674Y-131997958D01*
X117633996Y-131851636D01*
X117748960Y-131679579D01*
X117828149Y-131488401D01*
X117868519Y-131285446D01*
X117868519Y-131078516D01*
X117828149Y-130875561D01*
X117748960Y-130684383D01*
X117633996Y-130512326D01*
X117633994Y-130512323D01*
X117487676Y-130366005D01*
X117401645Y-130308522D01*
X117315617Y-130251040D01*
X117124439Y-130171851D01*
X117124431Y-130171849D01*
X116921488Y-130131481D01*
X116921484Y-130131481D01*
X116714554Y-130131481D01*
X116714549Y-130131481D01*
X116511606Y-130171849D01*
X116511598Y-130171851D01*
X116320422Y-130251039D01*
X116148361Y-130366005D01*
X116002044Y-130512322D01*
X115998178Y-130517034D01*
X115996147Y-130515367D01*
X115951248Y-130552858D01*
X115881919Y-130561534D01*
X115818905Y-130531351D01*
X115782212Y-130471892D01*
X115777809Y-130439140D01*
X115777809Y-126889837D01*
X117114377Y-126889837D01*
X117114377Y-126889846D01*
X117134205Y-127154451D01*
X117134206Y-127154456D01*
X117193252Y-127413155D01*
X117193254Y-127413164D01*
X117193256Y-127413169D01*
X117290203Y-127660187D01*
X117422884Y-127889997D01*
X117588334Y-128097465D01*
X117782858Y-128277956D01*
X118002110Y-128427440D01*
X118241192Y-128542576D01*
X118494764Y-128620792D01*
X118494765Y-128620792D01*
X118494768Y-128620793D01*
X118757153Y-128660341D01*
X118757158Y-128660341D01*
X118757161Y-128660342D01*
X118757162Y-128660342D01*
X119022522Y-128660342D01*
X119022523Y-128660342D01*
X119022530Y-128660341D01*
X119284915Y-128620793D01*
X119284916Y-128620792D01*
X119284920Y-128620792D01*
X119538492Y-128542576D01*
X119777575Y-128427440D01*
X119996826Y-128277956D01*
X120191350Y-128097465D01*
X120356800Y-127889997D01*
X120489481Y-127660187D01*
X120586428Y-127413169D01*
X120645477Y-127154461D01*
X120665307Y-126889842D01*
X120645477Y-126625223D01*
X120586428Y-126366515D01*
X120489481Y-126119497D01*
X120356800Y-125889687D01*
X120191350Y-125682219D01*
X119996826Y-125501728D01*
X119777575Y-125352244D01*
X119777574Y-125352243D01*
X119777567Y-125352239D01*
X119538497Y-125237110D01*
X119538478Y-125237103D01*
X119284925Y-125158893D01*
X119284915Y-125158890D01*
X119022530Y-125119342D01*
X119022523Y-125119342D01*
X118757161Y-125119342D01*
X118757153Y-125119342D01*
X118494768Y-125158890D01*
X118494758Y-125158893D01*
X118241205Y-125237103D01*
X118241186Y-125237110D01*
X118002118Y-125352239D01*
X118002116Y-125352240D01*
X117782857Y-125501728D01*
X117588336Y-125682217D01*
X117588334Y-125682219D01*
X117422884Y-125889687D01*
X117290203Y-126119496D01*
X117193258Y-126366509D01*
X117193252Y-126366528D01*
X117134206Y-126625227D01*
X117134205Y-126625232D01*
X117114377Y-126889837D01*
X115777809Y-126889837D01*
X115777809Y-124714549D01*
X122131481Y-124714549D01*
X122131481Y-124921488D01*
X122171849Y-125124431D01*
X122171851Y-125124439D01*
X122251039Y-125315615D01*
X122366005Y-125487676D01*
X122512323Y-125633994D01*
X122512326Y-125633996D01*
X122684383Y-125748960D01*
X122875561Y-125828149D01*
X123078511Y-125868518D01*
X123078515Y-125868519D01*
X123078516Y-125868519D01*
X123285447Y-125868519D01*
X123285448Y-125868518D01*
X123488401Y-125828149D01*
X123679579Y-125748960D01*
X123851636Y-125633996D01*
X123997958Y-125487674D01*
X124112922Y-125315617D01*
X124192111Y-125124439D01*
X124232481Y-124921484D01*
X124232481Y-124714554D01*
X124192111Y-124511599D01*
X124112922Y-124320421D01*
X123997958Y-124148364D01*
X123997956Y-124148361D01*
X123851638Y-124002043D01*
X123765607Y-123944560D01*
X123679579Y-123887078D01*
X123488401Y-123807889D01*
X123488393Y-123807887D01*
X123285450Y-123767519D01*
X123285446Y-123767519D01*
X123078516Y-123767519D01*
X123078511Y-123767519D01*
X122875568Y-123807887D01*
X122875560Y-123807889D01*
X122684384Y-123887077D01*
X122512323Y-124002043D01*
X122366005Y-124148361D01*
X122251039Y-124320422D01*
X122171851Y-124511598D01*
X122171849Y-124511606D01*
X122131481Y-124714549D01*
X115777809Y-124714549D01*
X115777809Y-121452186D01*
X124772344Y-121452186D01*
X124772344Y-121452195D01*
X124792172Y-121716800D01*
X124792173Y-121716805D01*
X124851219Y-121975504D01*
X124851221Y-121975513D01*
X124851223Y-121975518D01*
X124948170Y-122222536D01*
X125080851Y-122452346D01*
X125246301Y-122659814D01*
X125440825Y-122840305D01*
X125660077Y-122989789D01*
X125899159Y-123104925D01*
X126152731Y-123183141D01*
X126152732Y-123183141D01*
X126152735Y-123183142D01*
X126415120Y-123222690D01*
X126415125Y-123222690D01*
X126415128Y-123222691D01*
X126415129Y-123222691D01*
X126680489Y-123222691D01*
X126680490Y-123222691D01*
X126680497Y-123222690D01*
X126942882Y-123183142D01*
X126942883Y-123183141D01*
X126942887Y-123183141D01*
X127196459Y-123104925D01*
X127435542Y-122989789D01*
X127654793Y-122840305D01*
X127849317Y-122659814D01*
X128014767Y-122452346D01*
X128147448Y-122222536D01*
X128244395Y-121975518D01*
X128303444Y-121716810D01*
X128323274Y-121452191D01*
X128303444Y-121187572D01*
X128244395Y-120928864D01*
X128147448Y-120681846D01*
X128014767Y-120452036D01*
X127849317Y-120244568D01*
X127654793Y-120064077D01*
X127435542Y-119914593D01*
X127435541Y-119914592D01*
X127435534Y-119914588D01*
X127196464Y-119799459D01*
X127196445Y-119799452D01*
X126942892Y-119721242D01*
X126942882Y-119721239D01*
X126680497Y-119681691D01*
X126680490Y-119681691D01*
X126415128Y-119681691D01*
X126415120Y-119681691D01*
X126152735Y-119721239D01*
X126152725Y-119721242D01*
X125899172Y-119799452D01*
X125899153Y-119799459D01*
X125660085Y-119914588D01*
X125660083Y-119914589D01*
X125440824Y-120064077D01*
X125246303Y-120244566D01*
X125246301Y-120244568D01*
X125080851Y-120452036D01*
X124948170Y-120681845D01*
X124851225Y-120928858D01*
X124851219Y-120928877D01*
X124792173Y-121187576D01*
X124792172Y-121187581D01*
X124772344Y-121452186D01*
X115777809Y-121452186D01*
X115777809Y-117245884D01*
X128356102Y-117245884D01*
X128356102Y-117540911D01*
X128388173Y-117784511D01*
X128394609Y-117833391D01*
X128394610Y-117833393D01*
X128470963Y-118118349D01*
X128470966Y-118118359D01*
X128583856Y-118390898D01*
X128583860Y-118390908D01*
X128731363Y-118646391D01*
X128910954Y-118880438D01*
X128910960Y-118880445D01*
X129119554Y-119089039D01*
X129119561Y-119089045D01*
X129353608Y-119268636D01*
X129609091Y-119416139D01*
X129609092Y-119416139D01*
X129609095Y-119416141D01*
X129881650Y-119529037D01*
X130166609Y-119605391D01*
X130459096Y-119643898D01*
X130459103Y-119643898D01*
X130754101Y-119643898D01*
X130754108Y-119643898D01*
X131046595Y-119605391D01*
X131331554Y-119529037D01*
X131604109Y-119416141D01*
X131859596Y-119268636D01*
X132093644Y-119089044D01*
X132302248Y-118880440D01*
X132481840Y-118646392D01*
X132629345Y-118390905D01*
X132742241Y-118118350D01*
X132818595Y-117833391D01*
X132857102Y-117540904D01*
X132857102Y-117245892D01*
X132818595Y-116953405D01*
X132742241Y-116668446D01*
X132629345Y-116395891D01*
X132481840Y-116140404D01*
X132302248Y-115906356D01*
X132302243Y-115906350D01*
X132093649Y-115697756D01*
X132093642Y-115697750D01*
X131859595Y-115518159D01*
X131604112Y-115370656D01*
X131604102Y-115370652D01*
X131331563Y-115257762D01*
X131331556Y-115257760D01*
X131331554Y-115257759D01*
X131046595Y-115181405D01*
X130997715Y-115174969D01*
X130754115Y-115142898D01*
X130754108Y-115142898D01*
X130459096Y-115142898D01*
X130459088Y-115142898D01*
X130180687Y-115179551D01*
X130166609Y-115181405D01*
X129881650Y-115257759D01*
X129881640Y-115257762D01*
X129609101Y-115370652D01*
X129609091Y-115370656D01*
X129353608Y-115518159D01*
X129119561Y-115697750D01*
X129119554Y-115697756D01*
X128910960Y-115906350D01*
X128910954Y-115906357D01*
X128731363Y-116140404D01*
X128583860Y-116395887D01*
X128583856Y-116395897D01*
X128470966Y-116668436D01*
X128470963Y-116668446D01*
X128394610Y-116953402D01*
X128394608Y-116953413D01*
X128356102Y-117245884D01*
X115777809Y-117245884D01*
X115777809Y-113615401D01*
X115797494Y-113548362D01*
X115850298Y-113502607D01*
X115919456Y-113492663D01*
X115955611Y-113503681D01*
X116098841Y-113572657D01*
X116352334Y-113650850D01*
X116352340Y-113650851D01*
X116614660Y-113690391D01*
X116614667Y-113690392D01*
X116879951Y-113690392D01*
X116879957Y-113690391D01*
X117142277Y-113650851D01*
X117142283Y-113650850D01*
X117395779Y-113572656D01*
X117634783Y-113457559D01*
X117634793Y-113457552D01*
X117810869Y-113337505D01*
X117033065Y-112559701D01*
X117078883Y-112540724D01*
X117193533Y-112464118D01*
X117291035Y-112366616D01*
X117367641Y-112251966D01*
X117386619Y-112206148D01*
X118163666Y-112983195D01*
X118213851Y-112920263D01*
X118227747Y-112896194D01*
X125974425Y-112896194D01*
X125974425Y-112896203D01*
X125994253Y-113160808D01*
X125994254Y-113160813D01*
X126053300Y-113419512D01*
X126053302Y-113419521D01*
X126053304Y-113419526D01*
X126150251Y-113666544D01*
X126282932Y-113896354D01*
X126448382Y-114103822D01*
X126642906Y-114284313D01*
X126862158Y-114433797D01*
X127101240Y-114548933D01*
X127354812Y-114627149D01*
X127354813Y-114627149D01*
X127354816Y-114627150D01*
X127617201Y-114666698D01*
X127617206Y-114666698D01*
X127617209Y-114666699D01*
X127617210Y-114666699D01*
X127882570Y-114666699D01*
X127882571Y-114666699D01*
X127882578Y-114666698D01*
X128144963Y-114627150D01*
X128144964Y-114627149D01*
X128144968Y-114627149D01*
X128398540Y-114548933D01*
X128637623Y-114433797D01*
X128856874Y-114284313D01*
X129051398Y-114103822D01*
X129216848Y-113896354D01*
X129349529Y-113666544D01*
X129446476Y-113419526D01*
X129505525Y-113160818D01*
X129525355Y-112896199D01*
X129505525Y-112631580D01*
X129446476Y-112372872D01*
X129349529Y-112125854D01*
X129216848Y-111896044D01*
X129051398Y-111688576D01*
X128856874Y-111508085D01*
X128807127Y-111474168D01*
X128637626Y-111358603D01*
X128637615Y-111358596D01*
X128398545Y-111243467D01*
X128398526Y-111243460D01*
X128144973Y-111165250D01*
X128144963Y-111165247D01*
X127882578Y-111125699D01*
X127882571Y-111125699D01*
X127617209Y-111125699D01*
X127617201Y-111125699D01*
X127354816Y-111165247D01*
X127354806Y-111165250D01*
X127101253Y-111243460D01*
X127101234Y-111243467D01*
X126862166Y-111358596D01*
X126862164Y-111358597D01*
X126642905Y-111508085D01*
X126448384Y-111688574D01*
X126448382Y-111688576D01*
X126282932Y-111896044D01*
X126150251Y-112125853D01*
X126053306Y-112372866D01*
X126053300Y-112372885D01*
X125994254Y-112631584D01*
X125994253Y-112631589D01*
X125974425Y-112896194D01*
X118227747Y-112896194D01*
X118346494Y-112690520D01*
X118443412Y-112443577D01*
X118443418Y-112443558D01*
X118502447Y-112184932D01*
X118502448Y-112184927D01*
X118522272Y-111920396D01*
X118522272Y-111920387D01*
X118502448Y-111655856D01*
X118502447Y-111655851D01*
X118443418Y-111397225D01*
X118443412Y-111397206D01*
X118346494Y-111150263D01*
X118346495Y-111150263D01*
X118213852Y-110920520D01*
X118163665Y-110857588D01*
X117386618Y-111634634D01*
X117367641Y-111588818D01*
X117291035Y-111474168D01*
X117193533Y-111376666D01*
X117078883Y-111300060D01*
X117033064Y-111281081D01*
X117810869Y-110503277D01*
X117634784Y-110383225D01*
X117634783Y-110383224D01*
X117395778Y-110268127D01*
X117395780Y-110268127D01*
X117142283Y-110189933D01*
X117142277Y-110189932D01*
X116879957Y-110150392D01*
X116614658Y-110150392D01*
X116492981Y-110168732D01*
X116423756Y-110159259D01*
X116370643Y-110113864D01*
X116350503Y-110046960D01*
X116350500Y-110046117D01*
X116350500Y-106399659D01*
X116370185Y-106332620D01*
X116422989Y-106286865D01*
X116488383Y-106276439D01*
X116516276Y-106279582D01*
X116524999Y-106280565D01*
X116525000Y-106280565D01*
X116525003Y-106280565D01*
X116704249Y-106260369D01*
X116704252Y-106260368D01*
X116704255Y-106260368D01*
X116874522Y-106200789D01*
X117027262Y-106104816D01*
X117154816Y-105977262D01*
X117250789Y-105824522D01*
X117310368Y-105654255D01*
X117330565Y-105475000D01*
X117310368Y-105295745D01*
X117250789Y-105125478D01*
X117154816Y-104972738D01*
X117027262Y-104845184D01*
X116874523Y-104749211D01*
X116704254Y-104689631D01*
X116704249Y-104689630D01*
X116525004Y-104669435D01*
X116524996Y-104669435D01*
X116488382Y-104673560D01*
X116419561Y-104661505D01*
X116368182Y-104614155D01*
X116350500Y-104550340D01*
X116350500Y-89588863D01*
X117379097Y-89588863D01*
X117379097Y-89588870D01*
X117399292Y-89768116D01*
X117399293Y-89768121D01*
X117458873Y-89938390D01*
X117554846Y-90091129D01*
X117682400Y-90218683D01*
X117835140Y-90314656D01*
X117939926Y-90351322D01*
X117996702Y-90392044D01*
X118022450Y-90456996D01*
X118008994Y-90525558D01*
X117960607Y-90575961D01*
X117939929Y-90585405D01*
X117900478Y-90599210D01*
X117747737Y-90695184D01*
X117620184Y-90822737D01*
X117524211Y-90975476D01*
X117464631Y-91145745D01*
X117464630Y-91145750D01*
X117444435Y-91324996D01*
X117444435Y-91325003D01*
X117464630Y-91504249D01*
X117464631Y-91504254D01*
X117524211Y-91674523D01*
X117620184Y-91827262D01*
X117747738Y-91954816D01*
X117900478Y-92050789D01*
X118070745Y-92110368D01*
X118070750Y-92110369D01*
X118249996Y-92130565D01*
X118250000Y-92130565D01*
X118250004Y-92130565D01*
X118429249Y-92110369D01*
X118429252Y-92110368D01*
X118429255Y-92110368D01*
X118599522Y-92050789D01*
X118752262Y-91954816D01*
X118879816Y-91827262D01*
X118975789Y-91674522D01*
X119035368Y-91504255D01*
X119055565Y-91325000D01*
X119035368Y-91145745D01*
X118975789Y-90975478D01*
X118879816Y-90822738D01*
X118752262Y-90695184D01*
X118599522Y-90599211D01*
X118599519Y-90599209D01*
X118494734Y-90562543D01*
X118437958Y-90521822D01*
X118412211Y-90456869D01*
X118425667Y-90388307D01*
X118474055Y-90337905D01*
X118494735Y-90328460D01*
X118508986Y-90323473D01*
X118534184Y-90314656D01*
X118686924Y-90218683D01*
X118814478Y-90091129D01*
X118910451Y-89938389D01*
X118970030Y-89768122D01*
X118990227Y-89588867D01*
X118970030Y-89409612D01*
X118910451Y-89239345D01*
X118814478Y-89086605D01*
X118686924Y-88959051D01*
X118534185Y-88863078D01*
X118363916Y-88803498D01*
X118363911Y-88803497D01*
X118184666Y-88783302D01*
X118184658Y-88783302D01*
X118005412Y-88803497D01*
X118005407Y-88803498D01*
X117835138Y-88863078D01*
X117682399Y-88959051D01*
X117554846Y-89086604D01*
X117458873Y-89239343D01*
X117399293Y-89409612D01*
X117399292Y-89409617D01*
X117379097Y-89588863D01*
X116350500Y-89588863D01*
X116350500Y-83293078D01*
X116370185Y-83226039D01*
X116422989Y-83180284D01*
X116492147Y-83170340D01*
X116540471Y-83188084D01*
X116556458Y-83198129D01*
X116600475Y-83225788D01*
X116770745Y-83285368D01*
X116770750Y-83285369D01*
X116949996Y-83305565D01*
X116950000Y-83305565D01*
X116950004Y-83305565D01*
X117129249Y-83285369D01*
X117129252Y-83285368D01*
X117129255Y-83285368D01*
X117299522Y-83225789D01*
X117452262Y-83129816D01*
X117579816Y-83002262D01*
X117675789Y-82849522D01*
X117735368Y-82679255D01*
X117742024Y-82620184D01*
X117755565Y-82500003D01*
X117755565Y-82499996D01*
X117735369Y-82320750D01*
X117735368Y-82320745D01*
X117709708Y-82247413D01*
X117675789Y-82150478D01*
X117579816Y-81997738D01*
X117452262Y-81870184D01*
X117389766Y-81830915D01*
X117299523Y-81774211D01*
X117129254Y-81714631D01*
X117129249Y-81714630D01*
X116950004Y-81694435D01*
X116949996Y-81694435D01*
X116770750Y-81714630D01*
X116770745Y-81714631D01*
X116600476Y-81774211D01*
X116540472Y-81811915D01*
X116473235Y-81830915D01*
X116406400Y-81810547D01*
X116361186Y-81757279D01*
X116350500Y-81706921D01*
X116350500Y-76749996D01*
X117859435Y-76749996D01*
X117859435Y-76750003D01*
X117879630Y-76929249D01*
X117879631Y-76929254D01*
X117939211Y-77099523D01*
X118030000Y-77244011D01*
X118035184Y-77252262D01*
X118162738Y-77379816D01*
X118315478Y-77475789D01*
X118485745Y-77535368D01*
X118485750Y-77535369D01*
X118664996Y-77555565D01*
X118665000Y-77555565D01*
X118665004Y-77555565D01*
X118844249Y-77535369D01*
X118844252Y-77535368D01*
X118844255Y-77535368D01*
X119014522Y-77475789D01*
X119167262Y-77379816D01*
X119294816Y-77252262D01*
X119390789Y-77099522D01*
X119450368Y-76929255D01*
X119450458Y-76928458D01*
X119470565Y-76750003D01*
X119470565Y-76749996D01*
X119450369Y-76570750D01*
X119450368Y-76570745D01*
X119390788Y-76400476D01*
X119341190Y-76321542D01*
X119294816Y-76247738D01*
X119167262Y-76120184D01*
X119133879Y-76099208D01*
X119014523Y-76024211D01*
X118844254Y-75964631D01*
X118844249Y-75964630D01*
X118665004Y-75944435D01*
X118664996Y-75944435D01*
X118485750Y-75964630D01*
X118485745Y-75964631D01*
X118315476Y-76024211D01*
X118162737Y-76120184D01*
X118035184Y-76247737D01*
X117939211Y-76400476D01*
X117879631Y-76570745D01*
X117879630Y-76570750D01*
X117859435Y-76749996D01*
X116350500Y-76749996D01*
X116350500Y-74792412D01*
X116370185Y-74725373D01*
X116377555Y-74715097D01*
X116379810Y-74712267D01*
X116379816Y-74712262D01*
X116475789Y-74559522D01*
X116535368Y-74389255D01*
X116535369Y-74389249D01*
X116555565Y-74210003D01*
X116555565Y-74209996D01*
X116535369Y-74030750D01*
X116535368Y-74030745D01*
X116483465Y-73882416D01*
X116475789Y-73860478D01*
X116379816Y-73707738D01*
X116334759Y-73662681D01*
X116301274Y-73601358D01*
X116306258Y-73531666D01*
X116334759Y-73487319D01*
X116353021Y-73469057D01*
X116379816Y-73442262D01*
X116475789Y-73289522D01*
X116535368Y-73119255D01*
X116537896Y-73096817D01*
X116555565Y-72940003D01*
X116555565Y-72939996D01*
X116535369Y-72760750D01*
X116535368Y-72760745D01*
X116475788Y-72590476D01*
X116436582Y-72528080D01*
X116379816Y-72437738D01*
X116252262Y-72310184D01*
X116099523Y-72214211D01*
X115929254Y-72154631D01*
X115929249Y-72154630D01*
X115750004Y-72134435D01*
X115749996Y-72134435D01*
X115570750Y-72154630D01*
X115570745Y-72154631D01*
X115400476Y-72214211D01*
X115247737Y-72310184D01*
X115120184Y-72437737D01*
X115024210Y-72590478D01*
X114964630Y-72760750D01*
X114954837Y-72847668D01*
X114927770Y-72912082D01*
X114919299Y-72921465D01*
X114819477Y-73021287D01*
X114775871Y-73096817D01*
X114775871Y-73096818D01*
X114740423Y-73158214D01*
X114734785Y-73179255D01*
X114699499Y-73310943D01*
X114699499Y-73310945D01*
X114699499Y-73479046D01*
X114699500Y-73479059D01*
X114699500Y-73511540D01*
X114679815Y-73578579D01*
X114673875Y-73587028D01*
X114669475Y-73592761D01*
X114627314Y-73665788D01*
X114627314Y-73665789D01*
X114610667Y-73694622D01*
X114592674Y-73725788D01*
X114590423Y-73729686D01*
X114549499Y-73882414D01*
X114549499Y-73882416D01*
X114549499Y-74050517D01*
X114549500Y-74050530D01*
X114549500Y-74371859D01*
X114549499Y-74371877D01*
X114549499Y-74537583D01*
X114549498Y-74537583D01*
X114549499Y-74537586D01*
X114590423Y-74690314D01*
X114603026Y-74712142D01*
X114620021Y-74741578D01*
X114669477Y-74827241D01*
X114673872Y-74832967D01*
X114699069Y-74898135D01*
X114699500Y-74908459D01*
X114699500Y-110210919D01*
X114679815Y-110277958D01*
X114663181Y-110298600D01*
X114246810Y-110714970D01*
X114246808Y-110714973D01*
X114211321Y-110776440D01*
X114211320Y-110776442D01*
X114167752Y-110851902D01*
X114154110Y-110902812D01*
X114126828Y-111004631D01*
X114126828Y-111004633D01*
X114126828Y-111172734D01*
X114126829Y-111172747D01*
X114126829Y-131267335D01*
X114126828Y-131267353D01*
X114126828Y-131433059D01*
X114126827Y-131433059D01*
X114167752Y-131585791D01*
X114179560Y-131606241D01*
X114179561Y-131606246D01*
X114179562Y-131606246D01*
X114246804Y-131722714D01*
X114246810Y-131722722D01*
X114365678Y-131841590D01*
X114365684Y-131841595D01*
X114663181Y-132139092D01*
X114696666Y-132200415D01*
X114699500Y-132226773D01*
X114699500Y-133021352D01*
X114679815Y-133088391D01*
X114627011Y-133134146D01*
X114557853Y-133144090D01*
X114505649Y-133123806D01*
X114339673Y-133010646D01*
X114339665Y-133010641D01*
X114100660Y-132895544D01*
X114100662Y-132895544D01*
X113847165Y-132817350D01*
X113847159Y-132817349D01*
X113584839Y-132777809D01*
X113319542Y-132777809D01*
X113057222Y-132817349D01*
X113057216Y-132817350D01*
X112803720Y-132895544D01*
X112564715Y-133010643D01*
X112564702Y-133010650D01*
X112388629Y-133130693D01*
X113166434Y-133908498D01*
X113120617Y-133927477D01*
X113005967Y-134004083D01*
X112908465Y-134101585D01*
X112831859Y-134216235D01*
X112812880Y-134262052D01*
X112035833Y-133485005D01*
X111985648Y-133547936D01*
X111853005Y-133777680D01*
X111756087Y-134024623D01*
X111756081Y-134024642D01*
X111697052Y-134283268D01*
X111697051Y-134283273D01*
X111677228Y-134547804D01*
X100500500Y-134547804D01*
X100500500Y-124393750D01*
X102074216Y-124393750D01*
X102074216Y-124393759D01*
X102094044Y-124658364D01*
X102094045Y-124658369D01*
X102153091Y-124917068D01*
X102153093Y-124917077D01*
X102153095Y-124917082D01*
X102250042Y-125164100D01*
X102382723Y-125393910D01*
X102548173Y-125601378D01*
X102742697Y-125781869D01*
X102961949Y-125931353D01*
X103201031Y-126046489D01*
X103454603Y-126124705D01*
X103454604Y-126124705D01*
X103454607Y-126124706D01*
X103716992Y-126164254D01*
X103716997Y-126164254D01*
X103717000Y-126164255D01*
X103717001Y-126164255D01*
X103982361Y-126164255D01*
X103982362Y-126164255D01*
X103982369Y-126164254D01*
X104244754Y-126124706D01*
X104244755Y-126124705D01*
X104244759Y-126124705D01*
X104498331Y-126046489D01*
X104737414Y-125931353D01*
X104956665Y-125781869D01*
X105151189Y-125601378D01*
X105316639Y-125393910D01*
X105449320Y-125164100D01*
X105546267Y-124917082D01*
X105605316Y-124658374D01*
X105605317Y-124658364D01*
X105625146Y-124393759D01*
X105625146Y-124393750D01*
X105605317Y-124129145D01*
X105605316Y-124129140D01*
X105605316Y-124129136D01*
X105546267Y-123870428D01*
X105449320Y-123623410D01*
X105316639Y-123393600D01*
X105151189Y-123186132D01*
X104956665Y-123005641D01*
X104933420Y-122989793D01*
X104737417Y-122856159D01*
X104737406Y-122856152D01*
X104498336Y-122741023D01*
X104498317Y-122741016D01*
X104244764Y-122662806D01*
X104244754Y-122662803D01*
X103982369Y-122623255D01*
X103982362Y-122623255D01*
X103717000Y-122623255D01*
X103716992Y-122623255D01*
X103454607Y-122662803D01*
X103454597Y-122662806D01*
X103201044Y-122741016D01*
X103201025Y-122741023D01*
X102961957Y-122856152D01*
X102961955Y-122856153D01*
X102742696Y-123005641D01*
X102548175Y-123186130D01*
X102548173Y-123186132D01*
X102382723Y-123393600D01*
X102250042Y-123623409D01*
X102153097Y-123870422D01*
X102153091Y-123870441D01*
X102094045Y-124129140D01*
X102094044Y-124129145D01*
X102074216Y-124393750D01*
X100500500Y-124393750D01*
X100500500Y-117245884D01*
X107142898Y-117245884D01*
X107142898Y-117540911D01*
X107174969Y-117784511D01*
X107181405Y-117833391D01*
X107181406Y-117833393D01*
X107257759Y-118118349D01*
X107257762Y-118118359D01*
X107370652Y-118390898D01*
X107370656Y-118390908D01*
X107518159Y-118646391D01*
X107697750Y-118880438D01*
X107697756Y-118880445D01*
X107906350Y-119089039D01*
X107906357Y-119089045D01*
X108140404Y-119268636D01*
X108395887Y-119416139D01*
X108395888Y-119416139D01*
X108395891Y-119416141D01*
X108668446Y-119529037D01*
X108953405Y-119605391D01*
X109245892Y-119643898D01*
X109245899Y-119643898D01*
X109540897Y-119643898D01*
X109540904Y-119643898D01*
X109833391Y-119605391D01*
X110118350Y-119529037D01*
X110390905Y-119416141D01*
X110646392Y-119268636D01*
X110880440Y-119089044D01*
X111089044Y-118880440D01*
X111268636Y-118646392D01*
X111416141Y-118390905D01*
X111529037Y-118118350D01*
X111605391Y-117833391D01*
X111643898Y-117540904D01*
X111643898Y-117245892D01*
X111605391Y-116953405D01*
X111529037Y-116668446D01*
X111416141Y-116395891D01*
X111268636Y-116140404D01*
X111089044Y-115906356D01*
X111089039Y-115906350D01*
X110880445Y-115697756D01*
X110880438Y-115697750D01*
X110646391Y-115518159D01*
X110390908Y-115370656D01*
X110390898Y-115370652D01*
X110118359Y-115257762D01*
X110118352Y-115257760D01*
X110118350Y-115257759D01*
X109833391Y-115181405D01*
X109784511Y-115174969D01*
X109540911Y-115142898D01*
X109540904Y-115142898D01*
X109245892Y-115142898D01*
X109245884Y-115142898D01*
X108967483Y-115179551D01*
X108953405Y-115181405D01*
X108668446Y-115257759D01*
X108668436Y-115257762D01*
X108395897Y-115370652D01*
X108395887Y-115370656D01*
X108140404Y-115518159D01*
X107906357Y-115697750D01*
X107906350Y-115697756D01*
X107697756Y-115906350D01*
X107697750Y-115906357D01*
X107518159Y-116140404D01*
X107370656Y-116395887D01*
X107370652Y-116395897D01*
X107257762Y-116668436D01*
X107257759Y-116668446D01*
X107181406Y-116953402D01*
X107181404Y-116953413D01*
X107142898Y-117245884D01*
X100500500Y-117245884D01*
X100500500Y-94499996D01*
X108519435Y-94499996D01*
X108519435Y-94500003D01*
X108539630Y-94679249D01*
X108539631Y-94679254D01*
X108599211Y-94849523D01*
X108695184Y-95002262D01*
X108822738Y-95129816D01*
X108975478Y-95225789D01*
X109145745Y-95285368D01*
X109145750Y-95285369D01*
X109324996Y-95305565D01*
X109325000Y-95305565D01*
X109325004Y-95305565D01*
X109504249Y-95285369D01*
X109504252Y-95285368D01*
X109504255Y-95285368D01*
X109674522Y-95225789D01*
X109827262Y-95129816D01*
X109954816Y-95002262D01*
X110050789Y-94849522D01*
X110110368Y-94679255D01*
X110110369Y-94679249D01*
X110130565Y-94500003D01*
X110130565Y-94499996D01*
X110110369Y-94320750D01*
X110110368Y-94320745D01*
X110050788Y-94150476D01*
X109954815Y-93997737D01*
X109827262Y-93870184D01*
X109674523Y-93774211D01*
X109504254Y-93714631D01*
X109504249Y-93714630D01*
X109325004Y-93694435D01*
X109324996Y-93694435D01*
X109145750Y-93714630D01*
X109145745Y-93714631D01*
X108975476Y-93774211D01*
X108822737Y-93870184D01*
X108695184Y-93997737D01*
X108599211Y-94150476D01*
X108539631Y-94320745D01*
X108539630Y-94320750D01*
X108519435Y-94499996D01*
X100500500Y-94499996D01*
X100500500Y-83249996D01*
X101194435Y-83249996D01*
X101194435Y-83250003D01*
X101214630Y-83429249D01*
X101214631Y-83429254D01*
X101274211Y-83599523D01*
X101370184Y-83752262D01*
X101497738Y-83879816D01*
X101650478Y-83975789D01*
X101820745Y-84035368D01*
X101820750Y-84035369D01*
X101999996Y-84055565D01*
X102000000Y-84055565D01*
X102000004Y-84055565D01*
X102179249Y-84035369D01*
X102179252Y-84035368D01*
X102179255Y-84035368D01*
X102349522Y-83975789D01*
X102502262Y-83879816D01*
X102629816Y-83752262D01*
X102725789Y-83599522D01*
X102785368Y-83429255D01*
X102790938Y-83379818D01*
X102805565Y-83250003D01*
X102805565Y-83249996D01*
X102785369Y-83070750D01*
X102785368Y-83070745D01*
X102761405Y-83002262D01*
X102725789Y-82900478D01*
X102629816Y-82747738D01*
X102502262Y-82620184D01*
X102483460Y-82608370D01*
X102349523Y-82524211D01*
X102179254Y-82464631D01*
X102179249Y-82464630D01*
X102000004Y-82444435D01*
X101999996Y-82444435D01*
X101820750Y-82464630D01*
X101820745Y-82464631D01*
X101650476Y-82524211D01*
X101497737Y-82620184D01*
X101370184Y-82747737D01*
X101274211Y-82900476D01*
X101214631Y-83070745D01*
X101214630Y-83070750D01*
X101194435Y-83249996D01*
X100500500Y-83249996D01*
X100500500Y-79849996D01*
X111194435Y-79849996D01*
X111194435Y-79850003D01*
X111214630Y-80029249D01*
X111214631Y-80029254D01*
X111274211Y-80199523D01*
X111328152Y-80285369D01*
X111370184Y-80352262D01*
X111497738Y-80479816D01*
X111650478Y-80575789D01*
X111804878Y-80629816D01*
X111820745Y-80635368D01*
X111820750Y-80635369D01*
X111999996Y-80655565D01*
X112000000Y-80655565D01*
X112000004Y-80655565D01*
X112179249Y-80635369D01*
X112179252Y-80635368D01*
X112179255Y-80635368D01*
X112349522Y-80575789D01*
X112502262Y-80479816D01*
X112629816Y-80352262D01*
X112725789Y-80199522D01*
X112785368Y-80029255D01*
X112785369Y-80029249D01*
X112805565Y-79850003D01*
X112805565Y-79849996D01*
X112785369Y-79670750D01*
X112785368Y-79670745D01*
X112725788Y-79500476D01*
X112686582Y-79438080D01*
X112629816Y-79347738D01*
X112502262Y-79220184D01*
X112493426Y-79214632D01*
X112349523Y-79124211D01*
X112179254Y-79064631D01*
X112179249Y-79064630D01*
X112000004Y-79044435D01*
X111999996Y-79044435D01*
X111820750Y-79064630D01*
X111820745Y-79064631D01*
X111650476Y-79124211D01*
X111497737Y-79220184D01*
X111370184Y-79347737D01*
X111274211Y-79500476D01*
X111214631Y-79670745D01*
X111214630Y-79670750D01*
X111194435Y-79849996D01*
X100500500Y-79849996D01*
X100500500Y-74555320D01*
X108662419Y-74555320D01*
X108662419Y-74555327D01*
X108682614Y-74734573D01*
X108682615Y-74734578D01*
X108742195Y-74904847D01*
X108763719Y-74939102D01*
X108782719Y-75006339D01*
X108775767Y-75046028D01*
X108714632Y-75220742D01*
X108714630Y-75220750D01*
X108694435Y-75399996D01*
X108694435Y-75400003D01*
X108714630Y-75579249D01*
X108714633Y-75579262D01*
X108776510Y-75756094D01*
X108774364Y-75756844D01*
X108783962Y-75815144D01*
X108775609Y-75843590D01*
X108776510Y-75843906D01*
X108714633Y-76020737D01*
X108714630Y-76020750D01*
X108694435Y-76199996D01*
X108694435Y-76200003D01*
X108714630Y-76379249D01*
X108714631Y-76379254D01*
X108774211Y-76549523D01*
X108824418Y-76629426D01*
X108870184Y-76702262D01*
X108997738Y-76829816D01*
X109150478Y-76925789D01*
X109320745Y-76985368D01*
X109320750Y-76985369D01*
X109499996Y-77005565D01*
X109500000Y-77005565D01*
X109500004Y-77005565D01*
X109679249Y-76985369D01*
X109679252Y-76985368D01*
X109679255Y-76985368D01*
X109849522Y-76925789D01*
X110002262Y-76829816D01*
X110129816Y-76702262D01*
X110225789Y-76549522D01*
X110285368Y-76379255D01*
X110285369Y-76379249D01*
X110305565Y-76200003D01*
X110305565Y-76199996D01*
X110285369Y-76020750D01*
X110285366Y-76020737D01*
X110223489Y-75843905D01*
X110225637Y-75843153D01*
X110216035Y-75784872D01*
X110224392Y-75756411D01*
X110223489Y-75756095D01*
X110285366Y-75579262D01*
X110285369Y-75579249D01*
X110305565Y-75400003D01*
X110305565Y-75399996D01*
X110285369Y-75220750D01*
X110285368Y-75220745D01*
X110225788Y-75050475D01*
X110204264Y-75016221D01*
X110185263Y-74948984D01*
X110192216Y-74909292D01*
X110193770Y-74904850D01*
X110193773Y-74904846D01*
X110253352Y-74734579D01*
X110253353Y-74734573D01*
X110273549Y-74555327D01*
X110273549Y-74555320D01*
X110253353Y-74376074D01*
X110253352Y-74376069D01*
X110195242Y-74210000D01*
X110193773Y-74205802D01*
X110097800Y-74053062D01*
X109970246Y-73925508D01*
X109901666Y-73882416D01*
X109817507Y-73829535D01*
X109647238Y-73769955D01*
X109647233Y-73769954D01*
X109467988Y-73749759D01*
X109467980Y-73749759D01*
X109288734Y-73769954D01*
X109288729Y-73769955D01*
X109118460Y-73829535D01*
X108965721Y-73925508D01*
X108838168Y-74053061D01*
X108742195Y-74205800D01*
X108682615Y-74376069D01*
X108682614Y-74376074D01*
X108662419Y-74555320D01*
X100500500Y-74555320D01*
X100500500Y-70899996D01*
X112194435Y-70899996D01*
X112194435Y-70900003D01*
X112214630Y-71079249D01*
X112214631Y-71079254D01*
X112274211Y-71249523D01*
X112370184Y-71402262D01*
X112497738Y-71529816D01*
X112650478Y-71625789D01*
X112820745Y-71685368D01*
X112820750Y-71685369D01*
X112999996Y-71705565D01*
X113000000Y-71705565D01*
X113000004Y-71705565D01*
X113179249Y-71685369D01*
X113179252Y-71685368D01*
X113179255Y-71685368D01*
X113349522Y-71625789D01*
X113502262Y-71529816D01*
X113629816Y-71402262D01*
X113725789Y-71249522D01*
X113785368Y-71079255D01*
X113785369Y-71079249D01*
X113805565Y-70900003D01*
X113805565Y-70899996D01*
X113785369Y-70720750D01*
X113785368Y-70720745D01*
X113725789Y-70550478D01*
X113629816Y-70397738D01*
X113502262Y-70270184D01*
X113349523Y-70174211D01*
X113179254Y-70114631D01*
X113179249Y-70114630D01*
X113000004Y-70094435D01*
X112999996Y-70094435D01*
X112820750Y-70114630D01*
X112820745Y-70114631D01*
X112650476Y-70174211D01*
X112497737Y-70270184D01*
X112370184Y-70397737D01*
X112274211Y-70550476D01*
X112214631Y-70720745D01*
X112214630Y-70720750D01*
X112194435Y-70899996D01*
X100500500Y-70899996D01*
X100500500Y-65218995D01*
X100939499Y-65218995D01*
X100966418Y-65354322D01*
X100966421Y-65354332D01*
X101019221Y-65481804D01*
X101019228Y-65481817D01*
X101095885Y-65596541D01*
X101095888Y-65596545D01*
X101193454Y-65694111D01*
X101193458Y-65694114D01*
X101308182Y-65770771D01*
X101308195Y-65770778D01*
X101432490Y-65822262D01*
X101435672Y-65823580D01*
X101435676Y-65823580D01*
X101435677Y-65823581D01*
X101571004Y-65850500D01*
X101571007Y-65850500D01*
X101708995Y-65850500D01*
X101800041Y-65832389D01*
X101844328Y-65823580D01*
X101971811Y-65770775D01*
X102086542Y-65694114D01*
X102184114Y-65596542D01*
X102260775Y-65481811D01*
X102313580Y-65354328D01*
X102340500Y-65218993D01*
X102340500Y-65081007D01*
X102340500Y-65081004D01*
X102313581Y-64945677D01*
X102313580Y-64945676D01*
X102313580Y-64945672D01*
X102273564Y-64849064D01*
X102260778Y-64818195D01*
X102260771Y-64818182D01*
X102184114Y-64703458D01*
X102184111Y-64703454D01*
X102086545Y-64605888D01*
X102086541Y-64605885D01*
X101971817Y-64529228D01*
X101971804Y-64529221D01*
X101844332Y-64476421D01*
X101844322Y-64476418D01*
X101708995Y-64449500D01*
X101708993Y-64449500D01*
X101571007Y-64449500D01*
X101571005Y-64449500D01*
X101435677Y-64476418D01*
X101435667Y-64476421D01*
X101308195Y-64529221D01*
X101308182Y-64529228D01*
X101193458Y-64605885D01*
X101193454Y-64605888D01*
X101095888Y-64703454D01*
X101095885Y-64703458D01*
X101019228Y-64818182D01*
X101019221Y-64818195D01*
X100966421Y-64945667D01*
X100966418Y-64945677D01*
X100939500Y-65081004D01*
X100939500Y-65081007D01*
X100939500Y-65218993D01*
X100939500Y-65218995D01*
X100939499Y-65218995D01*
X100500500Y-65218995D01*
X100500500Y-62218995D01*
X100939499Y-62218995D01*
X100966418Y-62354322D01*
X100966421Y-62354332D01*
X101019221Y-62481804D01*
X101019228Y-62481817D01*
X101095885Y-62596541D01*
X101095888Y-62596545D01*
X101193454Y-62694111D01*
X101193458Y-62694114D01*
X101308182Y-62770771D01*
X101308195Y-62770778D01*
X101435667Y-62823578D01*
X101435672Y-62823580D01*
X101435676Y-62823580D01*
X101435677Y-62823581D01*
X101571004Y-62850500D01*
X101571007Y-62850500D01*
X101708995Y-62850500D01*
X101800041Y-62832389D01*
X101844328Y-62823580D01*
X101949540Y-62780000D01*
X101971804Y-62770778D01*
X101971804Y-62770777D01*
X101971811Y-62770775D01*
X102086542Y-62694114D01*
X102184114Y-62596542D01*
X102260775Y-62481811D01*
X102313580Y-62354328D01*
X102328815Y-62277737D01*
X102340500Y-62218995D01*
X102340500Y-62199996D01*
X102594435Y-62199996D01*
X102594435Y-62200003D01*
X102614630Y-62379249D01*
X102614631Y-62379254D01*
X102674211Y-62549523D01*
X102755868Y-62679478D01*
X102770184Y-62702262D01*
X102897738Y-62829816D01*
X103050478Y-62925789D01*
X103220745Y-62985368D01*
X103220750Y-62985369D01*
X103399996Y-63005565D01*
X103400000Y-63005565D01*
X103400004Y-63005565D01*
X103579249Y-62985369D01*
X103579252Y-62985368D01*
X103579255Y-62985368D01*
X103749522Y-62925789D01*
X103902262Y-62829816D01*
X103902267Y-62829810D01*
X103905097Y-62827555D01*
X103907275Y-62826665D01*
X103908158Y-62826111D01*
X103908255Y-62826265D01*
X103969783Y-62801145D01*
X103982412Y-62800500D01*
X109554387Y-62800500D01*
X109621426Y-62820185D01*
X109642067Y-62836818D01*
X111830164Y-65024916D01*
X111863648Y-65086237D01*
X111858664Y-65155929D01*
X111847476Y-65178567D01*
X111755166Y-65325476D01*
X111695586Y-65495745D01*
X111695585Y-65495750D01*
X111675390Y-65674996D01*
X111675390Y-65675003D01*
X111695585Y-65854249D01*
X111695586Y-65854254D01*
X111755166Y-66024523D01*
X111851139Y-66177262D01*
X111978693Y-66304816D01*
X112131433Y-66400789D01*
X112256258Y-66444467D01*
X112301700Y-66460368D01*
X112301705Y-66460369D01*
X112480951Y-66480565D01*
X112480955Y-66480565D01*
X112480957Y-66480565D01*
X112535069Y-66474467D01*
X112586818Y-66468637D01*
X112655640Y-66480691D01*
X112707019Y-66528040D01*
X112724644Y-66595650D01*
X112702918Y-66662056D01*
X112688384Y-66679538D01*
X112620183Y-66747739D01*
X112524211Y-66900476D01*
X112464631Y-67070745D01*
X112464630Y-67070750D01*
X112444435Y-67249996D01*
X112444435Y-67250003D01*
X112464630Y-67429249D01*
X112464631Y-67429254D01*
X112524211Y-67599523D01*
X112575247Y-67680745D01*
X112620184Y-67752262D01*
X112747738Y-67879816D01*
X112900478Y-67975789D01*
X113070745Y-68035368D01*
X113070750Y-68035369D01*
X113249997Y-68055565D01*
X113249998Y-68055565D01*
X113249998Y-68055564D01*
X113250000Y-68055565D01*
X113287543Y-68051334D01*
X113356364Y-68063387D01*
X113389109Y-68086873D01*
X125166610Y-79864374D01*
X125166620Y-79864385D01*
X125170950Y-79868715D01*
X125170951Y-79868716D01*
X125282755Y-79980520D01*
X125282757Y-79980521D01*
X125282761Y-79980524D01*
X125367166Y-80029255D01*
X125367167Y-80029255D01*
X125419686Y-80059577D01*
X125572414Y-80100500D01*
X125730528Y-80100500D01*
X125917588Y-80100500D01*
X125984627Y-80120185D01*
X125994903Y-80127555D01*
X125997736Y-80129814D01*
X125997738Y-80129816D01*
X126150478Y-80225789D01*
X126320745Y-80285368D01*
X126320750Y-80285369D01*
X126499996Y-80305565D01*
X126500000Y-80305565D01*
X126500004Y-80305565D01*
X126679249Y-80285369D01*
X126679252Y-80285368D01*
X126679255Y-80285368D01*
X126849522Y-80225789D01*
X127002262Y-80129816D01*
X127129816Y-80002262D01*
X127225789Y-79849522D01*
X127285368Y-79679255D01*
X127285369Y-79679249D01*
X127305565Y-79500003D01*
X127305565Y-79499996D01*
X127285369Y-79320750D01*
X127285368Y-79320745D01*
X127225788Y-79150476D01*
X127129815Y-78997737D01*
X127002262Y-78870184D01*
X126849523Y-78774211D01*
X126679254Y-78714631D01*
X126679249Y-78714630D01*
X126500004Y-78694435D01*
X126499996Y-78694435D01*
X126320750Y-78714630D01*
X126320745Y-78714631D01*
X126150476Y-78774211D01*
X126003567Y-78866521D01*
X125936330Y-78885521D01*
X125869495Y-78865153D01*
X125849914Y-78849208D01*
X124750504Y-77749798D01*
X124717019Y-77688475D01*
X124722003Y-77618783D01*
X124763875Y-77562850D01*
X124829339Y-77538433D01*
X124852065Y-77538896D01*
X124940438Y-77548854D01*
X124999998Y-77555565D01*
X125000000Y-77555565D01*
X125000004Y-77555565D01*
X125179249Y-77535369D01*
X125179252Y-77535368D01*
X125179255Y-77535368D01*
X125349522Y-77475789D01*
X125502262Y-77379816D01*
X125629816Y-77252262D01*
X125725789Y-77099522D01*
X125785368Y-76929255D01*
X125785458Y-76928458D01*
X125805565Y-76750003D01*
X125805565Y-76749996D01*
X126749435Y-76749996D01*
X126749435Y-76750003D01*
X126769630Y-76929249D01*
X126769631Y-76929254D01*
X126829211Y-77099523D01*
X126920000Y-77244011D01*
X126925184Y-77252262D01*
X127052738Y-77379816D01*
X127205478Y-77475789D01*
X127375745Y-77535368D01*
X127375750Y-77535369D01*
X127554996Y-77555565D01*
X127555000Y-77555565D01*
X127555004Y-77555565D01*
X127734249Y-77535369D01*
X127734252Y-77535368D01*
X127734255Y-77535368D01*
X127904522Y-77475789D01*
X128057262Y-77379816D01*
X128102319Y-77334759D01*
X128163642Y-77301274D01*
X128233334Y-77306258D01*
X128277681Y-77334759D01*
X128322738Y-77379816D01*
X128475478Y-77475789D01*
X128645745Y-77535368D01*
X128645750Y-77535369D01*
X128824996Y-77555565D01*
X128825000Y-77555565D01*
X128825004Y-77555565D01*
X129004249Y-77535369D01*
X129004252Y-77535368D01*
X129004255Y-77535368D01*
X129174522Y-77475789D01*
X129327262Y-77379816D01*
X129454816Y-77252262D01*
X129550789Y-77099522D01*
X129610368Y-76929255D01*
X129610458Y-76928458D01*
X129630565Y-76750003D01*
X129630565Y-76749996D01*
X129610369Y-76570750D01*
X129610368Y-76570745D01*
X129550788Y-76400476D01*
X129501190Y-76321542D01*
X129454816Y-76247738D01*
X129327262Y-76120184D01*
X129293879Y-76099208D01*
X129174523Y-76024211D01*
X129004254Y-75964631D01*
X129004249Y-75964630D01*
X128825004Y-75944435D01*
X128824996Y-75944435D01*
X128645750Y-75964630D01*
X128645745Y-75964631D01*
X128475476Y-76024211D01*
X128322737Y-76120184D01*
X128277680Y-76165241D01*
X128216357Y-76198725D01*
X128146665Y-76193740D01*
X128102320Y-76165241D01*
X128057263Y-76120185D01*
X128057262Y-76120184D01*
X127904523Y-76024211D01*
X127734254Y-75964631D01*
X127734249Y-75964630D01*
X127555004Y-75944435D01*
X127554996Y-75944435D01*
X127375750Y-75964630D01*
X127375745Y-75964631D01*
X127205476Y-76024211D01*
X127052737Y-76120184D01*
X126925184Y-76247737D01*
X126829211Y-76400476D01*
X126769631Y-76570745D01*
X126769630Y-76570750D01*
X126749435Y-76749996D01*
X125805565Y-76749996D01*
X125785369Y-76570750D01*
X125785368Y-76570745D01*
X125725788Y-76400476D01*
X125676190Y-76321542D01*
X125629816Y-76247738D01*
X125502262Y-76120184D01*
X125468879Y-76099208D01*
X125349523Y-76024211D01*
X125179254Y-75964631D01*
X125179249Y-75964630D01*
X125000004Y-75944435D01*
X124999996Y-75944435D01*
X124820750Y-75964630D01*
X124820745Y-75964631D01*
X124650476Y-76024211D01*
X124497737Y-76120184D01*
X124462681Y-76155241D01*
X124401358Y-76188726D01*
X124331666Y-76183742D01*
X124287319Y-76155241D01*
X124252262Y-76120184D01*
X124099523Y-76024211D01*
X123929254Y-75964631D01*
X123929249Y-75964630D01*
X123750004Y-75944435D01*
X123749996Y-75944435D01*
X123570750Y-75964630D01*
X123570745Y-75964631D01*
X123400476Y-76024211D01*
X123253567Y-76116521D01*
X123186330Y-76135521D01*
X123119495Y-76115153D01*
X123099914Y-76099208D01*
X115861884Y-68861178D01*
X115828399Y-68799855D01*
X115833383Y-68730163D01*
X115875255Y-68674230D01*
X115935679Y-68650277D01*
X115979255Y-68645368D01*
X116149522Y-68585789D01*
X116302262Y-68489816D01*
X116429816Y-68362262D01*
X116525789Y-68209522D01*
X116585368Y-68039255D01*
X116592519Y-67975788D01*
X116605565Y-67860003D01*
X116605565Y-67859996D01*
X116585369Y-67680750D01*
X116585368Y-67680745D01*
X116525788Y-67510476D01*
X116474753Y-67429255D01*
X116429816Y-67357738D01*
X116302262Y-67230184D01*
X116294012Y-67225000D01*
X116149523Y-67134211D01*
X115979254Y-67074631D01*
X115979249Y-67074630D01*
X115800004Y-67054435D01*
X115799996Y-67054435D01*
X115641983Y-67072238D01*
X115573161Y-67060183D01*
X115540419Y-67036699D01*
X111283715Y-62779996D01*
X114944435Y-62779996D01*
X114944435Y-62780003D01*
X114964630Y-62959249D01*
X114964631Y-62959254D01*
X115024211Y-63129523D01*
X115120184Y-63282262D01*
X115120185Y-63282263D01*
X115165241Y-63327320D01*
X115198725Y-63388643D01*
X115193740Y-63458335D01*
X115165241Y-63502680D01*
X115120184Y-63547737D01*
X115024211Y-63700476D01*
X114964631Y-63870745D01*
X114964630Y-63870750D01*
X114944435Y-64049996D01*
X114944435Y-64050003D01*
X114964630Y-64229249D01*
X114964631Y-64229254D01*
X115024211Y-64399523D01*
X115120184Y-64552262D01*
X115120185Y-64552263D01*
X115165241Y-64597320D01*
X115198725Y-64658643D01*
X115193740Y-64728335D01*
X115165241Y-64772680D01*
X115120184Y-64817737D01*
X115024211Y-64970476D01*
X114964631Y-65140745D01*
X114964630Y-65140750D01*
X114944435Y-65319996D01*
X114944435Y-65320003D01*
X114964630Y-65499249D01*
X114964631Y-65499254D01*
X115024211Y-65669523D01*
X115087834Y-65770778D01*
X115120184Y-65822262D01*
X115247738Y-65949816D01*
X115264239Y-65960184D01*
X115395531Y-66042681D01*
X115400478Y-66045789D01*
X115570745Y-66105368D01*
X115570750Y-66105369D01*
X115749996Y-66125565D01*
X115750000Y-66125565D01*
X115750004Y-66125565D01*
X115929249Y-66105369D01*
X115929252Y-66105368D01*
X115929255Y-66105368D01*
X116099522Y-66045789D01*
X116252262Y-65949816D01*
X116379816Y-65822262D01*
X116475789Y-65669522D01*
X116535368Y-65499255D01*
X116535763Y-65495750D01*
X116555565Y-65320003D01*
X116555565Y-65319996D01*
X116535369Y-65140750D01*
X116535368Y-65140745D01*
X116475788Y-64970476D01*
X116379815Y-64817737D01*
X116334759Y-64772681D01*
X116301274Y-64711358D01*
X116306258Y-64641666D01*
X116334759Y-64597319D01*
X116379816Y-64552262D01*
X116475789Y-64399522D01*
X116535368Y-64229255D01*
X116555565Y-64050000D01*
X116535368Y-63870745D01*
X116475789Y-63700478D01*
X116379816Y-63547738D01*
X116334758Y-63502680D01*
X116301274Y-63441358D01*
X116306258Y-63371666D01*
X116334759Y-63327319D01*
X116379816Y-63282262D01*
X116475789Y-63129522D01*
X116535368Y-62959255D01*
X116535369Y-62959249D01*
X116555565Y-62780003D01*
X116555565Y-62779996D01*
X116535369Y-62600750D01*
X116535368Y-62600745D01*
X116475788Y-62430476D01*
X116379815Y-62277737D01*
X116252262Y-62150184D01*
X116099523Y-62054211D01*
X115929254Y-61994631D01*
X115929249Y-61994630D01*
X115750004Y-61974435D01*
X115749996Y-61974435D01*
X115570750Y-61994630D01*
X115570745Y-61994631D01*
X115400476Y-62054211D01*
X115247737Y-62150184D01*
X115120184Y-62277737D01*
X115024211Y-62430476D01*
X114964631Y-62600745D01*
X114964630Y-62600750D01*
X114944435Y-62779996D01*
X111283715Y-62779996D01*
X110342074Y-61838355D01*
X110342072Y-61838352D01*
X110223201Y-61719481D01*
X110223193Y-61719475D01*
X110121420Y-61660717D01*
X110121418Y-61660716D01*
X110086274Y-61640425D01*
X110086273Y-61640424D01*
X110073747Y-61637067D01*
X109933541Y-61599499D01*
X109775427Y-61599499D01*
X109767831Y-61599499D01*
X109767815Y-61599500D01*
X103982412Y-61599500D01*
X103915373Y-61579815D01*
X103905097Y-61572445D01*
X103902263Y-61570185D01*
X103902262Y-61570184D01*
X103806480Y-61510000D01*
X103749523Y-61474211D01*
X103579254Y-61414631D01*
X103579249Y-61414630D01*
X103400004Y-61394435D01*
X103399996Y-61394435D01*
X103220750Y-61414630D01*
X103220745Y-61414631D01*
X103050476Y-61474211D01*
X102897737Y-61570184D01*
X102770184Y-61697737D01*
X102674211Y-61850476D01*
X102614631Y-62020745D01*
X102614630Y-62020750D01*
X102594435Y-62199996D01*
X102340500Y-62199996D01*
X102340500Y-62081004D01*
X102313581Y-61945677D01*
X102313580Y-61945676D01*
X102313580Y-61945672D01*
X102277896Y-61859522D01*
X102260778Y-61818195D01*
X102260771Y-61818182D01*
X102184114Y-61703458D01*
X102184111Y-61703454D01*
X102086545Y-61605888D01*
X102086541Y-61605885D01*
X101971817Y-61529228D01*
X101971804Y-61529221D01*
X101844332Y-61476421D01*
X101844322Y-61476418D01*
X101708995Y-61449500D01*
X101708993Y-61449500D01*
X101571007Y-61449500D01*
X101571005Y-61449500D01*
X101435677Y-61476418D01*
X101435667Y-61476421D01*
X101308195Y-61529221D01*
X101308182Y-61529228D01*
X101193458Y-61605885D01*
X101193454Y-61605888D01*
X101095888Y-61703454D01*
X101095885Y-61703458D01*
X101019228Y-61818182D01*
X101019221Y-61818195D01*
X100966421Y-61945667D01*
X100966418Y-61945677D01*
X100939500Y-62081004D01*
X100939500Y-62081007D01*
X100939500Y-62218993D01*
X100939500Y-62218995D01*
X100939499Y-62218995D01*
X100500500Y-62218995D01*
X100500500Y-59946530D01*
X107699500Y-59946530D01*
X107699500Y-60153469D01*
X107739868Y-60356412D01*
X107739870Y-60356420D01*
X107819058Y-60547596D01*
X107934024Y-60719657D01*
X108080342Y-60865975D01*
X108080345Y-60865977D01*
X108252402Y-60980941D01*
X108443580Y-61060130D01*
X108646530Y-61100499D01*
X108646534Y-61100500D01*
X108646535Y-61100500D01*
X108853466Y-61100500D01*
X108853467Y-61100499D01*
X109056420Y-61060130D01*
X109247598Y-60980941D01*
X109419655Y-60865977D01*
X109565977Y-60719655D01*
X109680941Y-60547598D01*
X109760130Y-60356420D01*
X109800500Y-60153465D01*
X109800500Y-59946535D01*
X109760130Y-59743580D01*
X109680941Y-59552402D01*
X109565977Y-59380345D01*
X109565975Y-59380342D01*
X109419657Y-59234024D01*
X109292781Y-59149249D01*
X109247598Y-59119059D01*
X109056420Y-59039870D01*
X109056412Y-59039868D01*
X108853469Y-58999500D01*
X108853465Y-58999500D01*
X108646535Y-58999500D01*
X108646530Y-58999500D01*
X108443587Y-59039868D01*
X108443579Y-59039870D01*
X108252403Y-59119058D01*
X108080342Y-59234024D01*
X107934024Y-59380342D01*
X107819058Y-59552403D01*
X107739870Y-59743579D01*
X107739868Y-59743587D01*
X107699500Y-59946530D01*
X100500500Y-59946530D01*
X100500500Y-52504066D01*
X100500633Y-52499994D01*
X100994357Y-52499994D01*
X100994357Y-52500005D01*
X101014890Y-52747812D01*
X101014892Y-52747824D01*
X101075936Y-52988881D01*
X101175826Y-53216606D01*
X101311833Y-53424782D01*
X101311836Y-53424785D01*
X101480256Y-53607738D01*
X101676491Y-53760474D01*
X101895190Y-53878828D01*
X102130386Y-53959571D01*
X102375665Y-54000500D01*
X102624335Y-54000500D01*
X102869614Y-53959571D01*
X103104810Y-53878828D01*
X103323509Y-53760474D01*
X103519744Y-53607738D01*
X103688164Y-53424785D01*
X103824173Y-53216607D01*
X103924063Y-52988881D01*
X103934788Y-52946530D01*
X107699500Y-52946530D01*
X107699500Y-53153469D01*
X107739868Y-53356412D01*
X107739870Y-53356420D01*
X107819058Y-53547596D01*
X107934024Y-53719657D01*
X108080342Y-53865975D01*
X108080345Y-53865977D01*
X108252402Y-53980941D01*
X108443580Y-54060130D01*
X108646530Y-54100499D01*
X108646534Y-54100500D01*
X108646535Y-54100500D01*
X108853466Y-54100500D01*
X108853467Y-54100499D01*
X109056420Y-54060130D01*
X109247598Y-53980941D01*
X109419655Y-53865977D01*
X109565977Y-53719655D01*
X109680941Y-53547598D01*
X109760130Y-53356420D01*
X109800500Y-53153465D01*
X109800500Y-52946535D01*
X109760130Y-52743580D01*
X109680941Y-52552402D01*
X109645923Y-52499994D01*
X135994357Y-52499994D01*
X135994357Y-52500005D01*
X136014890Y-52747812D01*
X136014892Y-52747824D01*
X136075936Y-52988881D01*
X136175826Y-53216606D01*
X136311833Y-53424782D01*
X136311836Y-53424785D01*
X136480256Y-53607738D01*
X136676491Y-53760474D01*
X136895190Y-53878828D01*
X137130386Y-53959571D01*
X137375665Y-54000500D01*
X137624335Y-54000500D01*
X137869614Y-53959571D01*
X138104810Y-53878828D01*
X138323509Y-53760474D01*
X138519744Y-53607738D01*
X138688164Y-53424785D01*
X138824173Y-53216607D01*
X138924063Y-52988881D01*
X138985108Y-52747821D01*
X138985459Y-52743587D01*
X139005643Y-52500005D01*
X139005643Y-52499994D01*
X138985109Y-52252187D01*
X138985107Y-52252175D01*
X138924063Y-52011118D01*
X138824173Y-51783393D01*
X138688166Y-51575217D01*
X138619154Y-51500250D01*
X138519744Y-51392262D01*
X138323509Y-51239526D01*
X138323507Y-51239525D01*
X138323506Y-51239524D01*
X138104811Y-51121172D01*
X138104802Y-51121169D01*
X137869616Y-51040429D01*
X137624335Y-50999500D01*
X137375665Y-50999500D01*
X137130383Y-51040429D01*
X136895197Y-51121169D01*
X136895188Y-51121172D01*
X136676493Y-51239524D01*
X136480257Y-51392261D01*
X136311833Y-51575217D01*
X136175826Y-51783393D01*
X136075936Y-52011118D01*
X136014892Y-52252175D01*
X136014890Y-52252187D01*
X135994357Y-52499994D01*
X109645923Y-52499994D01*
X109565977Y-52380345D01*
X109565975Y-52380342D01*
X109419657Y-52234024D01*
X109252752Y-52122503D01*
X109247598Y-52119059D01*
X109056420Y-52039870D01*
X109056412Y-52039868D01*
X108853469Y-51999500D01*
X108853465Y-51999500D01*
X108646535Y-51999500D01*
X108646530Y-51999500D01*
X108443587Y-52039868D01*
X108443579Y-52039870D01*
X108252403Y-52119058D01*
X108080342Y-52234024D01*
X107934024Y-52380342D01*
X107819058Y-52552403D01*
X107739870Y-52743579D01*
X107739868Y-52743587D01*
X107699500Y-52946530D01*
X103934788Y-52946530D01*
X103985108Y-52747821D01*
X103985459Y-52743587D01*
X104005643Y-52500005D01*
X104005643Y-52499994D01*
X103985109Y-52252187D01*
X103985107Y-52252175D01*
X103924063Y-52011118D01*
X103824173Y-51783393D01*
X103688166Y-51575217D01*
X103619154Y-51500250D01*
X103519744Y-51392262D01*
X103323509Y-51239526D01*
X103323507Y-51239525D01*
X103323506Y-51239524D01*
X103104811Y-51121172D01*
X103104802Y-51121169D01*
X102869616Y-51040429D01*
X102624335Y-50999500D01*
X102375665Y-50999500D01*
X102130383Y-51040429D01*
X101895197Y-51121169D01*
X101895188Y-51121172D01*
X101676493Y-51239524D01*
X101480257Y-51392261D01*
X101311833Y-51575217D01*
X101175826Y-51783393D01*
X101075936Y-52011118D01*
X101014892Y-52252175D01*
X101014890Y-52252187D01*
X100994357Y-52499994D01*
X100500633Y-52499994D01*
X100500765Y-52495956D01*
X100504819Y-52434108D01*
X100517075Y-52247102D01*
X100519190Y-52231048D01*
X100567045Y-51990462D01*
X100571243Y-51974797D01*
X100636216Y-51783393D01*
X100650093Y-51742512D01*
X100656291Y-51727547D01*
X100764790Y-51507533D01*
X100772893Y-51493498D01*
X100909182Y-51289527D01*
X100919039Y-51276681D01*
X101080786Y-51092244D01*
X101092244Y-51080786D01*
X101276681Y-50919039D01*
X101289527Y-50909182D01*
X101493498Y-50772893D01*
X101507533Y-50764790D01*
X101727547Y-50656291D01*
X101742512Y-50650093D01*
X101969653Y-50572989D01*
X101974797Y-50571243D01*
X101990464Y-50567045D01*
X102231048Y-50519190D01*
X102247102Y-50517075D01*
X102495957Y-50500765D01*
X102504067Y-50500500D01*
X102565892Y-50500500D01*
X114264424Y-50500500D01*
X114331463Y-50520185D01*
G37*
%TD.AperFunction*%
%TD*%
M02*
